<svg width="76" height="114" xmlns="http://www.w3.org/2000/svg" xmlns:xlink="http://www.w3.org/1999/xlink" xml:space="preserve" overflow="hidden"><g transform="translate(-523 -130)"><path d="M590.804 142.359C570.604 139.323 548.375 145.13 535.113 161.459 528.672 169.294 524.654 178.835 523.551 188.917 522.5 198.78 525.116 208.647 530.021 217.191 535.726 227.136 544.168 235.251 552.904 242.525 553.766 243.342 554.908 243.798 556.096 243.798 557.283 243.798 558.425 243.342 559.287 242.525 560.887 240.925 561.169 237.709 559.287 236.142 546.388 225.405 532.489 211.652 532.343 193.667 532.203 176.467 543.654 161.142 559.243 154.595 568.464 150.799 578.544 149.579 588.405 151.064 590.813 151.426 593.257 150.464 593.957 147.912 594.543 145.781 593.23 142.725 590.805 142.36L590.804 142.359Z" fill="#FFA700"/><path d="M573.381 138.625 591.642 151.045 591.642 143.251C585.846 145.843 580.981 150.146 577.7 155.581 577.101 156.615 576.937 157.843 577.242 158.997 577.547 160.152 578.297 161.139 579.328 161.741 580.359 162.344 581.587 162.513 582.742 162.213 583.898 161.912 584.888 161.166 585.494 160.137 585.839 159.572 586.194 159.018 586.582 158.479 586.844 158.11 587.012 157.902 586.632 158.379 586.856 158.096 587.084 157.817 587.318 157.542 588.178 156.537 589.112 155.596 590.11 154.727 590.337 154.527 590.576 154.346 590.801 154.147 591.201 153.79 590.194 154.576 590.886 154.08 591.473 153.659 592.064 153.248 592.678 152.868 593.805 152.175 594.982 151.565 596.197 151.042 596.884 150.651 597.454 150.083 597.847 149.397 598.24 148.712 598.442 147.933 598.432 147.142 598.42 146.356 598.208 145.586 597.817 144.904 597.426 144.222 596.869 143.65 596.197 143.242L577.937 130.831C576.902 130.234 575.673 130.069 574.516 130.372 573.36 130.675 572.37 131.422 571.761 132.45 571.186 133.49 571.033 134.712 571.334 135.862 571.636 137.012 572.369 138.001 573.381 138.625Z" fill="#FFA700"/></g></svg>