<svg width="82" height="106" viewBox="0 0 82 106" fill="none" xmlns="http://www.w3.org/2000/svg">
<path d="M27.0424 91.7593C48.5161 88.8382 65.6967 71.3699 67.3306 49.6043C68.1251 38.9232 65.2106 28.2949 59.0787 19.5132C52.5537 10.406 41.0585 2.96935 29.8034 8.53426C24.4762 11.1687 21.3182 16.8003 20.5775 22.5471C19.6365 29.8556 22.3901 36.7882 25.8116 43.1006C27.9989 47.1371 34.0905 43.4169 31.9033 39.3773C29.4571 34.8626 27.2838 29.939 27.5049 24.6949C27.6552 21.1303 29.1669 17.2743 32.2846 15.3078C40.3185 10.2421 49.2914 17.7132 53.6136 24.1336C63.2562 38.468 62.4583 58.3709 50.9528 71.4104C44.776 78.5189 36.2752 83.2025 26.9662 84.626C25.0638 84.8844 23.4106 86.1355 23.4332 88.2315C23.4571 89.9692 25.122 92.0239 27.0424 91.7593Z" fill="white"/>
<path d="M48.5592 92.5515L25.4137 85.2306L27.6513 90.4147L38.0359 69.3774C38.4743 68.5455 38.5743 67.5765 38.3151 66.6726C38.056 65.7688 37.4576 65 36.645 64.5268C35.8153 64.0779 34.8427 63.9721 33.9359 64.2321C33.029 64.4922 32.2603 65.0973 31.7945 65.9177L21.41 86.9592C21.1576 87.4383 21.0157 87.9679 20.9947 88.509C20.9737 89.0502 21.0742 89.5892 21.2889 90.0864C21.5035 90.5836 21.8267 91.0265 22.2349 91.3824C22.6431 91.7383 23.1258 91.9983 23.6476 92.1432L46.7944 99.4647C47.711 99.688 48.6786 99.5433 49.4898 99.0618C50.3011 98.5803 50.8914 97.8002 51.1345 96.8886C51.3509 95.9724 51.2033 95.008 50.7227 94.1985C50.2422 93.3889 49.4663 92.7974 48.5584 92.5486L48.5592 92.5515Z" fill="white"/>
</svg>
