<svg width="95" height="85" viewBox="0 0 95 85" fill="none" xmlns="http://www.w3.org/2000/svg">
<path d="M59.9279 27.996L64.3882 8.36251L59.4094 10.2737L73.0085 20.8154L74.9504 22.3194C75.5901 22.8317 76.4072 23.069 77.2218 22.979C78.0365 22.8889 78.782 22.4789 79.2944 21.8392C79.8068 21.1995 80.044 20.3825 79.954 19.5678C79.8639 18.7532 79.454 18.0076 78.8143 17.4953L65.2161 6.95858L63.275 5.45426C62.8504 5.12802 62.3491 4.91627 61.8191 4.83927C61.2892 4.76228 60.7484 4.82263 60.2484 5.01454C59.7485 5.20644 59.3062 5.52349 58.9639 5.9353C58.6216 6.34712 58.3907 6.83992 58.2935 7.36651L53.8332 27C53.7007 27.8088 53.8948 28.6371 54.373 29.3028C54.8512 29.9684 55.5743 30.4169 56.3831 30.5494C57.1919 30.682 58.0203 30.4878 58.6859 30.0096C59.3516 29.5314 59.8 28.8084 59.9325 27.9996L59.9279 27.996Z" fill="#FFA700"/>
<path d="M24.7561 82.8931C30.2747 80.0654 35.0327 75.9526 38.6291 70.9011C42.2255 65.8497 44.5549 60.0077 45.4208 53.8676C46.272 47.189 45.2567 39.2088 39.5179 34.8456C34.3566 30.9238 26.3435 30.8152 22.4999 36.6491C18.6104 42.5532 20.3515 49.7009 24.0953 55.1845C26.0845 57.9633 28.2774 60.5905 30.6558 63.0445C32.6925 65.3586 34.98 67.4393 37.4761 69.2483C42.7852 72.88 49.2423 74.2285 55.2909 71.5435C58.2692 70.1355 60.9221 68.1233 63.0811 65.635C65.2401 63.1466 66.8579 60.2364 67.8319 57.0892C70.2772 49.7472 70.4371 41.7423 70.0564 34.0787C69.6055 25.6636 68.1373 17.3341 65.684 9.27192C65.3845 8.5114 64.7983 7.89895 64.0516 7.56649C63.3049 7.23404 62.4575 7.20819 61.6919 7.49452C60.9368 7.80084 60.3298 8.38785 59.9984 9.13225C59.667 9.87666 59.6369 10.7205 59.9145 11.4866C63.5043 23.0251 64.7718 35.1605 63.6438 47.1917C63.0744 52.4222 61.7472 57.7742 58.2355 61.8441C55.1804 65.3819 50.5482 67.6656 45.8464 66.5173C41.3974 65.4305 37.828 61.8134 34.8525 58.5264C31.3859 54.6942 26.7422 50.187 26.4438 44.7134C26.2174 40.5993 29.0748 37.0795 33.3805 38.4794C38.4151 40.118 39.7361 45.9564 39.5242 50.6587C39.1913 56.1536 37.4554 61.4715 34.4822 66.1047C31.5091 70.7378 27.398 74.5315 22.5414 77.1235C21.7914 77.4362 21.1895 78.024 20.859 78.7663C20.5285 79.5085 20.4945 80.3491 20.764 81.1157C21.3112 82.5412 23.2642 83.6639 24.7561 82.8931Z" fill="#FFA700"/>
</svg>
