<svg width="288" height="74" viewBox="0 0 288 74" fill="none" xmlns="http://www.w3.org/2000/svg">
<path d="M13.0378 22.264C13.6858 23.83 14.2528 25.828 14.7388 28.258L15.9538 24.37C17.0878 21.454 18.5458 19.402 20.3278 18.214C21.0838 17.728 21.8938 17.485 22.7578 17.485C23.2978 17.485 23.7028 17.539 23.9728 17.647C25.2688 18.079 26.2408 19.213 26.8888 21.049C27.2128 22.075 27.4018 23.317 27.4558 24.775C27.5638 26.233 27.5908 27.313 27.5368 28.015L27.4558 31.336C27.3478 32.848 27.2938 33.955 27.2938 34.657C27.2938 35.521 27.3478 36.736 27.4558 38.302C27.5638 39.868 27.6448 41.029 27.6988 41.785C27.9148 44.701 28.0228 46.537 28.0228 47.293C28.0228 48.049 27.7528 48.67 27.2128 49.156C26.7268 49.696 26.1058 49.966 25.3498 49.966C24.6478 49.966 24.0268 49.723 23.4868 49.237C23.0008 48.751 22.7308 48.157 22.6768 47.455L22.4338 43.81C22.0558 38.302 21.8938 34.873 21.9478 33.523C22.0558 32.335 22.1638 30.445 22.2718 27.853C22.2718 26.449 22.2178 25.234 22.1098 24.208C22.1098 24.1 22.0828 24.019 22.0288 23.965C21.8128 24.289 21.4618 25.072 20.9758 26.314C20.4898 27.61 19.8418 29.905 19.0318 33.199L18.5458 35.305C18.4918 35.521 18.3298 36.331 18.0598 37.735C17.7898 39.085 17.4658 40.165 17.0878 40.975C16.5478 42.109 15.7378 42.784 14.6578 43C14.0098 43.108 13.3618 43 12.7138 42.676C12.1198 42.352 11.6608 41.758 11.3368 40.894C11.1208 40.3 10.9318 39.382 10.7698 38.14C10.6618 36.844 10.5808 36.115 10.5268 35.953C10.0408 31.471 9.4198 28.123 8.6638 25.909C8.4478 25.207 8.2048 24.64 7.9348 24.208C7.6108 24.856 7.3948 25.369 7.2868 25.747C6.6928 27.475 6.2608 29.581 5.9908 32.065C5.7208 34.495 5.6128 36.736 5.6668 38.788C5.7748 40.3 5.9098 41.245 6.0718 41.623C6.2338 41.947 6.3148 42.325 6.3148 42.757C6.3148 43.243 6.1798 43.702 5.9098 44.134C5.6398 44.566 5.2618 44.89 4.7758 45.106C4.3978 45.268 4.0198 45.349 3.6418 45.349C3.1558 45.349 2.6698 45.214 2.1838 44.944C1.7518 44.674 1.4278 44.323 1.2118 43.891C0.617801 42.379 0.320801 40.138 0.320801 37.168C0.320801 35.062 0.482801 32.821 0.806801 30.445C1.1848 28.015 1.6438 25.882 2.1838 24.046C2.8318 22.264 3.5878 20.833 4.4518 19.753C5.4238 18.619 6.6118 18.052 8.0158 18.052C8.9878 18.052 9.9058 18.43 10.7698 19.186C11.6878 19.888 12.4438 20.914 13.0378 22.264ZM44.7335 23.479L45.7055 23.803L46.1915 22.75C46.6235 21.778 47.3525 21.292 48.3785 21.292C48.8105 21.292 49.2155 21.373 49.5935 21.535C50.0255 21.697 50.3225 21.832 50.4845 21.94C51.0785 22.642 51.4025 23.452 51.4565 24.37C51.4565 25.018 51.3485 25.828 51.1325 26.8C50.9705 27.718 50.8625 28.258 50.8085 28.42L50.3225 31.579C49.8365 34.117 49.5935 36.223 49.5935 37.897C49.5935 38.437 49.6475 39.139 49.7555 40.003C49.8635 40.759 49.6745 41.434 49.1885 42.028C48.7565 42.568 48.1895 42.892 47.4875 43C46.7315 43.108 46.0565 42.919 45.4625 42.433C44.8685 41.947 44.5445 41.353 44.4905 40.651C44.3825 39.571 44.3285 38.761 44.3285 38.221V37.33C43.0865 38.842 41.8715 40.003 40.6835 40.813C39.2795 41.785 37.8755 42.271 36.4715 42.271C35.8235 42.271 35.3375 42.217 35.0135 42.109C33.5555 41.731 32.3405 40.867 31.3685 39.517C30.2345 38.005 29.6675 36.277 29.6675 34.333C29.6675 32.551 30.1265 30.877 31.0445 29.311C31.8545 27.853 32.9345 26.611 34.2845 25.585C35.6885 24.505 37.1735 23.776 38.7395 23.398C39.2795 23.29 40.3325 23.236 41.8985 23.236C42.9785 23.236 43.9235 23.317 44.7335 23.479ZM43.5185 28.987C43.5185 28.987 43.4105 28.879 43.1945 28.663L42.2225 28.501C41.0885 28.501 40.3055 28.555 39.8735 28.663C39.0635 28.825 38.2805 29.23 37.5245 29.878C36.7685 30.472 36.1475 31.174 35.6615 31.984C35.2295 32.74 35.0135 33.523 35.0135 34.333C35.0135 35.089 35.2295 35.764 35.6615 36.358C35.9315 36.736 36.1745 36.925 36.3905 36.925C36.6065 36.979 36.9035 36.871 37.2815 36.601C38.0375 36.223 38.9555 35.44 40.0355 34.252C41.5475 32.416 42.6545 30.742 43.3565 29.23L43.5185 28.987ZM70.2535 38.302C70.6855 38.518 71.0095 38.842 71.2255 39.274C71.4955 39.652 71.6305 40.084 71.6305 40.57C71.6305 41.056 71.5225 41.488 71.3065 41.866C71.0365 42.298 70.6855 42.649 70.2535 42.919C69.8755 43.189 69.4435 43.324 68.9575 43.324C68.6875 43.324 68.2825 43.216 67.7425 43C66.3925 42.298 65.0425 41.434 63.6925 40.408C62.3965 39.382 60.9115 38.14 59.2375 36.682C59.5615 39.652 59.8585 41.812 60.1285 43.162C60.2365 43.972 60.0205 44.674 59.4805 45.268C58.9405 45.916 58.2925 46.24 57.5365 46.24C56.8885 46.24 56.2945 46.024 55.7545 45.592C55.2685 45.16 54.9715 44.62 54.8635 43.972C53.6755 36.79 53.0815 27.934 53.0815 17.404V13.597C53.0815 12.733 53.1085 12.085 53.1625 11.653C53.1625 9.709 53.2435 7.765 53.4055 5.821L53.5675 3.229C53.6215 2.473 53.9185 1.879 54.4585 1.447C55.0525 0.960999 55.7005 0.744998 56.4025 0.798998C57.1045 0.852997 57.6985 1.15 58.1845 1.69C58.7245 2.23 58.9675 2.878 58.9135 3.634C58.9135 3.904 58.8865 4.336 58.8325 4.93C58.7785 5.47 58.7245 5.902 58.6705 6.226C58.5085 8.71 58.4275 11.194 58.4275 13.678C58.4275 18.484 58.4545 22.075 58.5085 24.451L63.0445 18.052C63.5845 17.35 64.3135 16.999 65.2315 16.999C65.7715 16.999 66.2845 17.161 66.7705 17.485C67.5265 18.079 67.9045 18.781 67.9045 19.591C67.9045 20.077 67.7155 20.617 67.3375 21.211L65.6365 23.641C65.2585 24.181 64.7185 24.937 64.0165 25.909C63.3145 26.881 62.7205 27.745 62.2345 28.501L60.7765 30.85L61.7485 31.66C63.3685 33.226 64.8265 34.549 66.1225 35.629C67.4725 36.655 68.8495 37.546 70.2535 38.302ZM77.5853 33.28L77.0993 33.361C77.2613 34.657 77.5583 35.683 77.9903 36.439C78.3683 37.249 78.8273 37.735 79.3673 37.897C79.5293 37.951 79.7453 37.978 80.0153 37.978C80.8793 37.978 81.9863 37.411 83.3363 36.277C83.7683 35.899 84.3083 35.71 84.9563 35.71C85.8203 35.71 86.5223 36.034 87.0623 36.682C87.4403 37.114 87.6293 37.681 87.6293 38.383C87.6293 39.247 87.3053 39.922 86.6573 40.408C84.2813 42.352 81.9863 43.324 79.7723 43.324C77.2883 43.324 75.2903 42.136 73.7783 39.76C72.3203 37.384 71.5913 34.468 71.5913 31.012C71.5913 29.122 71.8073 27.313 72.2393 25.585C72.7253 23.803 73.3733 22.318 74.1833 21.13C75.8573 18.7 77.9363 17.485 80.4203 17.485C80.9063 17.485 81.2573 17.512 81.4733 17.566C82.7153 17.782 83.6333 18.268 84.2273 19.024C84.9293 19.672 85.3073 20.536 85.3613 21.616C85.5233 22.588 85.3073 23.938 84.7133 25.666C84.1193 27.286 83.3633 28.69 82.4453 29.878C81.5273 31.012 80.6633 31.849 79.8533 32.389C79.5833 32.605 79.1783 32.794 78.6383 32.956C78.0983 33.118 77.7473 33.226 77.5853 33.28ZM79.6913 23.965L79.9343 22.912C79.1783 23.182 78.5573 23.911 78.0713 25.099C77.6933 25.801 77.4233 26.665 77.2613 27.691C77.7473 27.205 78.0983 26.8 78.3143 26.476C78.6383 26.044 79.0973 25.207 79.6913 23.965ZM112.294 11.329C112.294 12.031 112.024 12.652 111.484 13.192C110.998 13.678 110.377 13.921 109.621 13.921C109.027 13.921 108.46 13.732 107.92 13.354C107.434 12.922 107.137 12.382 107.029 11.734C107.029 10.87 107.164 10.195 107.434 9.709C107.758 9.169 108.352 8.818 109.216 8.656C110.026 8.548 110.728 8.764 111.322 9.304C111.97 9.79 112.294 10.465 112.294 11.329ZM107.11 20.887C107.11 20.131 107.38 19.51 107.92 19.024C108.46 18.484 109.081 18.214 109.783 18.214C110.539 18.214 111.16 18.484 111.646 19.024C112.186 19.564 112.456 20.212 112.456 20.968C112.456 22.48 112.483 25.531 112.537 30.121C112.591 34.711 112.78 37.978 113.104 39.922C113.212 40.678 113.05 41.353 112.618 41.947C112.186 42.541 111.619 42.892 110.917 43C110.161 43.108 109.486 42.946 108.892 42.514C108.298 42.028 107.947 41.434 107.839 40.732C107.515 38.68 107.299 35.278 107.191 30.526C107.137 25.72 107.11 22.507 107.11 20.887ZM129.93 36.115C130.47 36.655 130.74 37.303 130.74 38.059C130.74 38.815 130.497 39.436 130.011 39.922C127.959 41.974 125.961 43 124.017 43C122.019 42.892 120.426 41.812 119.238 39.76C117.942 37.33 117.132 32.848 116.808 26.314L113.568 26.638C112.812 26.692 112.137 26.449 111.543 25.909C110.949 25.369 110.652 24.721 110.652 23.965C110.652 23.263 110.895 22.669 111.381 22.183C111.813 21.697 112.38 21.4 113.082 21.292L116.808 20.887V19.024C116.808 17.998 116.835 17.242 116.889 16.756C116.889 16.486 116.916 16.27 116.97 16.108C116.916 16 116.889 15.892 116.889 15.784C116.943 15.676 116.97 15.568 116.97 15.46C117.186 14.38 117.591 13.759 118.185 13.597C118.779 13.381 119.4 13.273 120.048 13.273C121.452 13.543 122.208 14.353 122.316 15.703L122.235 17.08C122.181 17.512 122.154 18.214 122.154 19.186C122.154 19.726 122.127 20.131 122.073 20.401L124.746 20.158C125.502 20.05 126.177 20.266 126.771 20.806C127.365 21.346 127.662 22.021 127.662 22.831C127.662 23.479 127.419 24.073 126.933 24.613C126.501 25.099 125.961 25.369 125.313 25.423L122.154 25.747C122.316 30.229 122.694 33.55 123.288 35.71C123.396 36.088 123.558 36.493 123.774 36.925C124.044 37.303 124.206 37.546 124.26 37.654L124.665 37.411C124.881 37.303 125.394 36.898 126.204 36.196C126.69 35.656 127.338 35.386 128.148 35.386C128.85 35.386 129.444 35.629 129.93 36.115ZM163.261 21.13C165.313 21.994 166.879 23.398 167.959 25.342C169.093 27.286 169.66 29.419 169.66 31.741C169.66 34.765 168.742 37.411 166.906 39.679C165.124 41.893 162.748 43 159.778 43C157.348 43 155.35 42.298 153.784 40.894C152.218 39.49 151.138 37.654 150.544 35.386C150.274 34.144 150.139 32.983 150.139 31.903C150.139 29.041 150.814 26.584 152.164 24.532C152.704 23.722 153.406 23.02 154.27 22.426C155.134 21.778 156.079 21.292 157.105 20.968C157.915 20.698 158.887 20.563 160.021 20.563C161.209 20.563 162.289 20.752 163.261 21.13ZM161.155 26.071C160.831 25.909 160.453 25.828 160.021 25.828C159.589 25.828 159.157 25.909 158.725 26.071C157.753 26.341 157.078 26.8 156.7 27.448C155.89 28.744 155.485 30.229 155.485 31.903C155.485 32.605 155.566 33.334 155.728 34.09C155.998 35.116 156.457 35.98 157.105 36.682C157.753 37.33 158.617 37.654 159.697 37.654C161.155 37.654 162.289 37.06 163.099 35.872C163.909 34.684 164.314 33.307 164.314 31.741C164.314 30.445 164.044 29.311 163.504 28.339C163.018 27.313 162.235 26.557 161.155 26.071ZM191.266 18.781C191.374 19.159 191.428 19.834 191.428 20.806C191.428 22.804 190.861 25.801 189.727 29.797C189.619 30.337 189.295 30.796 188.755 31.174C188.269 31.552 187.729 31.741 187.135 31.741C186.379 31.741 185.758 31.498 185.272 31.012C184.786 30.472 184.543 29.851 184.543 29.149C184.543 28.771 184.57 28.501 184.624 28.339C184.84 27.691 185.083 26.746 185.353 25.504C185.677 24.262 185.92 23.074 186.082 21.94V21.616C184.948 22.48 183.814 23.911 182.68 25.909C181.762 27.583 180.709 30.148 179.521 33.604C179.251 34.414 178.9 35.683 178.468 37.411L177.739 40.165H177.82C177.766 40.273 177.712 40.435 177.658 40.651C177.604 40.813 177.523 41.002 177.415 41.218C177.253 41.758 177.037 42.109 176.767 42.271C176.281 42.811 175.687 43.081 174.985 43.081C174.661 43.081 174.418 43.054 174.256 43C173.284 42.73 172.609 42.109 172.231 41.137C172.015 40.543 171.907 38.815 171.907 35.953L171.421 23.479L171.259 19.267C171.259 18.511 171.502 17.863 171.988 17.323C172.528 16.783 173.149 16.513 173.851 16.513C174.607 16.459 175.255 16.702 175.795 17.242C176.335 17.728 176.605 18.322 176.605 19.024L176.767 23.236L176.848 25.666C177.55 24.154 178.279 22.804 179.035 21.616C180.817 18.97 182.842 17.107 185.11 16.027C185.92 15.649 186.703 15.46 187.459 15.46C187.891 15.46 188.431 15.568 189.079 15.784C190.213 16.378 190.942 17.377 191.266 18.781ZM177.82 40.084V40.165V40.084ZM205.019 23.479C205.775 23.479 206.477 23.587 207.125 23.803C207.341 23.371 207.503 23.101 207.611 22.993C208.205 22.399 208.934 22.102 209.798 22.102C210.662 22.102 211.364 22.48 211.904 23.236C212.336 23.83 212.66 24.964 212.876 26.638C213.254 29.662 213.443 33.928 213.443 39.436C213.443 44.134 213.254 48.562 212.876 52.72C212.444 58.498 211.607 63.034 210.365 66.328C209.393 69.19 208.07 71.242 206.396 72.484C204.992 73.402 203.696 73.861 202.508 73.861C201.914 73.861 201.374 73.78 200.888 73.618C199.322 73.186 198.053 72.241 197.081 70.783C196.433 69.865 195.866 68.758 195.38 67.462C194.894 66.22 194.516 65.113 194.246 64.141C194.03 63.223 193.895 62.629 193.841 62.359C193.733 61.549 193.949 60.82 194.489 60.172C195.029 59.578 195.704 59.281 196.514 59.281C197.108 59.281 197.648 59.47 198.134 59.848C198.674 60.28 198.998 60.82 199.106 61.468C199.268 61.954 199.511 62.845 199.835 64.141C200.213 65.437 200.591 66.49 200.969 67.3C201.347 68.11 201.806 68.515 202.346 68.515C203.426 68.515 204.425 67.219 205.343 64.627C206.423 61.603 207.179 57.472 207.611 52.234C207.935 48.94 208.097 44.755 208.097 39.679V36.52C207.125 38.248 206.018 39.679 204.776 40.813C202.994 42.595 201.077 43.486 199.025 43.486C198.215 43.486 197.405 43.324 196.595 43C193.679 41.758 192.221 39.679 192.221 36.763C192.221 36.385 192.275 35.818 192.383 35.062C192.761 33.118 193.706 31.147 195.218 29.149C196.784 27.151 198.512 25.666 200.402 24.694C202.022 23.884 203.561 23.479 205.019 23.479ZM205.748 29.23L205.1 28.825C204.452 28.825 203.696 29.041 202.832 29.473C201.806 30.013 200.834 30.796 199.916 31.822C199.052 32.794 198.404 33.82 197.972 34.9C197.648 35.656 197.486 36.196 197.486 36.52C197.486 36.79 197.567 37.06 197.729 37.33C197.891 37.654 198.215 37.897 198.701 38.059C199.079 38.221 199.43 38.221 199.754 38.059C200.132 37.843 200.564 37.492 201.05 37.006C201.968 36.088 202.805 34.954 203.561 33.604C204.371 32.254 204.992 31.039 205.424 29.959L205.748 29.23ZM230.148 23.479L231.12 23.803L231.606 22.75C232.038 21.778 232.767 21.292 233.793 21.292C234.225 21.292 234.63 21.373 235.008 21.535C235.44 21.697 235.737 21.832 235.899 21.94C236.493 22.642 236.817 23.452 236.871 24.37C236.871 25.018 236.763 25.828 236.547 26.8C236.385 27.718 236.277 28.258 236.223 28.42L235.737 31.579C235.251 34.117 235.008 36.223 235.008 37.897C235.008 38.437 235.062 39.139 235.17 40.003C235.278 40.759 235.089 41.434 234.603 42.028C234.171 42.568 233.604 42.892 232.902 43C232.146 43.108 231.471 42.919 230.877 42.433C230.283 41.947 229.959 41.353 229.905 40.651C229.797 39.571 229.743 38.761 229.743 38.221V37.33C228.501 38.842 227.286 40.003 226.098 40.813C224.694 41.785 223.29 42.271 221.886 42.271C221.238 42.271 220.752 42.217 220.428 42.109C218.97 41.731 217.755 40.867 216.783 39.517C215.649 38.005 215.082 36.277 215.082 34.333C215.082 32.551 215.541 30.877 216.459 29.311C217.269 27.853 218.349 26.611 219.699 25.585C221.103 24.505 222.588 23.776 224.154 23.398C224.694 23.29 225.747 23.236 227.313 23.236C228.393 23.236 229.338 23.317 230.148 23.479ZM228.933 28.987C228.933 28.987 228.825 28.879 228.609 28.663L227.637 28.501C226.503 28.501 225.72 28.555 225.288 28.663C224.478 28.825 223.695 29.23 222.939 29.878C222.183 30.472 221.562 31.174 221.076 31.984C220.644 32.74 220.428 33.523 220.428 34.333C220.428 35.089 220.644 35.764 221.076 36.358C221.346 36.736 221.589 36.925 221.805 36.925C222.021 36.979 222.318 36.871 222.696 36.601C223.452 36.223 224.37 35.44 225.45 34.252C226.962 32.416 228.069 30.742 228.771 29.23L228.933 28.987ZM252.347 28.663L252.59 26.314C251.078 28.312 249.647 30.607 248.297 33.199C247.001 35.737 246.299 37.141 246.191 37.411C246.137 37.519 245.867 38.194 245.381 39.436C244.895 40.678 244.409 41.623 243.923 42.271C243.491 42.811 243.032 43.189 242.546 43.405C242.06 43.675 241.601 43.783 241.169 43.729C240.467 43.729 239.873 43.486 239.387 43C239.225 42.892 239.036 42.622 238.82 42.19C238.604 41.758 238.496 41.218 238.496 40.57C238.442 39.166 238.604 35.872 238.982 30.688C239.36 25.45 239.63 21.94 239.792 20.158C239.846 19.402 240.143 18.781 240.683 18.295C241.277 17.809 241.952 17.593 242.708 17.647C243.41 17.701 244.004 18.025 244.49 18.619C244.976 19.159 245.192 19.807 245.138 20.563C245.084 21.049 244.976 22.102 244.814 23.722C244.706 25.288 244.571 27.178 244.409 29.392C247.055 24.802 249.161 21.778 250.727 20.32C251.861 19.24 253.103 18.754 254.453 18.862C255.695 19.078 256.64 19.807 257.288 21.049C257.72 22.129 257.936 23.614 257.936 25.504C257.936 26.53 257.855 27.772 257.693 29.23C257.585 30.04 257.018 32.848 255.992 37.654C255.02 42.406 254.345 45.646 253.967 47.374C253.859 48.076 253.481 48.616 252.833 48.994C252.239 49.426 251.564 49.588 250.808 49.48C250.106 49.318 249.539 48.913 249.107 48.265C248.729 47.671 248.621 46.996 248.783 46.24C249.161 44.566 249.836 41.407 250.808 36.763C251.78 32.119 252.293 29.419 252.347 28.663ZM264.802 11.329C264.802 12.031 264.532 12.652 263.992 13.192C263.506 13.678 262.885 13.921 262.129 13.921C261.535 13.921 260.968 13.732 260.428 13.354C259.942 12.922 259.645 12.382 259.537 11.734C259.537 10.87 259.672 10.195 259.942 9.709C260.266 9.169 260.86 8.818 261.724 8.656C262.534 8.548 263.236 8.764 263.83 9.304C264.478 9.79 264.802 10.465 264.802 11.329ZM259.618 20.887C259.618 20.131 259.888 19.51 260.428 19.024C260.968 18.484 261.589 18.214 262.291 18.214C263.047 18.214 263.668 18.484 264.154 19.024C264.694 19.564 264.964 20.212 264.964 20.968C264.964 22.48 264.991 25.531 265.045 30.121C265.099 34.711 265.288 37.978 265.612 39.922C265.72 40.678 265.558 41.353 265.126 41.947C264.694 42.541 264.127 42.892 263.425 43C262.669 43.108 261.994 42.946 261.4 42.514C260.806 42.028 260.455 41.434 260.347 40.732C260.023 38.68 259.807 35.278 259.699 30.526C259.645 25.72 259.618 22.507 259.618 20.887ZM282.518 23.317C282.626 23.749 282.68 24.046 282.68 24.208C282.68 24.964 282.41 25.612 281.87 26.152C281.384 26.638 280.763 26.881 280.007 26.881C279.467 26.881 278.954 26.719 278.468 26.395C278.036 26.071 277.712 25.612 277.496 25.018C277.496 24.964 277.442 24.856 277.334 24.694C277.28 24.532 277.145 24.424 276.929 24.37C276.875 24.316 276.767 24.343 276.605 24.451C276.443 24.505 276.335 24.532 276.281 24.532C275.201 25.018 274.337 25.801 273.689 26.881C273.041 27.907 272.663 29.041 272.555 30.283L272.474 31.498C272.474 32.2 272.555 32.875 272.717 33.523C272.825 34.279 273.041 35.008 273.365 35.71C274.013 36.898 274.58 37.546 275.066 37.654H275.309C275.633 37.654 275.957 37.573 276.281 37.411C276.983 37.087 277.685 36.574 278.387 35.872C279.197 35.062 279.926 34.171 280.574 33.199C281.222 32.173 281.681 31.228 281.951 30.364C282.113 29.77 282.41 29.311 282.842 28.987C283.328 28.663 283.868 28.501 284.462 28.501C285.218 28.501 285.839 28.771 286.325 29.311C286.865 29.851 287.135 30.472 287.135 31.174C287.135 31.498 287.108 31.741 287.054 31.903C286.568 33.523 285.677 35.224 284.381 37.006C283.085 38.788 281.708 40.219 280.25 41.299C278.63 42.433 276.956 43 275.228 43C272.366 43 270.152 41.353 268.586 38.059C267.992 36.871 267.614 35.656 267.452 34.414C267.29 33.442 267.209 32.443 267.209 31.417C267.209 28.879 267.803 26.557 268.991 24.451C270.179 22.291 271.853 20.725 274.013 19.753C275.147 19.267 276.119 19.024 276.929 19.024C277.577 19.024 278.144 19.105 278.63 19.267C279.494 19.537 280.196 19.996 280.736 20.644C281.33 21.238 281.762 21.805 282.032 22.345C282.302 22.831 282.464 23.155 282.518 23.317Z" fill="#FFA700"/>
</svg>
