<svg width="156" height="62" viewBox="0 0 156 62" fill="none" xmlns="http://www.w3.org/2000/svg">
<path d="M2.99429 57.2897C2.94029 57.1817 2.91329 57.0467 2.91329 56.8847L2.83229 56.2367C2.34629 53.5367 1.88729 49.4867 1.45529 44.0867L1.29329 41.6567C0.645289 32.2607 0.321289 24.9977 0.321289 19.8677C0.321289 17.0057 0.402289 14.4137 0.564289 12.0917C0.834289 8.31167 1.37429 5.47667 2.18429 3.58667C2.72429 2.29067 3.42629 1.39967 4.29029 0.91367C4.88429 0.535668 5.55929 0.346668 6.31529 0.346668C7.88129 0.346668 9.28529 1.15667 10.5273 2.77667C11.7153 4.34267 12.7683 6.31367 13.6863 8.68967C14.6043 11.0657 15.1443 12.4157 15.3063 12.7397C16.7103 16.1417 18.6003 21.3527 20.9763 28.3727C23.3523 35.3927 25.2423 40.6307 26.6463 44.0867C27.3483 46.1927 27.8613 47.6777 28.1853 48.5417C28.4013 46.6517 28.5093 44.4377 28.5093 41.8997C28.9953 34.7717 29.2383 28.4537 29.2383 22.9457C29.2383 20.0837 29.1573 17.3567 28.9953 14.7647C28.7253 10.6607 28.1853 7.79867 27.3753 6.17867C27.2133 5.85467 27.1323 5.47667 27.1323 5.04467C27.1323 4.34267 27.3753 3.72167 27.8613 3.18167C28.4013 2.58767 29.0493 2.29067 29.8053 2.29067C30.8853 2.29067 31.6683 2.80367 32.1543 3.82967C33.2343 5.93567 33.9633 9.47267 34.3413 14.4407C34.5033 17.0867 34.5843 19.8947 34.5843 22.8647C34.5843 28.5887 34.3413 35.0147 33.8553 42.1427C33.8553 42.3587 33.8013 44.0057 33.6933 47.0837C33.5853 50.1077 33.0993 52.5377 32.2353 54.3737C31.8573 55.2917 31.3443 55.9667 30.6963 56.3987C30.0483 56.8307 29.3733 57.0467 28.6713 57.0467C28.1853 57.1007 27.6183 56.9657 26.9703 56.6417C26.3763 56.3177 25.8363 55.8047 25.3503 55.1027C24.7023 54.1307 24.0003 52.6457 23.2443 50.6477C22.5423 48.6497 22.0293 47.1377 21.7053 46.1117C19.9773 41.8997 18.1143 36.7157 16.1163 30.5597C15.7923 29.5877 15.0363 27.4277 13.8483 24.0797C12.6603 20.7317 11.4993 17.6537 10.3653 14.8457C10.3113 14.6297 9.96029 13.6847 9.31229 12.0107C8.66429 10.2827 7.90829 8.63567 7.04429 7.06967L6.72029 6.66467L6.63929 6.98867C6.26129 8.44667 6.01829 10.2827 5.91029 12.4967C5.74829 14.7647 5.66729 17.2757 5.66729 20.0297C5.66729 24.9977 5.99129 32.0177 6.63929 41.0897L6.80129 43.6817L6.96329 45.3827C7.28729 49.8107 7.66529 53.0777 8.09729 55.1837C8.09729 55.2377 8.12429 55.4267 8.17829 55.7507C8.23229 56.0747 8.25929 56.5067 8.25929 57.0467V57.2897C8.15129 58.1537 7.82729 58.7747 7.28729 59.1527C6.74729 59.4767 6.18029 59.6387 5.58629 59.6387C4.93829 59.6387 4.34429 59.4227 3.80429 58.9907C3.31829 58.5587 3.04829 57.9917 2.99429 57.2897ZM49.3554 37.7687C51.4074 38.6327 52.9734 40.0367 54.0534 41.9807C55.1874 43.9247 55.7544 46.0577 55.7544 48.3797C55.7544 51.4037 54.8364 54.0497 53.0004 56.3177C51.2184 58.5317 48.8424 59.6387 45.8724 59.6387C43.4424 59.6387 41.4444 58.9367 39.8784 57.5327C38.3124 56.1287 37.2324 54.2927 36.6384 52.0247C36.3684 50.7827 36.2334 49.6217 36.2334 48.5417C36.2334 45.6797 36.9084 43.2227 38.2584 41.1707C38.7984 40.3607 39.5004 39.6587 40.3644 39.0647C41.2284 38.4167 42.1734 37.9307 43.1994 37.6067C44.0094 37.3367 44.9814 37.2017 46.1154 37.2017C47.3034 37.2017 48.3834 37.3907 49.3554 37.7687ZM47.2494 42.7097C46.9254 42.5477 46.5474 42.4667 46.1154 42.4667C45.6834 42.4667 45.2514 42.5477 44.8194 42.7097C43.8474 42.9797 43.1724 43.4387 42.7944 44.0867C41.9844 45.3827 41.5794 46.8677 41.5794 48.5417C41.5794 49.2437 41.6604 49.9727 41.8224 50.7287C42.0924 51.7547 42.5514 52.6187 43.1994 53.3207C43.8474 53.9687 44.7114 54.2927 45.7914 54.2927C47.2494 54.2927 48.3834 53.6987 49.1934 52.5107C50.0034 51.3227 50.4084 49.9457 50.4084 48.3797C50.4084 47.0837 50.1384 45.9497 49.5984 44.9777C49.1124 43.9517 48.3294 43.1957 47.2494 42.7097ZM72.5815 52.7537C73.1215 53.2937 73.3915 53.9417 73.3915 54.6977C73.3915 55.4537 73.1485 56.0747 72.6625 56.5607C70.6105 58.6127 68.6125 59.6387 66.6685 59.6387C64.6705 59.5307 63.0775 58.4507 61.8895 56.3987C60.5935 53.9687 59.7835 49.4867 59.4595 42.9527L56.2195 43.2767C55.4635 43.3307 54.7885 43.0877 54.1945 42.5477C53.6005 42.0077 53.3035 41.3597 53.3035 40.6037C53.3035 39.9017 53.5465 39.3077 54.0325 38.8217C54.4645 38.3357 55.0315 38.0387 55.7335 37.9307L59.4595 37.5257V35.6627C59.4595 34.6367 59.4865 33.8807 59.5405 33.3947C59.5405 33.1247 59.5675 32.9087 59.6215 32.7467C59.5675 32.6387 59.5405 32.5307 59.5405 32.4227C59.5945 32.3147 59.6215 32.2067 59.6215 32.0987C59.8375 31.0187 60.2425 30.3977 60.8365 30.2357C61.4305 30.0197 62.0515 29.9117 62.6995 29.9117C64.1035 30.1817 64.8595 30.9917 64.9675 32.3417L64.8865 33.7187C64.8325 34.1507 64.8055 34.8527 64.8055 35.8247C64.8055 36.3647 64.7785 36.7697 64.7245 37.0397L67.3975 36.7967C68.1535 36.6887 68.8285 36.9047 69.4225 37.4447C70.0165 37.9847 70.3135 38.6597 70.3135 39.4697C70.3135 40.1177 70.0705 40.7117 69.5845 41.2517C69.1525 41.7377 68.6125 42.0077 67.9645 42.0617L64.8055 42.3857C64.9675 46.8677 65.3455 50.1887 65.9395 52.3487C66.0475 52.7267 66.2095 53.1317 66.4255 53.5637C66.6955 53.9417 66.8575 54.1847 66.9115 54.2927L67.3165 54.0497C67.5325 53.9417 68.0455 53.5367 68.8555 52.8347C69.3415 52.2947 69.9895 52.0247 70.7995 52.0247C71.5015 52.0247 72.0955 52.2677 72.5815 52.7537ZM107.857 40.1177L108.829 40.4417L109.315 39.3887C109.747 38.4167 110.476 37.9307 111.502 37.9307C111.934 37.9307 112.339 38.0117 112.717 38.1737C113.149 38.3357 113.446 38.4707 113.608 38.5787C114.202 39.2807 114.526 40.0907 114.58 41.0087C114.58 41.6567 114.472 42.4667 114.256 43.4387C114.094 44.3567 113.986 44.8967 113.932 45.0587L113.446 48.2177C112.96 50.7557 112.717 52.8617 112.717 54.5357C112.717 55.0757 112.771 55.7777 112.879 56.6417C112.987 57.3977 112.798 58.0727 112.312 58.6667C111.88 59.2067 111.313 59.5307 110.611 59.6387C109.855 59.7467 109.18 59.5577 108.586 59.0717C107.992 58.5857 107.668 57.9917 107.614 57.2897C107.506 56.2097 107.452 55.3997 107.452 54.8597V53.9687C106.21 55.4807 104.995 56.6417 103.807 57.4517C102.403 58.4237 100.999 58.9097 99.595 58.9097C98.947 58.9097 98.461 58.8557 98.137 58.7477C96.679 58.3697 95.464 57.5057 94.492 56.1557C93.358 54.6437 92.791 52.9157 92.791 50.9717C92.791 49.1897 93.25 47.5157 94.168 45.9497C94.978 44.4917 96.058 43.2497 97.408 42.2237C98.812 41.1437 100.297 40.4147 101.863 40.0367C102.403 39.9287 103.456 39.8747 105.022 39.8747C106.102 39.8747 107.047 39.9557 107.857 40.1177ZM106.642 45.6257C106.642 45.6257 106.534 45.5177 106.318 45.3017L105.346 45.1397C104.212 45.1397 103.429 45.1937 102.997 45.3017C102.187 45.4637 101.404 45.8687 100.648 46.5167C99.892 47.1107 99.271 47.8127 98.785 48.6227C98.353 49.3787 98.137 50.1617 98.137 50.9717C98.137 51.7277 98.353 52.4027 98.785 52.9967C99.055 53.3747 99.298 53.5637 99.514 53.5637C99.73 53.6177 100.027 53.5097 100.405 53.2397C101.161 52.8617 102.079 52.0787 103.159 50.8907C104.671 49.0547 105.778 47.3807 106.48 45.8687L106.642 45.6257ZM130.056 40.9277L130.785 41.8187L129.732 14.0357C129.732 13.2797 129.975 12.6317 130.461 12.0917C131.001 11.5517 131.622 11.2817 132.324 11.2817C133.08 11.2277 133.728 11.4707 134.268 12.0107C134.808 12.4967 135.078 13.1177 135.078 13.8737C135.24 17.5457 135.51 24.4307 135.888 34.5287C136.266 44.5727 136.509 50.1077 136.617 51.1337C136.617 51.6197 136.671 52.4027 136.779 53.4827C136.941 54.1307 137.022 54.6437 137.022 55.0217C137.022 55.3997 136.995 55.6697 136.941 55.8317C136.779 56.6957 136.239 57.3167 135.321 57.6947L134.754 57.8567C132.648 59.9627 130.353 61.0157 127.869 61.0157C125.439 61.0157 123.252 60.1247 121.308 58.3427C119.742 56.9387 118.5 55.2107 117.582 53.1587C116.664 51.1067 116.205 49.0007 116.205 46.8407C116.205 43.9787 116.934 41.7917 118.392 40.2797C119.85 38.7677 121.578 38.0117 123.576 38.0117C125.844 38.0117 128.004 38.9837 130.056 40.9277ZM127.869 55.6697C128.841 55.6697 129.84 55.1837 130.866 54.2117C130.488 53.2397 130.191 52.3757 129.975 51.6197C129.813 51.2417 129.597 50.6477 129.327 49.8377C129.057 48.9737 128.76 48.2717 128.436 47.7317C127.572 46.3277 126.843 45.3287 126.249 44.7347C125.331 43.8167 124.467 43.3577 123.657 43.3577C123.063 43.3577 122.604 43.5737 122.28 44.0057C121.956 44.4377 121.74 45.0317 121.632 45.7877C121.578 46.0577 121.551 46.4627 121.551 47.0027C121.551 48.3527 121.848 49.7027 122.442 51.0527C123.036 52.3487 123.819 53.4557 124.791 54.3737C125.871 55.2377 126.897 55.6697 127.869 55.6697ZM148.147 39.9557H147.094C146.554 40.1717 146.122 40.5497 145.798 41.0897C145.474 41.5757 145.312 42.1157 145.312 42.7097C145.258 43.0877 145.312 43.4117 145.474 43.6817C145.69 43.8977 145.987 44.1677 146.365 44.4917C146.905 44.9237 147.607 45.3827 148.471 45.8687C149.389 46.3547 150.01 46.6787 150.334 46.8407C153.574 48.6227 155.194 50.6747 155.194 52.9967C155.194 55.1567 154.465 56.8307 153.007 58.0187C151.549 59.2067 149.713 59.8007 147.499 59.8007C145.717 59.8007 144.016 59.3957 142.396 58.5857C140.83 57.7217 139.696 56.6417 138.994 55.3457C138.778 54.8057 138.67 54.4007 138.67 54.1307C138.67 53.6447 138.805 53.1857 139.075 52.7537C139.345 52.2677 139.696 51.9167 140.128 51.7007C140.56 51.5387 140.965 51.4577 141.343 51.4577C141.829 51.4577 142.288 51.5927 142.72 51.8627C143.206 52.1327 143.557 52.4837 143.773 52.9157C144.043 53.5097 144.529 53.9417 145.231 54.2117C145.933 54.4277 146.716 54.5087 147.58 54.4547C149.092 54.4547 149.848 53.9687 149.848 52.9967C149.848 52.9427 149.821 52.8887 149.767 52.8347C149.713 52.7807 149.659 52.7267 149.605 52.6727L148.957 52.1867L146.284 50.7287C144.286 49.5947 142.72 48.4337 141.586 47.2457C140.506 46.0037 139.966 44.4917 139.966 42.7097C139.966 40.9817 140.479 39.3887 141.505 37.9307C142.585 36.4187 143.935 35.3927 145.555 34.8527C145.771 34.7987 146.122 34.7447 146.608 34.6907C147.148 34.5827 147.715 34.5287 148.309 34.5287C149.227 34.5287 150.064 34.6907 150.82 35.0147C151.954 35.6627 152.521 36.5537 152.521 37.6877C152.521 38.5517 152.224 39.2807 151.63 39.8747C151.036 40.4147 150.334 40.6307 149.524 40.5227C148.984 40.4147 148.525 40.2257 148.147 39.9557Z" fill="#FFA700"/>
</svg>
