<svg width="42" height="52" viewBox="0 0 42 52" fill="none" xmlns="http://www.w3.org/2000/svg">
<path d="M37.916 18.5349C39.139 19.3586 40.1409 20.4701 40.8337 21.7718C41.5264 23.0734 41.8887 24.5254 41.8887 25.9999C41.8887 27.4744 41.5264 28.9264 40.8337 30.228C40.1409 31.5297 39.139 32.6413 37.916 33.4649L14.027 49.5529C12.6729 50.4648 11.0962 50.9911 9.46587 51.0756C7.83553 51.1601 6.21291 50.7996 4.77177 50.0327C3.33062 49.2657 2.12523 48.1212 1.28466 46.7217C0.444088 45.3222 1.14441e-05 43.7204 -2.67029e-05 42.0879V9.91191C1.14441e-05 8.27938 0.444088 6.67761 1.28466 5.27812C2.12523 3.87863 3.33062 2.73412 4.77177 1.96716C6.21291 1.2002 7.83553 0.839669 9.46587 0.924178C11.0962 1.00869 12.6729 1.53505 14.027 2.44691L37.916 18.5349Z" fill="white"/>
</svg>
