<svg width="31" height="36" viewBox="0 0 31 36" fill="none" xmlns="http://www.w3.org/2000/svg">
<path d="M27.2631 12.1758C28.222 12.815 29.0082 13.6811 29.552 14.6972C30.0958 15.7133 30.3804 16.8479 30.3804 18.0003C30.3804 19.1528 30.0958 20.2874 29.552 21.3034C29.0082 22.3195 28.222 23.1856 27.2631 23.8248L10.882 34.7448C9.82781 35.4474 8.60265 35.8507 7.33722 35.9117C6.07178 35.9728 4.8135 35.6892 3.69654 35.0913C2.57959 34.4934 1.64584 33.6036 0.99485 32.5168C0.343861 31.4299 4.19617e-05 30.1867 4.95911e-05 28.9198V7.07982C-8.01086e-05 5.81275 0.343706 4.56941 0.994747 3.48239C1.64579 2.39537 2.57966 1.50544 3.69678 0.907521C4.8139 0.309597 6.07236 0.0261002 7.33795 0.0872633C8.60354 0.148426 9.8288 0.551956 10.883 1.25482L27.2631 12.1758Z" fill="#FFA700"/>
</svg>
