<svg width="290" height="205" viewBox="0 0 290 205" fill="none" xmlns="http://www.w3.org/2000/svg">
<path d="M27.494 88.628C27.6513 89.4147 27.9267 90.2013 28.32 90.988L29.028 90.044C29.8933 89.0213 30.68 87.684 31.388 86.032C32.4893 83.8293 33.4333 81.194 34.22 78.126C35.0067 75.058 35.4 72.108 35.4 69.276C35.4 66.1293 34.692 63.848 33.276 62.432C32.6467 61.8027 32.332 60.9373 32.332 59.836C32.332 58.656 32.7253 57.712 33.512 57.004C34.22 56.296 35.0853 55.942 36.108 55.942C37.288 55.942 38.232 56.3353 38.94 57.122C41.772 60.0327 43.188 64.2807 43.188 69.866C43.188 73.0913 42.716 76.5133 41.772 80.132C40.828 83.672 39.7267 86.74 38.468 89.336C37.1307 92.2467 35.6753 94.4887 34.102 96.062C32.214 98.1073 30.0507 99.13 27.612 99.13C25.4093 99.13 23.5607 98.068 22.066 95.944C21.122 94.528 20.414 92.7187 19.942 90.516V90.398C19.1553 91.578 18.408 92.522 17.7 93.23C15.7333 95.1967 13.6093 96.18 11.328 96.18C9.99067 96.18 8.57467 95.7867 7.08 95C5.428 94.056 4.012 92.64 2.832 90.752C1.73067 88.7853 0.983333 86.504 0.59 83.908C0.196667 81.312 0 78.8733 0 76.592C0 74.3893 0.118 72.1867 0.354 69.984C0.59 67.7027 0.786667 65.9327 0.944 64.674C1.18 63.3367 1.33733 62.4713 1.416 62.078C1.57333 61.134 2.006 60.3867 2.714 59.836C3.50067 59.2067 4.32667 58.892 5.192 58.892C6.45067 58.892 7.47333 59.4033 8.26 60.426C9.04667 61.37 9.322 62.432 9.086 63.612C9.00733 64.0053 8.85 64.9887 8.614 66.562C8.378 68.1353 8.142 70.102 7.906 72.462C7.74867 74.7433 7.70933 76.9853 7.788 79.188C7.94533 81.7053 8.33867 83.79 8.968 85.442C9.51867 86.9367 10.148 87.8807 10.856 88.274C11.328 88.4313 11.7607 88.2347 12.154 87.684C13.0193 86.8973 13.7667 85.7567 14.396 84.262C15.9693 81.194 17.1493 77.6147 17.936 73.524L18.29 71.046L18.172 67.506C18.172 65.382 18.6047 63.8087 19.47 62.786C20.3353 61.7633 21.4367 61.252 22.774 61.252C24.3473 61.252 25.488 61.9993 26.196 63.494C26.5107 63.966 26.668 64.674 26.668 65.618C26.668 66.09 26.55 67.034 26.314 68.45C26.314 69.158 26.2353 70.1413 26.078 71.4V71.754C25.9207 78.834 26.3927 84.4587 27.494 88.628ZM54.2496 80.84L53.5416 80.958C53.7776 82.846 54.2102 84.3407 54.8396 85.442C55.3902 86.622 56.0589 87.33 56.8456 87.566C57.0816 87.6447 57.3962 87.684 57.7896 87.684C59.0482 87.684 60.6609 86.858 62.6276 85.206C63.2569 84.6553 64.0436 84.38 64.9876 84.38C66.2462 84.38 67.2689 84.852 68.0556 85.796C68.6062 86.4253 68.8816 87.2513 68.8816 88.274C68.8816 89.5327 68.4096 90.516 67.4656 91.224C64.0042 94.056 60.6609 95.472 57.4356 95.472C53.8169 95.472 50.9062 93.7413 48.7036 90.28C46.5796 86.8187 45.5176 82.5707 45.5176 77.536C45.5176 74.7827 45.8322 72.1473 46.4616 69.63C47.1696 67.034 48.1136 64.8707 49.2936 63.14C51.7322 59.6 54.7609 57.83 58.3796 57.83C59.0876 57.83 59.5989 57.8693 59.9136 57.948C61.7229 58.2627 63.0602 58.9707 63.9256 60.072C64.9482 61.016 65.4989 62.2747 65.5776 63.848C65.8136 65.264 65.4989 67.2307 64.6336 69.748C63.7682 72.108 62.6669 74.1533 61.3296 75.884C59.9922 77.536 58.7336 78.7553 57.5536 79.542C57.1602 79.8567 56.5702 80.132 55.7836 80.368C54.9969 80.604 54.4856 80.7613 54.2496 80.84ZM57.3176 67.27L57.6716 65.736C56.5702 66.1293 55.6656 67.1913 54.9576 68.922C54.4069 69.9447 54.0136 71.2033 53.7776 72.698C54.4856 71.99 54.9969 71.4 55.3116 70.928C55.7836 70.2987 56.4522 69.0793 57.3176 67.27ZM119.445 66.326C119.602 66.9553 119.681 67.388 119.681 67.624C119.681 68.7253 119.287 69.6693 118.501 70.456C117.793 71.164 116.888 71.518 115.787 71.518C115 71.518 114.253 71.282 113.545 70.81C112.915 70.338 112.443 69.6693 112.129 68.804C112.129 68.7253 112.05 68.568 111.893 68.332C111.814 68.096 111.617 67.9387 111.303 67.86C111.224 67.7813 111.067 67.8207 110.831 67.978C110.595 68.0567 110.437 68.096 110.359 68.096C108.785 68.804 107.527 69.9447 106.583 71.518C105.639 73.0127 105.088 74.6647 104.931 76.474L104.813 78.244C104.813 79.2667 104.931 80.25 105.167 81.194C105.324 82.2953 105.639 83.3573 106.111 84.38C107.055 86.1107 107.881 87.0547 108.589 87.212H108.943C109.415 87.212 109.887 87.094 110.359 86.858C111.381 86.386 112.404 85.6387 113.427 84.616C114.607 83.436 115.669 82.138 116.613 80.722C117.557 79.2273 118.225 77.8507 118.619 76.592C118.855 75.7267 119.287 75.058 119.917 74.586C120.625 74.114 121.411 73.878 122.277 73.878C123.378 73.878 124.283 74.2713 124.991 75.058C125.777 75.8447 126.171 76.7493 126.171 77.772C126.171 78.244 126.131 78.598 126.053 78.834C125.345 81.194 124.047 83.672 122.159 86.268C120.271 88.864 118.265 90.9487 116.141 92.522C113.781 94.174 111.342 95 108.825 95C104.655 95 101.43 92.6007 99.1486 87.802C98.2832 86.0713 97.7326 84.3013 97.4966 82.492C97.2606 81.076 97.1426 79.6207 97.1426 78.126C97.1426 74.4287 98.0079 71.046 99.7386 67.978C101.469 64.8313 103.908 62.55 107.055 61.134C108.707 60.426 110.123 60.072 111.303 60.072C112.247 60.072 113.073 60.19 113.781 60.426C115.039 60.8193 116.062 61.488 116.849 62.432C117.714 63.2973 118.343 64.1233 118.737 64.91C119.13 65.618 119.366 66.09 119.445 66.326ZM155.328 59.718C155.485 60.2687 155.564 61.252 155.564 62.668C155.564 65.5787 154.738 69.9447 153.086 75.766C152.928 76.5527 152.456 77.2213 151.67 77.772C150.962 78.3227 150.175 78.598 149.31 78.598C148.208 78.598 147.304 78.244 146.596 77.536C145.888 76.7493 145.534 75.8447 145.534 74.822C145.534 74.2713 145.573 73.878 145.652 73.642C145.966 72.698 146.32 71.3213 146.714 69.512C147.186 67.7027 147.54 65.972 147.776 64.32V63.848C146.124 65.1067 144.472 67.1913 142.82 70.102C141.482 72.5407 139.948 76.2773 138.218 81.312C137.824 82.492 137.313 84.3407 136.684 86.858L135.622 90.87H135.74C135.661 91.0273 135.582 91.2633 135.504 91.578C135.425 91.814 135.307 92.0893 135.15 92.404C134.914 93.1907 134.599 93.702 134.206 93.938C133.498 94.7247 132.632 95.118 131.61 95.118C131.138 95.118 130.784 95.0787 130.548 95C129.132 94.6067 128.148 93.702 127.598 92.286C127.283 91.4207 127.126 88.9033 127.126 84.734L126.418 66.562L126.182 60.426C126.182 59.3247 126.536 58.3807 127.244 57.594C128.03 56.8073 128.935 56.414 129.958 56.414C131.059 56.3353 132.003 56.6893 132.79 57.476C133.576 58.184 133.97 59.0493 133.97 60.072L134.206 66.208L134.324 69.748C135.346 67.5453 136.408 65.5787 137.51 63.848C140.106 59.9933 143.056 57.2793 146.36 55.706C147.54 55.1553 148.68 54.88 149.782 54.88C150.411 54.88 151.198 55.0373 152.142 55.352C153.794 56.2173 154.856 57.6727 155.328 59.718ZM135.74 90.752V90.87V90.752ZM165.451 80.84L164.743 80.958C164.979 82.846 165.411 84.3407 166.041 85.442C166.591 86.622 167.26 87.33 168.047 87.566C168.283 87.6447 168.597 87.684 168.991 87.684C170.249 87.684 171.862 86.858 173.829 85.206C174.458 84.6553 175.245 84.38 176.189 84.38C177.447 84.38 178.47 84.852 179.257 85.796C179.807 86.4253 180.083 87.2513 180.083 88.274C180.083 89.5327 179.611 90.516 178.667 91.224C175.205 94.056 171.862 95.472 168.637 95.472C165.018 95.472 162.107 93.7413 159.905 90.28C157.781 86.8187 156.719 82.5707 156.719 77.536C156.719 74.7827 157.033 72.1473 157.663 69.63C158.371 67.034 159.315 64.8707 160.495 63.14C162.933 59.6 165.962 57.83 169.581 57.83C170.289 57.83 170.8 57.8693 171.115 57.948C172.924 58.2627 174.261 58.9707 175.127 60.072C176.149 61.016 176.7 62.2747 176.779 63.848C177.015 65.264 176.7 67.2307 175.835 69.748C174.969 72.108 173.868 74.1533 172.531 75.884C171.193 77.536 169.935 78.7553 168.755 79.542C168.361 79.8567 167.771 80.132 166.985 80.368C166.198 80.604 165.687 80.7613 165.451 80.84ZM168.519 67.27L168.873 65.736C167.771 66.1293 166.867 67.1913 166.159 68.922C165.608 69.9447 165.215 71.2033 164.979 72.698C165.687 71.99 166.198 71.4 166.513 70.928C166.985 70.2987 167.653 69.0793 168.519 67.27ZM204.364 66.562L205.78 67.034L206.488 65.5C207.117 64.084 208.179 63.376 209.674 63.376C210.303 63.376 210.893 63.494 211.444 63.73C212.073 63.966 212.506 64.1627 212.742 64.32C213.607 65.3427 214.079 66.5227 214.158 67.86C214.158 68.804 214.001 69.984 213.686 71.4C213.45 72.7373 213.293 73.524 213.214 73.76L212.506 78.362C211.798 82.0593 211.444 85.1273 211.444 87.566C211.444 88.3527 211.523 89.3753 211.68 90.634C211.837 91.7353 211.562 92.7187 210.854 93.584C210.225 94.3707 209.399 94.8427 208.376 95C207.275 95.1573 206.291 94.882 205.426 94.174C204.561 93.466 204.089 92.6007 204.01 91.578C203.853 90.0047 203.774 88.8247 203.774 88.038V86.74C201.965 88.9427 200.195 90.634 198.464 91.814C196.419 93.23 194.373 93.938 192.328 93.938C191.384 93.938 190.676 93.8593 190.204 93.702C188.08 93.1513 186.31 91.8927 184.894 89.926C183.242 87.7233 182.416 85.206 182.416 82.374C182.416 79.778 183.085 77.3393 184.422 75.058C185.602 72.934 187.175 71.1247 189.142 69.63C191.187 68.0567 193.351 66.9947 195.632 66.444C196.419 66.2867 197.953 66.208 200.234 66.208C201.807 66.208 203.184 66.326 204.364 66.562ZM202.594 74.586C202.594 74.586 202.437 74.4287 202.122 74.114L200.706 73.878C199.054 73.878 197.913 73.9567 197.284 74.114C196.104 74.35 194.963 74.94 193.862 75.884C192.761 76.7493 191.856 77.772 191.148 78.952C190.519 80.0533 190.204 81.194 190.204 82.374C190.204 83.4753 190.519 84.4587 191.148 85.324C191.541 85.8747 191.895 86.15 192.21 86.15C192.525 86.2287 192.957 86.0713 193.508 85.678C194.609 85.1273 195.947 83.9867 197.52 82.256C199.723 79.5813 201.335 77.1427 202.358 74.94L202.594 74.586ZM238.709 84.97C239.496 85.7567 239.889 86.7007 239.889 87.802C239.889 88.9033 239.535 89.808 238.827 90.516C235.838 93.5053 232.927 95 230.095 95C227.185 94.8427 224.864 93.2693 223.133 90.28C221.245 86.74 220.065 80.2107 219.593 70.692L214.873 71.164C213.772 71.2427 212.789 70.8887 211.923 70.102C211.058 69.3153 210.625 68.3713 210.625 67.27C210.625 66.2473 210.979 65.382 211.687 64.674C212.317 63.966 213.143 63.5333 214.165 63.376L219.593 62.786V60.072C219.593 58.5773 219.633 57.476 219.711 56.768C219.711 56.3747 219.751 56.06 219.829 55.824C219.751 55.6667 219.711 55.5093 219.711 55.352C219.79 55.1947 219.829 55.0373 219.829 54.88C220.144 53.3067 220.734 52.402 221.599 52.166C222.465 51.8513 223.369 51.694 224.313 51.694C226.359 52.0873 227.46 53.2673 227.617 55.234L227.499 57.24C227.421 57.8693 227.381 58.892 227.381 60.308C227.381 61.0947 227.342 61.6847 227.263 62.078L231.157 61.724C232.259 61.5667 233.242 61.8813 234.107 62.668C234.973 63.4547 235.405 64.438 235.405 65.618C235.405 66.562 235.051 67.4273 234.343 68.214C233.714 68.922 232.927 69.3153 231.983 69.394L227.381 69.866C227.617 76.3953 228.168 81.2333 229.033 84.38C229.191 84.9307 229.427 85.5207 229.741 86.15C230.135 86.7007 230.371 87.0547 230.449 87.212L231.039 86.858C231.354 86.7007 232.101 86.1107 233.281 85.088C233.989 84.3013 234.933 83.908 236.113 83.908C237.136 83.908 238.001 84.262 238.709 84.97ZM250.955 80.84L250.247 80.958C250.483 82.846 250.915 84.3407 251.545 85.442C252.095 86.622 252.764 87.33 253.551 87.566C253.787 87.6447 254.101 87.684 254.495 87.684C255.753 87.684 257.366 86.858 259.333 85.206C259.962 84.6553 260.749 84.38 261.693 84.38C262.951 84.38 263.974 84.852 264.761 85.796C265.311 86.4253 265.587 87.2513 265.587 88.274C265.587 89.5327 265.115 90.516 264.171 91.224C260.709 94.056 257.366 95.472 254.141 95.472C250.522 95.472 247.611 93.7413 245.409 90.28C243.285 86.8187 242.223 82.5707 242.223 77.536C242.223 74.7827 242.537 72.1473 243.167 69.63C243.875 67.034 244.819 64.8707 245.999 63.14C248.437 59.6 251.466 57.83 255.085 57.83C255.793 57.83 256.304 57.8693 256.619 57.948C258.428 58.2627 259.765 58.9707 260.631 60.072C261.653 61.016 262.204 62.2747 262.283 63.848C262.519 65.264 262.204 67.2307 261.339 69.748C260.473 72.108 259.372 74.1533 258.035 75.884C256.697 77.536 255.439 78.7553 254.259 79.542C253.865 79.8567 253.275 80.132 252.489 80.368C251.702 80.604 251.191 80.7613 250.955 80.84ZM254.023 67.27L254.377 65.736C253.275 66.1293 252.371 67.1913 251.663 68.922C251.112 69.9447 250.719 71.2033 250.483 72.698C251.191 71.99 251.702 71.4 252.017 70.928C252.489 70.2987 253.157 69.0793 254.023 67.27Z" fill="#FFA700"/>
<path d="M31.978 155.05C31.978 160.635 31.5453 166.339 30.68 172.16C29.8147 177.981 28.2807 182.819 26.078 186.674C23.718 190.765 20.7287 193.439 17.11 194.698C15.8513 195.17 14.396 195.406 12.744 195.406C9.83333 195.406 6.726 194.58 3.422 192.928C1.92733 192.22 1.18 191.079 1.18 189.506C1.18 188.326 1.57333 187.382 2.36 186.674C3.14667 185.966 4.05133 185.612 5.074 185.612C5.62467 185.612 6.21467 185.73 6.844 185.966C9.204 187.067 11.1313 187.618 12.626 187.618C14.75 187.618 16.4807 186.792 17.818 185.14C19.1553 183.567 20.296 181.364 21.24 178.532C23.4427 172.16 24.426 163.546 24.19 152.69L23.954 148.56C23.4033 149.347 22.7347 150.133 21.948 150.92C19.352 153.359 16.4807 154.578 13.334 154.578C11.1313 154.578 9.16467 153.831 7.434 152.336C5.70333 150.841 4.32667 148.835 3.304 146.318C1.888 142.857 0.983333 139.041 0.59 134.872C0.196667 130.624 0 127.281 0 124.842C0.0786667 123.819 0.472 122.954 1.18 122.246C1.96667 121.459 2.91067 121.066 4.012 121.066C5.11333 121.066 6.018 121.459 6.726 122.246C7.51267 123.033 7.86667 123.937 7.788 124.96C7.788 126.691 7.86667 128.972 8.024 131.804C8.26 134.636 8.732 137.468 9.44 140.3C10.2267 142.817 10.9347 144.548 11.564 145.492C12.1147 146.357 12.6653 146.79 13.216 146.79H13.452C14.5533 146.79 15.6153 146.279 16.638 145.256C18.526 143.447 20.0993 140.379 21.358 136.052L22.656 128.972C22.4987 127.871 22.42 126.927 22.42 126.14C22.42 125.825 22.4593 125.275 22.538 124.488C22.6953 123.701 22.8527 123.19 23.01 122.954C23.954 121.459 25.3307 120.869 27.14 121.184C28.0053 121.42 28.792 121.931 29.5 122.718C30.2867 123.505 30.7193 124.645 30.798 126.14V126.966C30.798 127.517 30.7193 128.5 30.562 129.916L30.916 134.164C31.0733 137.468 31.2307 139.867 31.388 141.362C31.4667 142.542 31.5847 144.587 31.742 147.498C31.8993 150.33 31.978 152.847 31.978 155.05ZM22.42 125.904V126.14V125.904ZM53.4558 126.14C56.4452 127.399 58.7265 129.444 60.2998 132.276C61.9518 135.108 62.7778 138.215 62.7778 141.598C62.7778 146.003 61.4405 149.858 58.7658 153.162C56.1698 156.387 52.7085 158 48.3818 158C44.8418 158 41.9312 156.977 39.6498 154.932C37.3685 152.887 35.7952 150.212 34.9298 146.908C34.5365 145.099 34.3398 143.407 34.3398 141.834C34.3398 137.665 35.3232 134.085 37.2898 131.096C38.0765 129.916 39.0992 128.893 40.3578 128.028C41.6165 127.084 42.9932 126.376 44.4878 125.904C45.6678 125.511 47.0838 125.314 48.7358 125.314C50.4665 125.314 52.0398 125.589 53.4558 126.14ZM50.3878 133.338C49.9158 133.102 49.3652 132.984 48.7358 132.984C48.1065 132.984 47.4772 133.102 46.8478 133.338C45.4318 133.731 44.4485 134.4 43.8978 135.344C42.7178 137.232 42.1278 139.395 42.1278 141.834C42.1278 142.857 42.2458 143.919 42.4818 145.02C42.8752 146.515 43.5438 147.773 44.4878 148.796C45.4318 149.74 46.6905 150.212 48.2638 150.212C50.3878 150.212 52.0398 149.347 53.2198 147.616C54.3998 145.885 54.9898 143.879 54.9898 141.598C54.9898 139.71 54.5965 138.058 53.8098 136.642C53.1018 135.147 51.9612 134.046 50.3878 133.338ZM73.0134 147.38C73.1708 148.481 73.3281 149.347 73.4854 149.976C74.1148 149.111 74.5474 148.363 74.7834 147.734C76.7501 144.115 78.4414 139.238 79.8574 133.102C80.3294 131.214 80.6441 129.641 80.8014 128.382C80.8801 127.989 80.8801 127.556 80.8014 127.084C80.8014 126.533 80.8408 126.061 80.9194 125.668C81.1554 124.724 81.4701 123.977 81.8634 123.426C82.7288 122.482 83.7908 122.01 85.0494 122.01C85.9148 122.01 86.7801 122.325 87.6454 122.954C88.9041 124.055 89.5334 125.707 89.5334 127.91C89.5334 129.09 89.4548 130.545 89.2974 132.276C89.1401 133.928 89.0614 134.99 89.0614 135.462L88.8254 141.834L88.7074 151.746L88.5894 156.938C88.5894 159.927 88.7074 162.956 88.9434 166.024C89.0221 167.125 88.6681 168.069 87.8814 168.856C87.0948 169.721 86.1508 170.154 85.0494 170.154C84.0268 170.154 83.1221 169.8 82.3354 169.092C81.6274 168.463 81.2341 167.637 81.1554 166.614C80.9194 163.703 80.8014 160.793 80.8014 157.882L80.9194 152.808C79.1101 155.561 77.4974 157.292 76.0814 158C75.1374 158.472 74.1541 158.708 73.1314 158.708C71.9514 158.708 70.8108 158.315 69.7094 157.528C67.6641 156.191 66.3268 153.909 65.6974 150.684C65.3041 149.032 65.1074 146.829 65.1074 144.076C65.1074 142.345 65.1861 140.615 65.3434 138.884C65.5008 137.153 65.5794 136.013 65.5794 135.462C65.6581 134.675 65.7368 133.692 65.8154 132.512C65.9728 131.253 66.0908 130.349 66.1694 129.798C66.2481 128.775 66.6414 127.949 67.3494 127.32C68.1361 126.691 69.0014 126.376 69.9454 126.376C71.1254 126.376 72.1088 126.809 72.8954 127.674C73.6821 128.539 73.9968 129.523 73.8394 130.624C73.7608 131.096 73.6428 131.922 73.4854 133.102C73.4068 134.203 73.3674 135.147 73.3674 135.934C73.2888 136.563 73.1708 137.704 73.0134 139.356C72.8561 140.929 72.7774 142.463 72.7774 143.958C72.7774 144.823 72.8561 145.964 73.0134 147.38ZM120.988 122.718C121.145 123.269 121.224 124.252 121.224 125.668C121.224 128.579 120.398 132.945 118.746 138.766C118.588 139.553 118.116 140.221 117.33 140.772C116.622 141.323 115.835 141.598 114.97 141.598C113.868 141.598 112.964 141.244 112.256 140.536C111.548 139.749 111.194 138.845 111.194 137.822C111.194 137.271 111.233 136.878 111.312 136.642C111.626 135.698 111.98 134.321 112.374 132.512C112.846 130.703 113.2 128.972 113.436 127.32V126.848C111.784 128.107 110.132 130.191 108.48 133.102C107.142 135.541 105.608 139.277 103.878 144.312C103.484 145.492 102.973 147.341 102.344 149.858L101.282 153.87H101.4C101.321 154.027 101.242 154.263 101.164 154.578C101.085 154.814 100.967 155.089 100.81 155.404C100.574 156.191 100.259 156.702 99.8658 156.938C99.1578 157.725 98.2925 158.118 97.2698 158.118C96.7978 158.118 96.4438 158.079 96.2078 158C94.7918 157.607 93.8085 156.702 93.2578 155.286C92.9431 154.421 92.7858 151.903 92.7858 147.734L92.0778 129.562L91.8418 123.426C91.8418 122.325 92.1958 121.381 92.9038 120.594C93.6905 119.807 94.5951 119.414 95.6178 119.414C96.7191 119.335 97.6631 119.689 98.4498 120.476C99.2365 121.184 99.6298 122.049 99.6298 123.072L99.8658 129.208L99.9838 132.748C101.006 130.545 102.068 128.579 103.17 126.848C105.766 122.993 108.716 120.279 112.02 118.706C113.2 118.155 114.34 117.88 115.442 117.88C116.071 117.88 116.858 118.037 117.802 118.352C119.454 119.217 120.516 120.673 120.988 122.718ZM101.4 153.752V153.87V153.752ZM168.485 137.114L168.839 133.692C166.636 136.603 164.551 139.946 162.585 143.722C160.697 147.419 159.674 149.465 159.517 149.858C159.438 150.015 159.045 150.999 158.337 152.808C157.629 154.617 156.921 155.994 156.213 156.938C155.583 157.725 154.915 158.275 154.207 158.59C153.499 158.983 152.83 159.141 152.201 159.062C151.178 159.062 150.313 158.708 149.605 158C149.369 157.843 149.093 157.449 148.779 156.82C148.464 156.191 148.307 155.404 148.307 154.46C148.228 152.415 148.464 147.616 149.015 140.064C149.565 132.433 149.959 127.32 150.195 124.724C150.273 123.623 150.706 122.718 151.493 122.01C152.358 121.302 153.341 120.987 154.443 121.066C155.465 121.145 156.331 121.617 157.039 122.482C157.747 123.269 158.061 124.213 157.983 125.314C157.904 126.022 157.747 127.556 157.511 129.916C157.353 132.197 157.157 134.951 156.921 138.176C160.775 131.489 163.843 127.084 166.125 124.96C167.777 123.387 169.586 122.679 171.553 122.836C173.362 123.151 174.739 124.213 175.683 126.022C176.312 127.595 176.627 129.759 176.627 132.512C176.627 134.007 176.509 135.816 176.273 137.94C176.115 139.12 175.289 143.211 173.795 150.212C172.379 157.135 171.395 161.855 170.845 164.372C170.687 165.395 170.137 166.181 169.193 166.732C168.327 167.361 167.344 167.597 166.243 167.44C165.22 167.204 164.394 166.614 163.765 165.67C163.214 164.805 163.057 163.821 163.293 162.72C163.843 160.281 164.827 155.679 166.243 148.914C167.659 142.149 168.406 138.215 168.485 137.114ZM187.691 143.84L186.983 143.958C187.219 145.846 187.652 147.341 188.281 148.442C188.832 149.622 189.5 150.33 190.287 150.566C190.523 150.645 190.838 150.684 191.231 150.684C192.49 150.684 194.102 149.858 196.069 148.206C196.698 147.655 197.485 147.38 198.429 147.38C199.688 147.38 200.71 147.852 201.497 148.796C202.048 149.425 202.323 150.251 202.323 151.274C202.323 152.533 201.851 153.516 200.907 154.224C197.446 157.056 194.102 158.472 190.877 158.472C187.258 158.472 184.348 156.741 182.145 153.28C180.021 149.819 178.959 145.571 178.959 140.536C178.959 137.783 179.274 135.147 179.903 132.63C180.611 130.034 181.555 127.871 182.735 126.14C185.174 122.6 188.202 120.83 191.821 120.83C192.529 120.83 193.04 120.869 193.355 120.948C195.164 121.263 196.502 121.971 197.367 123.072C198.39 124.016 198.94 125.275 199.019 126.848C199.255 128.264 198.94 130.231 198.075 132.748C197.21 135.108 196.108 137.153 194.771 138.884C193.434 140.536 192.175 141.755 190.995 142.542C190.602 142.857 190.012 143.132 189.225 143.368C188.438 143.604 187.927 143.761 187.691 143.84ZM190.759 130.27L191.113 128.736C190.012 129.129 189.107 130.191 188.399 131.922C187.848 132.945 187.455 134.203 187.219 135.698C187.927 134.99 188.438 134.4 188.753 133.928C189.225 133.299 189.894 132.079 190.759 130.27ZM213.388 143.84L212.68 143.958C212.916 145.846 213.349 147.341 213.978 148.442C214.529 149.622 215.198 150.33 215.984 150.566C216.22 150.645 216.535 150.684 216.928 150.684C218.187 150.684 219.8 149.858 221.766 148.206C222.396 147.655 223.182 147.38 224.126 147.38C225.385 147.38 226.408 147.852 227.194 148.796C227.745 149.425 228.02 150.251 228.02 151.274C228.02 152.533 227.548 153.516 226.604 154.224C223.143 157.056 219.8 158.472 216.574 158.472C212.956 158.472 210.045 156.741 207.842 153.28C205.718 149.819 204.656 145.571 204.656 140.536C204.656 137.783 204.971 135.147 205.6 132.63C206.308 130.034 207.252 127.871 208.432 126.14C210.871 122.6 213.9 120.83 217.518 120.83C218.226 120.83 218.738 120.869 219.052 120.948C220.862 121.263 222.199 121.971 223.064 123.072C224.087 124.016 224.638 125.275 224.716 126.848C224.952 128.264 224.638 130.231 223.772 132.748C222.907 135.108 221.806 137.153 220.468 138.884C219.131 140.536 217.872 141.755 216.692 142.542C216.299 142.857 215.709 143.132 214.922 143.368C214.136 143.604 213.624 143.761 213.388 143.84ZM216.456 130.27L216.81 128.736C215.709 129.129 214.804 130.191 214.096 131.922C213.546 132.945 213.152 134.203 212.916 135.698C213.624 134.99 214.136 134.4 214.45 133.928C214.922 133.299 215.591 132.079 216.456 130.27ZM250.532 130.742L251.594 132.04L250.06 91.566C250.06 90.4647 250.414 89.5207 251.122 88.734C251.908 87.9473 252.813 87.554 253.836 87.554C254.937 87.4753 255.881 87.8293 256.668 88.616C257.454 89.324 257.848 90.2287 257.848 91.33C258.084 96.6793 258.477 106.709 259.028 121.42C259.578 136.052 259.932 144.115 260.09 145.61C260.09 146.318 260.168 147.459 260.326 149.032C260.562 149.976 260.68 150.723 260.68 151.274C260.68 151.825 260.64 152.218 260.562 152.454C260.326 153.713 259.539 154.617 258.202 155.168L257.376 155.404C254.308 158.472 250.964 160.006 247.346 160.006C243.806 160.006 240.62 158.708 237.788 156.112C235.506 154.067 233.697 151.549 232.36 148.56C231.022 145.571 230.354 142.503 230.354 139.356C230.354 135.187 231.416 132.001 233.54 129.798C235.664 127.595 238.181 126.494 241.092 126.494C244.396 126.494 247.542 127.91 250.532 130.742ZM247.346 152.218C248.762 152.218 250.217 151.51 251.712 150.094C251.161 148.678 250.728 147.419 250.414 146.318C250.178 145.767 249.863 144.902 249.47 143.722C249.076 142.463 248.644 141.441 248.172 140.654C246.913 138.609 245.851 137.153 244.986 136.288C243.648 134.951 242.39 134.282 241.21 134.282C240.344 134.282 239.676 134.597 239.204 135.226C238.732 135.855 238.417 136.721 238.26 137.822C238.181 138.215 238.142 138.805 238.142 139.592C238.142 141.559 238.574 143.525 239.44 145.492C240.305 147.38 241.446 148.993 242.862 150.33C244.435 151.589 245.93 152.218 247.346 152.218ZM276.886 129.326H275.352C274.565 129.641 273.936 130.191 273.464 130.978C272.992 131.686 272.756 132.473 272.756 133.338C272.677 133.889 272.756 134.361 272.992 134.754C273.307 135.069 273.739 135.462 274.29 135.934C275.077 136.563 276.099 137.232 277.358 137.94C278.695 138.648 279.6 139.12 280.072 139.356C284.792 141.952 287.152 144.941 287.152 148.324C287.152 151.471 286.09 153.909 283.966 155.64C281.842 157.371 279.167 158.236 275.942 158.236C273.346 158.236 270.868 157.646 268.508 156.466C266.227 155.207 264.575 153.634 263.552 151.746C263.237 150.959 263.08 150.369 263.08 149.976C263.08 149.268 263.277 148.599 263.67 147.97C264.063 147.262 264.575 146.751 265.204 146.436C265.833 146.2 266.423 146.082 266.974 146.082C267.682 146.082 268.351 146.279 268.98 146.672C269.688 147.065 270.199 147.577 270.514 148.206C270.907 149.071 271.615 149.701 272.638 150.094C273.661 150.409 274.801 150.527 276.06 150.448C278.263 150.448 279.364 149.74 279.364 148.324C279.364 148.245 279.325 148.167 279.246 148.088C279.167 148.009 279.089 147.931 279.01 147.852L278.066 147.144L274.172 145.02C271.261 143.368 268.98 141.677 267.328 139.946C265.755 138.137 264.968 135.934 264.968 133.338C264.968 130.821 265.715 128.5 267.21 126.376C268.783 124.173 270.75 122.679 273.11 121.892C273.425 121.813 273.936 121.735 274.644 121.656C275.431 121.499 276.257 121.42 277.122 121.42C278.459 121.42 279.679 121.656 280.78 122.128C282.432 123.072 283.258 124.37 283.258 126.022C283.258 127.281 282.825 128.343 281.96 129.208C281.095 129.995 280.072 130.309 278.892 130.152C278.105 129.995 277.437 129.719 276.886 129.326Z" fill="#FFA700"/>
</svg>
