<svg width="114" height="83" viewBox="0 0 114 83" fill="none" xmlns="http://www.w3.org/2000/svg">
<path d="M7.906 4.238L7.788 74.684L19.234 74.802C25.134 74.802 29.3033 74.6447 31.742 74.33C32.922 74.1727 33.9447 74.448 34.81 75.156C35.6753 75.864 36.108 76.8473 36.108 78.106C36.108 79.05 35.7933 79.9153 35.164 80.702C34.5347 81.41 33.748 81.8427 32.804 82C30.5227 82.3933 26.2353 82.59 19.942 82.59C16.0087 82.59 12.5473 82.5507 9.558 82.472C6.64733 82.3933 4.72 82.3147 3.776 82.236C2.75333 82.236 1.84867 81.882 1.062 81.174C0.354 80.3873 0 79.4433 0 78.342L0.236 4.238C0.236 3.13666 0.59 2.232 1.298 1.524C2.08467 0.737329 3.02867 0.343996 4.13 0.343996C5.15267 0.343996 6.018 0.737329 6.726 1.524C7.51267 2.232 7.906 3.13666 7.906 4.238ZM47.2203 67.84L46.5123 67.958C46.7483 69.846 47.1809 71.3407 47.8103 72.442C48.3609 73.622 49.0296 74.33 49.8163 74.566C50.0523 74.6447 50.3669 74.684 50.7603 74.684C52.0189 74.684 53.6316 73.858 55.5983 72.206C56.2276 71.6553 57.0143 71.38 57.9583 71.38C59.2169 71.38 60.2396 71.852 61.0263 72.796C61.5769 73.4253 61.8523 74.2513 61.8523 75.274C61.8523 76.5327 61.3803 77.516 60.4363 78.224C56.9749 81.056 53.6316 82.472 50.4063 82.472C46.7876 82.472 43.8769 80.7413 41.6743 77.28C39.5503 73.8187 38.4883 69.5707 38.4883 64.536C38.4883 61.7827 38.8029 59.1473 39.4323 56.63C40.1403 54.034 41.0843 51.8707 42.2643 50.14C44.7029 46.6 47.7316 44.83 51.3503 44.83C52.0583 44.83 52.5696 44.8693 52.8843 44.948C54.6936 45.2627 56.0309 45.9707 56.8963 47.072C57.9189 48.016 58.4696 49.2747 58.5483 50.848C58.7843 52.264 58.4696 54.2307 57.6043 56.748C56.7389 59.108 55.6376 61.1533 54.3003 62.884C52.9629 64.536 51.7043 65.7553 50.5243 66.542C50.1309 66.8567 49.5409 67.132 48.7543 67.368C47.9676 67.604 47.4563 67.7613 47.2203 67.84ZM50.2883 54.27L50.6423 52.736C49.5409 53.1293 48.6363 54.1913 47.9283 55.922C47.3776 56.9447 46.9843 58.2033 46.7483 59.698C47.4563 58.99 47.9676 58.4 48.2823 57.928C48.7543 57.2987 49.4229 56.0793 50.2883 54.27ZM86.3695 71.97C87.1562 72.7567 87.5495 73.7007 87.5495 74.802C87.5495 75.9033 87.1955 76.808 86.4875 77.516C83.4982 80.5053 80.5875 82 77.7555 82C74.8449 81.8427 72.5242 80.2693 70.7935 77.28C68.9055 73.74 67.7255 67.2107 67.2535 57.692L62.5335 58.164C61.4322 58.2427 60.4489 57.8887 59.5835 57.102C58.7182 56.3153 58.2855 55.3713 58.2855 54.27C58.2855 53.2473 58.6395 52.382 59.3475 51.674C59.9769 50.966 60.8029 50.5333 61.8255 50.376L67.2535 49.786V47.072C67.2535 45.5773 67.2929 44.476 67.3715 43.768C67.3715 43.3747 67.4109 43.06 67.4895 42.824C67.4109 42.6667 67.3715 42.5093 67.3715 42.352C67.4502 42.1947 67.4895 42.0373 67.4895 41.88C67.8042 40.3067 68.3942 39.402 69.2595 39.166C70.1249 38.8513 71.0295 38.694 71.9735 38.694C74.0189 39.0873 75.1202 40.2673 75.2775 42.234L75.1595 44.24C75.0809 44.8693 75.0415 45.892 75.0415 47.308C75.0415 48.0947 75.0022 48.6847 74.9235 49.078L78.8175 48.724C79.9189 48.5667 80.9022 48.8813 81.7675 49.668C82.6329 50.4547 83.0655 51.438 83.0655 52.618C83.0655 53.562 82.7115 54.4273 82.0035 55.214C81.3742 55.922 80.5875 56.3153 79.6435 56.394L75.0415 56.866C75.2775 63.3953 75.8282 68.2333 76.6935 71.38C76.8509 71.9307 77.0869 72.5207 77.4015 73.15C77.7949 73.7007 78.0309 74.0547 78.1095 74.212L78.6995 73.858C79.0142 73.7007 79.7615 73.1107 80.9415 72.088C81.6495 71.3013 82.5935 70.908 83.7735 70.908C84.7962 70.908 85.6615 71.262 86.3695 71.97ZM103.689 53.326H102.155C101.368 53.6407 100.739 54.1913 100.267 54.978C99.7948 55.686 99.5588 56.4727 99.5588 57.338C99.4801 57.8887 99.5588 58.3607 99.7948 58.754C100.109 59.0687 100.542 59.462 101.093 59.934C101.879 60.5633 102.902 61.232 104.161 61.94C105.498 62.648 106.403 63.12 106.875 63.356C111.595 65.952 113.955 68.9413 113.955 72.324C113.955 75.4707 112.893 77.9093 110.769 79.64C108.645 81.3707 105.97 82.236 102.745 82.236C100.149 82.236 97.6708 81.646 95.3108 80.466C93.0295 79.2073 91.3775 77.634 90.3548 75.746C90.0401 74.9593 89.8828 74.3693 89.8828 73.976C89.8828 73.268 90.0795 72.5993 90.4728 71.97C90.8661 71.262 91.3775 70.7507 92.0068 70.436C92.6361 70.2 93.2261 70.082 93.7768 70.082C94.4848 70.082 95.1535 70.2787 95.7828 70.672C96.4908 71.0653 97.0021 71.5767 97.3168 72.206C97.7101 73.0713 98.4181 73.7007 99.4408 74.094C100.463 74.4087 101.604 74.5267 102.863 74.448C105.065 74.448 106.167 73.74 106.167 72.324C106.167 72.2453 106.127 72.1667 106.049 72.088C105.97 72.0093 105.891 71.9307 105.813 71.852L104.869 71.144L100.975 69.02C98.0641 67.368 95.7828 65.6767 94.1308 63.946C92.5575 62.1367 91.7708 59.934 91.7708 57.338C91.7708 54.8207 92.5181 52.5 94.0128 50.376C95.5861 48.1733 97.5528 46.6787 99.9128 45.892C100.227 45.8133 100.739 45.7347 101.447 45.656C102.233 45.4987 103.059 45.42 103.925 45.42C105.262 45.42 106.481 45.656 107.583 46.128C109.235 47.072 110.061 48.37 110.061 50.022C110.061 51.2807 109.628 52.3427 108.763 53.208C107.897 53.9947 106.875 54.3093 105.695 54.152C104.908 53.9947 104.239 53.7193 103.689 53.326Z" fill="white"/>
</svg>
