<svg width="68" height="68" viewBox="0 0 68 68" fill="none" xmlns="http://www.w3.org/2000/svg">
<path d="M34.2119 1.08364e-06C27.3606 0.0711411 20.6839 2.17017 15.0243 6.03219C9.36475 9.89422 4.97601 15.3462 2.41193 21.7C-2.57207 34.392 1.23993 50.3 11.6079 59.2C22.1419 68.24 37.9279 70.3 50.1729 63.524C56.1491 60.1605 60.9854 55.0901 64.0628 48.9617C67.1401 42.8334 68.3185 35.926 67.4469 29.124C66.3148 20.9753 62.2179 13.5301 55.9399 8.213C49.4 2.77054 41.0462 -0.00169629 32.5499 0.451001C28.5709 0.694001 28.5429 6.92 32.5499 6.675C38.6835 6.28219 44.7702 7.9706 49.825 11.467C54.8797 14.9634 58.6068 20.0632 60.4029 25.941C61.9621 31.3601 61.8466 37.124 60.0717 42.4763C58.2967 47.8286 54.9452 52.5194 50.4569 55.933C41.3949 62.874 28.6819 62.951 19.0869 57.022C9.40593 51.04 4.66393 38.787 7.08693 27.753C9.80693 15.318 21.5539 6.232 34.2119 6.224C38.2119 6.224 38.2239 -0.00299892 34.2119 1.08364e-06Z" fill="#73A7E3"/>
<path d="M17.936 45.1054C22.138 49.3191 27.8019 51.7519 33.751 51.8984C36.8049 51.9645 39.8392 51.3947 42.6612 50.2253C45.4831 49.0558 48.031 47.3123 50.143 45.1054C52.937 42.2314 48.543 37.8264 45.743 40.7054C44.2086 42.3338 42.3465 43.6187 40.2795 44.4753C38.2125 45.332 35.9875 45.741 33.751 45.6754C29.4487 45.5484 25.3608 43.7685 22.337 40.7054C19.527 37.8414 15.127 42.2444 17.937 45.1054H17.936Z" fill="#73A7E3"/>
<path d="M23.482 20.0172C22.8704 20.1835 22.313 20.5069 21.865 20.9552C21.6423 21.1665 21.4537 21.411 21.306 21.6802C21.2347 21.8221 21.1709 21.9676 21.115 22.1162C21.0425 22.2666 20.979 22.4212 20.925 22.5792C20.8344 22.8952 20.7893 23.2225 20.791 23.5512C20.791 23.5842 20.791 23.6152 20.791 23.6512C20.8065 23.9457 20.8466 24.2384 20.911 24.5262C21.0016 24.8256 21.1216 25.1153 21.269 25.3912C21.43 25.6782 21.6284 25.9425 21.859 26.1772C22.1256 26.4675 22.4445 26.7049 22.799 26.8772C23.0783 27.0234 23.371 27.1426 23.673 27.2332C23.8363 27.2655 24.0012 27.2896 24.167 27.3052C24.3437 27.3365 24.5219 27.3582 24.701 27.3702C25.1358 27.3798 25.5691 27.3149 25.982 27.1782C26.3859 27.0527 26.7728 26.8781 27.134 26.6582C27.8329 26.2365 28.4061 25.6354 28.794 24.9172C29.1121 24.3343 29.2795 23.6812 29.281 23.0172C29.2697 22.8592 29.2497 22.702 29.221 22.5462C29.203 22.4122 29.188 22.2042 29.15 22.0462C29.0668 21.7208 28.9375 21.409 28.766 21.1202C28.747 21.0872 28.726 21.0572 28.705 21.0252C28.5462 20.7886 28.3714 20.5631 28.182 20.3502C27.9511 20.1249 27.6993 19.9219 27.43 19.7442C27.3772 19.7034 27.3213 19.6666 27.263 19.6342C27.121 19.5592 26.951 19.4982 26.814 19.4402C26.6541 19.3645 26.4902 19.2978 26.323 19.2402C25.4695 19.0132 24.5699 19.0256 23.723 19.2762C23.645 19.2992 23.57 19.3272 23.495 19.3562C23.1856 19.4695 22.8828 19.6001 22.588 19.7472C22.5262 19.7799 22.4664 19.8163 22.409 19.8562C22.1309 20.044 21.8657 20.2501 21.615 20.4732C21.5569 20.528 21.5028 20.5868 21.453 20.6492C21.2436 20.8859 21.0527 21.1383 20.882 21.4042C20.6628 21.7644 20.5046 22.1584 20.414 22.5702C20.3572 22.8633 20.3175 23.1595 20.295 23.4572C20.295 23.4972 20.289 23.5362 20.289 23.5762C20.3017 23.9042 20.3432 24.2304 20.413 24.5512C20.4625 24.7468 20.5329 24.9366 20.623 25.1172C20.6921 25.3091 20.7774 25.4947 20.878 25.6722C21.1367 26.1044 21.4815 26.4788 21.891 26.7722C22.3007 27.1024 22.7674 27.3549 23.268 27.5172C23.5196 27.5997 23.7801 27.6521 24.044 27.6732C24.3405 27.7293 24.643 27.7471 24.944 27.7262C25.3723 27.6961 25.7966 27.6244 26.211 27.5122C26.6316 27.3666 27.0439 27.1981 27.446 27.0072C27.7403 26.8849 28.0219 26.7341 28.287 26.5572C28.6088 26.3448 28.9119 26.1052 29.193 25.8412C29.3247 25.6977 29.4473 25.5461 29.56 25.3872C29.6927 25.2349 29.8118 25.0712 29.916 24.8982C30.2346 24.3077 30.4152 23.6526 30.444 22.9822C30.4707 22.5589 30.4109 22.1346 30.268 21.7352C30.0623 21.1051 29.7182 20.529 29.261 20.0492C28.9761 19.7461 28.6437 19.4915 28.277 19.2952C27.9212 19.0897 27.5376 18.9368 27.138 18.8412C26.7913 18.7711 26.4401 18.7254 26.087 18.7042C25.9812 18.6995 25.8752 18.7029 25.77 18.7142C25.3024 18.7477 24.8388 18.8237 24.385 18.9412C24.166 19.0052 23.953 19.0862 23.74 19.1672C23.3451 19.2583 22.9806 19.4502 22.682 19.7242C22.3452 19.9422 22.0698 20.2427 21.882 20.5972C21.6583 20.9432 21.5309 21.3426 21.513 21.7542C21.4203 22.1654 21.4397 22.594 21.569 22.9952C21.7882 23.7763 22.3005 24.4426 22.999 24.8552L23.742 25.1692C24.2837 25.3175 24.8553 25.3175 25.397 25.1692C25.7514 25.0224 26.12 24.9125 26.497 24.8412L25.67 24.9522C25.8569 24.926 26.0463 24.9227 26.234 24.9422L25.407 24.8312C25.5359 24.8491 25.6622 24.8827 25.783 24.9312L25.04 24.6172C25.1423 24.6638 25.2398 24.7204 25.331 24.7862L24.701 24.2992C24.788 24.3668 24.8671 24.444 24.937 24.5292L24.45 23.8992C24.5034 23.9708 24.549 24.0479 24.586 24.1292L24.272 23.3862C24.2976 23.4509 24.3174 23.5179 24.331 23.5862L24.22 22.7592C24.2314 22.8485 24.2314 22.9389 24.22 23.0282L24.331 22.2012C24.3188 22.2693 24.3007 22.3362 24.277 22.4012L24.591 21.6582C24.5501 21.753 24.4981 21.8427 24.436 21.9252L24.923 21.2952C24.8314 21.4064 24.7278 21.507 24.614 21.5952L25.244 21.1082C24.9151 21.3413 24.5592 21.5337 24.184 21.6812L24.927 21.3672C24.6709 21.4784 24.4023 21.5583 24.127 21.6052L24.954 21.4942C24.791 21.5149 24.626 21.5149 24.463 21.4942L25.29 21.6052C25.1657 21.585 25.044 21.5515 24.927 21.5052L25.67 21.8192C25.5564 21.7698 25.4492 21.7067 25.351 21.6312L25.981 22.1182C25.9145 22.0626 25.8535 22.0006 25.799 21.9332L26.286 22.5632C26.2351 22.4932 26.1922 22.4177 26.158 22.3382L26.472 23.0812C26.4454 23.0086 26.426 22.9336 26.414 22.8572L26.525 23.6842C26.5151 23.5843 26.5171 23.4836 26.531 23.3842L26.42 24.2112C26.4384 24.1125 26.4669 24.016 26.505 23.9232L26.182 24.6782C26.2244 24.5867 26.2756 24.4997 26.335 24.4182L25.848 25.0482C25.9234 24.955 26.0085 24.8702 26.102 24.7952L25.472 25.2822C25.6007 25.1863 25.7403 25.1061 25.888 25.0432L25.145 25.3572C25.3227 25.2864 25.5079 25.2361 25.697 25.2072L24.87 25.3182C25.009 25.3008 25.1495 25.2985 25.289 25.3112L24.462 25.2002C24.5729 25.2155 24.6816 25.2437 24.786 25.2842L24.043 24.9702C24.1297 25.0097 24.2116 25.059 24.287 25.1172L23.657 24.6302C23.7144 24.6798 23.7669 24.7347 23.814 24.7942L23.327 24.1642C23.3591 24.2104 23.3878 24.2589 23.413 24.3092L23.099 23.5662C23.1281 23.6361 23.1485 23.7093 23.16 23.7842L23.049 22.9572C23.0536 23.0144 23.0536 23.0719 23.049 23.1292L23.16 22.3022C23.1485 22.3773 23.1294 22.451 23.103 22.5222L23.417 21.7792C23.3774 21.8688 23.3285 21.9539 23.271 22.0332L23.758 21.4032C23.6702 21.5147 23.5695 21.6154 23.458 21.7032L24.088 21.2162C23.9502 21.3179 23.8008 21.4028 23.643 21.4692L24.386 21.1552C24.283 21.1947 24.1765 21.2245 24.068 21.2442L24.895 21.1332C24.7897 21.1461 24.6833 21.1461 24.578 21.1332L25.405 21.2442C25.3327 21.2314 25.2617 21.212 25.193 21.1862L25.936 21.5002C25.8691 21.4707 25.8051 21.4348 25.745 21.3932L26.375 21.8802C26.3183 21.8356 26.2667 21.785 26.221 21.7292L26.708 22.3592C26.6771 22.3152 26.65 22.2687 26.627 22.2202L26.941 22.9632C26.9227 22.9159 26.9089 22.8671 26.9 22.8172L27.011 23.6442C27.0068 23.5956 27.0068 23.5468 27.011 23.4982L26.9 24.3252C26.9097 24.2607 26.9272 24.1975 26.952 24.1372L26.638 24.8802C26.6595 24.8372 26.6846 24.796 26.713 24.7572L26.226 25.3872C26.2561 25.3507 26.2895 25.3172 26.326 25.2872L25.696 25.7742C25.7216 25.7557 25.7491 25.74 25.778 25.7272L25.035 26.0412C25.0642 26.0282 25.0947 26.0185 25.126 26.0122C25.5209 25.9211 25.8854 25.7292 26.184 25.4552C26.5207 25.2372 26.7961 24.9366 26.984 24.5822C27.2077 24.2362 27.3351 23.8368 27.353 23.4252C27.4456 23.014 27.4263 22.5854 27.297 22.1842C27.0778 21.4031 26.5655 20.7368 25.867 20.3242C25.136 19.9183 24.2778 19.806 23.467 20.0102L23.482 20.0172Z" fill="#73A7E3"/>
<path d="M41.022 20.0172C40.4104 20.1835 39.853 20.5069 39.405 20.9552C39.1823 21.1665 38.9937 21.411 38.846 21.6802C38.7747 21.8221 38.7109 21.9676 38.655 22.1162C38.5825 22.2666 38.519 22.4212 38.465 22.5792C38.3744 22.8952 38.3293 23.2225 38.331 23.5512C38.331 23.5842 38.331 23.6152 38.331 23.6512C38.3465 23.9457 38.3866 24.2384 38.451 24.5262C38.5417 24.8256 38.6616 25.1153 38.809 25.3912C38.97 25.6782 39.1684 25.9425 39.399 26.1772C39.6656 26.4675 39.9845 26.7049 40.339 26.8772C40.6183 27.0234 40.911 27.1426 41.213 27.2332C41.3763 27.2655 41.5412 27.2896 41.707 27.3052C41.8837 27.3365 42.0619 27.3582 42.241 27.3702C42.675 27.3802 43.1076 27.3159 43.52 27.1802C43.9239 27.0547 44.3108 26.8801 44.672 26.6602C45.3709 26.2385 45.9441 25.6373 46.332 24.9192C46.6501 24.3363 46.8175 23.6832 46.819 23.0192C46.8077 22.8612 46.7877 22.704 46.759 22.5482C46.741 22.4142 46.726 22.2062 46.688 22.0482C46.6048 21.7228 46.4755 21.411 46.304 21.1222C46.285 21.0892 46.264 21.0592 46.243 21.0272C46.0845 20.7909 45.9101 20.5658 45.721 20.3532C45.49 20.1279 45.2382 19.925 44.969 19.7472C44.9162 19.7064 44.8603 19.6696 44.802 19.6372C44.66 19.5622 44.49 19.5012 44.353 19.4432C43.8745 19.2107 43.3543 19.0765 42.8231 19.0483C42.2919 19.0201 41.7604 19.0986 41.26 19.2792C41.182 19.3022 41.107 19.3302 41.032 19.3592C40.7226 19.4725 40.4198 19.6031 40.125 19.7502C40.0632 19.7829 40.0034 19.8193 39.946 19.8592C39.6679 20.047 39.4027 20.2531 39.152 20.4762C39.0939 20.531 39.0398 20.5898 38.99 20.6522C38.7806 20.8889 38.5897 21.1413 38.419 21.4072C38.1998 21.7674 38.0417 22.1614 37.951 22.5732C37.8942 22.8663 37.8545 23.1625 37.832 23.4602C37.832 23.5002 37.826 23.5392 37.826 23.5792C37.8387 23.9072 37.8802 24.2334 37.95 24.5542C37.9995 24.7498 38.0699 24.9396 38.16 25.1202C38.2291 25.3121 38.3144 25.4977 38.415 25.6752C38.6737 26.1074 39.0185 26.4818 39.428 26.7752C39.8377 27.1054 40.3044 27.3579 40.805 27.5202C41.0566 27.6027 41.3171 27.6551 41.581 27.6762C41.8775 27.7323 42.18 27.7501 42.481 27.7292C42.9093 27.6991 43.3336 27.6274 43.748 27.5152C44.1686 27.3696 44.5809 27.2011 44.983 27.0102C45.2773 26.8879 45.5589 26.7371 45.824 26.5602C46.1458 26.3478 46.4489 26.1082 46.73 25.8442C46.8617 25.7007 46.9843 25.5491 47.097 25.3902C47.2297 25.2379 47.3488 25.0742 47.453 24.9012C47.7716 24.3107 47.9522 23.6556 47.981 22.9852C48.0077 22.5619 47.9479 22.1376 47.805 21.7382C47.5993 21.1081 47.2552 20.532 46.798 20.0522C46.5131 19.7491 46.1807 19.4945 45.814 19.2982C45.4582 19.0927 45.0746 18.9398 44.675 18.8442C44.3313 18.7736 43.9831 18.7268 43.633 18.7042C43.5272 18.6995 43.4213 18.7029 43.316 18.7142C42.8484 18.7477 42.3848 18.8237 41.931 18.9412C41.712 19.0052 41.499 19.0862 41.286 19.1672C40.8911 19.2583 40.5266 19.4502 40.228 19.7242C39.8912 19.9422 39.6158 20.2427 39.428 20.5972C39.2043 20.9432 39.0769 21.3426 39.059 21.7542C38.9663 22.1654 38.9857 22.594 39.115 22.9952C39.3342 23.7763 39.8465 24.4426 40.545 24.8552L41.288 25.1692C41.8297 25.3175 42.4013 25.3175 42.943 25.1692C43.2974 25.0224 43.666 24.9125 44.043 24.8412L43.216 24.9522C43.4029 24.926 43.5923 24.9227 43.78 24.9422L42.953 24.8312C43.0819 24.8491 43.2082 24.8827 43.329 24.9312L42.586 24.6172C42.6883 24.6638 42.7858 24.7204 42.877 24.7862L42.247 24.2992C42.334 24.3668 42.4131 24.444 42.483 24.5292L41.996 23.8992C42.0494 23.9708 42.095 24.0479 42.132 24.1292L41.818 23.3862C41.8437 23.4509 41.8634 23.5179 41.877 23.5862L41.766 22.7592C41.7774 22.8485 41.7774 22.9389 41.766 23.0282L41.877 22.2012C41.8648 22.2693 41.8467 22.3362 41.823 22.4012L42.137 21.6582C42.0961 21.753 42.0441 21.8427 41.982 21.9252L42.469 21.2952C42.3774 21.4064 42.2738 21.507 42.16 21.5952L42.79 21.1082C42.4611 21.3413 42.1052 21.5337 41.73 21.6812L42.473 21.3672C42.2169 21.4784 41.9483 21.5583 41.673 21.6052L42.5 21.4942C42.337 21.5149 42.172 21.5149 42.009 21.4942L42.836 21.6052C42.7117 21.585 42.59 21.5515 42.473 21.5052L43.216 21.8192C43.1024 21.7698 42.9952 21.7067 42.897 21.6312L43.527 22.1182C43.4605 22.0626 43.3995 22.0006 43.345 21.9332L43.832 22.5632C43.7811 22.4932 43.7381 22.4177 43.704 22.3382L44.018 23.0812C43.9914 23.0086 43.972 22.9336 43.96 22.8572L44.071 23.6842C44.0611 23.5843 44.0631 23.4836 44.077 23.3842L43.966 24.2112C43.9844 24.1125 44.0129 24.016 44.051 23.9232L43.733 24.6782C43.7754 24.5867 43.8266 24.4997 43.886 24.4182L43.399 25.0482C43.4744 24.955 43.5595 24.8702 43.653 24.7952L43.023 25.2822C43.1517 25.1863 43.2913 25.1061 43.439 25.0432L42.696 25.3572C42.8737 25.2864 43.0589 25.2361 43.248 25.2072L42.421 25.3182C42.56 25.3008 42.7005 25.2985 42.84 25.3112L42.013 25.2002C42.1239 25.2155 42.2326 25.2437 42.337 25.2842L41.594 24.9702C41.6807 25.0097 41.7626 25.059 41.838 25.1172L41.208 24.6302C41.2654 24.6798 41.3179 24.7347 41.365 24.7942L40.878 24.1642C40.9101 24.2104 40.9388 24.2589 40.964 24.3092L40.65 23.5662C40.6791 23.6361 40.6995 23.7093 40.711 23.7842L40.6 22.9572C40.6046 23.0144 40.6046 23.0719 40.6 23.1292L40.711 22.3022C40.6995 22.3773 40.6804 22.451 40.654 22.5222L40.968 21.7792C40.9284 21.8688 40.8795 21.9539 40.822 22.0332L41.309 21.4032C41.2212 21.5147 41.1205 21.6154 41.009 21.7032L41.639 21.2162C41.5012 21.3179 41.3518 21.4028 41.194 21.4692L41.937 21.1552C41.834 21.1947 41.7275 21.2245 41.619 21.2442L42.446 21.1332C42.3407 21.1461 42.2343 21.1461 42.129 21.1332L42.956 21.2442C42.8837 21.2314 42.8127 21.212 42.744 21.1862L43.487 21.5002C43.4201 21.4707 43.3561 21.4348 43.296 21.3932L43.926 21.8802C43.8693 21.8356 43.8177 21.785 43.772 21.7292L44.259 22.3592C44.2281 22.3152 44.201 22.2687 44.178 22.2202L44.492 22.9632C44.4737 22.9159 44.4599 22.8671 44.451 22.8172L44.562 23.6442C44.5578 23.5956 44.5578 23.5468 44.562 23.4982L44.451 24.3252C44.4607 24.2607 44.4782 24.1975 44.503 24.1372L44.189 24.8802C44.2105 24.8372 44.2356 24.796 44.264 24.7572L43.777 25.3872C43.8071 25.3507 43.8405 25.3172 43.877 25.2872L43.247 25.7742C43.2726 25.7557 43.3001 25.74 43.329 25.7272L42.586 26.0412C42.6152 26.0282 42.6457 26.0185 42.677 26.0122C43.0719 25.9211 43.4364 25.7292 43.735 25.4552C44.0717 25.2372 44.3471 24.9366 44.535 24.5822C44.7587 24.2362 44.8861 23.8368 44.904 23.4252C44.9966 23.014 44.9773 22.5854 44.848 22.1842C44.6288 21.4031 44.1165 20.7368 43.418 20.3242C42.687 19.9183 41.8288 19.806 41.018 20.0102L41.022 20.0172Z" fill="#73A7E3"/>
</svg>
