<svg width="555" height="200" viewBox="0 0 555 200" fill="none" xmlns="http://www.w3.org/2000/svg">
<path d="M114.542 159.818C114.542 160.39 114.733 161.248 115.114 162.392L115.4 162.106C119.595 149.141 124.361 131.313 129.7 108.624C135.039 85.9347 139.71 65.0567 143.714 45.99C147.718 26.7327 150.292 14.3393 151.436 8.80999C151.817 6.14066 153.152 4.13866 155.44 2.80399C157.728 1.27866 160.111 0.801995 162.59 1.37399C165.069 1.75533 166.975 3.08999 168.31 5.37799C169.835 7.47533 170.407 9.85866 170.026 12.528C168.882 18.0573 166.213 30.546 162.018 49.994C158.014 69.442 153.247 90.7013 147.718 113.772C142.379 136.652 137.517 154.67 133.132 167.826C129.7 178.694 126.459 185.653 123.408 188.704C121.12 190.992 118.26 192.136 114.828 192.136C111.968 192.136 109.203 190.897 106.534 188.418C104.246 185.939 102.053 181.84 99.956 176.12C96.3333 166.968 92.0433 150.285 87.086 126.07C76.4087 155.242 67.5427 175.071 60.488 185.558C56.6747 191.469 52.766 195.377 48.762 197.284C46.474 198.428 44.2813 199 42.184 199C41.04 199 40.182 198.905 39.61 198.714C36.9407 198.333 34.6527 196.903 32.746 194.424C29.886 190.992 27.026 183.651 24.166 172.402C20.9247 158.674 17.588 140.179 14.156 116.918C10.724 93.466 7.76867 72.016 5.29 52.568C3.002 32.9293 1.572 20.25 1 14.53C0.618667 11.8607 1.286 9.47732 3.002 7.38C4.718 5.28265 6.81533 4.13865 9.294 3.94799C11.9633 3.75732 14.3467 4.51999 16.444 6.23599C18.5413 7.95199 19.6853 10.0493 19.876 12.528C20.448 18.0573 21.878 30.546 24.166 49.994C26.454 69.2513 29.2187 90.4153 32.46 113.486C35.892 136.366 39.2287 154.575 42.47 168.112L44.758 175.262C47.046 171.449 48.9527 168.017 50.478 164.966C54.8633 156.577 59.2487 146.567 63.634 134.936C68.21 123.305 72.0233 113.009 75.074 104.048C78.1247 95.0867 80.0313 89.3667 80.794 86.888C81.5567 84.9813 82.7007 83.456 84.226 82.312C85.942 80.9773 87.8487 80.31 89.946 80.31C92.234 80.31 94.236 81.0727 95.952 82.598C97.8587 83.9327 98.9073 85.744 99.098 88.032C99.098 89.176 100.814 98.614 104.246 116.346C107.869 134.078 111.301 148.569 114.542 159.818ZM188.565 87.174C188.565 89.6527 187.611 91.8453 185.705 93.752C183.989 95.468 181.796 96.326 179.127 96.326C177.029 96.326 175.027 95.6587 173.121 94.324C171.405 92.7987 170.356 90.892 169.975 88.604C169.975 85.5533 170.451 83.17 171.405 81.454C172.549 79.5473 174.646 78.308 177.697 77.736C180.557 77.3547 183.035 78.1173 185.133 80.024C187.421 81.74 188.565 84.1233 188.565 87.174ZM170.261 120.922C170.261 118.253 171.214 116.06 173.121 114.344C175.027 112.437 177.22 111.484 179.699 111.484C182.368 111.484 184.561 112.437 186.277 114.344C188.183 116.251 189.137 118.539 189.137 121.208C189.137 126.547 189.232 137.319 189.423 153.526C189.613 169.733 190.281 181.268 191.425 188.132C191.806 190.801 191.234 193.185 189.709 195.282C188.183 197.379 186.181 198.619 183.703 199C181.033 199.381 178.65 198.809 176.553 197.284C174.455 195.568 173.216 193.471 172.835 190.992C171.691 183.747 170.928 171.735 170.547 154.956C170.356 137.987 170.261 126.642 170.261 120.922ZM250.834 174.69C252.741 176.597 253.694 178.885 253.694 181.554C253.694 184.223 252.836 186.416 251.12 188.132C243.875 195.377 236.82 199 229.956 199C222.902 198.619 217.277 194.805 213.082 187.56C208.506 178.98 205.646 163.155 204.502 140.084L193.062 141.228C190.393 141.419 188.01 140.561 185.912 138.654C183.815 136.747 182.766 134.459 182.766 131.79C182.766 129.311 183.624 127.214 185.34 125.498C186.866 123.782 188.868 122.733 191.346 122.352L204.502 120.922V114.344C204.502 110.721 204.598 108.052 204.788 106.336C204.788 105.383 204.884 104.62 205.074 104.048C204.884 103.667 204.788 103.285 204.788 102.904C204.979 102.523 205.074 102.141 205.074 101.76C205.837 97.9467 207.267 95.754 209.364 95.182C211.462 94.4193 213.654 94.038 215.942 94.038C220.9 94.9913 223.569 97.8513 223.95 102.618L223.664 107.48C223.474 109.005 223.378 111.484 223.378 114.916C223.378 116.823 223.283 118.253 223.092 119.206L232.53 118.348C235.2 117.967 237.583 118.729 239.68 120.636C241.778 122.543 242.826 124.926 242.826 127.786C242.826 130.074 241.968 132.171 240.252 134.078C238.727 135.794 236.82 136.747 234.532 136.938L223.378 138.082C223.95 153.907 225.285 165.633 227.382 173.26C227.764 174.595 228.336 176.025 229.098 177.55C230.052 178.885 230.624 179.743 230.814 180.124L232.244 179.266C233.007 178.885 234.818 177.455 237.678 174.976C239.394 173.069 241.682 172.116 244.542 172.116C247.021 172.116 249.118 172.974 250.834 174.69ZM305.682 155.814L302.822 148.95C301.868 149.903 300.629 151.905 299.104 154.956C297.006 159.532 295.004 165.157 293.098 171.83L291.096 178.122C288.617 185.939 287.092 190.706 286.52 192.422C286.138 194.329 284.994 195.949 283.088 197.284C281.562 198.428 279.56 199 277.082 199C275.366 198.809 273.84 198.428 272.506 197.856C271.362 197.093 270.313 195.759 269.36 193.852C269.169 193.661 268.978 193.375 268.788 192.994C268.597 192.613 268.406 191.945 268.216 190.992L267.93 187.274C265.642 169.161 262.972 147.329 259.922 121.78C257.062 96.2307 254.964 78.1173 253.63 67.44C253.248 64.7707 254.011 62.3873 255.918 60.29C257.634 58.002 259.922 56.858 262.782 56.858C265.07 56.858 267.167 57.6207 269.074 59.146C270.98 60.6713 272.029 62.6733 272.22 65.152L281.944 147.234L282.23 146.662C286.424 138.273 291.382 132.839 297.102 130.36C299.008 129.407 301.201 128.93 303.68 128.93C304.633 128.93 306.063 129.121 307.97 129.502C312.355 130.646 315.978 133.697 318.838 138.654C322.46 144.565 324.844 152.191 325.988 161.534C327.132 170.877 327.799 176.025 327.99 176.978C328.371 179.838 327.608 182.317 325.702 184.414C323.795 186.511 321.316 187.56 318.266 187.56C316.168 187.56 314.166 186.893 312.26 185.558C310.544 184.033 309.59 182.126 309.4 179.838C309.209 178.694 308.828 175.643 308.256 170.686C307.684 165.538 306.826 160.581 305.682 155.814ZM414.788 23.968C415.17 21.8707 416.218 20.1547 417.934 18.82C419.841 17.4853 421.843 16.818 423.94 16.818C426.991 16.818 429.47 18.0573 431.376 20.536C433.283 23.0147 433.855 25.684 433.092 28.544C432.139 32.3573 430.232 39.984 427.372 51.424C424.703 62.6733 422.987 70.4907 422.224 74.876C422.034 76.2107 420.794 83.0747 418.506 95.468C416.409 107.671 415.36 120.636 415.36 134.364C415.36 141.037 415.742 146.948 416.504 152.096C417.648 160.295 419.65 166.873 422.51 171.83C425.561 176.597 430.232 179.361 436.524 180.124C442.816 180.696 447.964 178.789 451.968 174.404C455.972 169.828 459.404 163.155 462.264 154.384C468.747 135.127 471.988 107.671 471.988 72.016C471.988 61.3387 471.702 51.8053 471.13 43.416C470.749 34.836 470.463 29.402 470.272 27.114C469.891 24.4447 470.654 22.0613 472.56 19.964C474.467 17.8667 476.85 16.818 479.71 16.818C482.189 16.818 484.286 17.676 486.002 19.392C487.718 20.9173 488.672 22.9193 488.862 25.398C489.053 27.8767 489.339 33.5967 489.72 42.558C490.292 51.3287 490.578 61.2433 490.578 72.302C490.578 110.245 487.146 139.607 480.282 160.39C476.088 172.593 470.463 182.126 463.408 188.99C456.544 195.663 448.346 199 438.812 199C426.8 199 417.458 195.091 410.784 187.274C404.111 179.266 399.726 168.493 397.628 154.956C396.866 149.617 396.484 143.325 396.484 136.08C396.484 125.403 397.152 115.107 398.486 105.192C399.821 95.0867 401.632 83.8373 403.92 71.444C404.683 67.0587 406.399 59.0507 409.068 47.42C411.928 35.7893 413.835 27.972 414.788 23.968ZM529.655 129.502H525.937C524.031 130.265 522.505 131.599 521.361 133.506C520.217 135.222 519.645 137.129 519.645 139.226C519.455 140.561 519.645 141.705 520.217 142.658C520.98 143.421 522.029 144.374 523.363 145.518C525.27 147.043 527.749 148.664 530.799 150.38C534.041 152.096 536.233 153.24 537.377 153.812C548.817 160.104 554.537 167.349 554.537 175.548C554.537 183.175 551.963 189.085 546.815 193.28C541.667 197.475 535.185 199.572 527.367 199.572C521.075 199.572 515.069 198.142 509.349 195.282C503.82 192.231 499.816 188.418 497.337 183.842C496.575 181.935 496.193 180.505 496.193 179.552C496.193 177.836 496.67 176.215 497.623 174.69C498.577 172.974 499.816 171.735 501.341 170.972C502.867 170.4 504.297 170.114 505.631 170.114C507.347 170.114 508.968 170.591 510.493 171.544C512.209 172.497 513.449 173.737 514.211 175.262C515.165 177.359 516.881 178.885 519.359 179.838C521.838 180.601 524.603 180.887 527.653 180.696C532.992 180.696 535.661 178.98 535.661 175.548C535.661 175.357 535.566 175.167 535.375 174.976C535.185 174.785 534.994 174.595 534.803 174.404L532.515 172.688L523.077 167.54C516.023 163.536 510.493 159.437 506.489 155.242C502.676 150.857 500.769 145.518 500.769 139.226C500.769 133.125 502.581 127.5 506.203 122.352C510.017 117.013 514.783 113.391 520.503 111.484C521.266 111.293 522.505 111.103 524.221 110.912C526.128 110.531 528.13 110.34 530.227 110.34C533.469 110.34 536.424 110.912 539.093 112.056C543.097 114.344 545.099 117.49 545.099 121.494C545.099 124.545 544.051 127.119 541.953 129.216C539.856 131.123 537.377 131.885 534.517 131.504C532.611 131.123 530.99 130.455 529.655 129.502Z" fill="#FFA700"/>
</svg>
