<svg width="836" height="200" viewBox="0 0 836 200" fill="none" xmlns="http://www.w3.org/2000/svg">
<path d="M211.47 54.43H248.04L196.365 197H156.615L124.55 108.49L91.425 197H51.675L0.265 54.43H39.22L72.875 150.89L107.855 54.43H142.835L176.755 150.89L211.47 54.43ZM331.217 199.12C285.902 199.12 252.777 168.645 252.777 125.715C252.777 82.785 285.902 52.31 331.217 52.31C376.532 52.31 409.392 82.785 409.392 125.715C409.392 168.645 376.532 199.12 331.217 199.12ZM331.217 165.2C351.887 165.2 367.522 150.36 367.522 125.715C367.522 101.07 351.887 86.23 331.217 86.23C310.547 86.23 294.647 101.07 294.647 125.715C294.647 150.36 310.547 165.2 331.217 165.2ZM476.509 73.245C486.579 59.465 503.539 52.31 525.534 52.31V90.47C522.089 90.205 519.439 89.94 516.259 89.94C493.469 89.94 478.364 102.395 478.364 129.69V197H437.024V54.43H476.509V73.245ZM656.38 197L611.33 141.085L591.455 160.695V197H550.115V0.369989H591.455V111.67L651.875 54.43H701.165L641.805 114.85L706.465 197H656.38ZM768.363 199.12C744.248 199.12 719.868 192.495 706.618 183.75L720.398 154.07C733.118 162.285 752.463 167.85 769.953 167.85C789.033 167.85 796.188 162.815 796.188 154.865C796.188 131.545 710.063 155.395 710.063 98.42C710.063 71.39 734.443 52.31 776.048 52.31C795.658 52.31 817.388 56.815 830.903 64.765L817.123 94.18C803.078 86.23 789.033 83.58 776.048 83.58C757.498 83.58 749.548 89.41 749.548 96.83C749.548 121.21 835.673 97.625 835.673 153.805C835.673 180.305 811.028 199.12 768.363 199.12Z" fill="white"/>
</svg>
