<svg width="105" height="94" viewBox="0 0 105 94" fill="none" xmlns="http://www.w3.org/2000/svg">
<path d="M85.5833 12.0788C71.7953 33.0907 52.9044 50.2631 30.6767 61.9907C24.1639 65.3786 17.4246 68.3122 10.5071 70.7705C9.52319 71.2 8.7502 72.0029 8.3582 73.0024C8.1641 73.4973 8.06938 74.0256 8.07945 74.5571C8.08952 75.0886 8.20419 75.6129 8.41689 76.1001C8.62959 76.5873 8.93617 77.0279 9.31913 77.3966C9.70209 77.7653 10.1539 78.055 10.6488 78.2491C11.1437 78.4432 11.672 78.5379 12.2035 78.5278C12.735 78.5177 13.2594 78.4031 13.7466 78.1904C45.8814 66.8198 73.4196 45.2585 92.1676 16.7901C95.0315 12.4611 88.4692 7.71654 85.5833 12.0788Z" fill="#252524"/>
<path d="M29.8127 79.2971L21.6043 75.8122L17.3824 74.0197L15.2718 73.1231C14.9759 72.954 14.6611 72.8202 14.3339 72.7245C15.5313 72.8795 14.7349 76.8855 15.5478 75.544C16.1979 74.2652 16.7594 72.9433 17.2285 71.5876L19.0101 67.4014L22.5764 59.0345C22.9466 58.0297 22.9071 56.9197 22.4663 55.9437C22.0256 54.9678 21.2189 54.2042 20.2202 53.8177C19.2146 53.4622 18.1106 53.5088 17.1385 53.9478C16.1665 54.3868 15.4016 55.1843 15.0034 56.1738L10.8449 65.9403L8.86522 70.5905C8.04179 72.5261 7.04873 74.3777 7.66964 76.5269C8.30411 78.723 10.2147 79.7635 12.1769 80.5975L17.1026 82.6887L26.9545 86.8732C27.9596 87.2427 29.0696 87.2024 30.0452 86.7609C31.0208 86.3195 31.7838 85.5122 32.1696 84.5133C32.5254 83.5078 32.4789 82.4036 32.0398 81.4315C31.6008 80.4594 30.8024 79.6951 29.8127 79.2971Z" fill="#252524"/>
</svg>
