<svg width="85" height="110" viewBox="0 0 85 110" fill="none" xmlns="http://www.w3.org/2000/svg">
<path d="M61.586 10.398C55.816 34.8585 43.9377 57.4564 27.0615 76.079C22.1002 81.4901 16.7707 86.5517 11.1112 91.2277C10.3335 91.9679 9.88169 92.9867 9.85518 94.06C9.84206 94.5915 9.93374 95.1203 10.125 95.6163C10.3162 96.1123 10.6033 96.5658 10.9698 96.9509C11.3363 97.3359 11.7751 97.645 12.2611 97.8605C12.747 98.076 13.2707 98.1937 13.8021 98.2068C14.3336 98.22 14.8624 98.1283 15.3584 97.937C15.8544 97.7458 16.3079 97.4587 16.693 97.0922C43.0008 75.4166 61.5039 45.737 69.3845 12.5733C70.5951 7.52581 62.8058 5.31181 61.586 10.398Z" fill="white"/>
<path d="M32.1688 92.6373L23.2635 92.17L18.6831 91.9296L16.3932 91.8089C16.0572 91.7512 15.7157 91.7331 15.3755 91.7551C16.5537 91.4912 17.1754 95.528 17.4805 93.9894C17.654 92.5653 17.7296 91.1311 17.7066 89.6967L17.9491 85.1537L18.4386 76.0716C18.4429 75.0008 18.0261 73.9712 17.2781 73.2049C16.5302 72.4386 15.511 71.9969 14.4403 71.9752C13.3738 71.9851 12.3523 72.4065 11.589 73.1515C10.8257 73.8965 10.3797 74.9075 10.344 75.9735L9.77663 86.5733L9.50676 91.6202C9.39499 93.7206 9.09509 95.8002 10.4136 97.6074C11.761 99.4541 13.9122 99.7784 16.0413 99.8911L21.3852 100.171L32.0742 100.734C33.145 100.737 34.1743 100.32 34.94 99.5714C35.7058 98.8229 36.1467 97.8034 36.1676 96.7328C36.158 95.6662 35.7366 94.6445 34.9916 93.8812C34.2465 93.1179 33.2349 92.6728 32.1688 92.6373Z" fill="white"/>
</svg>
