<svg width="36" height="106" viewBox="0 0 36 106" fill="none" xmlns="http://www.w3.org/2000/svg">
<path d="M19.5469 101.131V5.31001C19.5469 -1.13299 14.5469 -1.14399 14.5469 5.31001V101.131C14.5469 107.574 19.5469 107.585 19.5469 101.131Z" fill="white"/>
<path d="M4.80094 19.1004C6.44771 16.442 8.32136 13.9309 10.4009 11.5954C11.4903 10.3781 12.6303 9.20875 13.8209 8.08742C14.3383 7.60075 14.8646 7.12375 15.3999 6.65642C15.9189 6.20342 17.0149 5.60642 17.3639 5.01942L17.4639 4.94142C16.2993 4.57275 15.9589 4.59042 16.4429 4.99442C16.7462 5.38229 17.0989 5.72889 17.4919 6.02542L19.4179 7.91842L23.2719 11.7004L31.3249 19.6154C33.6249 21.8734 37.1599 18.3404 34.8609 16.0794L25.7609 7.13242L21.2049 2.66242C19.6979 1.18042 18.1709 -0.59958 15.8339 0.20042C14.1179 0.78342 12.5509 2.49442 11.2239 3.68942C9.85127 4.92209 8.54061 6.22075 7.29194 7.58542C4.75195 10.3678 2.47273 13.3774 0.482939 16.5764C-1.22406 19.3154 3.10094 21.8284 4.80094 19.1004Z" fill="white"/>
</svg>
