<svg width="269" height="99" viewBox="0 0 269 99" fill="none" xmlns="http://www.w3.org/2000/svg">
<path d="M9.06789 91.9138L9.01825 89.8635L8.5242 87.8433C8.4045 87.4824 8.27476 86.9733 8.13499 86.3161C7.99261 85.4448 7.73796 84.1465 7.37105 82.4213C6.67217 79.1352 5.47702 74.3232 3.78559 67.9852L1.46203 59.7853C1.30738 59.26 1.35068 58.7571 1.59193 58.2764C1.87426 57.7871 2.29421 57.4401 2.85181 57.2357C3.37706 57.081 3.88438 57.1449 4.37376 57.4272C4.90422 57.7008 5.27168 58.1164 5.47613 58.674C5.66572 59.3635 6.00559 60.5578 6.49573 62.2568C6.98587 63.9558 7.40435 65.5197 7.75119 66.9486C9.02589 71.5291 10.0813 75.6839 10.9173 79.4131C11.0292 79.1317 11.1573 78.8254 11.3015 78.4941C11.4457 78.1629 11.6105 77.8274 11.7958 77.4874C12.9723 75.3481 14.4231 74.095 16.1483 73.7281C17.0109 73.5446 17.8967 73.5709 18.8055 73.8069C20.5412 74.2965 21.8681 75.3882 22.7865 77.0819C23.1317 77.6955 23.4178 78.5362 23.645 79.6042C23.9158 80.8776 24.0061 82.2108 23.916 83.6038C23.7638 85.3106 23.3214 86.8644 22.589 88.2653C21.8888 89.6164 20.9632 90.7148 19.8122 91.5607C18.8901 92.272 17.7718 92.7675 16.4574 93.047C15.4716 93.2567 14.5168 93.3095 13.5931 93.2054C13.5808 93.5515 13.5467 93.7949 13.4907 93.9356C13.4015 94.7274 13.1236 95.2373 12.6569 95.4653C12.24 95.7257 11.838 95.8542 11.4508 95.8506C10.6031 95.9021 9.96425 95.5228 9.53434 94.7126L9.28927 93.8631C9.20191 93.4524 9.12812 92.8026 9.06789 91.9138ZM13.3195 87.9827L13.2696 88.9593C14.0876 89.1718 14.8663 89.1994 15.6057 89.0421C16.1807 88.9198 16.7663 88.645 17.3623 88.2177C18.766 87.1464 19.5736 85.4934 19.7853 83.2587C19.8745 82.4669 19.8187 81.5987 19.6177 80.6539C19.5216 80.2021 19.4269 79.8573 19.3334 79.6196C18.9419 78.5865 18.4076 77.9918 17.7303 77.8353C17.4576 77.7645 17.2391 77.7465 17.0748 77.7815C16.4997 77.9038 15.9548 78.4705 15.44 79.4816C14.4488 81.281 13.7419 84.1147 13.3195 87.9827ZM37.2308 68.6003C37.3741 68.8703 37.5244 69.375 37.6816 70.1144C38.0049 71.6342 38.0584 74.0057 37.8423 77.2287C37.8475 77.657 37.6753 78.0585 37.3257 78.4334C37.0171 78.7996 36.637 79.0307 36.1851 79.1268C35.6101 79.2491 35.0984 79.1647 34.6501 78.8737C34.193 78.5415 33.9077 78.1085 33.7942 77.5745C33.733 77.287 33.7099 77.0772 33.7247 76.9452C33.7842 76.4174 33.8162 75.6592 33.8206 74.6708C33.8661 73.6737 33.8588 72.7307 33.7986 71.8419L33.7461 71.5954C33.0233 72.4361 32.3922 73.708 31.8529 75.4113C31.4254 76.8332 31.0394 78.9546 30.6948 81.7757C30.6205 82.4355 30.5588 83.4576 30.5097 84.8419L30.4007 87.0547L30.4623 87.0416C30.4387 87.1325 30.4239 87.2645 30.4177 87.4375C30.4029 87.5695 30.3718 87.7263 30.3246 87.9081C30.2887 88.3451 30.1812 88.647 30.0021 88.8139C29.7197 89.3033 29.3116 89.6048 28.7776 89.7184C28.5311 89.7708 28.3419 89.7896 28.21 89.7747C27.4269 89.7266 26.813 89.3634 26.3682 88.6852C26.1078 88.2683 25.7461 86.9713 25.2831 84.7943L22.8954 75.3844L22.0908 72.2066C21.9685 71.6316 22.0485 71.0993 22.3308 70.61C22.6542 70.1118 23.0829 69.806 23.6169 69.6924C24.1832 69.529 24.7154 69.6091 25.2136 69.9325C25.7029 70.2148 26.0044 70.6229 26.118 71.1569L26.9226 74.3346L27.3774 76.17C27.6667 74.9063 28.0029 73.7614 28.3857 72.7355C29.3132 70.4344 30.5521 68.6897 32.1026 67.5013C32.6576 67.0827 33.2226 66.8123 33.7977 66.69C34.1263 66.6201 34.5545 66.6149 35.0824 66.6743C36.0411 66.9427 36.7572 67.5847 37.2308 68.6003ZM30.4492 86.98L30.4623 87.0416L30.4492 86.98ZM50.1774 69.582L50.9692 69.6713L51.1685 68.7916C51.3399 67.9824 51.8158 67.4948 52.5962 67.3288C52.9248 67.2589 53.246 67.255 53.5598 67.3171C53.9146 67.3704 54.1623 67.4251 54.303 67.481C54.8684 67.9189 55.2459 68.4826 55.4355 69.1722C55.5403 69.6651 55.5892 70.2987 55.5822 71.073C55.6075 71.7975 55.6127 72.2257 55.5978 72.3577L55.7392 74.8393C55.7801 76.8485 55.9359 78.4897 56.2068 79.7631C56.2941 80.1739 56.4488 80.6991 56.6707 81.3389C56.8751 81.8964 56.8406 82.4405 56.567 82.9709C56.3257 83.4516 55.9469 83.7898 55.4303 83.9855C54.8728 84.1899 54.3287 84.1554 53.7983 83.8818C53.2678 83.6082 52.9253 83.2088 52.7706 82.6835C52.5137 81.8795 52.3416 81.2721 52.2543 80.8613L52.1101 80.1836C51.41 81.5346 50.6736 82.6143 49.901 83.4226C48.9902 84.3891 48.0009 84.986 46.9329 85.2131C46.44 85.3179 46.0616 85.3555 45.7976 85.3257C44.6274 85.2741 43.5635 84.8134 42.6057 83.9438C41.4985 82.9771 40.7876 81.7544 40.4731 80.2757C40.1849 78.9202 40.2632 77.5725 40.7081 76.2328C41.0884 74.9927 41.709 73.8733 42.5699 72.8744C43.4632 71.8258 44.4748 71.031 45.6049 70.4901C45.9982 70.3206 46.7904 70.1092 47.9816 69.8558C48.8031 69.6811 49.5351 69.5899 50.1774 69.582ZM50.1443 73.9684C50.1443 73.9684 50.0446 73.9037 49.8454 73.7743L49.0798 73.8083C48.2172 73.9918 47.6304 74.1595 47.3192 74.3116C46.7293 74.5658 46.1992 75.0006 45.729 75.6158C45.25 76.1899 44.8912 76.8244 44.6526 77.5192C44.4463 78.1641 44.4086 78.7947 44.5397 79.4108C44.662 79.9859 44.9355 80.4644 45.3602 80.8463C45.6267 81.0902 45.8421 81.1946 46.0064 81.1597C46.1795 81.1658 46.3879 81.0356 46.6318 80.7691C47.1457 80.3592 47.7173 79.6151 48.3466 78.5367C49.1997 76.8955 49.771 75.4431 50.0604 74.1794L50.1443 73.9684ZM67.9022 69.934L67.707 68.1079C66.8801 69.8723 66.1628 71.8496 65.5553 74.0396C64.98 76.1798 64.6732 77.3614 64.6347 77.5842C64.6111 77.6751 64.5149 78.2323 64.3462 79.2556C64.1774 80.279 63.9606 81.0765 63.6958 81.648C63.4545 82.1286 63.1665 82.4904 62.8318 82.7334C62.5058 83.0174 62.1741 83.1738 61.8368 83.2026C61.3028 83.3162 60.8116 83.2274 60.3633 82.9363C60.2226 82.8804 60.0352 82.7056 59.801 82.4119C59.5668 82.1183 59.3973 81.725 59.2924 81.2321C59.0242 80.1728 58.6146 77.641 58.0634 73.6365C57.5036 69.591 57.1411 66.8774 56.9761 65.4957C56.8948 64.9119 57.0203 64.3915 57.3524 63.9344C57.7256 63.4686 58.2041 63.1951 58.7879 63.1139C59.3307 63.0414 59.8349 63.1918 60.3007 63.565C60.7577 63.8971 61.0269 64.3551 61.1081 64.9389C61.1457 65.3173 61.2339 66.1358 61.3727 67.3942C61.5439 68.6029 61.747 70.0624 61.9819 71.7727C63.2521 67.8532 64.3648 65.2123 65.3202 63.8499C66.008 62.8449 66.8742 62.2743 67.9185 62.138C68.8982 62.1014 69.735 62.503 70.4288 63.343C70.9322 64.0946 71.3367 65.1892 71.6425 66.6269C71.8084 67.4073 71.9478 68.3652 72.0604 69.5005C72.1093 70.1341 72.1323 72.3618 72.1293 76.1835C72.1587 79.9554 72.1694 82.5292 72.1615 83.9048C72.1929 84.4562 71.9927 84.9282 71.5609 85.3205C71.179 85.7452 70.6918 85.9776 70.0992 86.0178C69.539 86.0081 69.0422 85.7918 68.6088 85.3688C68.2251 84.9781 68.0338 84.4821 68.0347 83.8808C68.0514 82.5463 68.0538 80.0342 68.0419 76.3444C68.03 72.6546 67.9834 70.5178 67.9022 69.934ZM83.1997 63.2029L83.8984 63.7627L78.6028 42.7995C78.4804 42.2244 78.5605 41.6922 78.8428 41.2028C79.1662 40.7047 79.5949 40.3988 80.1289 40.2853C80.6952 40.1219 81.2274 40.2019 81.7255 40.5253C82.2149 40.8076 82.5208 41.2363 82.6431 41.8114C83.3603 44.5783 84.6796 49.7718 86.6007 57.3919C88.5132 64.9709 89.5934 69.1419 89.8416 69.9048C89.9202 70.2745 90.0879 70.8614 90.3448 71.6654C90.5729 72.1321 90.7175 72.5093 90.7786 72.7968C90.8398 73.0843 90.8629 73.2941 90.8481 73.426C90.8646 74.1095 90.5543 74.6692 89.9172 75.1052L89.5121 75.3202C88.2508 77.2629 86.6754 78.4351 84.7859 78.837C82.9375 79.2301 81.1298 78.9062 79.3628 77.8651C77.9444 77.0505 76.7201 75.937 75.6899 74.5246C74.6596 73.1123 73.9698 71.5845 73.6203 69.9415C73.1573 67.7645 73.358 65.983 74.2225 64.597C75.0869 63.211 76.2791 62.3563 77.7989 62.0331C79.5241 61.6662 81.3243 62.0561 83.1997 63.2029ZM83.9211 74.7705C84.6605 74.6132 85.3417 74.0819 85.9649 73.1766C85.5202 72.4983 85.1545 71.8892 84.8678 71.3491C84.6835 71.0877 84.4231 70.6708 84.0866 70.0984C83.7415 69.4848 83.402 68.9989 83.0682 68.6406C82.1838 67.7124 81.4677 67.0704 80.9198 66.7146C80.073 66.1649 79.3415 65.9555 78.7253 66.0865C78.2735 66.1826 77.9593 66.4212 77.7827 66.8022C77.6062 67.1832 77.538 67.67 77.5781 68.2626C77.5807 68.4767 77.6257 68.7891 77.7131 69.1999C77.9315 70.2268 78.3758 71.2056 79.046 72.1364C79.7075 73.0262 80.4822 73.7415 81.3701 74.2826C82.3314 74.7651 83.1817 74.9277 83.9211 74.7705ZM110.342 56.6575L109.541 56.8279C109.165 57.0796 108.898 57.437 108.738 57.9002C108.571 58.3223 108.535 58.7592 108.631 59.2111C108.651 59.5073 108.744 59.745 108.911 59.9242C109.111 60.0536 109.38 60.2109 109.72 60.3962C110.201 60.6375 110.809 60.873 111.545 61.1029C112.322 61.3241 112.847 61.4701 113.119 61.5409C115.872 62.3723 117.436 63.6711 117.812 65.4373C118.161 67.0804 117.878 68.4717 116.961 69.6112C116.044 70.7508 114.744 71.4996 113.059 71.8578C111.704 72.1461 110.344 72.1132 108.981 71.7591C107.65 71.3553 106.613 70.7172 105.869 69.845C105.618 69.4691 105.47 69.1785 105.426 68.9732C105.348 68.6035 105.376 68.2325 105.511 67.8602C105.638 67.4468 105.848 67.1231 106.142 66.8889C106.445 66.6957 106.739 66.5686 107.027 66.5075C107.397 66.4288 107.768 66.4573 108.14 66.5928C108.553 66.7195 108.877 66.9297 109.111 67.2234C109.413 67.6316 109.852 67.8815 110.43 67.9733C110.999 68.0241 111.608 67.959 112.256 67.7782C113.406 67.5336 113.903 67.0416 113.745 66.3022C113.737 66.2611 113.707 66.2244 113.658 66.1921C113.608 66.1597 113.558 66.1274 113.508 66.0951L112.937 65.8302L110.668 65.1536C108.964 64.6142 107.585 63.9844 106.53 63.2642C105.508 62.4942 104.853 61.4314 104.564 60.0759C104.285 58.7615 104.417 57.4668 104.962 56.1917C105.539 54.8669 106.4 53.868 107.545 53.1952C107.7 53.1192 107.958 53.0213 108.319 52.9016C108.713 52.7321 109.135 52.5993 109.587 52.5032C110.285 52.3547 110.948 52.3425 111.576 52.4667C112.543 52.7761 113.119 53.3621 113.302 54.2247C113.442 54.8819 113.334 55.4845 112.978 56.0325C112.614 56.5393 112.115 56.8172 111.481 56.8661C111.053 56.8713 110.673 56.8018 110.342 56.6575ZM130.566 62.5317C131.064 62.8551 131.374 63.3043 131.496 63.8794C131.619 64.4544 131.534 64.9661 131.243 65.4144C130.014 67.3073 128.661 68.411 127.182 68.7255C125.644 68.9665 124.258 68.4027 123.022 67.034C121.643 65.3953 120.302 62.117 118.999 57.1992L116.587 57.9699C116.02 58.1332 115.467 58.0576 114.928 57.7429C114.389 57.4283 114.058 56.9834 113.936 56.4083C113.822 55.8743 113.911 55.3832 114.202 54.9349C114.452 54.4953 114.835 54.1777 115.352 53.982L118.121 53.0711L117.819 51.654C117.653 50.8735 117.552 50.2941 117.514 49.9157C117.47 49.7103 117.456 49.5416 117.471 49.4097C117.412 49.3362 117.374 49.2585 117.357 49.1763C117.38 49.0854 117.383 48.9989 117.366 48.9168C117.356 48.0603 117.563 47.5224 117.989 47.3031C118.406 47.0427 118.861 46.8601 119.354 46.7552C120.465 46.7335 121.171 47.2273 121.472 48.2367L121.633 49.2973C121.662 49.6346 121.755 50.173 121.912 50.9123C121.999 51.3231 122.044 51.6355 122.047 51.8497L124.041 51.2324C124.599 51.0279 125.147 51.083 125.686 51.3977C126.225 51.7124 126.56 52.1778 126.692 52.7939C126.796 53.2868 126.708 53.778 126.425 54.2673C126.175 54.7069 125.808 54.9997 125.324 55.1456L122.974 55.9031C123.822 59.2862 124.647 61.7512 125.448 63.2981C125.591 63.5682 125.78 63.8501 126.014 64.1437C126.281 64.3876 126.443 64.5462 126.502 64.6196L126.771 64.3693C126.917 64.2522 127.242 63.8611 127.745 63.1961C128.027 62.7067 128.476 62.3965 129.092 62.2654C129.626 62.1519 130.117 62.2406 130.566 62.5317ZM141.816 50.0924L142.608 50.1816L142.807 49.302C142.979 48.4927 143.455 48.0051 144.235 47.8391C144.564 47.7693 144.885 47.7654 145.199 47.8274C145.553 47.8808 145.801 47.9354 145.942 47.9914C146.507 48.4292 146.885 48.993 147.074 49.6825C147.179 50.1754 147.228 50.809 147.221 51.5834C147.246 52.3079 147.251 52.7361 147.237 52.8681L147.378 55.3496C147.419 57.3588 147.575 59.0001 147.846 60.2735C147.933 60.6842 148.088 61.2095 148.309 61.8492C148.514 62.4068 148.479 62.9508 148.206 63.4813C147.965 63.9619 147.586 64.3001 147.069 64.4958C146.512 64.7003 145.968 64.6657 145.437 64.3921C144.907 64.1186 144.564 63.7191 144.409 63.1939C144.153 62.3898 143.98 61.7824 143.893 61.3717L143.749 60.6939C143.049 62.045 142.312 63.1247 141.54 63.933C140.629 64.8995 139.64 65.4963 138.572 65.7235C138.079 65.8283 137.7 65.8658 137.436 65.8361C136.266 65.7844 135.202 65.3238 134.244 64.4541C133.137 63.4875 132.426 62.2648 132.112 60.786C131.824 59.4305 131.902 58.0829 132.347 56.7432C132.727 55.5031 133.348 54.3836 134.209 53.3848C135.102 52.3361 136.114 51.5414 137.244 51.0005C137.637 50.831 138.429 50.6195 139.62 50.3662C140.442 50.1915 141.174 50.1002 141.816 50.0924ZM141.783 54.4787C141.783 54.4787 141.683 54.414 141.484 54.2847L140.719 54.3187C139.856 54.5022 139.269 54.6699 138.958 54.8219C138.368 55.0762 137.838 55.5109 137.368 56.1262C136.889 56.7003 136.53 57.3348 136.291 58.0295C136.085 58.6745 136.047 59.305 136.178 59.9212C136.301 60.4962 136.574 60.9747 136.999 61.3567C137.266 61.6005 137.481 61.705 137.645 61.67C137.818 61.6762 138.027 61.546 138.271 61.2794C138.784 60.8696 139.356 60.1255 139.985 59.0471C140.839 57.4059 141.41 55.9535 141.699 54.6898L141.783 54.4787ZM161.794 55.8901C162.292 56.2135 162.602 56.6627 162.725 57.2378C162.847 57.8129 162.763 58.3246 162.471 58.7729C161.243 60.6657 159.889 61.7694 158.41 62.0839C156.873 62.325 155.486 61.7612 154.251 60.3925C152.872 58.7537 151.53 55.4754 150.227 50.5577L147.815 51.3283C147.248 51.4917 146.696 51.416 146.156 51.1013C145.617 50.7867 145.287 50.3418 145.164 49.7668C145.051 49.2328 145.139 48.7416 145.43 48.2933C145.68 47.8537 146.064 47.5361 146.58 47.3404L149.349 46.4295L149.048 45.0124C148.882 44.232 148.78 43.6525 148.742 43.2741C148.699 43.0687 148.684 42.9001 148.699 42.7681C148.64 42.6947 148.602 42.6169 148.585 42.5347C148.609 42.4438 148.612 42.3573 148.594 42.2752C148.584 41.4187 148.791 40.8808 149.217 40.6615C149.634 40.4011 150.089 40.2185 150.582 40.1136C151.693 40.0919 152.399 40.5857 152.7 41.5952L152.861 42.6557C152.89 42.993 152.983 43.5314 153.14 44.2708C153.228 44.6815 153.273 44.994 153.275 45.2081L155.269 44.5908C155.827 44.3863 156.375 44.4415 156.914 44.7561C157.454 45.0708 157.789 45.5362 157.92 46.1523C158.025 46.6452 157.936 47.1364 157.653 47.6258C157.403 48.0653 157.036 48.3581 156.552 48.504L154.202 49.2615C155.05 52.6446 155.875 55.1096 156.676 56.6566C156.819 56.9266 157.008 57.2085 157.242 57.5021C157.509 57.746 157.671 57.9046 157.73 57.9781L157.999 57.7277C158.146 57.6106 158.47 57.2195 158.973 56.5545C159.255 56.0651 159.704 55.7549 160.321 55.6239C160.854 55.5103 161.346 55.599 161.794 55.8901ZM163.624 35.7943C163.737 36.3283 163.632 36.8443 163.309 37.3425C163.018 37.7908 162.585 38.0761 162.01 38.1984C161.558 38.2945 161.096 38.2424 160.624 38.0423C160.184 37.7923 159.871 37.4296 159.684 36.9541C159.544 36.2969 159.538 35.7616 159.665 35.3483C159.824 34.8851 160.219 34.522 160.85 34.259C161.448 34.0458 162.017 34.0965 162.557 34.4112C163.128 34.6761 163.484 35.1371 163.624 35.7943ZM161.226 43.9034C161.104 43.3284 161.209 42.8123 161.541 42.3553C161.865 41.8571 162.293 41.5513 162.827 41.4377C163.402 41.3154 163.918 41.4203 164.375 41.7525C164.874 42.0759 165.184 42.5251 165.306 43.1002C165.551 44.2503 166.065 46.5667 166.848 50.0494C167.632 53.5322 168.304 55.9867 168.865 57.413C169.07 57.9706 169.056 58.5103 168.823 59.032C168.591 59.5537 168.216 59.9124 167.7 60.1082C167.142 60.3126 166.602 60.2986 166.081 60.0661C165.55 59.7925 165.187 59.3974 164.991 58.8809C164.413 57.3724 163.698 54.8196 162.847 51.2224C162.029 47.5754 161.489 45.1357 161.226 43.9034ZM171.534 19.1709C172.273 19.0137 172.921 19.1335 173.478 19.5303C174.076 19.9184 174.362 20.4585 174.338 21.1506C174.311 21.6287 174.147 22.0713 173.847 22.4786C173.539 22.8447 173.138 23.0802 172.645 23.185L172.129 24.3897C171.757 25.6709 171.503 27.5066 171.368 29.8968C171.317 32.4837 171.477 35.1545 171.848 37.9091L171.971 37.8829C172.546 37.7606 173.083 37.8612 173.581 38.1846C174.071 38.4669 174.372 38.8751 174.486 39.4091C174.649 39.9754 174.569 40.5076 174.246 41.0057C173.963 41.4951 173.535 41.801 172.959 41.9233L172.651 41.9888C173.071 43.9604 173.823 46.8917 174.908 50.7826C175.579 53.13 176.062 54.895 176.356 56.0775C176.52 56.6438 176.419 57.1804 176.055 57.6872C175.731 58.1854 175.282 58.4956 174.707 58.6179C174.173 58.7314 173.682 58.6427 173.233 58.3516C172.776 58.0195 172.471 57.5908 172.316 57.0656L170.995 52.0656C169.875 48.0104 169.096 44.956 168.66 42.9022L167.304 43.1904C166.72 43.2717 166.2 43.1462 165.743 42.8141C165.245 42.4907 164.939 42.062 164.825 41.528C164.744 40.9442 164.87 40.4238 165.202 39.9667C165.525 39.4686 165.958 39.1833 166.501 39.1108L167.856 38.8225C167.272 35.4692 167.079 32.4405 167.276 29.7365C167.304 28.6572 167.412 27.3463 167.599 25.8038C167.827 24.2526 168.174 22.9553 168.639 21.9118C168.951 21.1585 169.36 20.5564 169.865 20.1055C170.361 19.6135 170.918 19.302 171.534 19.1709ZM177.824 32.7742C177.937 33.3082 177.832 33.8243 177.509 34.3224C177.218 34.7707 176.785 35.056 176.21 35.1783C175.758 35.2744 175.296 35.2224 174.824 35.0222C174.384 34.7722 174.071 34.4095 173.884 33.9341C173.744 33.2769 173.738 32.7416 173.865 32.3282C174.024 31.865 174.419 31.5019 175.05 31.2389C175.649 31.0257 176.217 31.0765 176.757 31.3911C177.328 31.656 177.684 32.117 177.824 32.7742ZM175.427 40.8834C175.304 40.3083 175.409 39.7922 175.741 39.3352C176.065 38.8371 176.493 38.5312 177.027 38.4177C177.602 38.2954 178.119 38.4003 178.576 38.7324C179.074 39.0558 179.384 39.505 179.506 40.0801C179.751 41.2302 180.265 43.5467 181.049 47.0294C181.832 50.5121 182.505 52.9666 183.065 54.3929C183.27 54.9505 183.256 55.4902 183.023 56.0119C182.791 56.5336 182.416 56.8924 181.9 57.0881C181.342 57.2925 180.803 57.2785 180.281 57.046C179.75 56.7724 179.387 56.3774 179.192 55.8608C178.613 54.3524 177.898 51.7995 177.048 48.2023C176.229 44.5553 175.689 42.1156 175.427 40.8834ZM193.24 39.0269C193.392 39.3381 193.481 39.5552 193.507 39.6785C193.629 40.2535 193.529 40.7901 193.205 41.2882C192.914 41.7366 192.481 42.0219 191.906 42.1442C191.495 42.2315 191.079 42.1913 190.657 42.0235C190.276 41.8469 189.955 41.5502 189.695 41.1333C189.686 41.0922 189.627 41.0188 189.519 40.913C189.452 40.7985 189.332 40.7382 189.159 40.7321C189.109 40.6997 189.031 40.7378 188.925 40.8461C188.811 40.9134 188.733 40.9514 188.692 40.9601C187.949 41.5045 187.418 42.2399 187.1 43.1663C186.773 44.0516 186.669 44.9753 186.788 45.9375L186.923 46.8748C187.037 47.4088 187.207 47.9092 187.435 48.3759C187.64 48.9335 187.922 49.453 188.282 49.9346C188.967 50.7335 189.503 51.1346 189.891 51.1382L190.075 51.0989C190.322 51.0464 190.555 50.9324 190.775 50.7568C191.257 50.3967 191.708 49.893 192.128 49.2454C192.614 48.4982 193.024 47.7025 193.36 46.8583C193.686 45.9731 193.883 45.18 193.948 44.4791C193.975 44.001 194.127 43.6038 194.403 43.2875C194.721 42.9624 195.105 42.7518 195.557 42.6557C196.132 42.5334 196.648 42.6383 197.105 42.9705C197.603 43.2939 197.909 43.7226 198.023 44.2566C198.075 44.503 198.094 44.6922 198.079 44.8242C197.971 46.1351 197.569 47.5731 196.871 49.1383C196.174 50.7035 195.358 52.0148 194.424 53.0721C193.375 54.1968 192.193 54.8989 190.879 55.1785C188.702 55.6415 186.751 54.7469 185.027 52.4946C184.383 51.687 183.899 50.8239 183.575 49.9054C183.294 49.1922 183.071 48.4454 182.905 47.665C182.494 45.7344 182.571 43.872 183.134 42.0779C183.688 40.2427 184.708 38.7806 186.194 37.6918C186.978 37.1387 187.678 36.7966 188.294 36.6656C188.787 36.5607 189.231 36.5306 189.627 36.5752C190.328 36.6408 190.936 36.8764 191.452 37.2819C192 37.6377 192.42 37.9991 192.713 38.3662C192.997 38.6922 193.172 38.9124 193.24 39.0269ZM208.244 35.9647L209.036 36.0539L209.235 35.1743C209.406 34.365 209.882 33.8774 210.663 33.7114C210.991 33.6415 211.312 33.6376 211.626 33.6997C211.981 33.753 212.229 33.8077 212.369 33.8636C212.935 34.3015 213.312 34.8652 213.502 35.5548C213.607 36.0477 213.656 36.6813 213.649 37.4556C213.674 38.1801 213.679 38.6083 213.664 38.7403L213.806 41.2219C213.846 43.2311 214.002 44.8723 214.273 46.1457C214.361 46.5565 214.515 47.0817 214.737 47.7215C214.942 48.2791 214.907 48.8231 214.633 49.3535C214.392 49.8342 214.013 50.1724 213.497 50.3681C212.939 50.5725 212.395 50.538 211.865 50.2644C211.334 49.9908 210.992 49.5914 210.837 49.0661C210.58 48.2621 210.408 47.6547 210.321 47.2439L210.177 46.5662C209.476 47.9172 208.74 48.9969 207.967 49.8052C207.057 50.7718 206.067 51.3686 204.999 51.5957C204.506 51.7005 204.128 51.7381 203.864 51.7084C202.694 51.6567 201.63 51.196 200.672 50.3264C199.565 49.3597 198.854 48.137 198.54 46.6583C198.251 45.3028 198.33 43.9552 198.775 42.6154C199.155 41.3753 199.775 40.2559 200.636 39.257C201.53 38.2084 202.541 37.4136 203.671 36.8727C204.065 36.7032 204.857 36.4918 206.048 36.2384C206.87 36.0637 207.601 35.9725 208.244 35.9647ZM208.211 40.351C208.211 40.351 208.111 40.2863 207.912 40.1569L207.146 40.1909C206.284 40.3744 205.697 40.5421 205.386 40.6942C204.796 40.9485 204.266 41.3832 203.795 41.9984C203.316 42.5726 202.958 43.207 202.719 43.9018C202.513 44.5467 202.475 45.1773 202.606 45.7934C202.728 46.3685 203.002 46.847 203.427 47.2289C203.693 47.4728 203.909 47.5772 204.073 47.5423C204.246 47.5484 204.454 47.4182 204.698 47.1517C205.212 46.7419 205.784 45.9977 206.413 44.9193C207.266 43.2782 207.837 41.8257 208.127 40.562L208.211 40.351ZM228.222 41.7624C228.72 42.0858 229.03 42.535 229.152 43.1101C229.274 43.6851 229.19 44.1968 228.899 44.6451C227.67 46.538 226.316 47.6416 224.838 47.9561C223.3 48.1972 221.914 47.6334 220.678 46.2647C219.299 44.626 217.958 41.3477 216.654 36.4299L214.242 37.2005C213.676 37.3639 213.123 37.2883 212.584 36.9736C212.045 36.6589 211.714 36.2141 211.592 35.639C211.478 35.105 211.567 34.6139 211.858 34.1656C212.108 33.726 212.491 33.4083 213.008 33.2126L215.777 32.3018L215.475 30.8846C215.309 30.1042 215.207 29.5248 215.17 29.1464C215.126 28.941 215.112 28.7723 215.127 28.6403C215.068 28.5669 215.03 28.4891 215.013 28.407C215.036 28.3161 215.039 28.2296 215.022 28.1474C215.011 27.291 215.219 26.7531 215.645 26.5337C216.061 26.2733 216.516 26.0907 217.009 25.9859C218.121 25.9641 218.827 26.458 219.128 27.4674L219.289 28.5279C219.318 28.8653 219.411 29.4036 219.568 30.143C219.655 30.5538 219.7 30.8662 219.703 31.0803L221.697 30.4631C222.254 30.2586 222.803 30.3137 223.342 30.6284C223.881 30.943 224.216 31.4084 224.347 32.0246C224.452 32.5175 224.363 33.0086 224.081 33.498C223.831 33.9376 223.464 34.2303 222.98 34.3762L220.629 35.1337C221.478 38.5168 222.302 40.9819 223.104 42.5288C223.247 42.7989 223.436 43.0807 223.67 43.3744C223.936 43.6183 224.099 43.7769 224.158 43.8503L224.426 43.5999C224.573 43.4828 224.898 43.0918 225.4 42.4268C225.683 41.9374 226.132 41.6272 226.748 41.4961C227.282 41.3825 227.773 41.4713 228.222 41.7624ZM230.051 21.6666C230.165 22.2005 230.06 22.7166 229.736 23.2147C229.445 23.663 229.012 23.9483 228.437 24.0706C227.985 24.1667 227.523 24.1147 227.052 23.9145C226.612 23.6645 226.299 23.3018 226.112 22.8264C225.972 22.1692 225.965 21.6339 226.092 21.2205C226.251 20.7573 226.646 20.3943 227.277 20.1312C227.876 19.9181 228.445 19.9688 228.984 20.2835C229.556 20.5483 229.911 21.0093 230.051 21.6666ZM227.654 29.7757C227.532 29.2006 227.637 28.6845 227.969 28.2275C228.292 27.7294 228.721 27.4235 229.255 27.31C229.83 27.1877 230.346 27.2926 230.803 27.6247C231.301 27.9481 231.611 28.3974 231.734 28.9724C231.978 30.1225 232.492 32.439 233.276 35.9217C234.06 39.4044 234.732 41.8589 235.293 43.2853C235.497 43.8429 235.483 44.3825 235.251 44.9042C235.018 45.426 234.644 45.7847 234.127 45.9804C233.57 46.1849 233.03 46.1708 232.508 45.9383C231.978 45.6647 231.615 45.2697 231.419 44.7532C230.841 43.2447 230.126 40.6918 229.275 37.0946C228.456 33.4476 227.916 31.0079 227.654 29.7757ZM243.45 26.6095C245.15 26.9347 246.569 27.7493 247.705 29.0534C248.882 30.3486 249.658 31.8794 250.034 33.6457C250.523 35.9459 250.253 38.1072 249.223 40.1294C248.226 42.1018 246.598 43.3282 244.338 43.8087C242.49 44.2018 240.857 43.9911 239.438 43.1765C238.02 42.3618 236.901 41.14 236.083 39.5109C235.676 38.6098 235.386 37.7485 235.211 36.927C234.748 34.7499 234.864 32.7718 235.559 30.9925C235.839 30.289 236.259 29.6414 236.82 29.0498C237.373 28.4171 238.013 27.8946 238.741 27.4821C239.313 27.1457 240.031 26.8858 240.893 26.7023C241.797 26.5101 242.649 26.4792 243.45 26.6095ZM242.647 30.7086C242.374 30.6378 242.074 30.6374 241.745 30.7072C241.417 30.7771 241.101 30.9086 240.799 31.1017C240.103 31.4644 239.664 31.9227 239.481 32.4768C239.075 33.5936 239.007 34.7888 239.278 36.0621C239.391 36.5961 239.571 37.1375 239.816 37.6864C240.188 38.4231 240.677 39.0061 241.283 39.4353C241.881 39.8233 242.59 39.93 243.412 39.7553C244.521 39.5194 245.287 38.8841 245.711 37.8494C246.135 36.8147 246.221 35.7018 245.967 34.5105C245.758 33.5247 245.369 32.7058 244.801 32.0538C244.265 31.352 243.547 30.9036 242.647 30.7086ZM261.288 28.8049L261.093 26.9788C260.266 28.7432 259.549 30.7204 258.941 32.9105C258.366 35.0507 258.059 36.2322 258.021 36.4551C257.997 36.546 257.901 37.1031 257.732 38.1265C257.564 39.1498 257.347 39.9473 257.082 40.5188C256.841 40.9995 256.553 41.3613 256.218 41.6042C255.892 41.8882 255.56 42.0446 255.223 42.0734C254.689 42.187 254.198 42.0982 253.749 41.8072C253.609 41.7512 253.421 41.5764 253.187 41.2828C252.953 40.9891 252.783 40.5958 252.679 40.1029C252.41 39.0437 252.001 36.5118 251.45 32.5074C250.89 28.4619 250.527 25.7482 250.362 24.3665C250.281 23.7827 250.406 23.2623 250.739 22.8053C251.112 22.3395 251.59 22.066 252.174 21.9847C252.717 21.9122 253.221 22.0626 253.687 22.4358C254.144 22.768 254.413 23.2259 254.494 23.8097C254.532 24.1881 254.62 25.0066 254.759 26.2651C254.93 27.4738 255.133 28.9333 255.368 30.6436C256.638 26.7241 257.751 24.0831 258.706 22.7207C259.394 21.7157 260.26 21.1451 261.305 21.0089C262.284 20.9722 263.121 21.3739 263.815 22.2138C264.318 22.9654 264.723 24.0601 265.029 25.4977C265.195 26.2782 265.334 27.236 265.447 28.3713C265.495 29.0049 265.518 31.2326 265.515 35.0543C265.545 38.8263 265.556 41.4 265.548 42.7756C265.579 43.3271 265.379 43.799 264.947 44.1914C264.565 44.6161 264.078 44.8485 263.485 44.8886C262.925 44.879 262.428 44.6626 261.995 44.2396C261.611 43.8489 261.42 43.353 261.421 42.7517C261.438 41.4172 261.44 38.905 261.428 35.2152C261.416 31.5255 261.37 29.3887 261.288 28.8049Z" fill="#FFA700"/>
</svg>
