<svg width="202" height="49" viewBox="0 0 202 49" fill="none" xmlns="http://www.w3.org/2000/svg">
<path d="M24.381 29.652C24.381 33.936 22.386 37.212 18.396 39.48C16.758 40.404 14.889 41.076 12.789 41.496C10.689 41.916 8.568 42.126 6.426 42.126C5.712 42.126 4.809 42.084 3.717 42C3.213 42.504 2.667 42.756 2.079 42.756C1.533 42.756 1.05 42.546 0.63 42.126C0.21 41.706 0 41.223 0 40.677L0.126 2.688C0.126 2.142 0.315 1.68 0.693 1.302C1.113 0.881999 1.617 0.671999 2.205 0.671999C2.499 0.671999 2.709 0.692999 2.835 0.734998C5.775 0.734998 8.295 1.071 10.395 1.743C11.949 2.205 13.293 2.898 14.427 3.822C15.561 4.704 16.359 5.796 16.821 7.098C17.073 7.896 17.199 8.715 17.199 9.555C17.199 11.907 16.065 14.049 13.797 15.981C13.209 16.485 12.537 16.989 11.781 17.493C13.839 18.123 15.603 18.795 17.073 19.509C19.257 20.643 21.021 22.071 22.365 23.793C23.709 25.473 24.381 27.426 24.381 29.652ZM13.041 9.429C13.041 7.623 11.76 6.384 9.198 5.712C7.77 5.25 6.132 4.977 4.284 4.893L4.221 16.485L4.662 16.296C4.872 16.254 5.313 16.107 5.985 15.855C6.699 15.561 7.539 15.162 8.505 14.658C9.471 14.154 10.332 13.566 11.088 12.894C12.39 11.76 13.041 10.605 13.041 9.429ZM14.301 36.771C16.065 36.141 17.493 35.259 18.585 34.125C19.677 32.949 20.223 31.479 20.223 29.715C20.223 28.245 19.761 27.006 18.837 25.998C17.955 24.948 16.737 24.024 15.183 23.226C13.839 22.554 12.411 22.008 10.899 21.588C9.387 21.126 8.106 20.811 7.056 20.643C6.006 20.475 5.334 20.37 5.04 20.328C4.746 20.328 4.473 20.265 4.221 20.139L4.158 37.905C4.62 37.947 5.355 37.968 6.363 37.968C9.387 37.968 12.033 37.569 14.301 36.771ZM29.8763 36.33C29.9603 36.918 30.0443 37.38 30.1283 37.716C30.4643 37.254 30.6953 36.855 30.8213 36.519C31.8713 34.587 32.7743 31.983 33.5303 28.707C33.7823 27.699 33.9503 26.859 34.0343 26.187C34.0763 25.977 34.0763 25.746 34.0343 25.494C34.0343 25.2 34.0553 24.948 34.0973 24.738C34.2233 24.234 34.3913 23.835 34.6013 23.541C35.0633 23.037 35.6303 22.785 36.3023 22.785C36.7643 22.785 37.2263 22.953 37.6883 23.289C38.3603 23.877 38.6963 24.759 38.6963 25.935C38.6963 26.565 38.6543 27.342 38.5703 28.266C38.4863 29.148 38.4443 29.715 38.4443 29.967L38.3183 33.369L38.2553 38.661L38.1923 41.433C38.1923 43.029 38.2553 44.646 38.3813 46.284C38.4233 46.872 38.2343 47.376 37.8143 47.796C37.3943 48.258 36.8903 48.489 36.3023 48.489C35.7563 48.489 35.2733 48.3 34.8533 47.922C34.4753 47.586 34.2653 47.145 34.2233 46.599C34.0973 45.045 34.0343 43.491 34.0343 41.937L34.0973 39.228C33.1313 40.698 32.2703 41.622 31.5143 42C31.0103 42.252 30.4853 42.378 29.9393 42.378C29.3093 42.378 28.7003 42.168 28.1123 41.748C27.0203 41.034 26.3063 39.816 25.9703 38.094C25.7603 37.212 25.6553 36.036 25.6553 34.566C25.6553 33.642 25.6973 32.718 25.7813 31.794C25.8653 30.87 25.9073 30.261 25.9073 29.967C25.9493 29.547 25.9913 29.022 26.0333 28.392C26.1173 27.72 26.1803 27.237 26.2223 26.943C26.2643 26.397 26.4743 25.956 26.8523 25.62C27.2723 25.284 27.7343 25.116 28.2383 25.116C28.8683 25.116 29.3933 25.347 29.8133 25.809C30.2333 26.271 30.4013 26.796 30.3173 27.384C30.2753 27.636 30.2123 28.077 30.1283 28.707C30.0863 29.295 30.0653 29.799 30.0653 30.219C30.0233 30.555 29.9603 31.164 29.8763 32.046C29.7923 32.886 29.7503 33.705 29.7503 34.503C29.7503 34.965 29.7923 35.574 29.8763 36.33ZM44.0237 17.367C44.0237 17.913 43.8137 18.396 43.3937 18.816C43.0157 19.194 42.5327 19.383 41.9447 19.383C41.4827 19.383 41.0417 19.236 40.6217 18.942C40.2437 18.606 40.0127 18.186 39.9287 17.682C39.9287 17.01 40.0337 16.485 40.2437 16.107C40.4957 15.687 40.9577 15.414 41.6297 15.288C42.2597 15.204 42.8057 15.372 43.2677 15.792C43.7717 16.17 44.0237 16.695 44.0237 17.367ZM39.9917 24.801C39.9917 24.213 40.2017 23.73 40.6217 23.352C41.0417 22.932 41.5247 22.722 42.0707 22.722C42.6587 22.722 43.1417 22.932 43.5197 23.352C43.9397 23.772 44.1497 24.276 44.1497 24.864C44.1497 26.04 44.1707 28.413 44.2127 31.983C44.2547 35.553 44.4017 38.094 44.6537 39.606C44.7377 40.194 44.6117 40.719 44.2757 41.181C43.9397 41.643 43.4987 41.916 42.9527 42C42.3647 42.084 41.8397 41.958 41.3777 41.622C40.9157 41.244 40.6427 40.782 40.5587 40.236C40.3067 38.64 40.1387 35.994 40.0547 32.298C40.0127 28.56 39.9917 26.061 39.9917 24.801ZM46.9045 9.177C46.5685 8.799 46.4005 8.316 46.4005 7.728C46.4005 7.098 46.6105 6.594 47.0305 6.216C47.4085 5.88 47.8915 5.712 48.4795 5.712C49.1095 5.712 49.6135 5.922 49.9915 6.342C50.9995 7.476 51.5035 9.471 51.5035 12.327C51.5035 14.469 51.2095 18.354 50.6215 23.982C50.2015 28.014 49.9915 30.912 49.9915 32.676C49.9915 33.348 50.0335 34.188 50.1175 35.196C50.2855 36.246 50.4535 37.002 50.6215 37.464C50.7895 37.884 50.9575 38.157 51.1255 38.283C51.6295 38.703 51.8815 39.249 51.8815 39.921C51.8815 40.467 51.7345 40.908 51.4405 41.244C51.0205 41.748 50.4745 42 49.8025 42C49.2985 42 48.8785 41.853 48.5425 41.559C47.3665 40.635 46.5895 39.102 46.2115 36.96C46.0015 35.91 45.8965 34.44 45.8965 32.55C45.8965 31.038 45.9595 29.463 46.0855 27.825C46.1695 26.523 46.2535 25.389 46.3375 24.423C46.4635 23.415 46.5685 22.554 46.6525 21.84C47.0725 17.808 47.3035 14.994 47.3455 13.398C47.3455 11.886 47.3035 10.836 47.2195 10.248C47.1355 9.66 47.0305 9.303 46.9045 9.177ZM63.9293 27.447L64.4963 28.14L63.6773 6.531C63.6773 5.943 63.8663 5.439 64.2443 5.019C64.6643 4.599 65.1473 4.389 65.6933 4.389C66.2813 4.347 66.7853 4.536 67.2053 4.956C67.6253 5.334 67.8353 5.817 67.8353 6.405C67.9613 9.261 68.1713 14.616 68.4653 22.47C68.7593 30.282 68.9483 34.587 69.0323 35.385C69.0323 35.763 69.0743 36.372 69.1583 37.212C69.2843 37.716 69.3472 38.115 69.3472 38.409C69.3472 38.703 69.3263 38.913 69.2843 39.039C69.1583 39.711 68.7383 40.194 68.0243 40.488L67.5833 40.614C65.9453 42.252 64.1603 43.071 62.2283 43.071C60.3383 43.071 58.6373 42.378 57.1253 40.992C55.9073 39.9 54.9413 38.556 54.2273 36.96C53.5133 35.364 53.1562 33.726 53.1562 32.046C53.1562 29.82 53.7233 28.119 54.8573 26.943C55.9913 25.767 57.3353 25.179 58.8893 25.179C60.6533 25.179 62.3333 25.935 63.9293 27.447ZM62.2283 38.913C62.9843 38.913 63.7613 38.535 64.5593 37.779C64.2653 37.023 64.0343 36.351 63.8663 35.763C63.7403 35.469 63.5723 35.007 63.3623 34.377C63.1523 33.705 62.9213 33.159 62.6693 32.739C61.9973 31.647 61.4303 30.87 60.9683 30.408C60.2543 29.694 59.5823 29.337 58.9523 29.337C58.4903 29.337 58.1333 29.505 57.8813 29.841C57.6293 30.177 57.4613 30.639 57.3773 31.227C57.3353 31.437 57.3142 31.752 57.3142 32.172C57.3142 33.222 57.5453 34.272 58.0073 35.322C58.4693 36.33 59.0783 37.191 59.8343 37.905C60.6743 38.577 61.4723 38.913 62.2283 38.913ZM104.632 3.255C105.052 3.381 105.388 3.633 105.64 4.011C105.934 4.347 106.081 4.746 106.081 5.208C106.081 5.376 106.039 5.586 105.955 5.838C105.829 6.3 105.577 6.657 105.199 6.909C104.863 7.161 104.464 7.287 104.002 7.287C103.708 7.287 103.498 7.266 103.372 7.224C103.288 7.182 103.057 7.14 102.679 7.098C102.343 7.056 101.944 7.035 101.482 7.035C98.5837 7.035 96.0217 8.148 93.7957 10.374C92.1577 12.012 90.8767 14.154 89.9527 16.8C89.0287 19.404 88.5667 22.071 88.5667 24.801C88.5667 27.279 88.9237 29.421 89.6377 31.227C91.4437 35.637 93.8797 37.842 96.9457 37.842C98.9617 37.842 100.936 37.065 102.868 35.511C104.8 33.957 106.27 32.109 107.278 29.967C107.446 29.547 107.698 29.232 108.034 29.022C108.37 28.812 108.748 28.707 109.168 28.707C109.504 28.707 109.798 28.77 110.05 28.896C110.428 29.064 110.722 29.337 110.932 29.715C111.142 30.051 111.247 30.429 111.247 30.849C111.247 31.143 111.184 31.416 111.058 31.668C109.714 34.524 107.719 36.96 105.073 38.976C102.427 40.992 99.7177 42 96.9457 42C94.7197 42 92.6197 41.265 90.6457 39.795C88.7137 38.325 87.0967 35.973 85.7947 32.739C84.9127 30.639 84.4717 28.056 84.4717 24.99C84.4717 21.672 85.0387 18.417 86.1727 15.225C87.3067 12.033 88.8817 9.45 90.8977 7.476C92.6197 5.754 94.3837 4.557 96.1897 3.885C98.0377 3.171 99.7807 2.814 101.419 2.814C102.217 2.814 102.91 2.877 103.498 3.003C104.086 3.129 104.464 3.213 104.632 3.255ZM122.732 24.99C124.328 25.662 125.546 26.754 126.386 28.266C127.268 29.778 127.709 31.437 127.709 33.243C127.709 35.595 126.995 37.653 125.567 39.417C124.181 41.139 122.333 42 120.023 42C118.133 42 116.579 41.454 115.361 40.362C114.143 39.27 113.303 37.842 112.841 36.078C112.631 35.112 112.526 34.209 112.526 33.369C112.526 31.143 113.051 29.232 114.101 27.636C114.521 27.006 115.067 26.46 115.739 25.998C116.411 25.494 117.146 25.116 117.944 24.864C118.574 24.654 119.33 24.549 120.212 24.549C121.136 24.549 121.976 24.696 122.732 24.99ZM121.094 28.833C120.842 28.707 120.548 28.644 120.212 28.644C119.876 28.644 119.54 28.707 119.204 28.833C118.448 29.043 117.923 29.4 117.629 29.904C116.999 30.912 116.684 32.067 116.684 33.369C116.684 33.915 116.747 34.482 116.873 35.07C117.083 35.868 117.44 36.54 117.944 37.086C118.448 37.59 119.12 37.842 119.96 37.842C121.094 37.842 121.976 37.38 122.606 36.456C123.236 35.532 123.551 34.461 123.551 33.243C123.551 32.235 123.341 31.353 122.921 30.597C122.543 29.799 121.934 29.211 121.094 28.833ZM139.726 30.849L139.915 29.022C138.739 30.576 137.626 32.361 136.576 34.377C135.568 36.351 135.022 37.443 134.938 37.653C134.896 37.737 134.686 38.262 134.308 39.228C133.93 40.194 133.552 40.929 133.174 41.433C132.838 41.853 132.481 42.147 132.103 42.315C131.725 42.525 131.368 42.609 131.032 42.567C130.486 42.567 130.024 42.378 129.646 42C129.52 41.916 129.373 41.706 129.205 41.37C129.037 41.034 128.953 40.614 128.953 40.11C128.911 39.018 129.037 36.456 129.331 32.424C129.625 28.35 129.835 25.62 129.961 24.234C130.003 23.646 130.234 23.163 130.654 22.785C131.116 22.407 131.641 22.239 132.229 22.281C132.775 22.323 133.237 22.575 133.615 23.037C133.993 23.457 134.161 23.961 134.119 24.549C134.077 24.927 133.993 25.746 133.867 27.006C133.783 28.224 133.678 29.694 133.552 31.416C135.61 27.846 137.248 25.494 138.466 24.36C139.348 23.52 140.314 23.142 141.364 23.226C142.33 23.394 143.065 23.961 143.569 24.927C143.905 25.767 144.073 26.922 144.073 28.392C144.073 29.19 144.01 30.156 143.884 31.29C143.8 31.92 143.359 34.104 142.561 37.842C141.805 41.538 141.28 44.058 140.986 45.402C140.902 45.948 140.608 46.368 140.104 46.662C139.642 46.998 139.117 47.124 138.529 47.04C137.983 46.914 137.542 46.599 137.206 46.095C136.912 45.633 136.828 45.108 136.954 44.52C137.248 43.218 137.773 40.761 138.529 37.149C139.285 33.537 139.684 31.437 139.726 30.849ZM157.162 36.645C157.582 37.065 157.792 37.569 157.792 38.157C157.792 38.745 157.603 39.228 157.225 39.606C155.629 41.202 154.075 42 152.563 42C151.009 41.916 149.77 41.076 148.846 39.48C147.838 37.59 147.208 34.104 146.956 29.022L144.436 29.274C143.848 29.316 143.323 29.127 142.861 28.707C142.399 28.287 142.168 27.783 142.168 27.195C142.168 26.649 142.357 26.187 142.735 25.809C143.071 25.431 143.512 25.2 144.058 25.116L146.956 24.801V23.352C146.956 22.554 146.977 21.966 147.019 21.588C147.019 21.378 147.04 21.21 147.082 21.084C147.04 21 147.019 20.916 147.019 20.832C147.061 20.748 147.082 20.664 147.082 20.58C147.25 19.74 147.565 19.257 148.027 19.131C148.489 18.963 148.972 18.879 149.476 18.879C150.568 19.089 151.156 19.719 151.24 20.769L151.177 21.84C151.135 22.176 151.114 22.722 151.114 23.478C151.114 23.898 151.093 24.213 151.051 24.423L153.13 24.234C153.718 24.15 154.243 24.318 154.705 24.738C155.167 25.158 155.398 25.683 155.398 26.313C155.398 26.817 155.209 27.279 154.831 27.699C154.495 28.077 154.075 28.287 153.571 28.329L151.114 28.581C151.24 32.067 151.534 34.65 151.996 36.33C152.08 36.624 152.206 36.939 152.374 37.275C152.584 37.569 152.71 37.758 152.752 37.842L153.067 37.653C153.235 37.569 153.634 37.254 154.264 36.708C154.642 36.288 155.146 36.078 155.776 36.078C156.322 36.078 156.784 36.267 157.162 36.645ZM163.7 34.44L163.322 34.503C163.448 35.511 163.679 36.309 164.015 36.897C164.309 37.527 164.666 37.905 165.086 38.031C165.212 38.073 165.38 38.094 165.59 38.094C166.262 38.094 167.123 37.653 168.173 36.771C168.509 36.477 168.929 36.33 169.433 36.33C170.105 36.33 170.651 36.582 171.071 37.086C171.365 37.422 171.512 37.863 171.512 38.409C171.512 39.081 171.26 39.606 170.756 39.984C168.908 41.496 167.123 42.252 165.401 42.252C163.469 42.252 161.915 41.328 160.739 39.48C159.605 37.632 159.038 35.364 159.038 32.676C159.038 31.206 159.206 29.799 159.542 28.455C159.92 27.069 160.424 25.914 161.054 24.99C162.356 23.1 163.973 22.155 165.905 22.155C166.283 22.155 166.556 22.176 166.724 22.218C167.69 22.386 168.404 22.764 168.866 23.352C169.412 23.856 169.706 24.528 169.748 25.368C169.874 26.124 169.706 27.174 169.244 28.518C168.782 29.778 168.194 30.87 167.48 31.794C166.766 32.676 166.094 33.327 165.464 33.747C165.254 33.915 164.939 34.062 164.519 34.188C164.099 34.314 163.826 34.398 163.7 34.44ZM165.338 27.195L165.527 26.376C164.939 26.586 164.456 27.153 164.078 28.077C163.784 28.623 163.574 29.295 163.448 30.093C163.826 29.715 164.099 29.4 164.267 29.148C164.519 28.812 164.876 28.161 165.338 27.195ZM183.531 30.849L183.72 29.022C182.544 30.576 181.431 32.361 180.381 34.377C179.373 36.351 178.827 37.443 178.743 37.653C178.701 37.737 178.491 38.262 178.113 39.228C177.735 40.194 177.357 40.929 176.979 41.433C176.643 41.853 176.286 42.147 175.908 42.315C175.53 42.525 175.173 42.609 174.837 42.567C174.291 42.567 173.829 42.378 173.451 42C173.325 41.916 173.178 41.706 173.01 41.37C172.842 41.034 172.758 40.614 172.758 40.11C172.716 39.018 172.842 36.456 173.136 32.424C173.43 28.35 173.64 25.62 173.766 24.234C173.808 23.646 174.039 23.163 174.459 22.785C174.921 22.407 175.446 22.239 176.034 22.281C176.58 22.323 177.042 22.575 177.42 23.037C177.798 23.457 177.966 23.961 177.924 24.549C177.882 24.927 177.798 25.746 177.672 27.006C177.588 28.224 177.483 29.694 177.357 31.416C179.415 27.846 181.053 25.494 182.271 24.36C183.153 23.52 184.119 23.142 185.169 23.226C186.135 23.394 186.87 23.961 187.374 24.927C187.71 25.767 187.878 26.922 187.878 28.392C187.878 29.19 187.815 30.156 187.689 31.29C187.605 31.92 187.164 34.104 186.366 37.842C185.61 41.538 185.085 44.058 184.791 45.402C184.707 45.948 184.413 46.368 183.909 46.662C183.447 46.998 182.922 47.124 182.334 47.04C181.788 46.914 181.347 46.599 181.011 46.095C180.717 45.633 180.633 45.108 180.759 44.52C181.053 43.218 181.578 40.761 182.334 37.149C183.09 33.537 183.489 31.437 183.531 30.849ZM200.967 36.645C201.387 37.065 201.597 37.569 201.597 38.157C201.597 38.745 201.408 39.228 201.03 39.606C199.434 41.202 197.88 42 196.368 42C194.814 41.916 193.575 41.076 192.651 39.48C191.643 37.59 191.013 34.104 190.761 29.022L188.241 29.274C187.653 29.316 187.128 29.127 186.666 28.707C186.204 28.287 185.973 27.783 185.973 27.195C185.973 26.649 186.162 26.187 186.54 25.809C186.876 25.431 187.317 25.2 187.863 25.116L190.761 24.801V23.352C190.761 22.554 190.782 21.966 190.824 21.588C190.824 21.378 190.845 21.21 190.887 21.084C190.845 21 190.824 20.916 190.824 20.832C190.866 20.748 190.887 20.664 190.887 20.58C191.055 19.74 191.37 19.257 191.832 19.131C192.294 18.963 192.777 18.879 193.281 18.879C194.373 19.089 194.961 19.719 195.045 20.769L194.982 21.84C194.94 22.176 194.919 22.722 194.919 23.478C194.919 23.898 194.898 24.213 194.856 24.423L196.935 24.234C197.523 24.15 198.048 24.318 198.51 24.738C198.972 25.158 199.203 25.683 199.203 26.313C199.203 26.817 199.014 27.279 198.636 27.699C198.3 28.077 197.88 28.287 197.376 28.329L194.919 28.581C195.045 32.067 195.339 34.65 195.801 36.33C195.885 36.624 196.011 36.939 196.179 37.275C196.389 37.569 196.515 37.758 196.557 37.842L196.872 37.653C197.04 37.569 197.439 37.254 198.069 36.708C198.447 36.288 198.951 36.078 199.581 36.078C200.127 36.078 200.589 36.267 200.967 36.645Z" fill="#FFA700"/>
</svg>
