<svg width="61" height="62" viewBox="0 0 61 62" fill="none" xmlns="http://www.w3.org/2000/svg">
<path opacity="0.137" d="M27.2049 50.335C20.9799 53.755 14.2929 56.008 7.11895 55.66L9.00595 60.214C13.1358 56.5803 16.2822 51.9635 18.1539 46.791C18.3296 46.1091 18.2335 45.3857 17.8859 44.7734C17.5383 44.161 16.9664 43.7077 16.2909 43.509C9.09995 40.935 4.91495 32.343 6.23895 25C7.77195 16.505 14.7279 9.79197 22.8649 7.39097C27.3653 5.99982 32.1647 5.89243 36.7228 7.08089C41.2809 8.26936 45.4168 10.7065 48.6649 14.118C51.6234 17.2739 53.6058 21.2182 54.373 25.4754C55.1402 29.7326 54.6595 34.1208 52.9889 38.111C51.0284 42.6893 47.476 46.4026 42.9889 48.564C38.6069 50.689 33.9729 50.845 29.2619 50.064C28.5805 49.897 27.8609 49.997 27.2508 50.3433C26.6406 50.6897 26.1859 51.2563 25.9799 51.927C25.7974 52.6091 25.8904 53.3356 26.239 53.9497C26.5876 54.5638 27.1637 55.0161 27.8429 55.209C30.2857 55.7073 32.7764 55.9324 35.2689 55.88C38.0934 55.737 40.8766 55.141 43.5119 54.115C48.683 52.1062 53.0671 48.4813 56.0119 43.78C58.8243 39.1822 60.2246 33.8599 60.0392 28.4734C59.8537 23.0869 58.0908 17.8735 54.9689 13.48C51.6078 8.8555 47.0107 5.27252 41.7055 3.14232C36.4003 1.01213 30.6019 0.421064 24.9759 1.43697C14.4929 3.16397 4.97595 10.711 1.74195 20.962C-1.70705 31.91 3.87995 44.72 14.8719 48.655L13.0089 45.373C11.3894 49.6591 8.71289 53.4663 5.22795 56.441C3.41595 58.072 4.94295 60.89 7.11895 61C15.2059 61.392 22.8859 58.8 29.8979 54.947C32.9079 53.293 30.2189 48.684 27.2049 50.34V50.335Z" fill="white"/>
</svg>
