<svg width="36" height="44" viewBox="0 0 36 44" fill="none" xmlns="http://www.w3.org/2000/svg">
<path opacity="0.273" d="M20.113 42.5699C23.4178 38.548 26.4854 34.3368 29.3 29.9579C31.932 25.8459 34.641 21.4379 35.4 16.5299C36.073 12.1529 35.176 7.42986 32.071 4.12086C30.7081 2.68595 28.9578 1.67778 27.0327 1.21888C25.1076 0.759982 23.0907 0.870101 21.227 1.53586C19.1878 2.2299 17.495 3.68383 16.501 5.59486C15.143 8.41786 15.541 11.4689 16.05 14.4449L20.25 12.6759C18.762 9.27586 16.801 5.72186 13.026 4.51686C11.2714 4.04539 9.42109 4.06472 7.67675 4.57275C5.93241 5.08078 4.36105 6.05801 3.13401 7.39786C0.254012 10.4619 -0.358988 14.8069 0.377012 18.8139C1.14901 23.0199 3.62601 26.6289 6.21601 29.9269C9.52101 34.1359 12.976 38.2359 16.361 42.3789C16.7936 42.8056 17.3769 43.0448 17.9845 43.0448C18.5922 43.0448 19.1754 42.8056 19.608 42.3789C20.026 41.9417 20.2594 41.3602 20.2594 40.7554C20.2594 40.1505 20.026 39.569 19.608 39.1319L11.934 29.7319C9.6008 27.1271 7.58843 24.2519 5.94001 21.1679C4.67601 18.5209 4.09301 15.1679 5.26801 12.3819C5.71616 11.2897 6.48279 10.3578 7.46806 9.70746C8.45334 9.05715 9.6116 8.71859 10.792 8.73586C13.808 8.94986 15.232 12.5979 16.282 14.9999C16.5632 15.479 17.01 15.8388 17.5381 16.0112C18.0663 16.1836 18.6393 16.1568 19.149 15.9359C19.6547 15.7142 20.0657 15.3207 20.3089 14.825C20.5522 14.3293 20.6121 13.7635 20.478 13.2279C20.19 11.5459 19.796 9.55786 20.466 7.91586C20.6758 7.43748 20.9837 7.00847 21.3697 6.65655C21.7557 6.30463 22.2113 6.03765 22.707 5.87286C23.8754 5.43925 25.1545 5.40462 26.3446 5.77438C27.5348 6.14414 28.569 6.89749 29.286 7.91686C33.936 14.2169 28.711 22.3859 25.221 27.8169C22.6586 31.8071 19.869 35.6467 16.866 39.3169C16.4512 39.7556 16.22 40.3365 16.22 40.9404C16.22 41.5442 16.4512 42.1251 16.866 42.5639C17.2988 42.9903 17.8819 43.2294 18.4895 43.2294C19.0971 43.2294 19.6803 42.9903 20.113 42.5639V42.5699Z" fill="white"/>
</svg>
