<svg width="260" height="59" viewBox="0 0 260 59" fill="none" xmlns="http://www.w3.org/2000/svg">
<path d="M11.4678 12.824C12.0358 14.1967 12.5328 15.948 12.9588 18.078L14.0238 14.67C15.0178 12.114 16.2958 10.3153 17.8578 9.274C18.5205 8.848 19.2305 8.635 19.9878 8.635C20.4611 8.635 20.8161 8.68233 21.0528 8.777C22.1888 9.15567 23.0408 10.1497 23.6088 11.759C23.8928 12.6583 24.0585 13.747 24.1058 15.025C24.2005 16.303 24.2241 17.2497 24.1768 17.865L24.1058 20.776C24.0111 22.1013 23.9638 23.0717 23.9638 23.687C23.9638 24.4443 24.0111 25.5093 24.1058 26.882C24.2005 28.2547 24.2715 29.2723 24.3188 29.935C24.5081 32.491 24.6028 34.1003 24.6028 34.763C24.6028 35.4257 24.3661 35.97 23.8928 36.396C23.4668 36.8693 22.9225 37.106 22.2598 37.106C21.6445 37.106 21.1001 36.893 20.6268 36.467C20.2008 36.041 19.9641 35.5203 19.9168 34.905L19.7038 31.71C19.3725 26.882 19.2305 23.8763 19.2778 22.693C19.3725 21.6517 19.4671 19.995 19.5618 17.723C19.5618 16.4923 19.5145 15.4273 19.4198 14.528C19.4198 14.4333 19.3961 14.3623 19.3488 14.315C19.1595 14.599 18.8518 15.2853 18.4258 16.374C17.9998 17.51 17.4318 19.5217 16.7218 22.409L16.2958 24.255C16.2485 24.4443 16.1065 25.1543 15.8698 26.385C15.6331 27.5683 15.3491 28.515 15.0178 29.225C14.5445 30.219 13.8345 30.8107 12.8878 31C12.3198 31.0947 11.7518 31 11.1838 30.716C10.6631 30.432 10.2608 29.9113 9.9768 29.154C9.78747 28.6333 9.6218 27.8287 9.4798 26.74C9.38513 25.604 9.31413 24.965 9.2668 24.823C8.8408 20.8943 8.29647 17.9597 7.6338 16.019C7.44447 15.4037 7.23147 14.9067 6.9948 14.528C6.7108 15.096 6.52147 15.5457 6.4268 15.877C5.90613 17.3917 5.52747 19.2377 5.2908 21.415C5.05413 23.545 4.95947 25.5093 5.0068 27.308C5.10147 28.6333 5.2198 29.4617 5.3618 29.793C5.5038 30.077 5.5748 30.4083 5.5748 30.787C5.5748 31.213 5.45647 31.6153 5.2198 31.994C4.98313 32.3727 4.6518 32.6567 4.2258 32.846C3.89447 32.988 3.56313 33.059 3.2318 33.059C2.8058 33.059 2.3798 32.9407 1.9538 32.704C1.57513 32.4673 1.29113 32.1597 1.1018 31.781C0.581134 30.4557 0.320801 28.4913 0.320801 25.888C0.320801 24.042 0.462801 22.0777 0.746801 19.995C1.07813 17.865 1.48047 15.9953 1.9538 14.386C2.5218 12.824 3.18447 11.5697 3.9418 10.623C4.7938 9.629 5.83513 9.132 7.0658 9.132C7.9178 9.132 8.72247 9.46333 9.4798 10.126C10.2845 10.7413 10.9471 11.6407 11.4678 12.824ZM37.5464 11.83C39.3451 12.5873 40.7178 13.818 41.6644 15.522C42.6584 17.226 43.1554 19.0957 43.1554 21.131C43.1554 23.7817 42.3508 26.101 40.7414 28.089C39.1794 30.0297 37.0968 31 34.4934 31C32.3634 31 30.6121 30.3847 29.2394 29.154C27.8668 27.9233 26.9201 26.314 26.3994 24.326C26.1628 23.2373 26.0444 22.2197 26.0444 21.273C26.0444 18.7643 26.6361 16.6107 27.8194 14.812C28.2928 14.102 28.9081 13.4867 29.6654 12.966C30.4228 12.398 31.2511 11.972 32.1504 11.688C32.8604 11.4513 33.7124 11.333 34.7064 11.333C35.7478 11.333 36.6944 11.4987 37.5464 11.83ZM35.7004 16.161C35.4164 16.019 35.0851 15.948 34.7064 15.948C34.3278 15.948 33.9491 16.019 33.5704 16.161C32.7184 16.3977 32.1268 16.8 31.7954 17.368C31.0854 18.504 30.7304 19.8057 30.7304 21.273C30.7304 21.8883 30.8014 22.5273 30.9434 23.19C31.1801 24.0893 31.5824 24.8467 32.1504 25.462C32.7184 26.03 33.4758 26.314 34.4224 26.314C35.7004 26.314 36.6944 25.7933 37.4044 24.752C38.1144 23.7107 38.4694 22.5037 38.4694 21.131C38.4694 19.995 38.2328 19.001 37.7594 18.149C37.3334 17.2497 36.6471 16.587 35.7004 16.161ZM62.0941 9.771C62.1888 10.1023 62.2361 10.694 62.2361 11.546C62.2361 13.2973 61.7391 15.9243 60.7451 19.427C60.6505 19.9003 60.3665 20.3027 59.8931 20.634C59.4671 20.9653 58.9938 21.131 58.4731 21.131C57.8105 21.131 57.2661 20.918 56.8401 20.492C56.4141 20.0187 56.2011 19.4743 56.2011 18.859C56.2011 18.5277 56.2248 18.291 56.2721 18.149C56.4615 17.581 56.6745 16.7527 56.9111 15.664C57.1951 14.5753 57.4081 13.534 57.5501 12.54V12.256C56.5561 13.0133 55.5621 14.2677 54.5681 16.019C53.7635 17.4863 52.8405 19.7347 51.7991 22.764C51.5625 23.474 51.2548 24.5863 50.8761 26.101L50.2371 28.515H50.3081C50.2608 28.6097 50.2135 28.7517 50.1661 28.941C50.1188 29.083 50.0478 29.2487 49.9531 29.438C49.8111 29.9113 49.6218 30.219 49.3851 30.361C48.9591 30.8343 48.4385 31.071 47.8231 31.071C47.5391 31.071 47.3261 31.0473 47.1841 31C46.3321 30.7633 45.7405 30.219 45.4091 29.367C45.2198 28.8463 45.1251 27.3317 45.1251 24.823L44.6991 13.889L44.5571 10.197C44.5571 9.53433 44.7701 8.96633 45.1961 8.493C45.6695 8.01967 46.2138 7.783 46.8291 7.783C47.4918 7.73567 48.0598 7.94867 48.5331 8.422C49.0065 8.848 49.2431 9.36867 49.2431 9.984L49.3851 13.676L49.4561 15.806C50.0715 14.4807 50.7105 13.2973 51.3731 12.256C52.9351 9.93667 54.7101 8.30367 56.6981 7.357C57.4081 7.02567 58.0945 6.86 58.7571 6.86C59.1358 6.86 59.6091 6.95467 60.1771 7.144C61.1711 7.66467 61.8101 8.54033 62.0941 9.771ZM50.3081 28.444V28.515V28.444ZM68.1852 22.48L67.7592 22.551C67.9012 23.687 68.1615 24.5863 68.5402 25.249C68.8715 25.959 69.2738 26.385 69.7472 26.527C69.8892 26.5743 70.0785 26.598 70.3152 26.598C71.0725 26.598 72.0428 26.101 73.2262 25.107C73.6048 24.7757 74.0782 24.61 74.6462 24.61C75.4035 24.61 76.0188 24.894 76.4922 25.462C76.8235 25.8407 76.9892 26.3377 76.9892 26.953C76.9892 27.7103 76.7052 28.302 76.1372 28.728C74.0545 30.432 72.0428 31.284 70.1022 31.284C67.9248 31.284 66.1735 30.2427 64.8482 28.16C63.5702 26.0773 62.9312 23.5213 62.9312 20.492C62.9312 18.8353 63.1205 17.2497 63.4992 15.735C63.9252 14.173 64.4932 12.8713 65.2032 11.83C66.6705 9.7 68.4928 8.635 70.6702 8.635C71.0962 8.635 71.4038 8.65867 71.5932 8.706C72.6818 8.89533 73.4865 9.32133 74.0072 9.984C74.6225 10.552 74.9538 11.3093 75.0012 12.256C75.1432 13.108 74.9538 14.2913 74.4332 15.806C73.9125 17.226 73.2498 18.4567 72.4452 19.498C71.6405 20.492 70.8832 21.2257 70.1732 21.699C69.9365 21.8883 69.5815 22.054 69.1082 22.196C68.6348 22.338 68.3272 22.4327 68.1852 22.48ZM70.0312 14.315L70.2442 13.392C69.5815 13.6287 69.0372 14.2677 68.6112 15.309C68.2798 15.9243 68.0432 16.6817 67.9012 17.581C68.3272 17.155 68.6348 16.8 68.8242 16.516C69.1082 16.1373 69.5105 15.4037 70.0312 14.315ZM98.6087 3.239C98.6087 3.85433 98.372 4.39866 97.8987 4.872C97.4727 5.298 96.9283 5.511 96.2657 5.511C95.745 5.511 95.248 5.34533 94.7747 5.014C94.3487 4.63533 94.0883 4.162 93.9937 3.594C93.9937 2.83667 94.112 2.245 94.3487 1.819C94.6327 1.34566 95.1533 1.038 95.9107 0.895998C96.6207 0.801331 97.236 0.990665 97.7567 1.464C98.3247 1.89 98.6087 2.48167 98.6087 3.239ZM94.0647 11.617C94.0647 10.9543 94.3013 10.41 94.7747 9.984C95.248 9.51067 95.7923 9.274 96.4077 9.274C97.0703 9.274 97.6147 9.51067 98.0407 9.984C98.514 10.4573 98.7507 11.0253 98.7507 11.688C98.7507 13.0133 98.7743 15.6877 98.8217 19.711C98.869 23.7343 99.0347 26.598 99.3187 28.302C99.4133 28.9647 99.2713 29.5563 98.8927 30.077C98.514 30.5977 98.017 30.9053 97.4017 31C96.739 31.0947 96.1473 30.9527 95.6267 30.574C95.106 30.148 94.7983 29.6273 94.7037 29.012C94.4197 27.2133 94.2303 24.2313 94.1357 20.066C94.0883 15.8533 94.0647 13.037 94.0647 11.617ZM112.86 18.433L113.073 16.374C111.748 18.1253 110.494 20.137 109.31 22.409C108.174 24.6337 107.559 25.8643 107.464 26.101C107.417 26.1957 107.18 26.7873 106.754 27.876C106.328 28.9647 105.902 29.793 105.476 30.361C105.098 30.8343 104.695 31.1657 104.269 31.355C103.843 31.5917 103.441 31.6863 103.062 31.639C102.447 31.639 101.926 31.426 101.5 31C101.358 30.9053 101.193 30.6687 101.003 30.29C100.814 29.9113 100.719 29.438 100.719 28.87C100.672 27.6393 100.814 24.752 101.145 20.208C101.477 15.6167 101.713 12.54 101.855 10.978C101.903 10.3153 102.163 9.771 102.636 9.345C103.157 8.919 103.749 8.72967 104.411 8.777C105.027 8.82433 105.547 9.10833 105.973 9.629C106.399 10.1023 106.589 10.6703 106.541 11.333C106.494 11.759 106.399 12.682 106.257 14.102C106.163 15.4747 106.044 17.1313 105.902 19.072C108.222 15.0487 110.068 12.398 111.44 11.12C112.434 10.1733 113.523 9.74733 114.706 9.842C115.795 10.0313 116.623 10.6703 117.191 11.759C117.57 12.7057 117.759 14.0073 117.759 15.664C117.759 16.5633 117.688 17.652 117.546 18.93C117.452 19.64 116.955 22.1013 116.055 26.314C115.203 30.4793 114.612 33.3193 114.28 34.834C114.186 35.4493 113.854 35.9227 113.286 36.254C112.766 36.6327 112.174 36.7747 111.511 36.68C110.896 36.538 110.399 36.183 110.02 35.615C109.689 35.0943 109.594 34.5027 109.736 33.84C110.068 32.3727 110.659 29.6037 111.511 25.533C112.363 21.4623 112.813 19.0957 112.86 18.433ZM132.511 24.965C132.984 25.4383 133.221 26.0063 133.221 26.669C133.221 27.3317 133.008 27.876 132.582 28.302C130.783 30.1007 129.032 31 127.328 31C125.576 30.9053 124.18 29.9587 123.139 28.16C122.003 26.03 121.293 22.1013 121.009 16.374L118.169 16.658C117.506 16.7053 116.914 16.4923 116.394 16.019C115.873 15.5457 115.613 14.9777 115.613 14.315C115.613 13.6997 115.826 13.179 116.252 12.753C116.63 12.327 117.127 12.0667 117.743 11.972L121.009 11.617V9.984C121.009 9.08467 121.032 8.422 121.08 7.996C121.08 7.75933 121.103 7.57 121.151 7.428C121.103 7.33333 121.08 7.23867 121.08 7.144C121.127 7.04933 121.151 6.95467 121.151 6.86C121.34 5.91333 121.695 5.369 122.216 5.227C122.736 5.03767 123.281 4.943 123.849 4.943C125.079 5.17967 125.742 5.88967 125.837 7.073L125.766 8.28C125.718 8.65867 125.695 9.274 125.695 10.126C125.695 10.5993 125.671 10.9543 125.624 11.191L127.967 10.978C128.629 10.8833 129.221 11.0727 129.742 11.546C130.262 12.0193 130.523 12.611 130.523 13.321C130.523 13.889 130.31 14.4097 129.884 14.883C129.505 15.309 129.032 15.5457 128.464 15.593L125.695 15.877C125.837 19.8057 126.168 22.7167 126.689 24.61C126.783 24.9413 126.925 25.2963 127.115 25.675C127.351 26.0063 127.493 26.2193 127.541 26.314L127.896 26.101C128.085 26.0063 128.535 25.6513 129.245 25.036C129.671 24.5627 130.239 24.326 130.949 24.326C131.564 24.326 132.085 24.539 132.511 24.965ZM139.879 22.48L139.453 22.551C139.595 23.687 139.855 24.5863 140.234 25.249C140.565 25.959 140.967 26.385 141.441 26.527C141.583 26.5743 141.772 26.598 142.009 26.598C142.766 26.598 143.736 26.101 144.92 25.107C145.298 24.7757 145.772 24.61 146.34 24.61C147.097 24.61 147.712 24.894 148.186 25.462C148.517 25.8407 148.683 26.3377 148.683 26.953C148.683 27.7103 148.399 28.302 147.831 28.728C145.748 30.432 143.736 31.284 141.796 31.284C139.618 31.284 137.867 30.2427 136.542 28.16C135.264 26.0773 134.625 23.5213 134.625 20.492C134.625 18.8353 134.814 17.2497 135.193 15.735C135.619 14.173 136.187 12.8713 136.897 11.83C138.364 9.7 140.186 8.635 142.364 8.635C142.79 8.635 143.097 8.65867 143.287 8.706C144.375 8.89533 145.18 9.32133 145.701 9.984C146.316 10.552 146.647 11.3093 146.695 12.256C146.837 13.108 146.647 14.2913 146.127 15.806C145.606 17.226 144.943 18.4567 144.139 19.498C143.334 20.492 142.577 21.2257 141.867 21.699C141.63 21.8883 141.275 22.054 140.802 22.196C140.328 22.338 140.021 22.4327 139.879 22.48ZM141.725 14.315L141.938 13.392C141.275 13.6287 140.731 14.2677 140.305 15.309C139.973 15.9243 139.737 16.6817 139.595 17.581C140.021 17.155 140.328 16.8 140.518 16.516C140.802 16.1373 141.204 15.4037 141.725 14.315ZM167.623 9.771C167.718 10.1023 167.765 10.694 167.765 11.546C167.765 13.2973 167.268 15.9243 166.274 19.427C166.18 19.9003 165.896 20.3027 165.422 20.634C164.996 20.9653 164.523 21.131 164.002 21.131C163.34 21.131 162.795 20.918 162.369 20.492C161.943 20.0187 161.73 19.4743 161.73 18.859C161.73 18.5277 161.754 18.291 161.801 18.149C161.991 17.581 162.204 16.7527 162.44 15.664C162.724 14.5753 162.937 13.534 163.079 12.54V12.256C162.085 13.0133 161.091 14.2677 160.097 16.019C159.293 17.4863 158.37 19.7347 157.328 22.764C157.092 23.474 156.784 24.5863 156.405 26.101L155.766 28.515H155.837C155.79 28.6097 155.743 28.7517 155.695 28.941C155.648 29.083 155.577 29.2487 155.482 29.438C155.34 29.9113 155.151 30.219 154.914 30.361C154.488 30.8343 153.968 31.071 153.352 31.071C153.068 31.071 152.855 31.0473 152.713 31C151.861 30.7633 151.27 30.219 150.938 29.367C150.749 28.8463 150.654 27.3317 150.654 24.823L150.228 13.889L150.086 10.197C150.086 9.53433 150.299 8.96633 150.725 8.493C151.199 8.01967 151.743 7.783 152.358 7.783C153.021 7.73567 153.589 7.94867 154.062 8.422C154.536 8.848 154.772 9.36867 154.772 9.984L154.914 13.676L154.985 15.806C155.601 14.4807 156.24 13.2973 156.902 12.256C158.464 9.93667 160.239 8.30367 162.227 7.357C162.937 7.02567 163.624 6.86 164.286 6.86C164.665 6.86 165.138 6.95467 165.706 7.144C166.7 7.66467 167.339 8.54033 167.623 9.771ZM155.837 28.444V28.515V28.444ZM173.714 22.48L173.288 22.551C173.43 23.687 173.691 24.5863 174.069 25.249C174.401 25.959 174.803 26.385 175.276 26.527C175.418 26.5743 175.608 26.598 175.844 26.598C176.602 26.598 177.572 26.101 178.755 25.107C179.134 24.7757 179.607 24.61 180.175 24.61C180.933 24.61 181.548 24.894 182.021 25.462C182.353 25.8407 182.518 26.3377 182.518 26.953C182.518 27.7103 182.234 28.302 181.666 28.728C179.584 30.432 177.572 31.284 175.631 31.284C173.454 31.284 171.703 30.2427 170.377 28.16C169.099 26.0773 168.46 23.5213 168.46 20.492C168.46 18.8353 168.65 17.2497 169.028 15.735C169.454 14.173 170.022 12.8713 170.732 11.83C172.2 9.7 174.022 8.635 176.199 8.635C176.625 8.635 176.933 8.65867 177.122 8.706C178.211 8.89533 179.016 9.32133 179.536 9.984C180.152 10.552 180.483 11.3093 180.53 12.256C180.672 13.108 180.483 14.2913 179.962 15.806C179.442 17.226 178.779 18.4567 177.974 19.498C177.17 20.492 176.412 21.2257 175.702 21.699C175.466 21.8883 175.111 22.054 174.637 22.196C174.164 22.338 173.856 22.4327 173.714 22.48ZM175.56 14.315L175.773 13.392C175.111 13.6287 174.566 14.2677 174.14 15.309C173.809 15.9243 173.572 16.6817 173.43 17.581C173.856 17.155 174.164 16.8 174.353 16.516C174.637 16.1373 175.04 15.4037 175.56 14.315ZM192.229 13.747H191.306C190.833 13.9363 190.454 14.2677 190.17 14.741C189.886 15.167 189.744 15.6403 189.744 16.161C189.697 16.4923 189.744 16.7763 189.886 17.013C190.076 17.2023 190.336 17.439 190.667 17.723C191.141 18.1017 191.756 18.504 192.513 18.93C193.318 19.356 193.862 19.64 194.146 19.782C196.986 21.344 198.406 23.1427 198.406 25.178C198.406 27.0713 197.767 28.5387 196.489 29.58C195.211 30.6213 193.602 31.142 191.661 31.142C190.099 31.142 188.608 30.787 187.188 30.077C185.816 29.3197 184.822 28.373 184.206 27.237C184.017 26.7637 183.922 26.4087 183.922 26.172C183.922 25.746 184.041 25.3437 184.277 24.965C184.514 24.539 184.822 24.2313 185.2 24.042C185.579 23.9 185.934 23.829 186.265 23.829C186.691 23.829 187.094 23.9473 187.472 24.184C187.898 24.4207 188.206 24.7283 188.395 25.107C188.632 25.6277 189.058 26.0063 189.673 26.243C190.289 26.4323 190.975 26.5033 191.732 26.456C193.058 26.456 193.72 26.03 193.72 25.178C193.72 25.1307 193.697 25.0833 193.649 25.036C193.602 24.9887 193.555 24.9413 193.507 24.894L192.939 24.468L190.596 23.19C188.845 22.196 187.472 21.1783 186.478 20.137C185.532 19.0483 185.058 17.723 185.058 16.161C185.058 14.6463 185.508 13.25 186.407 11.972C187.354 10.6467 188.537 9.74733 189.957 9.274C190.147 9.22667 190.454 9.17933 190.88 9.132C191.354 9.03733 191.851 8.99 192.371 8.99C193.176 8.99 193.91 9.132 194.572 9.416C195.566 9.984 196.063 10.765 196.063 11.759C196.063 12.5163 195.803 13.1553 195.282 13.676C194.762 14.1493 194.146 14.3387 193.436 14.244C192.963 14.1493 192.561 13.9837 192.229 13.747ZM213.148 24.965C213.622 25.4383 213.858 26.0063 213.858 26.669C213.858 27.3317 213.645 27.876 213.219 28.302C211.421 30.1007 209.669 31 207.965 31C206.214 30.9053 204.818 29.9587 203.776 28.16C202.64 26.03 201.93 22.1013 201.646 16.374L198.806 16.658C198.144 16.7053 197.552 16.4923 197.031 16.019C196.511 15.5457 196.25 14.9777 196.25 14.315C196.25 13.6997 196.463 13.179 196.889 12.753C197.268 12.327 197.765 12.0667 198.38 11.972L201.646 11.617V9.984C201.646 9.08467 201.67 8.422 201.717 7.996C201.717 7.75933 201.741 7.57 201.788 7.428C201.741 7.33333 201.717 7.23867 201.717 7.144C201.765 7.04933 201.788 6.95467 201.788 6.86C201.978 5.91333 202.333 5.369 202.853 5.227C203.374 5.03767 203.918 4.943 204.486 4.943C205.717 5.17967 206.38 5.88967 206.474 7.073L206.403 8.28C206.356 8.65867 206.332 9.274 206.332 10.126C206.332 10.5993 206.309 10.9543 206.261 11.191L208.604 10.978C209.267 10.8833 209.859 11.0727 210.379 11.546C210.9 12.0193 211.16 12.611 211.16 13.321C211.16 13.889 210.947 14.4097 210.521 14.883C210.143 15.309 209.669 15.5457 209.101 15.593L206.332 15.877C206.474 19.8057 206.806 22.7167 207.326 24.61C207.421 24.9413 207.563 25.2963 207.752 25.675C207.989 26.0063 208.131 26.2193 208.178 26.314L208.533 26.101C208.723 26.0063 209.172 25.6513 209.882 25.036C210.308 24.5627 210.876 24.326 211.586 24.326C212.202 24.326 212.722 24.539 213.148 24.965ZM219.877 3.239C219.877 3.85433 219.641 4.39866 219.167 4.872C218.741 5.298 218.197 5.511 217.534 5.511C217.014 5.511 216.517 5.34533 216.043 5.014C215.617 4.63533 215.357 4.162 215.262 3.594C215.262 2.83667 215.381 2.245 215.617 1.819C215.901 1.34566 216.422 1.038 217.179 0.895998C217.889 0.801331 218.505 0.990665 219.025 1.464C219.593 1.89 219.877 2.48167 219.877 3.239ZM215.333 11.617C215.333 10.9543 215.57 10.41 216.043 9.984C216.517 9.51067 217.061 9.274 217.676 9.274C218.339 9.274 218.883 9.51067 219.309 9.984C219.783 10.4573 220.019 11.0253 220.019 11.688C220.019 13.0133 220.043 15.6877 220.09 19.711C220.138 23.7343 220.303 26.598 220.587 28.302C220.682 28.9647 220.54 29.5563 220.161 30.077C219.783 30.5977 219.286 30.9053 218.67 31C218.008 31.0947 217.416 30.9527 216.895 30.574C216.375 30.148 216.067 29.6273 215.972 29.012C215.688 27.2133 215.499 24.2313 215.404 20.066C215.357 15.8533 215.333 13.037 215.333 11.617ZM234.129 18.433L234.342 16.374C233.016 18.1253 231.762 20.137 230.579 22.409C229.443 24.6337 228.827 25.8643 228.733 26.101C228.685 26.1957 228.449 26.7873 228.023 27.876C227.597 28.9647 227.171 29.793 226.745 30.361C226.366 30.8343 225.964 31.1657 225.538 31.355C225.112 31.5917 224.709 31.6863 224.331 31.639C223.715 31.639 223.195 31.426 222.769 31C222.627 30.9053 222.461 30.6687 222.272 30.29C222.082 29.9113 221.988 29.438 221.988 28.87C221.94 27.6393 222.082 24.752 222.414 20.208C222.745 15.6167 222.982 12.54 223.124 10.978C223.171 10.3153 223.431 9.771 223.905 9.345C224.425 8.919 225.017 8.72967 225.68 8.777C226.295 8.82433 226.816 9.10833 227.242 9.629C227.668 10.1023 227.857 10.6703 227.81 11.333C227.762 11.759 227.668 12.682 227.526 14.102C227.431 15.4747 227.313 17.1313 227.171 19.072C229.49 15.0487 231.336 12.398 232.709 11.12C233.703 10.1733 234.791 9.74733 235.975 9.842C237.063 10.0313 237.892 10.6703 238.46 11.759C238.838 12.7057 239.028 14.0073 239.028 15.664C239.028 16.5633 238.957 17.652 238.815 18.93C238.72 19.64 238.223 22.1013 237.324 26.314C236.472 30.4793 235.88 33.3193 235.549 34.834C235.454 35.4493 235.123 35.9227 234.555 36.254C234.034 36.6327 233.442 36.7747 232.78 36.68C232.164 36.538 231.667 36.183 231.289 35.615C230.957 35.0943 230.863 34.5027 231.005 33.84C231.336 32.3727 231.928 29.6037 232.78 25.533C233.632 21.4623 234.081 19.0957 234.129 18.433ZM251.649 13.889C252.312 13.889 252.927 13.9837 253.495 14.173C253.684 13.7943 253.826 13.5577 253.921 13.463C254.442 12.9423 255.081 12.682 255.838 12.682C256.595 12.682 257.211 13.0133 257.684 13.676C258.063 14.1967 258.347 15.1907 258.536 16.658C258.867 19.3087 259.033 23.048 259.033 27.876C259.033 31.994 258.867 35.8753 258.536 39.52C258.157 44.5847 257.424 48.5607 256.335 51.448C255.483 53.9567 254.323 55.7553 252.856 56.844C251.625 57.6487 250.489 58.051 249.448 58.051C248.927 58.051 248.454 57.98 248.028 57.838C246.655 57.4593 245.543 56.631 244.691 55.353C244.123 54.5483 243.626 53.578 243.2 52.442C242.774 51.3533 242.443 50.383 242.206 49.531C242.017 48.7263 241.898 48.2057 241.851 47.969C241.756 47.259 241.946 46.62 242.419 46.052C242.892 45.5313 243.484 45.271 244.194 45.271C244.715 45.271 245.188 45.4367 245.614 45.768C246.087 46.1467 246.371 46.62 246.466 47.188C246.608 47.614 246.821 48.395 247.105 49.531C247.436 50.667 247.768 51.59 248.099 52.3C248.43 53.01 248.833 53.365 249.306 53.365C250.253 53.365 251.128 52.229 251.933 49.957C252.88 47.3063 253.542 43.6853 253.921 39.094C254.205 36.2067 254.347 32.5383 254.347 28.089V25.32C253.495 26.8347 252.525 28.089 251.436 29.083C249.874 30.645 248.194 31.426 246.395 31.426C245.685 31.426 244.975 31.284 244.265 31C241.709 29.9113 240.431 28.089 240.431 25.533C240.431 25.2017 240.478 24.7047 240.573 24.042C240.904 22.338 241.733 20.6103 243.058 18.859C244.431 17.1077 245.945 15.806 247.602 14.954C249.022 14.244 250.371 13.889 251.649 13.889ZM252.288 18.93L251.72 18.575C251.152 18.575 250.489 18.7643 249.732 19.143C248.833 19.6163 247.981 20.3027 247.176 21.202C246.419 22.054 245.851 22.9533 245.472 23.9C245.188 24.5627 245.046 25.036 245.046 25.32C245.046 25.5567 245.117 25.7933 245.259 26.03C245.401 26.314 245.685 26.527 246.111 26.669C246.442 26.811 246.75 26.811 247.034 26.669C247.365 26.4797 247.744 26.172 248.17 25.746C248.975 24.9413 249.708 23.9473 250.371 22.764C251.081 21.5807 251.625 20.5157 252.004 19.569L252.288 18.93Z" fill="white"/>
</svg>
