<svg width="51" height="59" viewBox="0 0 51 59" fill="none" xmlns="http://www.w3.org/2000/svg">
<g opacity="0.371">
<path d="M28.784 44.9029L47.87 15.7589C49.421 13.3909 50.67 11.2769 50.547 8.35894C50.5947 6.89887 50.5029 5.43757 50.273 3.99494C49.355 0.0669372 45.339 -0.105063 42.103 0.788937C40.9501 1.03146 39.826 1.39445 38.749 1.87194C37.6817 2.47848 36.7207 3.25539 35.904 4.17194C33.977 6.18594 32.104 8.25594 30.195 10.2869C26.301 14.4269 22.379 18.5389 18.476 22.6699C16.468 24.7946 14.468 26.9263 12.476 29.0649C11.5976 30.0571 10.5812 30.9179 9.45799 31.6209C8.21686 32.2764 7.04436 33.0542 5.95799 33.9429C3.80999 35.9889 4.58899 38.7659 6.67399 40.4629C7.80199 41.3809 8.94699 42.2789 10.086 43.1829C13.2193 45.6703 16.3527 48.1563 19.486 50.6409C21.263 52.0579 23.368 54.2089 25.812 52.8709C27.228 52.0949 27.603 50.5709 27.929 49.1249L29.003 44.3509L28.36 45.4509L28.393 45.4089C28.8428 44.9302 29.0933 44.2979 29.0933 43.6409C29.0933 42.984 28.8428 42.3517 28.393 41.8729C27.9219 41.4081 27.2868 41.1474 26.625 41.1474C25.9632 41.1474 25.328 41.4081 24.857 41.8729C24.1589 43.0222 23.7267 44.313 23.592 45.6509L23.163 47.5619C23.091 47.8809 23.022 48.1999 22.948 48.5179C22.721 49.4969 22.748 48.5699 23.542 48.3869H24.871C24.208 48.2959 23.247 47.2869 22.524 46.7149C21.4007 45.8209 20.2763 44.9279 19.151 44.0359C16.7663 42.1406 14.3817 40.2456 11.997 38.3509C11.729 38.1379 9.78099 36.2729 9.52599 36.3509C9.39499 36.3889 9.48699 37.6139 9.38799 37.5719C9.38799 37.5719 9.84699 37.2719 9.90899 37.2299C10.391 36.9299 10.876 36.6299 11.36 36.3299C12.485 35.7351 13.5444 35.0239 14.521 34.2079C17.885 30.9399 20.964 27.3079 24.191 23.9079C27.4857 20.4306 30.778 16.9513 34.068 13.4699C35.6813 11.7533 37.288 10.0309 38.888 8.30294C39.4414 7.63874 40.0639 7.03534 40.745 6.50294C41.4674 6.11826 42.2487 5.85636 43.057 5.72794C43.6776 5.53176 44.313 5.38562 44.957 5.29094C45.08 5.28194 45.845 5.24994 45.54 5.25994C45.154 5.27294 45.626 5.25994 45.597 5.27694C45.8177 5.3476 45.828 5.34227 45.628 5.26094C45.4633 5.18294 45.439 5.1746 45.555 5.23594C45.592 5.27094 45.235 4.89894 45.578 5.27594C45.339 5.01294 45.378 5.05794 45.342 4.92194C45.396 5.12194 45.442 5.31194 45.495 5.50894C45.527 5.64094 45.534 5.97394 45.485 5.40894C45.497 5.54394 45.513 5.67894 45.517 5.81394C45.6505 7.05982 45.6726 8.31513 45.583 9.56494C45.3423 10.4574 44.925 11.2925 44.356 12.0209C43.692 13.0519 43.013 14.0739 42.341 15.0999L24.467 42.3789C22.699 45.0789 27.027 47.5869 28.784 44.9029Z" fill="white"/>
<path d="M22.4391 18.8399L9.89509 19.2609C7.88209 19.3289 5.78309 19.3739 4.06509 20.5699C2.62063 21.6868 1.4508 23.1193 0.645086 24.7579C0.370934 25.2365 0.260758 25.7916 0.331347 26.3386C0.401936 26.8856 0.649419 27.3945 1.03609 27.7879L9.12109 34.1509C9.59964 34.6012 10.232 34.8519 10.8891 34.8519C11.5462 34.8519 12.1785 34.6012 12.6571 34.1509C13.1219 33.6798 13.3826 33.0447 13.3826 32.3829C13.3826 31.7211 13.1219 31.0859 12.6571 30.6149L4.57209 24.2509L4.96309 27.2809C5.52809 26.2729 6.17109 24.9809 7.08309 24.5749C8.30409 24.0299 10.1001 24.2539 11.4631 24.2079L22.4391 23.8389C23.1021 23.8389 23.738 23.5755 24.2069 23.1066C24.6757 22.6378 24.9391 22.0019 24.9391 21.3389C24.9391 20.6758 24.6757 20.0399 24.2069 19.5711C23.738 19.1023 23.1021 18.8399 22.4391 18.8399Z" fill="white"/>
<path d="M32.5019 31.5985L34.7209 41.9505C34.8989 42.7812 35.0772 43.6122 35.2559 44.4435C35.4833 45.1533 35.5689 45.9008 35.5079 46.6435C35.3079 47.6435 34.1329 48.6205 33.3629 49.3435H36.8989L28.7629 43.0435C28.284 42.5939 27.6518 42.3436 26.9949 42.3436C26.338 42.3436 25.7058 42.5939 25.2269 43.0435C24.7618 43.5144 24.501 44.1497 24.501 44.8115C24.501 45.4734 24.7618 46.1086 25.2269 46.5795L33.3629 52.8795C33.8412 53.3303 34.4736 53.5813 35.1309 53.5813C35.7881 53.5813 36.4206 53.3303 36.8989 52.8795C38.3756 51.657 39.5159 50.0778 40.2119 48.2915C40.8589 46.2565 40.3039 44.1685 39.8719 42.1515L37.3209 30.2685C37.2336 29.952 37.0849 29.6557 36.8831 29.3967C36.6813 29.1376 36.4305 28.9208 36.145 28.7587C35.8595 28.5965 35.5448 28.4922 35.2189 28.4517C34.8931 28.4112 34.5624 28.4353 34.2459 28.5225C33.9293 28.6098 33.6331 28.7586 33.374 28.9603C33.1149 29.1621 32.8982 29.4129 32.736 29.6984C32.5739 29.984 32.4696 30.2986 32.4291 30.6245C32.3886 30.9503 32.4126 31.281 32.4999 31.5975L32.5019 31.5985Z" fill="white"/>
<path d="M14.0212 42.7514C10.9382 43.1834 7.91121 44.0514 6.07621 46.7694C5.33692 48.1138 4.9174 49.6106 4.85021 51.1434L4.19021 55.8314C4.0866 56.2583 4.09114 56.7042 4.20342 57.1289C4.3157 57.5536 4.53217 57.9435 4.83321 58.2634C5.14594 58.5754 5.53559 58.7992 5.96269 58.9121C6.38978 59.0251 6.83913 59.0231 7.26521 58.9064C7.46521 58.8464 7.67221 58.7924 7.88021 58.7514C8.53521 58.6224 7.50521 58.7514 8.02621 58.7294C8.39421 58.7154 8.76121 58.6894 9.12621 58.6874C9.92621 58.6874 10.7262 58.7244 11.5212 58.6754C12.5136 58.6707 13.495 58.4672 14.4074 58.0768C15.3198 57.6864 16.1446 57.117 16.8332 56.4024C18.0973 54.9149 18.8355 53.052 18.9332 51.1024C18.9651 49.0945 18.6633 47.0954 18.0402 45.1864C17.9526 44.87 17.8036 44.5739 17.6016 44.3151C17.3995 44.0563 17.1485 43.8398 16.8628 43.678C16.5772 43.5162 16.2624 43.4122 15.9366 43.372C15.6107 43.3319 15.2801 43.3563 14.9637 43.4439C14.6473 43.5315 14.3512 43.6805 14.0924 43.8825C13.8336 44.0846 13.6171 44.3356 13.4553 44.6213C13.2935 44.9069 13.1895 45.2217 13.1494 45.5475C13.1092 45.8734 13.1336 46.204 13.2212 46.5204C13.4342 47.3134 13.6472 48.1084 13.8032 48.9144C13.8442 49.1244 13.8762 49.3354 13.9132 49.5454C13.9652 49.8454 13.8922 49.1294 13.9132 49.6204C13.9322 50.0464 13.9652 50.4664 13.9462 50.8944C13.9382 51.0674 13.8972 51.2674 13.9022 51.4404L13.9432 51.1084C13.9245 51.2191 13.9029 51.3294 13.8782 51.4394C13.8112 51.7394 13.7082 52.0314 13.6142 52.3284C13.5202 52.6254 13.8582 51.8744 13.6332 52.2704C13.5512 52.4154 13.4792 52.5704 13.3922 52.7084C13.3495 52.779 13.3045 52.8484 13.2572 52.9164C13.1512 53.069 13.1999 53.0107 13.4032 52.7414C13.287 52.8573 13.1769 52.9791 13.0732 53.1064L12.9552 53.2194C12.7552 53.3934 12.7969 53.3671 13.0802 53.1404C13.0802 53.1924 12.7712 53.3404 12.7332 53.3644C12.6572 53.4097 12.5799 53.4514 12.5012 53.4894C12.7999 53.3734 12.8622 53.3481 12.6882 53.4134C12.5472 53.4574 12.4102 53.5134 12.2672 53.5494C12.2032 53.5664 11.8132 53.7114 11.7482 53.6644C12.0895 53.6244 12.1639 53.6154 11.9712 53.6374C11.8819 53.6481 11.7925 53.6567 11.7032 53.6634C11.3392 53.6924 10.9742 53.6994 10.6092 53.7004C9.04014 53.6032 7.46525 53.7328 5.93321 54.0854L9.01221 57.1614L9.59321 53.0174C9.69321 52.3314 9.78021 51.6454 9.88321 50.9604C9.92589 50.6483 9.9843 50.3386 10.0582 50.0324C10.0772 49.9594 10.2162 49.3874 10.1202 49.7544C10.0392 50.0634 10.1772 49.6474 10.2202 49.5774C10.2752 49.4774 10.3372 49.3874 10.3962 49.2924C10.6712 48.8464 10.1492 49.5314 10.3652 49.3344C10.4852 49.2254 10.8652 48.9494 10.9092 48.8044C10.6459 48.9997 10.5892 49.0431 10.7392 48.9344C10.7845 48.9004 10.8312 48.8671 10.8792 48.8344C10.9972 48.7544 11.1172 48.6784 11.2402 48.6064C11.3382 48.5491 11.4382 48.4944 11.5402 48.4424C11.5642 48.4304 12.0632 48.1974 11.7192 48.3474C11.3752 48.4974 11.8992 48.2864 11.9732 48.2614C12.1332 48.2064 12.2942 48.1614 12.4572 48.1114C12.7502 48.0284 13.0462 47.9574 13.3442 47.8954C14.0092 47.7564 14.6822 47.6634 15.3542 47.5684C15.9834 47.3956 16.5198 46.9831 16.8482 46.4194C17.0138 46.1358 17.1218 45.8223 17.1662 45.4969C17.2105 45.1715 17.1904 44.8405 17.1068 44.5229C17.0232 44.2053 16.8779 43.9073 16.6791 43.6459C16.4803 43.3845 16.2319 43.1648 15.9482 42.9994C15.3526 42.7007 14.6731 42.6132 14.0212 42.7514Z" fill="white"/>
<path d="M39.021 13.615C39.2988 13.7961 39.6199 13.8997 39.951 13.915C40.2761 13.974 40.6103 13.9605 40.9295 13.8754C41.2488 13.7904 41.5454 13.6359 41.798 13.423C42.0689 13.2485 42.2906 13.0075 42.442 12.723L42.694 12.123C42.8131 11.688 42.8131 11.229 42.694 10.794L42.442 10.194C42.2243 9.82175 41.9143 9.5118 41.542 9.29404C41.2643 9.11298 40.9432 9.00941 40.612 8.99404C40.2869 8.93508 39.9528 8.94861 39.6336 9.03365C39.3143 9.1187 39.0177 9.27317 38.765 9.48604C38.4942 9.66062 38.2725 9.9016 38.121 10.186L37.869 10.786C37.75 11.221 37.75 11.68 37.869 12.115L38.121 12.715C38.3388 13.0873 38.6488 13.3973 39.021 13.615Z" fill="white"/>
</g>
</svg>
