<svg width="85" height="113" viewBox="0 0 85 113" fill="none" xmlns="http://www.w3.org/2000/svg">
<path d="M6.75605 30.635H6.04105C5.67438 30.7817 5.38105 31.0383 5.16105 31.405C4.94105 31.735 4.83105 32.1017 4.83105 32.505C4.79438 32.7617 4.83105 32.9817 4.94105 33.165C5.08771 33.3117 5.28938 33.495 5.54605 33.715C5.91271 34.0083 6.38938 34.32 6.97605 34.65C7.59938 34.98 8.02105 35.2 8.24105 35.31C10.441 36.52 11.541 37.9133 11.541 39.49C11.541 40.9567 11.046 42.0933 10.056 42.9C9.06605 43.7067 7.81938 44.11 6.31605 44.11C5.10605 44.11 3.95105 43.835 2.85105 43.285C1.78771 42.6983 1.01771 41.965 0.541045 41.085C0.394378 40.7183 0.321045 40.4433 0.321045 40.26C0.321045 39.93 0.412712 39.6183 0.596045 39.325C0.779378 38.995 1.01771 38.7567 1.31104 38.61C1.60438 38.5 1.87938 38.445 2.13604 38.445C2.46605 38.445 2.77771 38.5367 3.07104 38.72C3.40105 38.9033 3.63938 39.1417 3.78604 39.435C3.96938 39.8383 4.29938 40.1317 4.77604 40.315C5.25271 40.4617 5.78438 40.5167 6.37105 40.48C7.39771 40.48 7.91105 40.15 7.91105 39.49C7.91105 39.4533 7.89271 39.4167 7.85605 39.38C7.81938 39.3433 7.78271 39.3067 7.74605 39.27L7.30605 38.94L5.49105 37.95C4.13438 37.18 3.07105 36.3917 2.30105 35.585C1.56771 34.7417 1.20104 33.715 1.20104 32.505C1.20104 31.3317 1.54938 30.25 2.24604 29.26C2.97938 28.2333 3.89605 27.5367 4.99604 27.17C5.14271 27.1333 5.38105 27.0967 5.71105 27.06C6.07771 26.9867 6.46271 26.95 6.86605 26.95C7.48938 26.95 8.05771 27.06 8.57105 27.28C9.34105 27.72 9.72605 28.325 9.72605 29.095C9.72605 29.6817 9.52438 30.1767 9.12105 30.58C8.71771 30.9467 8.24105 31.0933 7.69105 31.02C7.32438 30.9467 7.01271 30.8183 6.75605 30.635ZM21.5308 35.695L20.9809 34.375C20.7975 34.5583 20.5592 34.9433 20.2659 35.53C19.8625 36.41 19.4775 37.4917 19.1109 38.775L18.7259 39.985C18.2492 41.4883 17.9558 42.405 17.8458 42.735C17.7725 43.1017 17.5525 43.4133 17.1858 43.67C16.8925 43.89 16.5075 44 16.0308 44C15.7008 43.9633 15.4075 43.89 15.1508 43.78C14.9308 43.6333 14.7292 43.3767 14.5458 43.01C14.5092 42.9733 14.4725 42.9183 14.4358 42.845C14.3992 42.7717 14.3625 42.6433 14.3258 42.46L14.2708 41.745C13.8308 38.2617 13.3175 34.0633 12.7308 29.15C12.1808 24.2367 11.7775 20.7533 11.5208 18.7C11.4475 18.1867 11.5942 17.7283 11.9608 17.325C12.2908 16.885 12.7308 16.665 13.2808 16.665C13.7208 16.665 14.1242 16.8117 14.4908 17.105C14.8575 17.3983 15.0592 17.7833 15.0958 18.26L16.9658 34.045L17.0208 33.935C17.8275 32.3217 18.7808 31.2767 19.8808 30.8C20.2475 30.6167 20.6692 30.525 21.1458 30.525C21.3292 30.525 21.6042 30.5617 21.9708 30.635C22.8142 30.855 23.5108 31.4417 24.0608 32.395C24.7575 33.5317 25.2159 34.9983 25.4359 36.795C25.6559 38.5917 25.7842 39.5817 25.8209 39.765C25.8942 40.315 25.7475 40.7917 25.3809 41.195C25.0142 41.5983 24.5375 41.8 23.9509 41.8C23.5475 41.8 23.1625 41.6717 22.7958 41.415C22.4659 41.1217 22.2825 40.755 22.2459 40.315C22.2092 40.095 22.1359 39.5083 22.0258 38.555C21.9159 37.565 21.7509 36.6117 21.5308 35.695ZM37.138 30.745L37.798 30.965L38.128 30.25C38.4213 29.59 38.9163 29.26 39.613 29.26C39.9063 29.26 40.1813 29.315 40.438 29.425C40.7313 29.535 40.933 29.6267 41.043 29.7C41.4463 30.1767 41.6663 30.7267 41.703 31.35C41.703 31.79 41.6296 32.34 41.483 33C41.373 33.6233 41.2996 33.99 41.263 34.1L40.933 36.245C40.603 37.9683 40.438 39.3983 40.438 40.535C40.438 40.9017 40.4746 41.3783 40.548 41.965C40.6213 42.4783 40.493 42.9367 40.163 43.34C39.8696 43.7067 39.4846 43.9267 39.008 44C38.4946 44.0733 38.0363 43.945 37.633 43.615C37.2296 43.285 37.0096 42.8817 36.973 42.405C36.8996 41.6717 36.863 41.1217 36.863 40.755V40.15C36.0196 41.1767 35.1946 41.965 34.388 42.515C33.4346 43.175 32.4813 43.505 31.528 43.505C31.088 43.505 30.758 43.4683 30.538 43.395C29.548 43.1383 28.723 42.5517 28.063 41.635C27.293 40.6083 26.908 39.435 26.908 38.115C26.908 36.905 27.2196 35.7683 27.843 34.705C28.393 33.715 29.1263 32.8717 30.043 32.175C30.9963 31.4417 32.0046 30.9467 33.068 30.69C33.4346 30.6167 34.1496 30.58 35.213 30.58C35.9463 30.58 36.588 30.635 37.138 30.745ZM36.313 34.485C36.313 34.485 36.2396 34.4117 36.093 34.265L35.433 34.155C34.663 34.155 34.1313 34.1917 33.838 34.265C33.288 34.375 32.7563 34.65 32.243 35.09C31.7296 35.4933 31.308 35.97 30.978 36.52C30.6846 37.0333 30.538 37.565 30.538 38.115C30.538 38.6283 30.6846 39.0867 30.978 39.49C31.1613 39.7467 31.3263 39.875 31.473 39.875C31.6196 39.9117 31.8213 39.8383 32.078 39.655C32.5913 39.3983 33.2146 38.8667 33.948 38.06C34.9746 36.8133 35.7263 35.6767 36.203 34.65L36.313 34.485ZM56.3914 27.555C56.4647 27.8117 56.5014 28.27 56.5014 28.93C56.5014 30.2867 56.1164 32.3217 55.3464 35.035C55.2731 35.4017 55.0531 35.7133 54.6864 35.97C54.3564 36.2267 53.9897 36.355 53.5864 36.355C53.0731 36.355 52.6514 36.19 52.3214 35.86C51.9914 35.4933 51.8264 35.0717 51.8264 34.595C51.8264 34.3383 51.8447 34.155 51.8814 34.045C52.0281 33.605 52.1931 32.9633 52.3764 32.12C52.5964 31.2767 52.7614 30.47 52.8714 29.7V29.48C52.1014 30.0667 51.3314 31.0383 50.5614 32.395C49.9381 33.5317 49.2231 35.2733 48.4164 37.62C48.2331 38.17 47.9947 39.0317 47.7014 40.205L47.2064 42.075H47.2614C47.2247 42.1483 47.1881 42.2583 47.1514 42.405C47.1147 42.515 47.0597 42.6433 46.9864 42.79C46.8764 43.1567 46.7297 43.395 46.5464 43.505C46.2164 43.8717 45.8131 44.055 45.3364 44.055C45.1164 44.055 44.9514 44.0367 44.8414 44C44.1814 43.8167 43.7231 43.395 43.4664 42.735C43.3197 42.3317 43.2464 41.1583 43.2464 39.215L42.9164 30.745L42.8064 27.885C42.8064 27.3717 42.9714 26.9317 43.3014 26.565C43.6681 26.1983 44.0897 26.015 44.5664 26.015C45.0797 25.9783 45.5197 26.1433 45.8864 26.51C46.2531 26.84 46.4364 27.2433 46.4364 27.72L46.5464 30.58L46.6014 32.23C47.0781 31.2033 47.5731 30.2867 48.0864 29.48C49.2964 27.6833 50.6714 26.4183 52.2114 25.685C52.7614 25.4283 53.2931 25.3 53.8064 25.3C54.0997 25.3 54.4664 25.3733 54.9064 25.52C55.6764 25.9233 56.1714 26.6017 56.3914 27.555ZM47.2614 42.02V42.075V42.02ZM61.1098 37.4L60.7798 37.455C60.8898 38.335 61.0915 39.0317 61.3848 39.545C61.6415 40.095 61.9531 40.425 62.3198 40.535C62.4298 40.5717 62.5765 40.59 62.7598 40.59C63.3465 40.59 64.0981 40.205 65.0148 39.435C65.3081 39.1783 65.6748 39.05 66.1148 39.05C66.7015 39.05 67.1781 39.27 67.5448 39.71C67.8015 40.0033 67.9298 40.3883 67.9298 40.865C67.9298 41.4517 67.7098 41.91 67.2698 42.24C65.6565 43.56 64.0981 44.22 62.5948 44.22C60.9081 44.22 59.5515 43.4133 58.5248 41.8C57.5348 40.1867 57.0398 38.2067 57.0398 35.86C57.0398 34.5767 57.1865 33.3483 57.4798 32.175C57.8098 30.965 58.2498 29.9567 58.7998 29.15C59.9365 27.5 61.3481 26.675 63.0348 26.675C63.3648 26.675 63.6031 26.6933 63.7498 26.73C64.5931 26.8767 65.2165 27.2067 65.6198 27.72C66.0965 28.16 66.3531 28.7467 66.3898 29.48C66.4998 30.14 66.3531 31.0567 65.9498 32.23C65.5465 33.33 65.0331 34.2833 64.4098 35.09C63.7865 35.86 63.1998 36.4283 62.6498 36.795C62.4665 36.9417 62.1915 37.07 61.8248 37.18C61.4581 37.29 61.2198 37.3633 61.1098 37.4ZM62.5398 31.075L62.7048 30.36C62.1915 30.5433 61.7698 31.0383 61.4398 31.845C61.1831 32.3217 60.9998 32.9083 60.8898 33.605C61.2198 33.275 61.4581 33 61.6048 32.78C61.8248 32.4867 62.1365 31.9183 62.5398 31.075ZM78.4223 31.295L78.9173 31.9L78.2023 13.035C78.2023 12.5217 78.3673 12.0817 78.6973 11.715C79.064 11.3483 79.4857 11.165 79.9623 11.165C80.4757 11.1283 80.9157 11.2933 81.2823 11.66C81.649 11.99 81.8323 12.4117 81.8323 12.925C81.9423 15.4183 82.1257 20.0933 82.3823 26.95C82.639 33.77 82.804 37.5283 82.8773 38.225C82.8773 38.555 82.914 39.0867 82.9873 39.82C83.0973 40.26 83.1523 40.6083 83.1523 40.865C83.1523 41.1217 83.134 41.305 83.0973 41.415C82.9873 42.0017 82.6207 42.4233 81.9973 42.68L81.6123 42.79C80.1823 44.22 78.624 44.935 76.9373 44.935C75.2873 44.935 73.8023 44.33 72.4823 43.12C71.419 42.1667 70.5757 40.9933 69.9523 39.6C69.329 38.2067 69.0173 36.7767 69.0173 35.31C69.0173 33.3667 69.5123 31.8817 70.5023 30.855C71.4923 29.8283 72.6657 29.315 74.0223 29.315C75.5623 29.315 77.029 29.975 78.4223 31.295ZM76.9373 41.305C77.5973 41.305 78.2757 40.975 78.9723 40.315C78.7157 39.655 78.514 39.0683 78.3673 38.555C78.2573 38.2983 78.1107 37.895 77.9273 37.345C77.744 36.7583 77.5423 36.2817 77.3223 35.915C76.7357 34.9617 76.2407 34.2833 75.8373 33.88C75.214 33.2567 74.6273 32.945 74.0773 32.945C73.674 32.945 73.3623 33.0917 73.1423 33.385C72.9223 33.6783 72.7757 34.0817 72.7023 34.595C72.6657 34.7783 72.6473 35.0533 72.6473 35.42C72.6473 36.3367 72.849 37.2533 73.2523 38.17C73.6557 39.05 74.1873 39.8017 74.8473 40.425C75.5807 41.0117 76.2773 41.305 76.9373 41.305Z" fill="white"/>
<path d="M4.88605 70.54L5.38105 70.045C4.42771 69.055 3.74938 68.175 3.34605 67.405C2.28271 65.7183 1.75104 63.885 1.75104 61.905C1.75104 60.585 2.00771 59.3383 2.52105 58.165C3.07105 56.955 3.85938 55.9283 4.88605 55.085C6.68271 53.6183 8.64438 52.885 10.771 52.885C12.201 52.885 13.5577 53.2333 14.841 53.93C16.1244 54.59 17.1877 55.5433 18.031 56.79C18.8744 58 19.3694 59.43 19.516 61.08C19.6627 62.95 19.131 64.985 17.921 67.185C17.151 68.615 15.7394 70.54 13.686 72.96C15.7394 75.0867 16.931 77.25 17.261 79.45C17.371 80.0367 17.426 80.66 17.426 81.32C17.426 83.2267 17.0594 84.9317 16.326 86.435C15.6294 87.8283 14.6944 88.9467 13.521 89.79C12.3477 90.5967 10.936 91 9.28605 91C7.81938 91 6.38938 90.5967 4.99604 89.79C3.63938 88.9833 2.52104 87.865 1.64104 86.435C0.761045 84.9683 0.321045 83.3367 0.321045 81.54C0.321045 80.8067 0.357712 80.2567 0.431045 79.89C0.724378 77.8733 1.29271 76.0583 2.13604 74.445C2.97938 72.795 3.89605 71.4933 4.88605 70.54ZM8.24105 67.845C8.97438 68.5783 9.90938 69.4583 11.046 70.485C11.706 69.715 12.366 68.89 13.026 68.01C13.7227 67.0933 14.291 66.2317 14.731 65.425C15.501 64.105 15.886 62.895 15.886 61.795C15.886 60.255 15.3727 59.0083 14.346 58.055C13.3194 57.065 12.1094 56.57 10.716 56.57C9.46938 56.57 8.29604 57.01 7.19604 57.89C6.57271 58.4033 6.09605 59.0083 5.76605 59.705C5.47271 60.4017 5.32605 61.135 5.32605 61.905C5.32605 63.115 5.67438 64.3067 6.37105 65.48C6.92105 66.3233 7.54438 67.1117 8.24105 67.845ZM9.78105 74.17L8.02104 72.575C7.80105 72.7217 7.41605 73.1067 6.86605 73.73C6.20605 74.5 5.61938 75.4717 5.10605 76.645C4.59271 77.7817 4.22605 79.0467 4.00605 80.44C3.93271 80.9533 3.89605 81.32 3.89605 81.54C3.89605 82.6767 4.17105 83.7033 4.72105 84.62C5.27105 85.5367 5.98605 86.2517 6.86605 86.765C7.74605 87.2783 8.64438 87.4983 9.56105 87.425C11.1744 87.2783 12.3294 86.4167 13.026 84.84C13.5394 83.8133 13.796 82.6583 13.796 81.375C13.796 79.9083 13.4477 78.6433 12.751 77.58C12.091 76.5167 11.101 75.38 9.78105 74.17ZM35.3767 62.565C36.66 60.4017 37.7233 58.4033 38.5667 56.57C37.9067 56.4967 37.375 56.46 36.9717 56.46C36.5317 56.4233 35.8167 56.405 34.8267 56.405C32.6267 56.405 30.225 56.4967 27.6217 56.68C25.055 56.8267 23.3867 56.9367 22.6167 57.01C22.1033 57.0467 21.6633 56.9 21.2967 56.57C20.93 56.24 20.7283 55.8367 20.6917 55.36C20.655 54.8833 20.7833 54.4617 21.0767 54.095C21.4067 53.6917 21.8283 53.4533 22.3417 53.38C23.1483 53.3067 24.8717 53.1967 27.5117 53.05C30.1517 52.8667 32.6083 52.775 34.8817 52.775C36.825 52.775 38.2917 52.8483 39.2817 52.995C40.5283 53.1417 41.4083 53.4717 41.9217 53.985C42.3983 54.4617 42.6367 54.975 42.6367 55.525C42.6367 56.0017 42.27 57.0467 41.5367 58.66C40.8033 60.2733 39.8133 62.18 38.5667 64.38C37.54 66.2133 35.3033 70.0083 31.8567 75.765C27.3467 83.2817 24.5783 88.085 23.5517 90.175C23.2217 90.8717 22.69 91.22 21.9567 91.22C21.7733 91.22 21.4983 91.1467 21.1317 91C20.435 90.6333 20.0867 90.1017 20.0867 89.405C20.0867 89.2217 20.16 88.9467 20.3067 88.58C21.26 86.6367 23.9183 82.0167 28.2817 74.72C31.8017 68.78 34.1667 64.7283 35.3767 62.565ZM43.8424 82.695C43.769 82.4017 43.7324 82.2 43.7324 82.09C43.3657 80.5133 43.1824 78.9367 43.1824 77.36C43.1824 74.39 43.6957 71.3467 44.7224 68.23C45.7857 65.0767 47.344 62.18 49.3974 59.54C51.4507 56.9 53.9074 54.8467 56.7674 53.38C56.9874 53.27 57.244 53.215 57.5374 53.215C58.014 53.215 58.4357 53.3983 58.8024 53.765C59.2057 54.095 59.4074 54.5167 59.4074 55.03C59.4074 55.36 59.3157 55.6717 59.1324 55.965C58.949 56.2217 58.7107 56.4417 58.4174 56.625C55.1907 58.275 52.5874 60.7683 50.6074 64.105C48.6274 67.405 47.4174 70.9067 46.9774 74.61C47.6007 73.8767 48.389 73.1983 49.3424 72.575C50.9557 71.5483 52.734 71.035 54.6774 71.035C56.034 71.035 57.354 71.3283 58.6374 71.915C59.9207 72.5017 61.0574 73.345 62.0474 74.445C63.4774 76.095 64.1924 78.02 64.1924 80.22C64.1924 81.4667 63.954 82.7133 63.4774 83.96C63.0007 85.17 62.3224 86.27 61.4424 87.26C60.4157 88.4333 59.224 89.3683 57.8674 90.065C56.5107 90.725 55.0807 91.055 53.5774 91.055C51.8174 91.055 50.1307 90.56 48.5174 89.57C47.4174 88.91 46.464 87.9933 45.6574 86.82C44.8507 85.61 44.2457 84.235 43.8424 82.695ZM48.7924 78.185C48.1324 79.2483 47.6557 80.5133 47.3624 81.98C47.949 84.07 48.9574 85.5733 50.3874 86.49C51.3774 87.1133 52.4224 87.425 53.5224 87.425C54.5124 87.425 55.4474 87.205 56.3274 86.765C57.2074 86.2883 57.9957 85.665 58.6924 84.895C59.279 84.1983 59.7374 83.4467 60.0674 82.64C60.3974 81.8333 60.5624 81.0267 60.5624 80.22C60.5624 78.9367 60.1407 77.8 59.2974 76.81C58.014 75.38 56.474 74.665 54.6774 74.665C53.4674 74.665 52.3307 74.995 51.2674 75.655C50.314 76.2417 49.489 77.085 48.7924 78.185ZM76.3805 87.81C76.6738 87.9567 76.8938 88.1767 77.0405 88.47C77.2238 88.7267 77.3155 89.02 77.3155 89.35C77.3155 89.68 77.2421 89.9733 77.0955 90.23C76.9121 90.5233 76.6738 90.7617 76.3805 90.945C76.1238 91.1283 75.8305 91.22 75.5005 91.22C75.3171 91.22 75.0421 91.1467 74.6755 91C73.7588 90.5233 72.8421 89.9367 71.9255 89.24C71.0455 88.5433 70.0371 87.7 68.9005 86.71C69.1205 88.7267 69.3221 90.1933 69.5055 91.11C69.5788 91.66 69.4321 92.1367 69.0655 92.54C68.6988 92.98 68.2588 93.2 67.7455 93.2C67.3055 93.2 66.9021 93.0533 66.5355 92.76C66.2055 92.4667 66.0038 92.1 65.9305 91.66C65.1238 86.7833 64.7205 80.77 64.7205 73.62V71.035C64.7205 70.4483 64.7388 70.0083 64.7755 69.715C64.7755 68.395 64.8305 67.075 64.9405 65.755L65.0505 63.995C65.0871 63.4817 65.2888 63.0783 65.6555 62.785C66.0588 62.455 66.4988 62.3083 66.9755 62.345C67.4521 62.3817 67.8555 62.5833 68.1855 62.95C68.5521 63.3167 68.7171 63.7567 68.6805 64.27C68.6805 64.4533 68.6621 64.7467 68.6255 65.15C68.5888 65.5167 68.5521 65.81 68.5155 66.03C68.4055 67.7167 68.3505 69.4033 68.3505 71.09C68.3505 74.3533 68.3688 76.7917 68.4055 78.405L71.4855 74.06C71.8521 73.5833 72.3471 73.345 72.9705 73.345C73.3371 73.345 73.6855 73.455 74.0155 73.675C74.5288 74.0783 74.7855 74.555 74.7855 75.105C74.7855 75.435 74.6571 75.8017 74.4005 76.205L73.2455 77.855C72.9888 78.2217 72.6221 78.735 72.1455 79.395C71.6688 80.055 71.2655 80.6417 70.9355 81.155L69.9455 82.75L70.6055 83.3C71.7055 84.3633 72.6955 85.2617 73.5755 85.995C74.4921 86.6917 75.4271 87.2967 76.3805 87.81Z" fill="white"/>
</svg>
