<svg width="323" height="64" viewBox="0 0 323 64" fill="none" xmlns="http://www.w3.org/2000/svg">
<path d="M7.69229 24.691H6.87329C6.45329 24.859 6.11729 25.153 5.86529 25.573C5.61329 25.951 5.48729 26.371 5.48729 26.833C5.44529 27.127 5.48729 27.379 5.61329 27.589C5.78129 27.757 6.01229 27.967 6.30629 28.219C6.72629 28.555 7.27229 28.912 7.94429 29.29C8.65829 29.668 9.14129 29.92 9.39329 30.046C11.9133 31.432 13.1733 33.028 13.1733 34.834C13.1733 36.514 12.6063 37.816 11.4723 38.74C10.3383 39.664 8.91029 40.126 7.18829 40.126C5.80229 40.126 4.47929 39.811 3.21929 39.181C2.00129 38.509 1.11929 37.669 0.573289 36.661C0.405289 36.241 0.321289 35.926 0.321289 35.716C0.321289 35.338 0.426289 34.981 0.636289 34.645C0.846289 34.267 1.11929 33.994 1.45529 33.826C1.79129 33.7 2.10629 33.637 2.40029 33.637C2.77829 33.637 3.13529 33.742 3.47129 33.952C3.84929 34.162 4.12229 34.435 4.29029 34.771C4.50029 35.233 4.87829 35.569 5.42429 35.779C5.97029 35.947 6.57929 36.01 7.25129 35.968C8.42729 35.968 9.01529 35.59 9.01529 34.834C9.01529 34.792 8.99429 34.75 8.95229 34.708C8.91029 34.666 8.86829 34.624 8.82629 34.582L8.32229 34.204L6.24329 33.07C4.68929 32.188 3.47129 31.285 2.58929 30.361C1.74929 29.395 1.32929 28.219 1.32929 26.833C1.32929 25.489 1.72829 24.25 2.52629 23.116C3.36629 21.94 4.41629 21.142 5.67629 20.722C5.84429 20.68 6.11729 20.638 6.49529 20.596C6.91529 20.512 7.35629 20.47 7.81829 20.47C8.53229 20.47 9.18329 20.596 9.77129 20.848C10.6533 21.352 11.0943 22.045 11.0943 22.927C11.0943 23.599 10.8633 24.166 10.4013 24.628C9.93929 25.048 9.39329 25.216 8.76329 25.132C8.34329 25.048 7.98629 24.901 7.69229 24.691ZM21.7812 24.691H20.9622C20.5422 24.859 20.2062 25.153 19.9542 25.573C19.7022 25.951 19.5762 26.371 19.5762 26.833C19.5342 27.127 19.5762 27.379 19.7022 27.589C19.8702 27.757 20.1012 27.967 20.3952 28.219C20.8152 28.555 21.3612 28.912 22.0332 29.29C22.7472 29.668 23.2302 29.92 23.4822 30.046C26.0022 31.432 27.2622 33.028 27.2622 34.834C27.2622 36.514 26.6952 37.816 25.5612 38.74C24.4272 39.664 22.9992 40.126 21.2772 40.126C19.8912 40.126 18.5682 39.811 17.3082 39.181C16.0902 38.509 15.2082 37.669 14.6622 36.661C14.4942 36.241 14.4102 35.926 14.4102 35.716C14.4102 35.338 14.5152 34.981 14.7252 34.645C14.9352 34.267 15.2082 33.994 15.5442 33.826C15.8802 33.7 16.1952 33.637 16.4892 33.637C16.8672 33.637 17.2242 33.742 17.5602 33.952C17.9382 34.162 18.2112 34.435 18.3792 34.771C18.5892 35.233 18.9672 35.569 19.5132 35.779C20.0592 35.947 20.6682 36.01 21.3402 35.968C22.5162 35.968 23.1042 35.59 23.1042 34.834C23.1042 34.792 23.0832 34.75 23.0412 34.708C22.9992 34.666 22.9572 34.624 22.9152 34.582L22.4112 34.204L20.3322 33.07C18.7782 32.188 17.5602 31.285 16.6782 30.361C15.8382 29.395 15.4182 28.219 15.4182 26.833C15.4182 25.489 15.8172 24.25 16.6152 23.116C17.4552 21.94 18.5052 21.142 19.7652 20.722C19.9332 20.68 20.2062 20.638 20.5842 20.596C21.0042 20.512 21.4452 20.47 21.9072 20.47C22.6212 20.47 23.2722 20.596 23.8602 20.848C24.7422 21.352 25.1832 22.045 25.1832 22.927C25.1832 23.599 24.9522 24.166 24.4902 24.628C24.0282 25.048 23.4822 25.216 22.8522 25.132C22.4322 25.048 22.0752 24.901 21.7812 24.691ZM40.343 34.645C40.763 35.065 40.973 35.569 40.973 36.157C40.973 36.745 40.784 37.228 40.406 37.606C38.81 39.202 37.256 40 35.744 40C34.19 39.916 32.951 39.076 32.027 37.48C31.019 35.59 30.389 32.104 30.137 27.022L27.617 27.274C27.029 27.316 26.504 27.127 26.042 26.707C25.58 26.287 25.349 25.783 25.349 25.195C25.349 24.649 25.538 24.187 25.916 23.809C26.252 23.431 26.693 23.2 27.239 23.116L30.137 22.801V21.352C30.137 20.554 30.158 19.966 30.2 19.588C30.2 19.378 30.221 19.21 30.263 19.084C30.221 19 30.2 18.916 30.2 18.832C30.242 18.748 30.263 18.664 30.263 18.58C30.431 17.74 30.746 17.257 31.208 17.131C31.67 16.963 32.153 16.879 32.657 16.879C33.749 17.089 34.337 17.719 34.421 18.769L34.358 19.84C34.316 20.176 34.295 20.722 34.295 21.478C34.295 21.898 34.274 22.213 34.232 22.423L36.311 22.234C36.899 22.15 37.424 22.318 37.886 22.738C38.348 23.158 38.579 23.683 38.579 24.313C38.579 24.817 38.39 25.279 38.012 25.699C37.676 26.077 37.256 26.287 36.752 26.329L34.295 26.581C34.421 30.067 34.715 32.65 35.177 34.33C35.261 34.624 35.387 34.939 35.555 35.275C35.765 35.569 35.891 35.758 35.933 35.842L36.248 35.653C36.416 35.569 36.815 35.254 37.445 34.708C37.823 34.288 38.327 34.078 38.957 34.078C39.503 34.078 39.965 34.267 40.343 34.645ZM54.0628 34.645C54.4828 35.065 54.6928 35.569 54.6928 36.157C54.6928 36.745 54.5038 37.228 54.1258 37.606C52.5298 39.202 50.9758 40 49.4638 40C47.9098 39.916 46.6708 39.076 45.7468 37.48C44.7388 35.59 44.1088 32.104 43.8568 27.022L41.3367 27.274C40.7487 27.316 40.2237 27.127 39.7617 26.707C39.2997 26.287 39.0687 25.783 39.0687 25.195C39.0687 24.649 39.2577 24.187 39.6357 23.809C39.9717 23.431 40.4127 23.2 40.9587 23.116L43.8568 22.801V21.352C43.8568 20.554 43.8778 19.966 43.9198 19.588C43.9198 19.378 43.9408 19.21 43.9828 19.084C43.9408 19 43.9198 18.916 43.9198 18.832C43.9618 18.748 43.9828 18.664 43.9828 18.58C44.1508 17.74 44.4658 17.257 44.9278 17.131C45.3898 16.963 45.8728 16.879 46.3767 16.879C47.4688 17.089 48.0568 17.719 48.1408 18.769L48.0778 19.84C48.0358 20.176 48.0148 20.722 48.0148 21.478C48.0148 21.898 47.9938 22.213 47.9518 22.423L50.0308 22.234C50.6188 22.15 51.1438 22.318 51.6058 22.738C52.0678 23.158 52.2988 23.683 52.2988 24.313C52.2988 24.817 52.1098 25.279 51.7318 25.699C51.3958 26.077 50.9758 26.287 50.4718 26.329L48.0148 26.581C48.1408 30.067 48.4348 32.65 48.8968 34.33C48.9808 34.624 49.1068 34.939 49.2748 35.275C49.4848 35.569 49.6108 35.758 49.6528 35.842L49.9678 35.653C50.1358 35.569 50.5348 35.254 51.1648 34.708C51.5428 34.288 52.0468 34.078 52.6768 34.078C53.2228 34.078 53.6848 34.267 54.0628 34.645ZM73.8763 15.367C73.8763 15.913 73.6663 16.396 73.2463 16.816C72.8683 17.194 72.3853 17.383 71.7973 17.383C71.3353 17.383 70.8943 17.236 70.4743 16.942C70.0963 16.606 69.8653 16.186 69.7812 15.682C69.7812 15.01 69.8863 14.485 70.0963 14.107C70.3483 13.687 70.8103 13.414 71.4823 13.288C72.1123 13.204 72.6583 13.372 73.1203 13.792C73.6243 14.17 73.8763 14.695 73.8763 15.367ZM69.8443 22.801C69.8443 22.213 70.0543 21.73 70.4743 21.352C70.8943 20.932 71.3773 20.722 71.9233 20.722C72.5113 20.722 72.9943 20.932 73.3723 21.352C73.7923 21.772 74.0023 22.276 74.0023 22.864C74.0023 24.04 74.0233 26.413 74.0653 29.983C74.1073 33.553 74.2543 36.094 74.5063 37.606C74.5903 38.194 74.4643 38.719 74.1283 39.181C73.7923 39.643 73.3513 39.916 72.8053 40C72.2173 40.084 71.6923 39.958 71.2303 39.622C70.7683 39.244 70.4953 38.782 70.4113 38.236C70.1593 36.64 69.9913 33.994 69.9073 30.298C69.8653 26.56 69.8443 24.061 69.8443 22.801ZM87.593 34.645C88.013 35.065 88.223 35.569 88.223 36.157C88.223 36.745 88.034 37.228 87.656 37.606C86.06 39.202 84.506 40 82.994 40C81.44 39.916 80.201 39.076 79.277 37.48C78.269 35.59 77.639 32.104 77.387 27.022L74.867 27.274C74.279 27.316 73.754 27.127 73.292 26.707C72.83 26.287 72.599 25.783 72.599 25.195C72.599 24.649 72.788 24.187 73.166 23.809C73.502 23.431 73.943 23.2 74.489 23.116L77.387 22.801V21.352C77.387 20.554 77.408 19.966 77.45 19.588C77.45 19.378 77.471 19.21 77.513 19.084C77.471 19 77.45 18.916 77.45 18.832C77.492 18.748 77.513 18.664 77.513 18.58C77.681 17.74 77.996 17.257 78.458 17.131C78.92 16.963 79.403 16.879 79.907 16.879C80.999 17.089 81.587 17.719 81.671 18.769L81.608 19.84C81.566 20.176 81.545 20.722 81.545 21.478C81.545 21.898 81.524 22.213 81.482 22.423L83.561 22.234C84.149 22.15 84.674 22.318 85.136 22.738C85.598 23.158 85.829 23.683 85.829 24.313C85.829 24.817 85.64 25.279 85.262 25.699C84.926 26.077 84.506 26.287 84.002 26.329L81.545 26.581C81.671 30.067 81.965 32.65 82.427 34.33C82.511 34.624 82.637 34.939 82.805 35.275C83.015 35.569 83.141 35.758 83.183 35.842L83.498 35.653C83.666 35.569 84.065 35.254 84.695 34.708C85.073 34.288 85.577 34.078 86.207 34.078C86.753 34.078 87.215 34.267 87.593 34.645ZM113.266 24.817C113.854 24.817 114.4 24.901 114.904 25.069C115.072 24.733 115.198 24.523 115.282 24.439C115.744 23.977 116.311 23.746 116.983 23.746C117.655 23.746 118.201 24.04 118.621 24.628C118.957 25.09 119.209 25.972 119.377 27.274C119.671 29.626 119.818 32.944 119.818 37.228C119.818 40.882 119.671 44.326 119.377 47.56C119.041 52.054 118.39 55.582 117.424 58.144C116.668 60.37 115.639 61.966 114.337 62.932C113.245 63.646 112.237 64.003 111.313 64.003C110.851 64.003 110.431 63.94 110.053 63.814C108.835 63.478 107.848 62.743 107.092 61.609C106.588 60.895 106.147 60.034 105.769 59.026C105.391 58.06 105.097 57.199 104.887 56.443C104.719 55.729 104.614 55.267 104.572 55.057C104.488 54.427 104.656 53.86 105.076 53.356C105.496 52.894 106.021 52.663 106.651 52.663C107.113 52.663 107.533 52.81 107.911 53.104C108.331 53.44 108.583 53.86 108.667 54.364C108.793 54.742 108.982 55.435 109.234 56.443C109.528 57.451 109.822 58.27 110.116 58.9C110.41 59.53 110.767 59.845 111.187 59.845C112.027 59.845 112.804 58.837 113.518 56.821C114.358 54.469 114.946 51.256 115.282 47.182C115.534 44.62 115.66 41.365 115.66 37.417V34.96C114.904 36.304 114.043 37.417 113.077 38.299C111.691 39.685 110.2 40.378 108.604 40.378C107.974 40.378 107.344 40.252 106.714 40C104.446 39.034 103.312 37.417 103.312 35.149C103.312 34.855 103.354 34.414 103.438 33.826C103.732 32.314 104.467 30.781 105.643 29.227C106.861 27.673 108.205 26.518 109.675 25.762C110.935 25.132 112.132 24.817 113.266 24.817ZM113.833 29.29L113.329 28.975C112.825 28.975 112.237 29.143 111.565 29.479C110.767 29.899 110.011 30.508 109.297 31.306C108.625 32.062 108.121 32.86 107.785 33.7C107.533 34.288 107.407 34.708 107.407 34.96C107.407 35.17 107.47 35.38 107.596 35.59C107.722 35.842 107.974 36.031 108.352 36.157C108.646 36.283 108.919 36.283 109.171 36.157C109.465 35.989 109.801 35.716 110.179 35.338C110.893 34.624 111.544 33.742 112.132 32.692C112.762 31.642 113.245 30.697 113.581 29.857L113.833 29.29ZM136.653 21.163C136.737 21.457 136.779 21.982 136.779 22.738C136.779 24.292 136.338 26.623 135.456 29.731C135.372 30.151 135.12 30.508 134.7 30.802C134.322 31.096 133.902 31.243 133.44 31.243C132.852 31.243 132.369 31.054 131.991 30.676C131.613 30.256 131.424 29.773 131.424 29.227C131.424 28.933 131.445 28.723 131.487 28.597C131.655 28.093 131.844 27.358 132.054 26.392C132.306 25.426 132.495 24.502 132.621 23.62V23.368C131.739 24.04 130.857 25.153 129.975 26.707C129.261 28.009 128.442 30.004 127.518 32.692C127.308 33.322 127.035 34.309 126.699 35.653L126.132 37.795H126.195C126.153 37.879 126.111 38.005 126.069 38.173C126.027 38.299 125.964 38.446 125.88 38.614C125.754 39.034 125.586 39.307 125.376 39.433C124.998 39.853 124.536 40.063 123.99 40.063C123.738 40.063 123.549 40.042 123.423 40C122.667 39.79 122.142 39.307 121.848 38.551C121.68 38.089 121.596 36.745 121.596 34.519L121.218 24.817L121.092 21.541C121.092 20.953 121.281 20.449 121.659 20.029C122.079 19.609 122.562 19.399 123.108 19.399C123.696 19.357 124.2 19.546 124.62 19.966C125.04 20.344 125.25 20.806 125.25 21.352L125.376 24.628L125.439 26.518C125.985 25.342 126.552 24.292 127.14 23.368C128.526 21.31 130.101 19.861 131.865 19.021C132.495 18.727 133.104 18.58 133.692 18.58C134.028 18.58 134.448 18.664 134.952 18.832C135.834 19.294 136.401 20.071 136.653 21.163ZM126.195 37.732V37.795V37.732ZM147.602 22.99C149.198 23.662 150.416 24.754 151.256 26.266C152.138 27.778 152.579 29.437 152.579 31.243C152.579 33.595 151.865 35.653 150.437 37.417C149.051 39.139 147.203 40 144.893 40C143.003 40 141.449 39.454 140.231 38.362C139.013 37.27 138.173 35.842 137.711 34.078C137.501 33.112 137.396 32.209 137.396 31.369C137.396 29.143 137.921 27.232 138.971 25.636C139.391 25.006 139.937 24.46 140.609 23.998C141.281 23.494 142.016 23.116 142.814 22.864C143.444 22.654 144.2 22.549 145.082 22.549C146.006 22.549 146.846 22.696 147.602 22.99ZM145.964 26.833C145.712 26.707 145.418 26.644 145.082 26.644C144.746 26.644 144.41 26.707 144.074 26.833C143.318 27.043 142.793 27.4 142.499 27.904C141.869 28.912 141.554 30.067 141.554 31.369C141.554 31.915 141.617 32.482 141.743 33.07C141.953 33.868 142.31 34.54 142.814 35.086C143.318 35.59 143.99 35.842 144.83 35.842C145.964 35.842 146.846 35.38 147.476 34.456C148.106 33.532 148.421 32.461 148.421 31.243C148.421 30.235 148.211 29.353 147.791 28.597C147.413 27.799 146.804 27.211 145.964 26.833ZM168.501 36.598C168.585 37.018 168.732 37.438 168.942 37.858L169.32 37.354C169.782 36.808 170.202 36.094 170.58 35.212C171.168 34.036 171.672 32.629 172.092 30.991C172.512 29.353 172.722 27.778 172.722 26.266C172.722 24.586 172.344 23.368 171.588 22.612C171.252 22.276 171.084 21.814 171.084 21.226C171.084 20.596 171.294 20.092 171.714 19.714C172.092 19.336 172.554 19.147 173.1 19.147C173.73 19.147 174.234 19.357 174.612 19.777C176.124 21.331 176.88 23.599 176.88 26.581C176.88 28.303 176.628 30.13 176.124 32.062C175.62 33.952 175.032 35.59 174.36 36.976C173.646 38.53 172.869 39.727 172.029 40.567C171.021 41.659 169.866 42.205 168.564 42.205C167.388 42.205 166.401 41.638 165.603 40.504C165.099 39.748 164.721 38.782 164.469 37.606V37.543C164.049 38.173 163.65 38.677 163.272 39.055C162.222 40.105 161.088 40.63 159.87 40.63C159.156 40.63 158.4 40.42 157.602 40C156.72 39.496 155.964 38.74 155.334 37.732C154.746 36.682 154.347 35.464 154.137 34.078C153.927 32.692 153.822 31.39 153.822 30.172C153.822 28.996 153.885 27.82 154.011 26.644C154.137 25.426 154.242 24.481 154.326 23.809C154.452 23.095 154.536 22.633 154.578 22.423C154.662 21.919 154.893 21.52 155.271 21.226C155.691 20.89 156.132 20.722 156.594 20.722C157.266 20.722 157.812 20.995 158.232 21.541C158.652 22.045 158.799 22.612 158.673 23.242C158.631 23.452 158.547 23.977 158.421 24.817C158.295 25.657 158.169 26.707 158.043 27.967C157.959 29.185 157.938 30.382 157.98 31.558C158.064 32.902 158.274 34.015 158.61 34.897C158.904 35.695 159.24 36.199 159.618 36.409C159.87 36.493 160.101 36.388 160.311 36.094C160.773 35.674 161.172 35.065 161.508 34.267C162.348 32.629 162.978 30.718 163.398 28.534L163.587 27.211L163.524 25.321C163.524 24.187 163.755 23.347 164.217 22.801C164.679 22.255 165.267 21.982 165.981 21.982C166.821 21.982 167.43 22.381 167.808 23.179C167.976 23.431 168.06 23.809 168.06 24.313C168.06 24.565 167.997 25.069 167.871 25.825C167.871 26.203 167.829 26.728 167.745 27.4V27.589C167.661 31.369 167.913 34.372 168.501 36.598ZM192.723 38.11L193.101 36.094L193.038 34.015C192.996 33.637 192.975 33.112 192.975 32.44C193.017 31.558 193.038 30.235 193.038 28.471C193.038 25.111 192.87 20.155 192.534 13.603L191.967 5.098C191.925 4.552 192.072 4.069 192.408 3.649C192.786 3.229 193.269 2.977 193.857 2.893C194.403 2.851 194.886 3.019 195.306 3.397C195.768 3.775 196.041 4.258 196.125 4.846C196.167 5.56 196.251 6.799 196.377 8.563C196.503 10.327 196.587 11.944 196.629 13.414C196.923 18.16 197.091 22.444 197.133 26.266C197.301 26.014 197.49 25.741 197.7 25.447C197.91 25.153 198.141 24.859 198.393 24.565C199.989 22.717 201.669 21.793 203.433 21.793C204.315 21.793 205.176 22.003 206.016 22.423C207.612 23.263 208.683 24.607 209.229 26.455C209.439 27.127 209.544 28.009 209.544 29.101C209.544 30.403 209.355 31.726 208.977 33.07C208.473 34.708 207.717 36.136 206.709 37.354C205.743 38.53 204.609 39.412 203.307 40C202.257 40.504 201.06 40.756 199.716 40.756C198.708 40.756 197.763 40.609 196.881 40.315C196.797 40.651 196.713 40.882 196.629 41.008C196.377 41.764 195.999 42.205 195.495 42.331C195.033 42.499 194.613 42.541 194.235 42.457C193.395 42.331 192.849 41.827 192.597 40.945L192.534 40.063C192.534 39.643 192.597 38.992 192.723 38.11ZM197.7 35.149L197.448 36.094C198.204 36.472 198.96 36.661 199.716 36.661C200.304 36.661 200.934 36.514 201.606 36.22C203.202 35.464 204.336 34.015 205.008 31.873C205.26 31.117 205.386 30.256 205.386 29.29C205.386 28.828 205.365 28.471 205.323 28.219C205.155 27.127 204.756 26.434 204.126 26.14C203.874 26.014 203.664 25.951 203.496 25.951C202.908 25.951 202.257 26.392 201.543 27.274C200.199 28.828 198.918 31.453 197.7 35.149ZM226.636 38.425C226.636 41.407 226.405 44.452 225.943 47.56C225.481 50.668 224.662 53.251 223.486 55.309C222.226 57.493 220.63 58.921 218.698 59.593C218.026 59.845 217.249 59.971 216.367 59.971C214.813 59.971 213.154 59.53 211.39 58.648C210.592 58.27 210.193 57.661 210.193 56.821C210.193 56.191 210.403 55.687 210.823 55.309C211.243 54.931 211.726 54.742 212.272 54.742C212.566 54.742 212.881 54.805 213.217 54.931C214.477 55.519 215.506 55.813 216.304 55.813C217.438 55.813 218.362 55.372 219.076 54.49C219.79 53.65 220.399 52.474 220.903 50.962C222.079 47.56 222.604 42.961 222.478 37.165L222.352 34.96C222.058 35.38 221.701 35.8 221.281 36.22C219.895 37.522 218.362 38.173 216.682 38.173C215.506 38.173 214.456 37.774 213.532 36.976C212.608 36.178 211.873 35.107 211.327 33.763C210.571 31.915 210.088 29.878 209.878 27.652C209.668 25.384 209.562 23.599 209.562 22.297C209.605 21.751 209.815 21.289 210.193 20.911C210.613 20.491 211.117 20.281 211.705 20.281C212.293 20.281 212.776 20.491 213.154 20.911C213.574 21.331 213.763 21.814 213.72 22.36C213.72 23.284 213.763 24.502 213.847 26.014C213.973 27.526 214.225 29.038 214.603 30.55C215.023 31.894 215.401 32.818 215.737 33.322C216.031 33.784 216.325 34.015 216.619 34.015H216.745C217.333 34.015 217.9 33.742 218.446 33.196C219.454 32.23 220.294 30.592 220.966 28.282L221.659 24.502C221.575 23.914 221.533 23.41 221.533 22.99C221.533 22.822 221.554 22.528 221.596 22.108C221.68 21.688 221.764 21.415 221.848 21.289C222.352 20.491 223.087 20.176 224.053 20.344C224.515 20.47 224.935 20.743 225.312 21.163C225.733 21.583 225.964 22.192 226.006 22.99V23.431C226.006 23.725 225.964 24.25 225.88 25.006L226.069 27.274C226.153 29.038 226.236 30.319 226.321 31.117C226.363 31.747 226.426 32.839 226.51 34.393C226.594 35.905 226.636 37.249 226.636 38.425ZM221.533 22.864V22.99V22.864ZM245.834 15.367C245.834 15.913 245.624 16.396 245.204 16.816C244.826 17.194 244.343 17.383 243.755 17.383C243.293 17.383 242.852 17.236 242.432 16.942C242.054 16.606 241.823 16.186 241.739 15.682C241.739 15.01 241.844 14.485 242.054 14.107C242.306 13.687 242.768 13.414 243.44 13.288C244.07 13.204 244.616 13.372 245.078 13.792C245.582 14.17 245.834 14.695 245.834 15.367ZM241.802 22.801C241.802 22.213 242.012 21.73 242.432 21.352C242.852 20.932 243.335 20.722 243.881 20.722C244.469 20.722 244.952 20.932 245.33 21.352C245.75 21.772 245.96 22.276 245.96 22.864C245.96 24.04 245.981 26.413 246.023 29.983C246.065 33.553 246.212 36.094 246.464 37.606C246.548 38.194 246.422 38.719 246.086 39.181C245.75 39.643 245.309 39.916 244.763 40C244.175 40.084 243.65 39.958 243.188 39.622C242.726 39.244 242.453 38.782 242.369 38.236C242.117 36.64 241.949 33.994 241.865 30.298C241.823 26.56 241.802 24.061 241.802 22.801ZM259.551 34.645C259.971 35.065 260.181 35.569 260.181 36.157C260.181 36.745 259.992 37.228 259.614 37.606C258.018 39.202 256.464 40 254.952 40C253.398 39.916 252.159 39.076 251.235 37.48C250.227 35.59 249.597 32.104 249.345 27.022L246.825 27.274C246.237 27.316 245.712 27.127 245.25 26.707C244.788 26.287 244.557 25.783 244.557 25.195C244.557 24.649 244.746 24.187 245.124 23.809C245.46 23.431 245.901 23.2 246.447 23.116L249.345 22.801V21.352C249.345 20.554 249.366 19.966 249.408 19.588C249.408 19.378 249.429 19.21 249.471 19.084C249.429 19 249.408 18.916 249.408 18.832C249.45 18.748 249.471 18.664 249.471 18.58C249.639 17.74 249.954 17.257 250.416 17.131C250.878 16.963 251.361 16.879 251.865 16.879C252.957 17.089 253.545 17.719 253.629 18.769L253.566 19.84C253.524 20.176 253.503 20.722 253.503 21.478C253.503 21.898 253.482 22.213 253.44 22.423L255.519 22.234C256.107 22.15 256.632 22.318 257.094 22.738C257.556 23.158 257.787 23.683 257.787 24.313C257.787 24.817 257.598 25.279 257.22 25.699C256.884 26.077 256.464 26.287 255.96 26.329L253.503 26.581C253.629 30.067 253.923 32.65 254.385 34.33C254.469 34.624 254.595 34.939 254.763 35.275C254.973 35.569 255.099 35.758 255.141 35.842L255.456 35.653C255.624 35.569 256.023 35.254 256.653 34.708C257.031 34.288 257.535 34.078 258.165 34.078C258.711 34.078 259.173 34.267 259.551 34.645ZM282.641 24.691H281.822C281.402 24.859 281.066 25.153 280.814 25.573C280.562 25.951 280.436 26.371 280.436 26.833C280.394 27.127 280.436 27.379 280.562 27.589C280.73 27.757 280.961 27.967 281.255 28.219C281.675 28.555 282.221 28.912 282.893 29.29C283.607 29.668 284.09 29.92 284.342 30.046C286.862 31.432 288.122 33.028 288.122 34.834C288.122 36.514 287.555 37.816 286.421 38.74C285.287 39.664 283.859 40.126 282.137 40.126C280.751 40.126 279.428 39.811 278.168 39.181C276.95 38.509 276.068 37.669 275.522 36.661C275.354 36.241 275.27 35.926 275.27 35.716C275.27 35.338 275.375 34.981 275.585 34.645C275.795 34.267 276.068 33.994 276.404 33.826C276.74 33.7 277.055 33.637 277.349 33.637C277.727 33.637 278.084 33.742 278.42 33.952C278.798 34.162 279.071 34.435 279.239 34.771C279.449 35.233 279.827 35.569 280.373 35.779C280.919 35.947 281.528 36.01 282.2 35.968C283.376 35.968 283.964 35.59 283.964 34.834C283.964 34.792 283.943 34.75 283.901 34.708C283.859 34.666 283.817 34.624 283.775 34.582L283.271 34.204L281.192 33.07C279.638 32.188 278.42 31.285 277.538 30.361C276.698 29.395 276.278 28.219 276.278 26.833C276.278 25.489 276.677 24.25 277.475 23.116C278.315 21.94 279.365 21.142 280.625 20.722C280.793 20.68 281.066 20.638 281.444 20.596C281.864 20.512 282.305 20.47 282.767 20.47C283.481 20.47 284.132 20.596 284.72 20.848C285.602 21.352 286.043 22.045 286.043 22.927C286.043 23.599 285.812 24.166 285.35 24.628C284.888 25.048 284.342 25.216 283.712 25.132C283.292 25.048 282.935 24.901 282.641 24.691ZM294.02 32.44L293.642 32.503C293.768 33.511 293.999 34.309 294.335 34.897C294.629 35.527 294.986 35.905 295.406 36.031C295.532 36.073 295.7 36.094 295.91 36.094C296.582 36.094 297.443 35.653 298.493 34.771C298.829 34.477 299.249 34.33 299.753 34.33C300.425 34.33 300.971 34.582 301.391 35.086C301.685 35.422 301.832 35.863 301.832 36.409C301.832 37.081 301.58 37.606 301.076 37.984C299.228 39.496 297.443 40.252 295.721 40.252C293.789 40.252 292.235 39.328 291.059 37.48C289.925 35.632 289.358 33.364 289.358 30.676C289.358 29.206 289.526 27.799 289.862 26.455C290.24 25.069 290.744 23.914 291.374 22.99C292.676 21.1 294.293 20.155 296.225 20.155C296.603 20.155 296.876 20.176 297.044 20.218C298.01 20.386 298.724 20.764 299.186 21.352C299.732 21.856 300.026 22.528 300.068 23.368C300.194 24.124 300.026 25.174 299.564 26.518C299.102 27.778 298.514 28.87 297.8 29.794C297.086 30.676 296.414 31.327 295.784 31.747C295.574 31.915 295.259 32.062 294.839 32.188C294.419 32.314 294.146 32.398 294.02 32.44ZM295.658 25.195L295.847 24.376C295.259 24.586 294.776 25.153 294.398 26.077C294.104 26.623 293.894 27.295 293.768 28.093C294.146 27.715 294.419 27.4 294.587 27.148C294.839 26.812 295.196 26.161 295.658 25.195ZM304.086 7.177C303.75 6.799 303.582 6.316 303.582 5.728C303.582 5.098 303.792 4.594 304.212 4.216C304.59 3.88 305.073 3.712 305.661 3.712C306.291 3.712 306.795 3.922 307.173 4.342C308.181 5.476 308.685 7.471 308.685 10.327C308.685 12.469 308.391 16.354 307.803 21.982C307.383 26.014 307.173 28.912 307.173 30.676C307.173 31.348 307.215 32.188 307.299 33.196C307.467 34.246 307.635 35.002 307.803 35.464C307.971 35.884 308.139 36.157 308.307 36.283C308.811 36.703 309.063 37.249 309.063 37.921C309.063 38.467 308.916 38.908 308.622 39.244C308.202 39.748 307.656 40 306.984 40C306.48 40 306.06 39.853 305.724 39.559C304.548 38.635 303.771 37.102 303.393 34.96C303.183 33.91 303.078 32.44 303.078 30.55C303.078 29.038 303.141 27.463 303.267 25.825C303.351 24.523 303.435 23.389 303.519 22.423C303.645 21.415 303.75 20.554 303.834 19.84C304.254 15.808 304.485 12.994 304.527 11.398C304.527 9.886 304.485 8.836 304.401 8.248C304.317 7.66 304.212 7.303 304.086 7.177ZM319.662 0.750998C320.418 0.750998 321.027 1.003 321.489 1.507C321.993 2.011 322.161 2.599 321.993 3.271C321.867 3.733 321.615 4.132 321.237 4.468C320.859 4.762 320.418 4.909 319.914 4.909L319.158 5.98C318.528 7.156 317.898 8.899 317.268 11.209C316.68 13.729 316.281 16.375 316.071 19.147H316.197C316.785 19.147 317.289 19.357 317.709 19.777C318.129 20.155 318.339 20.617 318.339 21.163C318.381 21.751 318.192 22.255 317.772 22.675C317.394 23.095 316.911 23.305 316.323 23.305H316.008C316.008 25.321 316.134 28.345 316.386 32.377C316.554 34.813 316.659 36.64 316.701 37.858C316.743 38.446 316.533 38.95 316.071 39.37C315.651 39.79 315.147 40 314.559 40C314.013 40 313.551 39.811 313.173 39.433C312.795 39.013 312.585 38.53 312.543 37.984L312.291 32.818C312.039 28.618 311.913 25.468 311.913 23.368H310.527C309.939 23.326 309.456 23.095 309.078 22.675C308.658 22.255 308.448 21.772 308.448 21.226C308.49 20.638 308.721 20.155 309.141 19.777C309.561 19.357 310.044 19.168 310.59 19.21H311.976C312.102 15.808 312.543 12.805 313.299 10.201C313.551 9.151 313.929 7.891 314.433 6.421C314.979 4.951 315.588 3.754 316.26 2.83C316.722 2.158 317.247 1.654 317.835 1.318C318.423 0.939998 319.032 0.750998 319.662 0.750998Z" fill="white"/>
</svg>
