<svg width="1144" height="486" viewBox="0 0 1144 486" fill="none" xmlns="http://www.w3.org/2000/svg">
<g filter="url(#filter0_d_2_827)">
<path d="M128.488 181.712V135.997H161.492V199.329C144.321 212.263 120.683 219.176 98.383 219.176C49.323 219.176 13.197 185.503 13.197 138.45C13.197 91.397 49.323 57.724 99.052 57.724C126.481 57.724 149.227 67.09 164.391 84.707L141.199 106.115C129.826 94.073 116.669 88.498 100.836 88.498C70.508 88.498 49.769 108.791 49.769 138.45C49.769 167.663 70.508 188.402 100.39 188.402C110.202 188.402 119.345 186.618 128.488 181.712ZM310.118 156.959C310.118 159.635 309.672 163.426 309.449 166.325H218.688C222.033 181.266 234.744 190.409 253.03 190.409C265.741 190.409 274.884 186.618 283.135 178.813L301.644 198.883C290.494 211.594 273.769 218.284 252.138 218.284C210.66 218.284 183.677 192.193 183.677 156.513C183.677 120.61 211.106 94.742 247.678 94.742C282.912 94.742 310.118 118.38 310.118 156.959ZM247.901 121.056C232.068 121.056 220.695 130.645 218.242 146.032H277.337C274.884 130.868 263.511 121.056 247.901 121.056ZM401.294 186.172L410.66 210.702C403.524 215.831 393.043 218.284 382.339 218.284C354.018 218.284 337.516 203.789 337.516 175.245V125.962H319.007V99.202H337.516V69.989H372.304V99.202H402.186V125.962H372.304V174.799C372.304 185.057 377.879 190.632 387.245 190.632C392.374 190.632 397.503 189.071 401.294 186.172ZM526.569 112.359C535.043 100.763 549.315 94.742 567.824 94.742V126.854C564.925 126.631 562.695 126.408 560.019 126.408C540.841 126.408 528.13 136.889 528.13 159.858V216.5H493.342V96.526H526.569V112.359ZM704.941 156.959C704.941 159.635 704.495 163.426 704.272 166.325H613.511C616.856 181.266 629.567 190.409 647.853 190.409C660.564 190.409 669.707 186.618 677.958 178.813L696.467 198.883C685.317 211.594 668.592 218.284 646.961 218.284C605.483 218.284 578.5 192.193 578.5 156.513C578.5 120.61 605.929 94.742 642.501 94.742C677.735 94.742 704.941 118.38 704.941 156.959ZM642.724 121.056C626.891 121.056 615.518 130.645 613.065 146.032H672.16C669.707 130.868 658.334 121.056 642.724 121.056ZM773.226 94.742C809.798 94.742 830.983 111.69 830.983 148.039V216.5H798.425V201.559C791.958 212.486 779.47 218.284 761.853 218.284C733.755 218.284 717.03 202.674 717.03 181.935C717.03 160.75 731.971 146.032 768.543 146.032H796.195C796.195 131.091 787.275 122.394 768.543 122.394C755.832 122.394 742.675 126.631 733.978 133.544L721.49 109.237C734.647 99.871 754.048 94.742 773.226 94.742ZM770.55 194.869C782.146 194.869 792.181 189.517 796.195 178.59V166.325H772.334C756.055 166.325 750.926 172.346 750.926 180.374C750.926 189.071 758.285 194.869 770.55 194.869ZM951.191 51.034H985.979V216.5H952.752V202.674C944.055 213.155 931.344 218.284 915.288 218.284C881.392 218.284 855.301 194.2 855.301 156.513C855.301 118.826 881.392 94.742 915.288 94.742C930.006 94.742 942.494 99.425 951.191 109.237V51.034ZM921.309 189.74C938.48 189.74 951.86 177.252 951.86 156.513C951.86 135.774 938.48 123.286 921.309 123.286C903.915 123.286 890.535 135.774 890.535 156.513C890.535 177.252 903.915 189.74 921.309 189.74ZM1103.81 96.526H1137.26L1083.07 223.859C1071.47 252.849 1054.97 261.546 1033.34 261.546C1021.08 261.546 1007.7 257.532 999.89 250.619L1012.6 225.866C1017.95 230.549 1025.31 233.448 1032.23 233.448C1041.81 233.448 1047.17 229.211 1051.85 218.507L1052.3 217.392L1000.34 96.526H1036.24L1069.91 177.921L1103.81 96.526Z" fill="white"/>
<path d="M58.689 307.073V312.202H89.463V338.962H59.581V429.5H24.793V338.962H6.284V312.202H24.793V306.85C24.793 279.867 41.295 262.25 71.177 262.25C80.989 262.25 91.247 264.257 97.714 268.717L88.571 293.916C84.78 291.24 79.874 289.679 74.522 289.679C64.264 289.679 58.689 295.254 58.689 307.073ZM162.358 431.284C124.225 431.284 96.3499 405.639 96.3499 369.513C96.3499 333.387 124.225 307.742 162.358 307.742C200.491 307.742 228.143 333.387 228.143 369.513C228.143 405.639 200.491 431.284 162.358 431.284ZM162.358 402.74C179.752 402.74 192.909 390.252 192.909 369.513C192.909 348.774 179.752 336.286 162.358 336.286C144.964 336.286 131.584 348.774 131.584 369.513C131.584 390.252 144.964 402.74 162.358 402.74ZM284.623 325.359C293.097 313.763 307.369 307.742 325.878 307.742V339.854C322.979 339.631 320.749 339.408 318.073 339.408C298.895 339.408 286.184 349.889 286.184 372.858V429.5H251.396V309.526H284.623V325.359ZM458.979 307.742C495.551 307.742 516.736 324.69 516.736 361.039V429.5H484.178V414.559C477.711 425.486 465.223 431.284 447.606 431.284C419.508 431.284 402.783 415.674 402.783 394.935C402.783 373.75 417.724 359.032 454.296 359.032H481.948C481.948 344.091 473.028 335.394 454.296 335.394C441.585 335.394 428.428 339.631 419.731 346.544L407.243 322.237C420.4 312.871 439.801 307.742 458.979 307.742ZM456.303 407.869C467.899 407.869 477.934 402.517 481.948 391.59V379.325H458.087C441.808 379.325 436.679 385.346 436.679 393.374C436.679 402.071 444.038 407.869 456.303 407.869ZM621.142 307.742C649.463 307.742 670.871 324.244 670.871 360.816V429.5H636.083V366.168C636.083 346.767 627.163 337.847 611.776 337.847C595.051 337.847 583.009 348.105 583.009 370.182V429.5H548.221V309.526H581.448V323.575C590.814 313.317 604.863 307.742 621.142 307.742Z" fill="white"/>
</g>
<defs>
<filter id="filter0_d_2_827" x="0.283936" y="48.0342" width="1142.97" height="392.25" filterUnits="userSpaceOnUse" color-interpolation-filters="sRGB">
<feFlood flood-opacity="0" result="BackgroundImageFix"/>
<feColorMatrix in="SourceAlpha" type="matrix" values="0 0 0 0 0 0 0 0 0 0 0 0 0 0 0 0 0 0 127 0" result="hardAlpha"/>
<feOffset dy="3"/>
<feGaussianBlur stdDeviation="3"/>
<feColorMatrix type="matrix" values="0 0 0 0 0 0 0 0 0 0 0 0 0 0 0 0 0 0 0.161 0"/>
<feBlend mode="normal" in2="BackgroundImageFix" result="effect1_dropShadow_2_827"/>
<feBlend mode="normal" in="SourceGraphic" in2="effect1_dropShadow_2_827" result="shape"/>
</filter>
</defs>
</svg>
