<svg width="467" height="307" viewBox="0 0 467 307" fill="none" xmlns="http://www.w3.org/2000/svg">
<path d="M3.50215 54.6759C3.43357 52.2591 4.14155 50.1333 5.62607 48.2985C7.11058 46.4637 9.05149 45.4198 11.4488 45.1669C14.0305 44.8944 16.3406 45.5829 18.3793 47.2324C20.418 48.8819 21.5735 50.9974 21.846 53.5791C22.1675 58.3932 22.9371 69.2199 24.1548 86.0593C25.3529 102.714 26.8861 119.893 28.7543 137.596C33.016 177.981 37.5071 204.637 42.2275 217.564C43.2571 220.253 42.9763 222.893 41.3852 225.485C39.9785 228.057 37.7077 229.509 34.5728 229.839C32.5443 230.054 30.54 229.612 28.5597 228.516C26.7638 227.4 25.5744 225.848 24.9915 223.858C20.0089 210.213 15.1726 181.17 10.4827 136.728C8.63403 119.209 7.03784 102.316 5.69417 86.0495C4.53491 69.7634 3.80424 59.3055 3.50215 54.6759ZM85.0543 152.912C87.8315 158.026 90.4878 164.645 93.0232 172.768L95.7712 159.053C98.5929 148.686 102.832 141.153 108.49 136.454C110.896 134.522 113.575 133.4 116.525 133.089C118.369 132.894 119.772 132.933 120.733 133.204C125.314 134.212 129.042 137.735 131.917 143.771C133.393 147.158 134.486 151.331 135.196 156.291C136.09 161.231 136.571 164.909 136.64 167.326L137.56 178.696C137.736 183.898 137.951 187.698 138.204 190.095C138.515 193.046 139.137 197.176 140.07 202.485C141.004 207.793 141.699 211.729 142.156 214.291C143.944 224.171 144.974 230.402 145.247 232.984C145.519 235.566 144.821 237.784 143.152 239.638C141.687 241.657 139.664 242.803 137.082 243.075C134.685 243.328 132.476 242.722 130.457 241.257C128.622 239.773 127.486 237.841 127.049 235.464L124.906 223.104C121.63 204.431 119.841 192.779 119.539 188.149C119.48 184.054 119.167 177.56 118.602 168.67C118.096 163.875 117.474 159.746 116.735 156.281C116.696 155.912 116.575 155.645 116.371 155.48C115.75 156.665 114.834 159.465 113.622 163.881C112.429 168.482 111.043 176.553 109.464 188.094L108.563 195.461C108.457 196.218 108.195 199.042 107.779 203.934C107.344 208.642 106.627 212.447 105.628 215.349C104.192 219.416 101.669 222.013 98.0591 223.14C95.8852 223.742 93.6334 223.607 91.3037 222.734C89.1585 221.842 87.377 219.979 85.9592 217.145C85.0075 215.194 84.0313 212.127 83.0305 207.944C82.1946 203.558 81.6553 201.097 81.4125 200.564C78.1377 185.433 74.8105 174.224 71.4309 166.935C70.4403 164.616 69.4061 162.767 68.3284 161.389C67.4555 163.719 66.9027 165.549 66.6702 166.878C65.2644 172.993 64.5481 180.341 64.5212 188.921C64.4749 197.317 64.9137 205.008 65.8375 211.996C66.7512 217.121 67.5528 220.299 68.2422 221.532C68.9122 222.58 69.3251 223.841 69.4807 225.317C69.6559 226.976 69.3603 228.592 68.5939 230.165C67.8276 231.738 66.6535 232.98 65.0717 233.893C63.8392 234.582 62.5775 234.995 61.2867 235.131C59.627 235.307 57.9187 235.021 56.1618 234.274C54.5892 233.507 53.3563 232.426 52.463 231.028C49.8896 226.079 48.0678 218.533 46.9975 208.391C46.2385 201.199 45.9842 193.488 46.2344 185.257C46.6495 176.822 47.4483 169.373 48.6307 162.908C50.2014 156.589 52.2674 151.43 54.8287 147.431C57.7394 143.208 61.592 140.844 66.3866 140.338C69.7059 139.987 72.977 140.947 76.2 143.218C79.5879 145.284 82.5393 148.515 85.0543 152.912ZM208.145 149.711C209.01 152.603 209.598 155.525 209.909 158.475C210.746 166.405 209.525 174.272 206.246 182.076C203.152 189.861 198.558 196.685 192.465 202.549C186.555 208.394 179.825 212.647 172.275 215.308L174.025 226.591C177.7 250.816 180.796 268.669 183.313 280.15C183.77 282.712 183.266 285.003 181.801 287.022C180.355 289.226 178.443 290.546 176.065 290.984C173.503 291.441 171.12 290.946 168.917 289.501C166.897 288.036 165.669 286.114 165.232 283.736C163.016 273.342 160.858 261.729 158.759 248.899C156.843 236.049 155.579 227.605 154.967 223.567C154.393 219.899 153.722 215.308 152.954 209.795C152.166 204.098 151.097 197.499 149.746 189.996C147.16 176.098 145.352 166.034 144.322 159.803L142.208 147.719C141.926 146.817 141.727 145.812 141.61 144.706C141.309 143.619 141.221 142.789 141.347 142.216C140.939 138.344 142.243 135.689 145.262 134.252C145.882 133.067 147.086 132.101 148.871 131.353C149.939 130.868 152.278 130.062 155.888 128.935C159.683 127.789 163.793 126.982 168.219 126.515C177.439 125.542 185.675 126.724 192.926 130.061C200.177 133.398 205.25 139.948 208.145 149.711ZM169.46 196.586C176.418 193.614 182.056 188.731 186.374 181.936C190.875 175.121 192.737 168.025 191.959 160.649C190.674 148.478 183.486 143.084 170.393 144.465C167.442 144.777 164.162 145.496 160.552 146.623C161.387 151.009 161.932 154.402 162.185 156.799C164.654 169.591 166.461 179.655 167.609 186.992L169.46 196.586ZM265.315 138.084L268.751 138.841L270.031 135.07C271.156 131.595 273.47 129.672 276.974 129.302C278.449 129.147 279.861 129.277 281.211 129.694C282.744 130.092 283.807 130.446 284.399 130.756C286.681 132.94 288.079 135.589 288.594 138.704C288.828 140.917 288.751 143.722 288.364 147.119C288.141 150.313 287.967 152.196 287.841 152.768L287.32 163.731C286.575 172.574 286.504 179.853 287.107 185.57C287.302 187.414 287.739 189.792 288.419 192.703C289.06 195.246 288.658 197.619 287.213 199.823C285.932 201.822 284.112 203.133 281.754 203.755C279.211 204.396 276.838 203.994 274.635 202.549C272.431 201.103 271.11 199.191 270.673 196.813C269.915 193.164 269.439 190.418 269.244 188.573L268.923 185.531C265.227 191.142 261.496 195.544 257.731 198.739C253.286 202.564 248.667 204.729 243.872 205.235C241.66 205.469 239.98 205.46 238.835 205.208C233.72 204.442 229.259 201.929 225.454 197.67C221.036 192.915 218.477 187.218 217.777 180.58C217.134 174.494 218.099 168.612 220.669 162.934C222.91 157.663 226.15 153.032 230.391 149.042C234.796 144.848 239.605 141.823 244.816 139.968C246.621 139.405 250.198 138.841 255.546 138.276C259.234 137.887 262.49 137.823 265.315 138.084ZM263.15 157.332C263.15 157.332 262.743 157.002 261.927 156.342L258.549 156.139C254.677 156.548 252.022 157.014 250.586 157.539C247.878 158.384 245.35 160.049 243.002 162.535C240.635 164.835 238.767 167.457 237.399 170.398C236.196 173.135 235.741 175.887 236.033 178.653C236.305 181.235 237.286 183.462 238.975 185.335C240.034 186.528 240.932 187.086 241.669 187.008C242.426 187.115 243.402 186.639 244.595 185.581C247.041 184.017 249.893 181.013 253.153 176.567C257.655 169.752 260.832 163.636 262.685 158.22L263.15 157.332ZM346.044 129.006C346.568 130.442 346.86 131.437 346.918 131.99C347.19 134.572 346.502 136.882 344.852 138.921C343.368 140.756 341.335 141.809 338.753 142.082C336.909 142.276 335.099 141.908 333.322 140.977C331.73 140.026 330.458 138.575 329.507 136.625C329.487 136.44 329.264 136.091 328.837 135.576C328.594 135.043 328.094 134.723 327.337 134.616C327.133 134.451 326.774 134.582 326.26 135.009C325.726 135.252 325.367 135.383 325.182 135.403C321.669 137.452 319.001 140.437 317.177 144.358C315.334 148.096 314.452 152.105 314.531 156.385L314.692 160.563C314.945 162.96 315.465 165.236 316.252 167.391C316.893 169.934 317.893 172.345 319.253 174.626C321.894 178.449 324.064 180.458 325.762 180.651L326.592 180.564C327.698 180.447 328.776 180.054 329.824 179.384C332.104 178.024 334.317 176.019 336.461 173.369C338.935 170.311 341.104 167.006 342.966 163.453C344.809 159.716 346.036 156.323 346.647 153.275C346.986 151.188 347.835 149.514 349.193 148.252C350.736 146.97 352.522 146.222 354.55 146.008C357.132 145.736 359.35 146.434 361.204 148.103C363.243 149.753 364.389 151.776 364.642 154.173C364.759 155.28 364.754 156.119 364.628 156.692C363.552 162.399 361.122 168.529 357.339 175.082C353.555 181.634 349.368 187.017 344.779 191.231C339.655 195.687 334.143 198.227 328.242 198.849C318.468 199.881 310.314 195.054 303.779 184.37C301.323 180.527 299.594 176.514 298.593 172.331C297.69 169.07 297.053 165.688 296.683 162.184C295.769 153.517 296.96 145.373 300.258 137.753C303.537 129.949 308.689 123.998 315.715 119.9C319.413 117.832 322.644 116.652 325.41 116.36C327.623 116.126 329.589 116.198 331.307 116.577C334.355 117.187 336.917 118.502 338.995 120.52C341.237 122.334 342.917 124.115 344.034 125.862C345.131 127.424 345.801 128.472 346.044 129.006ZM418.451 165.556C420.49 167.206 421.645 169.321 421.918 171.903C422.19 174.484 421.584 176.693 420.1 178.528C413.832 186.274 407.378 190.498 400.74 191.199C393.878 191.55 388.048 188.436 383.252 181.857C377.951 174.025 373.569 159.011 370.108 136.815L359.161 139.089C356.598 139.546 354.206 138.959 351.983 137.329C349.76 135.699 348.512 133.593 348.239 131.012C347.986 128.614 348.602 126.498 350.087 124.664C351.387 122.848 353.216 121.63 355.574 121.008L368.152 118.282L367.481 111.92C367.111 108.416 366.931 105.825 366.94 104.146C366.843 103.224 366.857 102.476 366.983 101.904C366.76 101.554 366.629 101.195 366.59 100.827C366.736 100.438 366.789 100.06 366.75 99.6909C367.098 95.9249 368.258 93.6583 370.228 92.891C372.178 91.9393 374.26 91.3467 376.473 91.1132C381.365 91.5293 384.238 94.0229 385.094 98.5942L385.313 103.326C385.285 104.82 385.445 107.227 385.796 110.547C385.99 112.391 386.044 113.784 385.957 114.725L394.998 112.932C397.54 112.291 399.923 112.785 402.146 114.415C404.369 116.045 405.627 118.243 405.919 121.009C406.152 123.222 405.537 125.338 404.071 127.357C402.771 129.173 401.025 130.289 398.831 130.707L388.16 132.952C390.329 148.2 392.816 159.404 395.623 166.567C396.128 167.819 396.827 169.143 397.721 170.541C398.779 171.734 399.42 172.506 399.643 172.855L400.938 171.879C401.637 171.433 403.243 169.865 405.756 167.175C407.221 165.156 409.337 164.001 412.103 163.709C414.5 163.456 416.616 164.072 418.451 165.556ZM424.393 23.6854C425.761 20.7441 428.197 19.0886 431.7 18.7189C434.466 18.427 436.777 19.1155 438.631 20.7844C440.65 22.2495 441.786 24.1807 442.039 26.5779C442.214 28.2376 441.919 29.8537 441.152 31.4263C438.271 37.697 437.348 51.0331 438.382 71.4346C438.529 74.589 438.923 79.2089 439.565 85.2943C440.771 96.7275 442.342 107.19 444.276 116.682C446.21 126.174 448.221 132.861 450.308 136.742C450.978 137.79 451.381 138.96 451.518 140.251C451.771 142.648 451.072 144.866 449.423 146.905C447.958 148.924 445.842 150.079 443.076 150.371C441.232 150.566 439.524 150.28 437.951 149.514C436.359 148.563 435.097 147.204 434.165 145.438C431.834 141.023 429.411 133.074 426.894 121.593C424.377 110.111 422.437 97.9165 421.075 85.008C420.491 79.4758 420.146 75.3169 420.038 72.5313C419.298 61.9812 419.31 52.3773 420.074 43.7194C420.819 34.8772 422.259 28.1991 424.393 23.6854ZM440.752 170.754C442.44 169.084 444.391 168.133 446.604 167.899C449.186 167.627 451.598 168.398 453.84 170.212C455.51 171.901 456.452 173.759 456.666 175.787C456.958 178.554 456.105 181.068 454.106 183.33C452.417 184.999 450.467 185.951 448.254 186.185C445.672 186.457 443.26 185.686 441.018 183.872C439.571 182.533 438.712 180.572 438.439 177.991C438.147 175.225 438.918 172.812 440.752 170.754Z" fill="#FFA700"/>
</svg>
