<svg width="145" height="46" viewBox="0 0 145 46" fill="none" xmlns="http://www.w3.org/2000/svg">
<path d="M0.61 2.72C0.65 2.2 0.85 1.76 1.21 1.4C1.57 1.04 2.01 0.859998 2.53 0.859998C3.09 0.859998 3.57 1.06 3.97 1.46C4.37 1.86 4.57 2.34 4.57 2.9C4.53 3.94 4.45 6.28 4.33 9.92C4.21 13.52 4.15 17.24 4.15 21.08C4.15 29.84 4.51 35.66 5.23 38.54C5.39 39.14 5.27 39.7 4.87 40.22C4.51 40.74 3.99 41 3.31 41C2.87 41 2.45 40.86 2.05 40.58C1.69 40.3 1.47 39.94 1.39 39.5C0.63 36.46 0.25 30.12 0.25 20.48C0.25 16.68 0.29 13.02 0.37 9.5C0.49 5.98 0.57 3.72 0.61 2.72ZM16.7209 30.38L16.9009 28.64C15.7809 30.12 14.7209 31.82 13.7209 33.74C12.7609 35.62 12.2409 36.66 12.1609 36.86C12.1209 36.94 11.9209 37.44 11.5609 38.36C11.2009 39.28 10.8409 39.98 10.4809 40.46C10.1609 40.86 9.82094 41.14 9.46094 41.3C9.10094 41.5 8.76094 41.58 8.44094 41.54C7.92094 41.54 7.48094 41.36 7.12094 41C7.00094 40.92 6.86094 40.72 6.70094 40.4C6.54094 40.08 6.46094 39.68 6.46094 39.2C6.42094 38.16 6.54094 35.72 6.82094 31.88C7.10094 28 7.30094 25.4 7.42094 24.08C7.46094 23.52 7.68094 23.06 8.08094 22.7C8.52094 22.34 9.02094 22.18 9.58094 22.22C10.1009 22.26 10.5409 22.5 10.9009 22.94C11.2609 23.34 11.4209 23.82 11.3809 24.38C11.3409 24.74 11.2609 25.52 11.1409 26.72C11.0609 27.88 10.9609 29.28 10.8409 30.92C12.8009 27.52 14.3609 25.28 15.5209 24.2C16.3609 23.4 17.2809 23.04 18.2809 23.12C19.2009 23.28 19.9009 23.82 20.3809 24.74C20.7009 25.54 20.8609 26.64 20.8609 28.04C20.8609 28.8 20.8009 29.72 20.6809 30.8C20.6009 31.4 20.1809 33.48 19.4209 37.04C18.7009 40.56 18.2009 42.96 17.9209 44.24C17.8409 44.76 17.5609 45.16 17.0809 45.44C16.6409 45.76 16.1409 45.88 15.5809 45.8C15.0609 45.68 14.6409 45.38 14.3209 44.9C14.0409 44.46 13.9609 43.96 14.0809 43.4C14.3609 42.16 14.8609 39.82 15.5809 36.38C16.3009 32.94 16.6809 30.94 16.7209 30.38ZM33.3269 35.9C33.7269 36.3 33.9269 36.78 33.9269 37.34C33.9269 37.9 33.7469 38.36 33.3869 38.72C31.8669 40.24 30.3869 41 28.9469 41C27.4669 40.92 26.2869 40.12 25.4069 38.6C24.4469 36.8 23.8469 33.48 23.6069 28.64L21.2069 28.88C20.6469 28.92 20.1469 28.74 19.7069 28.34C19.2669 27.94 19.0469 27.46 19.0469 26.9C19.0469 26.38 19.2269 25.94 19.5869 25.58C19.9069 25.22 20.3269 25 20.8469 24.92L23.6069 24.62V23.24C23.6069 22.48 23.6269 21.92 23.6669 21.56C23.6669 21.36 23.6869 21.2 23.7269 21.08C23.6869 21 23.6669 20.92 23.6669 20.84C23.7069 20.76 23.7269 20.68 23.7269 20.6C23.8869 19.8 24.1869 19.34 24.6269 19.22C25.0669 19.06 25.5269 18.98 26.0069 18.98C27.0469 19.18 27.6069 19.78 27.6869 20.78L27.6269 21.8C27.5869 22.12 27.5669 22.64 27.5669 23.36C27.5669 23.76 27.5469 24.06 27.5069 24.26L29.4869 24.08C30.0469 24 30.5469 24.16 30.9869 24.56C31.4269 24.96 31.6469 25.46 31.6469 26.06C31.6469 26.54 31.4669 26.98 31.1069 27.38C30.7869 27.74 30.3869 27.94 29.9069 27.98L27.5669 28.22C27.6869 31.54 27.9669 34 28.4069 35.6C28.4869 35.88 28.6069 36.18 28.7669 36.5C28.9669 36.78 29.0869 36.96 29.1269 37.04L29.4269 36.86C29.5869 36.78 29.9669 36.48 30.5669 35.96C30.9269 35.56 31.4069 35.36 32.0069 35.36C32.5269 35.36 32.9669 35.54 33.3269 35.9ZM39.5533 33.8L39.1933 33.86C39.3133 34.82 39.5333 35.58 39.8533 36.14C40.1333 36.74 40.4733 37.1 40.8733 37.22C40.9933 37.26 41.1533 37.28 41.3533 37.28C41.9933 37.28 42.8133 36.86 43.8133 36.02C44.1333 35.74 44.5333 35.6 45.0133 35.6C45.6533 35.6 46.1733 35.84 46.5733 36.32C46.8533 36.64 46.9933 37.06 46.9933 37.58C46.9933 38.22 46.7533 38.72 46.2733 39.08C44.5133 40.52 42.8133 41.24 41.1733 41.24C39.3333 41.24 37.8533 40.36 36.7333 38.6C35.6533 36.84 35.1133 34.68 35.1133 32.12C35.1133 30.72 35.2733 29.38 35.5933 28.1C35.9533 26.78 36.4333 25.68 37.0333 24.8C38.2733 23 39.8133 22.1 41.6533 22.1C42.0133 22.1 42.2733 22.12 42.4333 22.16C43.3533 22.32 44.0333 22.68 44.4733 23.24C44.9933 23.72 45.2733 24.36 45.3133 25.16C45.4333 25.88 45.2733 26.88 44.8333 28.16C44.3933 29.36 43.8333 30.4 43.1533 31.28C42.4733 32.12 41.8333 32.74 41.2333 33.14C41.0333 33.3 40.7333 33.44 40.3333 33.56C39.9333 33.68 39.6733 33.76 39.5533 33.8ZM41.1133 26.9L41.2933 26.12C40.7333 26.32 40.2733 26.86 39.9133 27.74C39.6333 28.26 39.4333 28.9 39.3133 29.66C39.6733 29.3 39.9333 29 40.0933 28.76C40.3333 28.44 40.6733 27.82 41.1133 26.9ZM62.9997 23.06C63.0797 23.34 63.1197 23.84 63.1197 24.56C63.1197 26.04 62.6997 28.26 61.8597 31.22C61.7797 31.62 61.5397 31.96 61.1397 32.24C60.7797 32.52 60.3797 32.66 59.9397 32.66C59.3797 32.66 58.9197 32.48 58.5597 32.12C58.1997 31.72 58.0197 31.26 58.0197 30.74C58.0197 30.46 58.0397 30.26 58.0797 30.14C58.2397 29.66 58.4197 28.96 58.6197 28.04C58.8597 27.12 59.0397 26.24 59.1597 25.4V25.16C58.3197 25.8 57.4797 26.86 56.6397 28.34C55.9597 29.58 55.1797 31.48 54.2997 34.04C54.0997 34.64 53.8397 35.58 53.5197 36.86L52.9797 38.9H53.0397C52.9997 38.98 52.9597 39.1 52.9197 39.26C52.8797 39.38 52.8197 39.52 52.7397 39.68C52.6197 40.08 52.4597 40.34 52.2597 40.46C51.8997 40.86 51.4597 41.06 50.9397 41.06C50.6997 41.06 50.5197 41.04 50.3997 41C49.6797 40.8 49.1797 40.34 48.8997 39.62C48.7397 39.18 48.6597 37.9 48.6597 35.78L48.2997 26.54L48.1797 23.42C48.1797 22.86 48.3597 22.38 48.7197 21.98C49.1197 21.58 49.5797 21.38 50.0997 21.38C50.6597 21.34 51.1397 21.52 51.5397 21.92C51.9397 22.28 52.1397 22.72 52.1397 23.24L52.2597 26.36L52.3197 28.16C52.8397 27.04 53.3797 26.04 53.9397 25.16C55.2597 23.2 56.7597 21.82 58.4397 21.02C59.0397 20.74 59.6197 20.6 60.1797 20.6C60.4997 20.6 60.8997 20.68 61.3797 20.84C62.2197 21.28 62.7597 22.02 62.9997 23.06ZM53.0397 38.84V38.9V38.84ZM74.867 26.54L75.587 26.78L75.947 26C76.267 25.28 76.807 24.92 77.567 24.92C77.887 24.92 78.187 24.98 78.467 25.1C78.787 25.22 79.007 25.32 79.127 25.4C79.567 25.92 79.807 26.52 79.847 27.2C79.847 27.68 79.767 28.28 79.607 29C79.487 29.68 79.407 30.08 79.367 30.2L79.007 32.54C78.647 34.42 78.467 35.98 78.467 37.22C78.467 37.62 78.507 38.14 78.587 38.78C78.667 39.34 78.527 39.84 78.167 40.28C77.847 40.68 77.427 40.92 76.907 41C76.347 41.08 75.847 40.94 75.407 40.58C74.967 40.22 74.727 39.78 74.687 39.26C74.607 38.46 74.567 37.86 74.567 37.46V36.8C73.647 37.92 72.747 38.78 71.867 39.38C70.827 40.1 69.787 40.46 68.747 40.46C68.267 40.46 67.907 40.42 67.667 40.34C66.587 40.06 65.687 39.42 64.967 38.42C64.127 37.3 63.707 36.02 63.707 34.58C63.707 33.26 64.047 32.02 64.727 30.86C65.327 29.78 66.127 28.86 67.127 28.1C68.167 27.3 69.267 26.76 70.427 26.48C70.827 26.4 71.607 26.36 72.767 26.36C73.567 26.36 74.267 26.42 74.867 26.54ZM73.967 30.62C73.967 30.62 73.887 30.54 73.727 30.38L73.007 30.26C72.167 30.26 71.587 30.3 71.267 30.38C70.667 30.5 70.087 30.8 69.527 31.28C68.967 31.72 68.507 32.24 68.147 32.84C67.827 33.4 67.667 33.98 67.667 34.58C67.667 35.14 67.827 35.64 68.147 36.08C68.347 36.36 68.527 36.5 68.687 36.5C68.847 36.54 69.067 36.46 69.347 36.26C69.907 35.98 70.587 35.4 71.387 34.52C72.507 33.16 73.327 31.92 73.847 30.8L73.967 30.62ZM92.3908 26.42C92.4708 26.74 92.5108 26.96 92.5108 27.08C92.5108 27.64 92.3108 28.12 91.9108 28.52C91.5508 28.88 91.0908 29.06 90.5308 29.06C90.1308 29.06 89.7508 28.94 89.3908 28.7C89.0708 28.46 88.8308 28.12 88.6708 27.68C88.6708 27.64 88.6308 27.56 88.5508 27.44C88.5108 27.32 88.4108 27.24 88.2508 27.2C88.2108 27.16 88.1308 27.18 88.0108 27.26C87.8908 27.3 87.8108 27.32 87.7708 27.32C86.9708 27.68 86.3308 28.26 85.8508 29.06C85.3708 29.82 85.0908 30.66 85.0108 31.58L84.9508 32.48C84.9508 33 85.0108 33.5 85.1308 33.98C85.2108 34.54 85.3708 35.08 85.6108 35.6C86.0908 36.48 86.5108 36.96 86.8708 37.04H87.0508C87.2908 37.04 87.5308 36.98 87.7708 36.86C88.2908 36.62 88.8108 36.24 89.3308 35.72C89.9308 35.12 90.4708 34.46 90.9508 33.74C91.4308 32.98 91.7708 32.28 91.9708 31.64C92.0908 31.2 92.3108 30.86 92.6308 30.62C92.9908 30.38 93.3908 30.26 93.8308 30.26C94.3908 30.26 94.8508 30.46 95.2108 30.86C95.6108 31.26 95.8108 31.72 95.8108 32.24C95.8108 32.48 95.7908 32.66 95.7508 32.78C95.3908 33.98 94.7308 35.24 93.7708 36.56C92.8108 37.88 91.7908 38.94 90.7108 39.74C89.5108 40.58 88.2708 41 86.9908 41C84.8708 41 83.2308 39.78 82.0708 37.34C81.6308 36.46 81.3508 35.56 81.2308 34.64C81.1108 33.92 81.0508 33.18 81.0508 32.42C81.0508 30.54 81.4908 28.82 82.3708 27.26C83.2508 25.66 84.4908 24.5 86.0908 23.78C86.9308 23.42 87.6508 23.24 88.2508 23.24C88.7308 23.24 89.1508 23.3 89.5108 23.42C90.1508 23.62 90.6708 23.96 91.0708 24.44C91.5108 24.88 91.8308 25.3 92.0308 25.7C92.2308 26.06 92.3508 26.3 92.3908 26.42ZM107.096 35.9C107.496 36.3 107.696 36.78 107.696 37.34C107.696 37.9 107.516 38.36 107.156 38.72C105.636 40.24 104.156 41 102.716 41C101.236 40.92 100.056 40.12 99.1764 38.6C98.2164 36.8 97.6164 33.48 97.3764 28.64L94.9764 28.88C94.4164 28.92 93.9164 28.74 93.4764 28.34C93.0364 27.94 92.8164 27.46 92.8164 26.9C92.8164 26.38 92.9964 25.94 93.3564 25.58C93.6764 25.22 94.0964 25 94.6164 24.92L97.3764 24.62V23.24C97.3764 22.48 97.3964 21.92 97.4364 21.56C97.4364 21.36 97.4564 21.2 97.4964 21.08C97.4564 21 97.4364 20.92 97.4364 20.84C97.4764 20.76 97.4964 20.68 97.4964 20.6C97.6564 19.8 97.9564 19.34 98.3964 19.22C98.8364 19.06 99.2964 18.98 99.7764 18.98C100.816 19.18 101.376 19.78 101.456 20.78L101.396 21.8C101.356 22.12 101.336 22.64 101.336 23.36C101.336 23.76 101.316 24.06 101.276 24.26L103.256 24.08C103.816 24 104.316 24.16 104.756 24.56C105.196 24.96 105.416 25.46 105.416 26.06C105.416 26.54 105.236 26.98 104.876 27.38C104.556 27.74 104.156 27.94 103.676 27.98L101.336 28.22C101.456 31.54 101.736 34 102.176 35.6C102.256 35.88 102.376 36.18 102.536 36.5C102.736 36.78 102.856 36.96 102.896 37.04L103.196 36.86C103.356 36.78 103.736 36.48 104.336 35.96C104.696 35.56 105.176 35.36 105.776 35.36C106.296 35.36 106.736 35.54 107.096 35.9ZM112.783 17.54C112.783 18.06 112.583 18.52 112.183 18.92C111.823 19.28 111.363 19.46 110.803 19.46C110.363 19.46 109.943 19.32 109.543 19.04C109.183 18.72 108.963 18.32 108.883 17.84C108.883 17.2 108.983 16.7 109.183 16.34C109.423 15.94 109.863 15.68 110.503 15.56C111.103 15.48 111.623 15.64 112.063 16.04C112.543 16.4 112.783 16.9 112.783 17.54ZM108.943 24.62C108.943 24.06 109.143 23.6 109.543 23.24C109.943 22.84 110.403 22.64 110.923 22.64C111.483 22.64 111.943 22.84 112.303 23.24C112.703 23.64 112.903 24.12 112.903 24.68C112.903 25.8 112.923 28.06 112.963 31.46C113.003 34.86 113.143 37.28 113.383 38.72C113.463 39.28 113.343 39.78 113.023 40.22C112.703 40.66 112.283 40.92 111.763 41C111.203 41.08 110.703 40.96 110.263 40.64C109.823 40.28 109.563 39.84 109.483 39.32C109.243 37.8 109.083 35.28 109.003 31.76C108.963 28.2 108.943 25.82 108.943 24.62ZM124.286 24.8C125.806 25.44 126.966 26.48 127.766 27.92C128.606 29.36 129.026 30.94 129.026 32.66C129.026 34.9 128.346 36.86 126.986 38.54C125.666 40.18 123.906 41 121.706 41C119.906 41 118.426 40.48 117.266 39.44C116.106 38.4 115.306 37.04 114.866 35.36C114.666 34.44 114.566 33.58 114.566 32.78C114.566 30.66 115.066 28.84 116.066 27.32C116.466 26.72 116.986 26.2 117.626 25.76C118.266 25.28 118.966 24.92 119.726 24.68C120.326 24.48 121.046 24.38 121.886 24.38C122.766 24.38 123.566 24.52 124.286 24.8ZM122.726 28.46C122.486 28.34 122.206 28.28 121.886 28.28C121.566 28.28 121.246 28.34 120.926 28.46C120.206 28.66 119.706 29 119.426 29.48C118.826 30.44 118.526 31.54 118.526 32.78C118.526 33.3 118.586 33.84 118.706 34.4C118.906 35.16 119.246 35.8 119.726 36.32C120.206 36.8 120.846 37.04 121.646 37.04C122.726 37.04 123.566 36.6 124.166 35.72C124.766 34.84 125.066 33.82 125.066 32.66C125.066 31.7 124.866 30.86 124.466 30.14C124.106 29.38 123.526 28.82 122.726 28.46ZM140.471 30.38L140.651 28.64C139.531 30.12 138.471 31.82 137.471 33.74C136.511 35.62 135.991 36.66 135.911 36.86C135.871 36.94 135.671 37.44 135.311 38.36C134.951 39.28 134.591 39.98 134.231 40.46C133.911 40.86 133.571 41.14 133.211 41.3C132.851 41.5 132.511 41.58 132.191 41.54C131.671 41.54 131.231 41.36 130.871 41C130.751 40.92 130.611 40.72 130.451 40.4C130.291 40.08 130.211 39.68 130.211 39.2C130.171 38.16 130.291 35.72 130.571 31.88C130.851 28 131.051 25.4 131.171 24.08C131.211 23.52 131.431 23.06 131.831 22.7C132.271 22.34 132.771 22.18 133.331 22.22C133.851 22.26 134.291 22.5 134.651 22.94C135.011 23.34 135.171 23.82 135.131 24.38C135.091 24.74 135.011 25.52 134.891 26.72C134.811 27.88 134.711 29.28 134.591 30.92C136.551 27.52 138.111 25.28 139.271 24.2C140.111 23.4 141.031 23.04 142.031 23.12C142.951 23.28 143.651 23.82 144.131 24.74C144.451 25.54 144.611 26.64 144.611 28.04C144.611 28.8 144.551 29.72 144.431 30.8C144.351 31.4 143.931 33.48 143.171 37.04C142.451 40.56 141.951 42.96 141.671 44.24C141.591 44.76 141.311 45.16 140.831 45.44C140.391 45.76 139.891 45.88 139.331 45.8C138.811 45.68 138.391 45.38 138.071 44.9C137.791 44.46 137.711 43.96 137.831 43.4C138.111 42.16 138.611 39.82 139.331 36.38C140.051 32.94 140.431 30.94 140.471 30.38Z" fill="white"/>
</svg>
