<svg width="65" height="45" viewBox="0 0 65 45" fill="none" xmlns="http://www.w3.org/2000/svg">
<path d="M4.27 2.46L4.21 38.28L10.03 38.34C13.03 38.34 15.15 38.26 16.39 38.1C16.99 38.02 17.51 38.16 17.95 38.52C18.39 38.88 18.61 39.38 18.61 40.02C18.61 40.5 18.45 40.94 18.13 41.34C17.81 41.7 17.41 41.92 16.93 42C15.77 42.2 13.59 42.3 10.39 42.3C8.39 42.3 6.63 42.28 5.11 42.24C3.63 42.2 2.65 42.16 2.17 42.12C1.65 42.12 1.19 41.94 0.79 41.58C0.43 41.18 0.25 40.7 0.25 40.14L0.37 2.46C0.37 1.9 0.55 1.44 0.91 1.08C1.31 0.679998 1.79 0.479998 2.35 0.479998C2.87 0.479998 3.31 0.679998 3.67 1.08C4.07 1.44 4.27 1.9 4.27 2.46ZM23.7203 18.54C23.7203 19.06 23.5203 19.52 23.1203 19.92C22.7603 20.28 22.3003 20.46 21.7403 20.46C21.3003 20.46 20.8803 20.32 20.4803 20.04C20.1203 19.72 19.9003 19.32 19.8203 18.84C19.8203 18.2 19.9203 17.7 20.1203 17.34C20.3603 16.94 20.8003 16.68 21.4403 16.56C22.0403 16.48 22.5603 16.64 23.0003 17.04C23.4803 17.4 23.7203 17.9 23.7203 18.54ZM19.8803 25.62C19.8803 25.06 20.0803 24.6 20.4803 24.24C20.8803 23.84 21.3403 23.64 21.8603 23.64C22.4203 23.64 22.8803 23.84 23.2403 24.24C23.6403 24.64 23.8403 25.12 23.8403 25.68C23.8403 26.8 23.8603 29.06 23.9003 32.46C23.9403 35.86 24.0803 38.28 24.3203 39.72C24.4003 40.28 24.2803 40.78 23.9603 41.22C23.6403 41.66 23.2203 41.92 22.7003 42C22.1403 42.08 21.6403 41.96 21.2003 41.64C20.7603 41.28 20.5003 40.84 20.4203 40.32C20.1803 38.8 20.0203 36.28 19.9403 32.76C19.9003 29.2 19.8803 26.82 19.8803 25.62ZM38.2239 38.52C38.5439 38.68 38.7839 38.92 38.9439 39.24C39.1439 39.52 39.2439 39.84 39.2439 40.2C39.2439 40.56 39.1639 40.88 39.0039 41.16C38.8039 41.48 38.5439 41.74 38.2239 41.94C37.9439 42.14 37.6239 42.24 37.2639 42.24C37.0639 42.24 36.7639 42.16 36.3639 42C35.3639 41.48 34.3639 40.84 33.3639 40.08C32.4039 39.32 31.3039 38.4 30.0639 37.32C30.3039 39.52 30.5239 41.12 30.7239 42.12C30.8039 42.72 30.6439 43.24 30.2439 43.68C29.8439 44.16 29.3639 44.4 28.8039 44.4C28.3239 44.4 27.8839 44.24 27.4839 43.92C27.1239 43.6 26.9039 43.2 26.8239 42.72C25.9439 37.4 25.5039 30.84 25.5039 23.04V20.22C25.5039 19.58 25.5239 19.1 25.5639 18.78C25.5639 17.34 25.6239 15.9 25.7439 14.46L25.8639 12.54C25.9039 11.98 26.1239 11.54 26.5239 11.22C26.9639 10.86 27.4439 10.7 27.9639 10.74C28.4839 10.78 28.9239 11 29.2839 11.4C29.6839 11.8 29.8639 12.28 29.8239 12.84C29.8239 13.04 29.8039 13.36 29.7639 13.8C29.7239 14.2 29.6839 14.52 29.6439 14.76C29.5239 16.6 29.4639 18.44 29.4639 20.28C29.4639 23.84 29.4839 26.5 29.5239 28.26L32.8839 23.52C33.2839 23 33.8239 22.74 34.5039 22.74C34.9039 22.74 35.2839 22.86 35.6439 23.1C36.2039 23.54 36.4839 24.06 36.4839 24.66C36.4839 25.02 36.3439 25.42 36.0639 25.86L34.8039 27.66C34.5239 28.06 34.1239 28.62 33.6039 29.34C33.0839 30.06 32.6439 30.7 32.2839 31.26L31.2039 33L31.9239 33.6C33.1239 34.76 34.2039 35.74 35.1639 36.54C36.1639 37.3 37.1839 37.96 38.2239 38.52ZM43.6548 34.8L43.2948 34.86C43.4148 35.82 43.6348 36.58 43.9548 37.14C44.2348 37.74 44.5748 38.1 44.9748 38.22C45.0948 38.26 45.2548 38.28 45.4548 38.28C46.0948 38.28 46.9148 37.86 47.9148 37.02C48.2348 36.74 48.6348 36.6 49.1148 36.6C49.7548 36.6 50.2748 36.84 50.6748 37.32C50.9548 37.64 51.0948 38.06 51.0948 38.58C51.0948 39.22 50.8548 39.72 50.3748 40.08C48.6148 41.52 46.9148 42.24 45.2748 42.24C43.4348 42.24 41.9548 41.36 40.8348 39.6C39.7548 37.84 39.2148 35.68 39.2148 33.12C39.2148 31.72 39.3748 30.38 39.6948 29.1C40.0548 27.78 40.5348 26.68 41.1348 25.8C42.3748 24 43.9148 23.1 45.7548 23.1C46.1148 23.1 46.3748 23.12 46.5348 23.16C47.4548 23.32 48.1348 23.68 48.5748 24.24C49.0948 24.72 49.3748 25.36 49.4148 26.16C49.5348 26.88 49.3748 27.88 48.9348 29.16C48.4948 30.36 47.9348 31.4 47.2548 32.28C46.5748 33.12 45.9348 33.74 45.3348 34.14C45.1348 34.3 44.8348 34.44 44.4348 34.56C44.0348 34.68 43.7748 34.76 43.6548 34.8ZM45.2148 27.9L45.3948 27.12C44.8348 27.32 44.3748 27.86 44.0148 28.74C43.7348 29.26 43.5348 29.9 43.4148 30.66C43.7748 30.3 44.0348 30 44.1948 29.76C44.4348 29.44 44.7748 28.82 45.2148 27.9ZM59.3013 27.42H58.5213C58.1213 27.58 57.8013 27.86 57.5613 28.26C57.3213 28.62 57.2013 29.02 57.2013 29.46C57.1613 29.74 57.2013 29.98 57.3213 30.18C57.4813 30.34 57.7013 30.54 57.9813 30.78C58.3813 31.1 58.9013 31.44 59.5413 31.8C60.2213 32.16 60.6813 32.4 60.9213 32.52C63.3213 33.84 64.5213 35.36 64.5213 37.08C64.5213 38.68 63.9813 39.92 62.9013 40.8C61.8213 41.68 60.4613 42.12 58.8213 42.12C57.5013 42.12 56.2413 41.82 55.0413 41.22C53.8813 40.58 53.0413 39.78 52.5213 38.82C52.3613 38.42 52.2812 38.12 52.2812 37.92C52.2812 37.56 52.3813 37.22 52.5813 36.9C52.7813 36.54 53.0413 36.28 53.3613 36.12C53.6813 36 53.9813 35.94 54.2612 35.94C54.6213 35.94 54.9613 36.04 55.2813 36.24C55.6413 36.44 55.9013 36.7 56.0613 37.02C56.2613 37.46 56.6213 37.78 57.1413 37.98C57.6613 38.14 58.2413 38.2 58.8813 38.16C60.0013 38.16 60.5613 37.8 60.5613 37.08C60.5613 37.04 60.5413 37 60.5013 36.96C60.4613 36.92 60.4213 36.88 60.3813 36.84L59.9013 36.48L57.9213 35.4C56.4413 34.56 55.2813 33.7 54.4413 32.82C53.6413 31.9 53.2413 30.78 53.2413 29.46C53.2413 28.18 53.6213 27 54.3813 25.92C55.1813 24.8 56.1813 24.04 57.3813 23.64C57.5413 23.6 57.8013 23.56 58.1613 23.52C58.5613 23.44 58.9813 23.4 59.4213 23.4C60.1013 23.4 60.7213 23.52 61.2813 23.76C62.1213 24.24 62.5413 24.9 62.5413 25.74C62.5413 26.38 62.3213 26.92 61.8813 27.36C61.4413 27.76 60.9213 27.92 60.3213 27.84C59.9213 27.76 59.5813 27.62 59.3013 27.42Z" fill="white"/>
</svg>
