<svg width="98" height="44" viewBox="0 0 98 44" fill="none" xmlns="http://www.w3.org/2000/svg">
<path d="M18.91 12.66C18.75 13.06 18.49 13.38 18.13 13.62C17.81 13.82 17.45 13.92 17.05 13.92C16.73 13.92 16.49 13.88 16.33 13.8C15.93 13.64 15.61 13.4 15.37 13.08C15.17 12.76 15.07 12.4 15.07 12C15.07 11.84 15.11 11.6 15.19 11.28C15.39 10.68 15.49 10.16 15.49 9.72C15.49 8.72 15.21 7.8 14.65 6.96C14.13 6.08 13.45 5.48 12.61 5.16C11.93 4.88 11.23 4.74 10.51 4.74C9.07 4.74 7.85 5.24 6.85 6.24C5.85 7.2 5.35 8.38 5.35 9.78C5.35 10.1 5.37 10.34 5.41 10.5C5.61 11.82 6.07 13.06 6.79 14.22C7.51 15.38 8.47 16.56 9.67 17.76C10.15 18.28 10.73 18.86 11.41 19.5C12.13 20.14 12.69 20.64 13.09 21C14.85 22.6 16.11 23.8 16.87 24.6C18.59 26.48 19.45 28.84 19.45 31.68C19.45 32.92 19.27 34.14 18.91 35.34C18.31 37.22 17.31 38.82 15.91 40.14C14.55 41.46 12.95 42.24 11.11 42.48C10.39 42.56 9.85 42.6 9.49 42.6C6.89 42.6 4.69 41.8 2.89 40.2C1.13 38.56 0.25 36.46 0.25 33.9C0.25 32.1 0.75 30.48 1.75 29.04C2.79 27.56 4.29 26.46 6.25 25.74C6.41 25.66 6.65 25.62 6.97 25.62C7.37 25.62 7.73 25.74 8.05 25.98C8.37 26.18 8.61 26.48 8.77 26.88C8.85 27.04 8.89 27.28 8.89 27.6C8.89 28 8.77 28.38 8.53 28.74C8.33 29.06 8.03 29.3 7.63 29.46C6.55 29.86 5.71 30.46 5.11 31.26C4.51 32.02 4.21 32.9 4.21 33.9C4.21 35.3 4.71 36.44 5.71 37.32C6.75 38.2 8.03 38.64 9.55 38.64C9.99 38.64 10.33 38.62 10.57 38.58C11.65 38.42 12.59 37.94 13.39 37.14C14.19 36.3 14.77 35.3 15.13 34.14C15.37 33.34 15.49 32.52 15.49 31.68C15.49 29.92 14.97 28.46 13.93 27.3C13.01 26.3 11.73 25.08 10.09 23.64C7.93 21.6 6.83 20.56 6.79 20.52C5.11 18.8 3.79 17.08 2.83 15.36C1.87 13.6 1.39 11.72 1.39 9.72C1.39 8.08 1.79 6.58 2.59 5.22C3.39 3.86 4.47 2.78 5.83 1.98C7.23 1.18 8.73 0.779998 10.33 0.779998C11.53 0.779998 12.77 1.02 14.05 1.5C15.57 2.1 16.85 3.2 17.89 4.8C18.93 6.36 19.45 8.04 19.45 9.84C19.45 10.8 19.27 11.74 18.91 12.66ZM30.3606 32.94L29.7606 31.5C29.5606 31.7 29.3006 32.12 28.9806 32.76C28.5406 33.72 28.1206 34.9 27.7206 36.3L27.3006 37.62C26.7806 39.26 26.4606 40.26 26.3406 40.62C26.2606 41.02 26.0206 41.36 25.6206 41.64C25.3006 41.88 24.8806 42 24.3606 42C24.0006 41.96 23.6806 41.88 23.4006 41.76C23.1606 41.6 22.9406 41.32 22.7406 40.92C22.7006 40.88 22.6606 40.82 22.6206 40.74C22.5806 40.66 22.5406 40.52 22.5006 40.32L22.4406 39.54C21.9606 35.74 21.4006 31.16 20.7606 25.8C20.1606 20.44 19.7206 16.64 19.4406 14.4C19.3606 13.84 19.5206 13.34 19.9206 12.9C20.2806 12.42 20.7606 12.18 21.3606 12.18C21.8406 12.18 22.2806 12.34 22.6806 12.66C23.0806 12.98 23.3006 13.4 23.3406 13.92L25.3806 31.14L25.4406 31.02C26.3206 29.26 27.3606 28.12 28.5606 27.6C28.9606 27.4 29.4206 27.3 29.9406 27.3C30.1406 27.3 30.4406 27.34 30.8406 27.42C31.7606 27.66 32.5206 28.3 33.1206 29.34C33.8806 30.58 34.3806 32.18 34.6206 34.14C34.8606 36.1 35.0006 37.18 35.0406 37.38C35.1206 37.98 34.9606 38.5 34.5606 38.94C34.1606 39.38 33.6406 39.6 33.0006 39.6C32.5606 39.6 32.1406 39.46 31.7406 39.18C31.3806 38.86 31.1806 38.46 31.1406 37.98C31.1006 37.74 31.0206 37.1 30.9006 36.06C30.7806 34.98 30.6006 33.94 30.3606 32.94ZM47.3866 27.54L48.1066 27.78L48.4666 27C48.7866 26.28 49.3266 25.92 50.0866 25.92C50.4066 25.92 50.7066 25.98 50.9866 26.1C51.3066 26.22 51.5266 26.32 51.6466 26.4C52.0866 26.92 52.3266 27.52 52.3666 28.2C52.3666 28.68 52.2866 29.28 52.1266 30C52.0066 30.68 51.9266 31.08 51.8866 31.2L51.5266 33.54C51.1666 35.42 50.9866 36.98 50.9866 38.22C50.9866 38.62 51.0266 39.14 51.1066 39.78C51.1866 40.34 51.0466 40.84 50.6866 41.28C50.3666 41.68 49.9466 41.92 49.4266 42C48.8666 42.08 48.3666 41.94 47.9266 41.58C47.4866 41.22 47.2466 40.78 47.2066 40.26C47.1266 39.46 47.0866 38.86 47.0866 38.46V37.8C46.1666 38.92 45.2666 39.78 44.3866 40.38C43.3466 41.1 42.3066 41.46 41.2666 41.46C40.7866 41.46 40.4266 41.42 40.1866 41.34C39.1066 41.06 38.2066 40.42 37.4866 39.42C36.6466 38.3 36.2266 37.02 36.2266 35.58C36.2266 34.26 36.5666 33.02 37.2466 31.86C37.8466 30.78 38.6466 29.86 39.6466 29.1C40.6866 28.3 41.7866 27.76 42.9466 27.48C43.3466 27.4 44.1266 27.36 45.2866 27.36C46.0866 27.36 46.7866 27.42 47.3866 27.54ZM46.4866 31.62C46.4866 31.62 46.4066 31.54 46.2466 31.38L45.5266 31.26C44.6866 31.26 44.1066 31.3 43.7866 31.38C43.1866 31.5 42.6066 31.8 42.0466 32.28C41.4866 32.72 41.0266 33.24 40.6666 33.84C40.3466 34.4 40.1866 34.98 40.1866 35.58C40.1866 36.14 40.3466 36.64 40.6666 37.08C40.8666 37.36 41.0466 37.5 41.2066 37.5C41.3666 37.54 41.5866 37.46 41.8666 37.26C42.4266 36.98 43.1066 36.4 43.9066 35.52C45.0266 34.16 45.8466 32.92 46.3666 31.8L46.4866 31.62ZM68.3903 24.06C68.4703 24.34 68.5103 24.84 68.5103 25.56C68.5103 27.04 68.0903 29.26 67.2503 32.22C67.1703 32.62 66.9303 32.96 66.5303 33.24C66.1703 33.52 65.7703 33.66 65.3303 33.66C64.7703 33.66 64.3103 33.48 63.9503 33.12C63.5903 32.72 63.4103 32.26 63.4103 31.74C63.4103 31.46 63.4303 31.26 63.4703 31.14C63.6303 30.66 63.8103 29.96 64.0103 29.04C64.2503 28.12 64.4303 27.24 64.5503 26.4V26.16C63.7103 26.8 62.8703 27.86 62.0303 29.34C61.3503 30.58 60.5703 32.48 59.6903 35.04C59.4903 35.64 59.2303 36.58 58.9103 37.86L58.3703 39.9H58.4303C58.3903 39.98 58.3503 40.1 58.3103 40.26C58.2703 40.38 58.2103 40.52 58.1303 40.68C58.0103 41.08 57.8503 41.34 57.6503 41.46C57.2903 41.86 56.8503 42.06 56.3303 42.06C56.0903 42.06 55.9103 42.04 55.7903 42C55.0703 41.8 54.5703 41.34 54.2903 40.62C54.1303 40.18 54.0503 38.9 54.0503 36.78L53.6903 27.54L53.5703 24.42C53.5703 23.86 53.7503 23.38 54.1103 22.98C54.5103 22.58 54.9703 22.38 55.4903 22.38C56.0503 22.34 56.5303 22.52 56.9303 22.92C57.3303 23.28 57.5303 23.72 57.5303 24.24L57.6503 27.36L57.7103 29.16C58.2303 28.04 58.7703 27.04 59.3303 26.16C60.6503 24.2 62.1503 22.82 63.8303 22.02C64.4303 21.74 65.0103 21.6 65.5703 21.6C65.8903 21.6 66.2903 21.68 66.7703 21.84C67.6103 22.28 68.1503 23.02 68.3903 24.06ZM58.4303 39.84V39.9V39.84ZM73.5377 34.8L73.1777 34.86C73.2977 35.82 73.5177 36.58 73.8377 37.14C74.1177 37.74 74.4577 38.1 74.8577 38.22C74.9777 38.26 75.1377 38.28 75.3377 38.28C75.9777 38.28 76.7977 37.86 77.7977 37.02C78.1177 36.74 78.5177 36.6 78.9977 36.6C79.6377 36.6 80.1577 36.84 80.5577 37.32C80.8377 37.64 80.9777 38.06 80.9777 38.58C80.9777 39.22 80.7377 39.72 80.2577 40.08C78.4977 41.52 76.7977 42.24 75.1577 42.24C73.3177 42.24 71.8377 41.36 70.7177 39.6C69.6377 37.84 69.0977 35.68 69.0977 33.12C69.0977 31.72 69.2577 30.38 69.5777 29.1C69.9377 27.78 70.4177 26.68 71.0177 25.8C72.2577 24 73.7977 23.1 75.6377 23.1C75.9977 23.1 76.2577 23.12 76.4177 23.16C77.3377 23.32 78.0177 23.68 78.4577 24.24C78.9777 24.72 79.2577 25.36 79.2977 26.16C79.4177 26.88 79.2577 27.88 78.8177 29.16C78.3777 30.36 77.8177 31.4 77.1377 32.28C76.4577 33.12 75.8177 33.74 75.2177 34.14C75.0177 34.3 74.7177 34.44 74.3177 34.56C73.9177 34.68 73.6577 34.76 73.5377 34.8ZM75.0977 27.9L75.2777 27.12C74.7177 27.32 74.2577 27.86 73.8977 28.74C73.6177 29.26 73.4177 29.9 73.2977 30.66C73.6577 30.3 73.9177 30 74.0777 29.76C74.3177 29.44 74.6577 28.82 75.0977 27.9ZM92.4241 28.14L92.9641 28.8L92.1841 8.22C92.1841 7.66 92.3641 7.18 92.7241 6.78C93.1241 6.38 93.5841 6.18 94.1041 6.18C94.6641 6.14 95.1441 6.32 95.5441 6.72C95.9441 7.08 96.1441 7.54 96.1441 8.1C96.2641 10.82 96.4641 15.92 96.7441 23.4C97.0241 30.84 97.2041 34.94 97.2841 35.7C97.2841 36.06 97.3241 36.64 97.4041 37.44C97.5241 37.92 97.5841 38.3 97.5841 38.58C97.5841 38.86 97.5641 39.06 97.5241 39.18C97.4041 39.82 97.0041 40.28 96.3241 40.56L95.9041 40.68C94.3441 42.24 92.6441 43.02 90.8041 43.02C89.0041 43.02 87.3841 42.36 85.9441 41.04C84.7841 40 83.8641 38.72 83.1841 37.2C82.5041 35.68 82.1641 34.12 82.1641 32.52C82.1641 30.4 82.7041 28.78 83.7841 27.66C84.8641 26.54 86.1441 25.98 87.6241 25.98C89.3041 25.98 90.9041 26.7 92.4241 28.14ZM90.8041 39.06C91.5241 39.06 92.2641 38.7 93.0241 37.98C92.7441 37.26 92.5241 36.62 92.3641 36.06C92.2441 35.78 92.0841 35.34 91.8841 34.74C91.6841 34.1 91.4641 33.58 91.2241 33.18C90.5841 32.14 90.0441 31.4 89.6041 30.96C88.9241 30.28 88.2841 29.94 87.6841 29.94C87.2441 29.94 86.9041 30.1 86.6641 30.42C86.4241 30.74 86.2641 31.18 86.1841 31.74C86.1441 31.94 86.1241 32.24 86.1241 32.64C86.1241 33.64 86.3441 34.64 86.7841 35.64C87.2241 36.6 87.8041 37.42 88.5241 38.1C89.3241 38.74 90.0841 39.06 90.8041 39.06Z" fill="white"/>
</svg>
