<svg width="66" height="41" viewBox="0 0 66 41" fill="none" xmlns="http://www.w3.org/2000/svg">
<path d="M10.69 31.82L10.75 32.06L10.81 31.94C12.01 29.54 13.41 26.16 15.01 21.8C16.65 17.4 18.09 13.34 19.33 9.62C20.57 5.9 21.37 3.5 21.73 2.42C21.89 1.98 22.13 1.64 22.45 1.4C22.81 1.16 23.19 1.04 23.59 1.04C23.75 1.04 23.95 1.08 24.19 1.16C24.63 1.28 24.97 1.52 25.21 1.88C25.45 2.2 25.57 2.58 25.57 3.02C25.57 3.3 25.55 3.5 25.51 3.62C25.15 4.7 24.33 7.14 23.05 10.94C21.77 14.74 20.29 18.86 18.61 23.3C16.97 27.74 15.55 31.2 14.35 33.68C13.87 34.72 13.39 35.58 12.91 36.26C12.43 36.94 12.01 37.38 11.65 37.58C11.21 37.86 10.77 38 10.33 38C10.05 38 9.85 37.98 9.73 37.94C9.17 37.74 8.73 37.4 8.41 36.92C7.93 36.2 7.43 34.86 6.91 32.9C6.15 30.34 5.27 26.84 4.27 22.4C3.31 17.92 2.45 13.82 1.69 10.1C0.97 6.38 0.51 3.98 0.31 2.9C0.19 2.38 0.29 1.9 0.61 1.46C0.93 0.979997 1.35 0.699997 1.87 0.619998C2.39 0.499998 2.87 0.599998 3.31 0.919998C3.79 1.2 4.07 1.62 4.15 2.18C4.35 3.26 4.81 5.64 5.53 9.32C6.29 12.96 7.15 16.98 8.11 21.38C9.11 25.78 9.97 29.26 10.69 31.82ZM28.2906 14.54C28.2906 15.06 28.0906 15.52 27.6906 15.92C27.3306 16.28 26.8706 16.46 26.3106 16.46C25.8706 16.46 25.4506 16.32 25.0506 16.04C24.6906 15.72 24.4706 15.32 24.3906 14.84C24.3906 14.2 24.4906 13.7 24.6906 13.34C24.9306 12.94 25.3706 12.68 26.0106 12.56C26.6106 12.48 27.1306 12.64 27.5706 13.04C28.0506 13.4 28.2906 13.9 28.2906 14.54ZM24.4506 21.62C24.4506 21.06 24.6506 20.6 25.0506 20.24C25.4506 19.84 25.9106 19.64 26.4306 19.64C26.9906 19.64 27.4506 19.84 27.8106 20.24C28.2106 20.64 28.4106 21.12 28.4106 21.68C28.4106 22.8 28.4306 25.06 28.4706 28.46C28.5106 31.86 28.6506 34.28 28.8906 35.72C28.9706 36.28 28.8506 36.78 28.5306 37.22C28.2106 37.66 27.7906 37.92 27.2706 38C26.7106 38.08 26.2106 37.96 25.7706 37.64C25.3306 37.28 25.0706 36.84 24.9906 36.32C24.7506 34.8 24.5906 32.28 24.5106 28.76C24.4706 25.2 24.4506 22.82 24.4506 21.62ZM34.5142 30.8L34.1542 30.86C34.2742 31.82 34.4942 32.58 34.8142 33.14C35.0942 33.74 35.4342 34.1 35.8342 34.22C35.9542 34.26 36.1142 34.28 36.3142 34.28C36.9542 34.28 37.7742 33.86 38.7742 33.02C39.0942 32.74 39.4942 32.6 39.9742 32.6C40.6142 32.6 41.1342 32.84 41.5342 33.32C41.8142 33.64 41.9542 34.06 41.9542 34.58C41.9542 35.22 41.7142 35.72 41.2342 36.08C39.4742 37.52 37.7742 38.24 36.1342 38.24C34.2942 38.24 32.8142 37.36 31.6942 35.6C30.6142 33.84 30.0742 31.68 30.0742 29.12C30.0742 27.72 30.2342 26.38 30.5542 25.1C30.9142 23.78 31.3942 22.68 31.9942 21.8C33.2342 20 34.7742 19.1 36.6142 19.1C36.9742 19.1 37.2342 19.12 37.3942 19.16C38.3142 19.32 38.9942 19.68 39.4342 20.24C39.9542 20.72 40.2342 21.36 40.2742 22.16C40.3942 22.88 40.2342 23.88 39.7942 25.16C39.3542 26.36 38.7942 27.4 38.1142 28.28C37.4342 29.12 36.7942 29.74 36.1942 30.14C35.9942 30.3 35.6942 30.44 35.2942 30.56C34.8942 30.68 34.6342 30.76 34.5142 30.8ZM36.0742 23.9L36.2542 23.12C35.6942 23.32 35.2342 23.86 34.8742 24.74C34.5942 25.26 34.3942 25.9 34.2742 26.66C34.6342 26.3 34.8942 26 35.0542 25.76C35.2942 25.44 35.6342 24.82 36.0742 23.9ZM57.1206 34.76C57.2006 35.16 57.3406 35.56 57.5406 35.96L57.9006 35.48C58.3406 34.96 58.7406 34.28 59.1006 33.44C59.6606 32.32 60.1406 30.98 60.5406 29.42C60.9406 27.86 61.1406 26.36 61.1406 24.92C61.1406 23.32 60.7806 22.16 60.0606 21.44C59.7406 21.12 59.5806 20.68 59.5806 20.12C59.5806 19.52 59.7806 19.04 60.1806 18.68C60.5406 18.32 60.9806 18.14 61.5006 18.14C62.1006 18.14 62.5806 18.34 62.9406 18.74C64.3806 20.22 65.1006 22.38 65.1006 25.22C65.1006 26.86 64.8606 28.6 64.3806 30.44C63.9006 32.24 63.3406 33.8 62.7006 35.12C62.0206 36.6 61.2806 37.74 60.4806 38.54C59.5206 39.58 58.4206 40.1 57.1806 40.1C56.0606 40.1 55.1206 39.56 54.3606 38.48C53.8806 37.76 53.5206 36.84 53.2806 35.72V35.66C52.8806 36.26 52.5006 36.74 52.1406 37.1C51.1406 38.1 50.0606 38.6 48.9006 38.6C48.2206 38.6 47.5006 38.4 46.7406 38C45.9006 37.52 45.1806 36.8 44.5806 35.84C44.0206 34.84 43.6406 33.68 43.4406 32.36C43.2406 31.04 43.1406 29.8 43.1406 28.64C43.1406 27.52 43.2006 26.4 43.3206 25.28C43.4406 24.12 43.5406 23.22 43.6206 22.58C43.7406 21.9 43.8206 21.46 43.8606 21.26C43.9406 20.78 44.1606 20.4 44.5206 20.12C44.9206 19.8 45.3406 19.64 45.7806 19.64C46.4206 19.64 46.9406 19.9 47.3406 20.42C47.7406 20.9 47.8806 21.44 47.7606 22.04C47.7206 22.24 47.6406 22.74 47.5206 23.54C47.4006 24.34 47.2806 25.34 47.1606 26.54C47.0806 27.7 47.0606 28.84 47.1006 29.96C47.1806 31.24 47.3806 32.3 47.7006 33.14C47.9806 33.9 48.3006 34.38 48.6606 34.58C48.9006 34.66 49.1206 34.56 49.3206 34.28C49.7606 33.88 50.1406 33.3 50.4606 32.54C51.2606 30.98 51.8606 29.16 52.2606 27.08L52.4406 25.82L52.3806 24.02C52.3806 22.94 52.6006 22.14 53.0406 21.62C53.4806 21.1 54.0406 20.84 54.7206 20.84C55.5206 20.84 56.1006 21.22 56.4606 21.98C56.6206 22.22 56.7006 22.58 56.7006 23.06C56.7006 23.3 56.6406 23.78 56.5206 24.5C56.5206 24.86 56.4806 25.36 56.4006 26V26.18C56.3206 29.78 56.5606 32.64 57.1206 34.76Z" fill="white"/>
</svg>
