<svg width="773" height="68" viewBox="0 0 773 68" fill="none" xmlns="http://www.w3.org/2000/svg">
<path d="M20.952 42.564C21.0293 43.1053 20.9133 43.5887 20.604 44.014C20.3333 44.4393 19.9467 44.6907 19.444 44.768C18.9413 44.884 18.458 44.8067 17.994 44.536C17.5687 44.2267 17.298 43.8013 17.182 43.26C16.834 41.3267 15.616 37.1313 13.528 30.674C12.7933 30.674 12.2327 30.6547 11.846 30.616C11.1887 30.616 10.222 30.5967 8.946 30.558C7.70867 30.5193 6.81933 30.4807 6.278 30.442L4.828 43.318C4.78933 43.8207 4.57667 44.2267 4.19 44.536C3.842 44.8453 3.436 45 2.972 45C2.35333 45 1.85067 44.7873 1.464 44.362C1.07733 43.9367 0.922667 43.4533 1 42.912L4.944 7.474C4.98267 6.97133 5.19533 6.58466 5.582 6.314C5.96867 6.04333 6.452 5.86933 7.032 5.792C7.96 5.792 8.57867 5.94666 8.888 6.256C9.19733 6.52667 9.526 7.10667 9.874 7.996L11.034 11.36C13.818 19.5573 16.0413 26.2273 17.704 31.37C19.4053 36.5127 20.488 40.244 20.952 42.564ZM12.252 26.788L11.382 24.178L8.018 14.376L6.684 26.614L12.252 26.788ZM31.4219 34.734L31.5959 33.052C30.5132 34.4827 29.4886 36.126 28.5219 37.982C27.5939 39.7993 27.0912 40.8047 27.0139 40.998C26.9752 41.0753 26.7819 41.5587 26.4339 42.448C26.0859 43.3373 25.7379 44.014 25.3899 44.478C25.0806 44.8647 24.7519 45.1353 24.4039 45.29C24.0559 45.4833 23.7272 45.5607 23.4179 45.522C22.9152 45.522 22.4899 45.348 22.1419 45C22.0259 44.9227 21.8906 44.7293 21.7359 44.42C21.5812 44.1107 21.5039 43.724 21.5039 43.26C21.4652 42.2547 21.5812 39.896 21.8519 36.184C22.1226 32.4333 22.3159 29.92 22.4319 28.644C22.4706 28.1027 22.6832 27.658 23.0699 27.31C23.4952 26.962 23.9786 26.8073 24.5199 26.846C25.0226 26.8847 25.4479 27.1167 25.7959 27.542C26.1439 27.9287 26.2986 28.3927 26.2599 28.934C26.2212 29.282 26.1439 30.036 26.0279 31.196C25.9506 32.3173 25.8539 33.6707 25.7379 35.256C27.6326 31.9693 29.1406 29.804 30.2619 28.76C31.0739 27.9867 31.9632 27.6387 32.9299 27.716C33.8192 27.8707 34.4959 28.3927 34.9599 29.282C35.2692 30.0553 35.4239 31.1187 35.4239 32.472C35.4239 33.2067 35.3659 34.096 35.2499 35.14C35.1726 35.72 34.7666 37.7307 34.0319 41.172C33.3359 44.5747 32.8526 46.8947 32.5819 48.132C32.5046 48.6347 32.2339 49.0213 31.7699 49.292C31.3446 49.6013 30.8612 49.7173 30.3199 49.64C29.8172 49.524 29.4112 49.234 29.1019 48.77C28.8312 48.3447 28.7539 47.8613 28.8699 47.32C29.1406 46.1213 29.6239 43.8593 30.3199 40.534C31.0159 37.2087 31.3832 35.2753 31.4219 34.734ZM46.4883 31.602L47.0103 32.24L46.2563 12.346C46.2563 11.8047 46.4303 11.3407 46.7783 10.954C47.165 10.5673 47.6096 10.374 48.1123 10.374C48.6536 10.3353 49.1176 10.5093 49.5043 10.896C49.891 11.244 50.0843 11.6887 50.0843 12.23C50.2003 14.8593 50.3936 19.7893 50.6643 27.02C50.935 34.212 51.109 38.1753 51.1863 38.91C51.1863 39.258 51.225 39.8187 51.3023 40.592C51.4183 41.056 51.4763 41.4233 51.4763 41.694C51.4763 41.9647 51.457 42.158 51.4183 42.274C51.3023 42.8927 50.9156 43.3373 50.2583 43.608L49.8523 43.724C48.3443 45.232 46.701 45.986 44.9223 45.986C43.1823 45.986 41.6163 45.348 40.2243 44.072C39.103 43.0667 38.2136 41.8293 37.5563 40.36C36.899 38.8907 36.5703 37.3827 36.5703 35.836C36.5703 33.7867 37.0923 32.2207 38.1363 31.138C39.1803 30.0553 40.4176 29.514 41.8483 29.514C43.4723 29.514 45.019 30.21 46.4883 31.602ZM44.9223 42.158C45.6183 42.158 46.3336 41.81 47.0683 41.114C46.7976 40.418 46.585 39.7993 46.4303 39.258C46.3143 38.9873 46.1596 38.562 45.9663 37.982C45.773 37.3633 45.5603 36.8607 45.3283 36.474C44.7096 35.4687 44.1876 34.7533 43.7623 34.328C43.105 33.6707 42.4863 33.342 41.9063 33.342C41.481 33.342 41.1523 33.4967 40.9203 33.806C40.6883 34.1153 40.5336 34.5407 40.4563 35.082C40.4176 35.2753 40.3983 35.5653 40.3983 35.952C40.3983 36.9187 40.611 37.8853 41.0363 38.852C41.4616 39.78 42.0223 40.5727 42.7183 41.23C43.4916 41.8487 44.2263 42.158 44.9223 42.158ZM76.3044 40.07C76.6911 40.4567 76.8844 40.9207 76.8844 41.462C76.8844 42.0033 76.7104 42.448 76.3624 42.796C74.8931 44.2653 73.4624 45 72.0704 45C70.6397 44.9227 69.4991 44.1493 68.6484 42.68C67.7204 40.94 67.1404 37.7307 66.9084 33.052L64.5884 33.284C64.0471 33.3227 63.5637 33.1487 63.1384 32.762C62.7131 32.3753 62.5004 31.9113 62.5004 31.37C62.5004 30.8673 62.6744 30.442 63.0224 30.094C63.3317 29.746 63.7377 29.5333 64.2404 29.456L66.9084 29.166V27.832C66.9084 27.0973 66.9277 26.556 66.9664 26.208C66.9664 26.0147 66.9857 25.86 67.0244 25.744C66.9857 25.6667 66.9664 25.5893 66.9664 25.512C67.0051 25.4347 67.0244 25.3573 67.0244 25.28C67.1791 24.5067 67.4691 24.062 67.8944 23.946C68.3197 23.7913 68.7644 23.714 69.2284 23.714C70.2337 23.9073 70.7751 24.4873 70.8524 25.454L70.7944 26.44C70.7557 26.7493 70.7364 27.252 70.7364 27.948C70.7364 28.3347 70.7171 28.6247 70.6784 28.818L72.5924 28.644C73.1337 28.5667 73.6171 28.7213 74.0424 29.108C74.4677 29.4947 74.6804 29.978 74.6804 30.558C74.6804 31.022 74.5064 31.4473 74.1584 31.834C73.8491 32.182 73.4624 32.3753 72.9984 32.414L70.7364 32.646C70.8524 35.8553 71.1231 38.2333 71.5484 39.78C71.6257 40.0507 71.7417 40.3407 71.8964 40.65C72.0897 40.9207 72.2057 41.0947 72.2444 41.172L72.5344 40.998C72.6891 40.9207 73.0564 40.6307 73.6364 40.128C73.9844 39.7413 74.4484 39.548 75.0284 39.548C75.5311 39.548 75.9564 39.722 76.3044 40.07ZM87.4273 36.242L86.8473 34.85C86.6539 35.0433 86.4026 35.4493 86.0933 36.068C85.6679 36.996 85.2619 38.1367 84.8753 39.49L84.4693 40.766C83.9666 42.3513 83.6573 43.318 83.5413 43.666C83.4639 44.0527 83.2319 44.3813 82.8453 44.652C82.5359 44.884 82.1299 45 81.6273 45C81.2793 44.9613 80.9699 44.884 80.6993 44.768C80.4673 44.6133 80.2546 44.3427 80.0613 43.956C80.0226 43.9173 79.9839 43.8593 79.9452 43.782C79.9066 43.7047 79.8679 43.5693 79.8293 43.376L79.7713 42.622C79.3073 38.9487 78.7659 34.5213 78.1473 29.34C77.5672 24.1587 77.1419 20.4853 76.8712 18.32C76.7939 17.7787 76.9486 17.2953 77.3352 16.87C77.6832 16.406 78.1473 16.174 78.7273 16.174C79.1913 16.174 79.6166 16.3287 80.0033 16.638C80.3899 16.9473 80.6026 17.3533 80.6413 17.856L82.6133 34.502L82.6713 34.386C83.5219 32.6847 84.5273 31.5827 85.6872 31.08C86.0739 30.8867 86.5186 30.79 87.0213 30.79C87.2146 30.79 87.5046 30.8287 87.8913 30.906C88.7806 31.138 89.5153 31.7567 90.0953 32.762C90.8299 33.9607 91.3133 35.5073 91.5453 37.402C91.7773 39.2967 91.9126 40.3407 91.9513 40.534C92.0286 41.114 91.8739 41.6167 91.4873 42.042C91.1006 42.4673 90.5979 42.68 89.9793 42.68C89.5539 42.68 89.1479 42.5447 88.7613 42.274C88.4133 41.9647 88.2199 41.578 88.1813 41.114C88.1426 40.882 88.0653 40.2633 87.9493 39.258C87.8333 38.214 87.6593 37.2087 87.4273 36.242ZM97.3897 38.04L97.0417 38.098C97.1577 39.026 97.3703 39.7607 97.6797 40.302C97.9503 40.882 98.279 41.23 98.6657 41.346C98.7817 41.3847 98.9363 41.404 99.1297 41.404C99.7483 41.404 100.541 40.998 101.508 40.186C101.817 39.9153 102.204 39.78 102.668 39.78C103.286 39.78 103.789 40.012 104.176 40.476C104.446 40.7853 104.582 41.1913 104.582 41.694C104.582 42.3127 104.35 42.796 103.886 43.144C102.184 44.536 100.541 45.232 98.9557 45.232C97.177 45.232 95.7463 44.3813 94.6637 42.68C93.6197 40.9787 93.0977 38.8907 93.0977 36.416C93.0977 35.0627 93.2523 33.7673 93.5617 32.53C93.9097 31.254 94.3737 30.1907 94.9537 29.34C96.1523 27.6 97.641 26.73 99.4197 26.73C99.7677 26.73 100.019 26.7493 100.174 26.788C101.063 26.9427 101.72 27.2907 102.146 27.832C102.648 28.296 102.919 28.9147 102.958 29.688C103.074 30.384 102.919 31.3507 102.494 32.588C102.068 33.748 101.527 34.7533 100.87 35.604C100.212 36.416 99.5937 37.0153 99.0137 37.402C98.8203 37.5567 98.5303 37.692 98.1437 37.808C97.757 37.924 97.5057 38.0013 97.3897 38.04ZM98.8977 31.37L99.0717 30.616C98.5303 30.8093 98.0857 31.3313 97.7377 32.182C97.467 32.6847 97.2737 33.3033 97.1577 34.038C97.5057 33.69 97.757 33.4 97.9117 33.168C98.1437 32.8587 98.4723 32.2593 98.8977 31.37ZM120.055 27.658C120.132 27.9287 120.171 28.412 120.171 29.108C120.171 30.5387 119.765 32.6847 118.953 35.546C118.875 35.9327 118.643 36.2613 118.257 36.532C117.909 36.8027 117.522 36.938 117.097 36.938C116.555 36.938 116.111 36.764 115.763 36.416C115.415 36.0293 115.241 35.5847 115.241 35.082C115.241 34.8113 115.26 34.618 115.299 34.502C115.453 34.038 115.627 33.3613 115.821 32.472C116.053 31.5827 116.227 30.732 116.343 29.92V29.688C115.531 30.3067 114.719 31.3313 113.907 32.762C113.249 33.9607 112.495 35.7973 111.645 38.272C111.451 38.852 111.2 39.7607 110.891 40.998L110.369 42.97H110.427C110.388 43.0473 110.349 43.1633 110.311 43.318C110.272 43.434 110.214 43.5693 110.137 43.724C110.021 44.1107 109.866 44.362 109.673 44.478C109.325 44.8647 108.899 45.058 108.397 45.058C108.165 45.058 107.991 45.0387 107.875 45C107.179 44.8067 106.695 44.362 106.425 43.666C106.27 43.2407 106.193 42.0033 106.193 39.954L105.845 31.022L105.729 28.006C105.729 27.4647 105.903 27.0007 106.251 26.614C106.637 26.2273 107.082 26.034 107.585 26.034C108.126 25.9953 108.59 26.1693 108.977 26.556C109.363 26.904 109.557 27.3293 109.557 27.832L109.673 30.848L109.731 32.588C110.233 31.5053 110.755 30.5387 111.297 29.688C112.573 27.7933 114.023 26.4593 115.647 25.686C116.227 25.4153 116.787 25.28 117.329 25.28C117.638 25.28 118.025 25.3573 118.489 25.512C119.301 25.9373 119.823 26.6527 120.055 27.658ZM110.427 42.912V42.97V42.912ZM125.03 38.04L124.682 38.098C124.798 39.026 125.011 39.7607 125.32 40.302C125.591 40.882 125.92 41.23 126.306 41.346C126.422 41.3847 126.577 41.404 126.77 41.404C127.389 41.404 128.182 40.998 129.148 40.186C129.458 39.9153 129.844 39.78 130.308 39.78C130.927 39.78 131.43 40.012 131.816 40.476C132.087 40.7853 132.222 41.1913 132.222 41.694C132.222 42.3127 131.99 42.796 131.526 43.144C129.825 44.536 128.182 45.232 126.596 45.232C124.818 45.232 123.387 44.3813 122.304 42.68C121.26 40.9787 120.738 38.8907 120.738 36.416C120.738 35.0627 120.893 33.7673 121.202 32.53C121.55 31.254 122.014 30.1907 122.594 29.34C123.793 27.6 125.282 26.73 127.06 26.73C127.408 26.73 127.66 26.7493 127.814 26.788C128.704 26.9427 129.361 27.2907 129.786 27.832C130.289 28.296 130.56 28.9147 130.598 29.688C130.714 30.384 130.56 31.3507 130.134 32.588C129.709 33.748 129.168 34.7533 128.51 35.604C127.853 36.416 127.234 37.0153 126.654 37.402C126.461 37.5567 126.171 37.692 125.784 37.808C125.398 37.924 125.146 38.0013 125.03 38.04ZM126.538 31.37L126.712 30.616C126.171 30.8093 125.726 31.3313 125.378 32.182C125.108 32.6847 124.914 33.3033 124.798 34.038C125.146 33.69 125.398 33.4 125.552 33.168C125.784 32.8587 126.113 32.2593 126.538 31.37ZM136.791 9.156L135.457 7.648C135.148 7.45466 134.916 7.22266 134.761 6.952C134.606 6.68133 134.529 6.35266 134.529 5.966C134.529 5.23133 134.838 4.69 135.457 4.342C135.766 4.14866 136.095 4.052 136.443 4.052C136.752 4.052 137.12 4.168 137.545 4.4C137.738 4.516 138.086 4.88333 138.589 5.502C139.13 6.082 139.44 6.41067 139.517 6.488C139.904 6.836 140.097 7.28066 140.097 7.822C140.097 8.36333 139.904 8.82733 139.517 9.214C139.169 9.562 138.724 9.736 138.183 9.736C137.642 9.736 137.178 9.54266 136.791 9.156ZM148.028 30.906H147.274C146.888 31.0607 146.578 31.3313 146.346 31.718C146.114 32.066 145.998 32.4527 145.998 32.878C145.96 33.1487 145.998 33.3807 146.114 33.574C146.269 33.7287 146.482 33.922 146.752 34.154C147.139 34.4633 147.642 34.792 148.26 35.14C148.918 35.488 149.362 35.72 149.594 35.836C151.914 37.112 153.074 38.5813 153.074 40.244C153.074 41.7907 152.552 42.9893 151.508 43.84C150.464 44.6907 149.15 45.116 147.564 45.116C146.288 45.116 145.07 44.826 143.91 44.246C142.789 43.6273 141.977 42.854 141.474 41.926C141.32 41.5393 141.242 41.2493 141.242 41.056C141.242 40.708 141.339 40.3793 141.532 40.07C141.726 39.722 141.977 39.4707 142.286 39.316C142.596 39.2 142.886 39.142 143.156 39.142C143.504 39.142 143.833 39.2387 144.142 39.432C144.49 39.6253 144.742 39.8767 144.896 40.186C145.09 40.6113 145.438 40.9207 145.94 41.114C146.443 41.2687 147.004 41.3267 147.622 41.288C148.705 41.288 149.246 40.94 149.246 40.244C149.246 40.2053 149.227 40.1667 149.188 40.128C149.15 40.0893 149.111 40.0507 149.072 40.012L148.608 39.664L146.694 38.62C145.264 37.808 144.142 36.9767 143.33 36.126C142.557 35.2367 142.17 34.154 142.17 32.878C142.17 31.6407 142.538 30.5 143.272 29.456C144.046 28.3733 145.012 27.6387 146.172 27.252C146.327 27.2133 146.578 27.1747 146.926 27.136C147.313 27.0587 147.719 27.02 148.144 27.02C148.802 27.02 149.401 27.136 149.942 27.368C150.754 27.832 151.16 28.47 151.16 29.282C151.16 29.9007 150.948 30.4227 150.522 30.848C150.097 31.2347 149.594 31.3893 149.014 31.312C148.628 31.2347 148.299 31.0993 148.028 30.906ZM176.063 30.152C176.527 31.2733 176.933 32.704 177.281 34.444L178.151 31.66C178.963 29.572 180.007 28.1027 181.283 27.252C181.824 26.904 182.404 26.73 183.023 26.73C183.41 26.73 183.7 26.7687 183.893 26.846C184.821 27.1553 185.517 27.9673 185.981 29.282C186.213 30.0167 186.348 30.906 186.387 31.95C186.464 32.994 186.484 33.7673 186.445 34.27L186.387 36.648C186.31 37.7307 186.271 38.5233 186.271 39.026C186.271 39.6447 186.31 40.5147 186.387 41.636C186.464 42.7573 186.522 43.5887 186.561 44.13C186.716 46.218 186.793 47.5327 186.793 48.074C186.793 48.6153 186.6 49.06 186.213 49.408C185.865 49.7947 185.42 49.988 184.879 49.988C184.376 49.988 183.932 49.814 183.545 49.466C183.197 49.118 183.004 48.6927 182.965 48.19L182.791 45.58C182.52 41.636 182.404 39.1807 182.443 38.214C182.52 37.3633 182.598 36.01 182.675 34.154C182.675 33.1487 182.636 32.2787 182.559 31.544C182.559 31.4667 182.54 31.4087 182.501 31.37C182.346 31.602 182.095 32.1627 181.747 33.052C181.399 33.98 180.935 35.6233 180.355 37.982L180.007 39.49C179.968 39.6447 179.852 40.2247 179.659 41.23C179.466 42.1967 179.234 42.97 178.963 43.55C178.576 44.362 177.996 44.8453 177.223 45C176.759 45.0773 176.295 45 175.831 44.768C175.406 44.536 175.077 44.1107 174.845 43.492C174.69 43.0667 174.555 42.4093 174.439 41.52C174.362 40.592 174.304 40.07 174.265 39.954C173.917 36.7447 173.472 34.3473 172.931 32.762C172.776 32.2593 172.602 31.8533 172.409 31.544C172.177 32.008 172.022 32.3753 171.945 32.646C171.52 33.8833 171.21 35.3913 171.017 37.17C170.824 38.91 170.746 40.5147 170.785 41.984C170.862 43.0667 170.959 43.7433 171.075 44.014C171.191 44.246 171.249 44.5167 171.249 44.826C171.249 45.174 171.152 45.5027 170.959 45.812C170.766 46.1213 170.495 46.3533 170.147 46.508C169.876 46.624 169.606 46.682 169.335 46.682C168.987 46.682 168.639 46.5853 168.291 46.392C167.982 46.1987 167.75 45.9473 167.595 45.638C167.17 44.5553 166.957 42.9507 166.957 40.824C166.957 39.316 167.073 37.7113 167.305 36.01C167.576 34.27 167.904 32.7427 168.291 31.428C168.755 30.152 169.296 29.1273 169.915 28.354C170.611 27.542 171.462 27.136 172.467 27.136C173.163 27.136 173.82 27.4067 174.439 27.948C175.096 28.4507 175.638 29.1853 176.063 30.152ZM198.759 31.022L199.455 31.254L199.803 30.5C200.112 29.804 200.634 29.456 201.369 29.456C201.678 29.456 201.968 29.514 202.239 29.63C202.548 29.746 202.761 29.8427 202.877 29.92C203.302 30.4227 203.534 31.0027 203.573 31.66C203.573 32.124 203.495 32.704 203.341 33.4C203.225 34.0573 203.147 34.444 203.109 34.56L202.761 36.822C202.413 38.6393 202.239 40.1473 202.239 41.346C202.239 41.7327 202.277 42.2353 202.355 42.854C202.432 43.3953 202.297 43.8787 201.949 44.304C201.639 44.6907 201.233 44.9227 200.731 45C200.189 45.0773 199.706 44.942 199.281 44.594C198.855 44.246 198.623 43.8207 198.585 43.318C198.507 42.5447 198.469 41.9647 198.469 41.578V40.94C197.579 42.0227 196.709 42.854 195.859 43.434C194.853 44.13 193.848 44.478 192.843 44.478C192.379 44.478 192.031 44.4393 191.799 44.362C190.755 44.0913 189.885 43.4727 189.189 42.506C188.377 41.4233 187.971 40.186 187.971 38.794C187.971 37.518 188.299 36.3193 188.957 35.198C189.537 34.154 190.31 33.2647 191.277 32.53C192.282 31.7567 193.345 31.2347 194.467 30.964C194.853 30.8867 195.607 30.848 196.729 30.848C197.502 30.848 198.179 30.906 198.759 31.022ZM197.889 34.966C197.889 34.966 197.811 34.8887 197.657 34.734L196.961 34.618C196.149 34.618 195.588 34.6567 195.279 34.734C194.699 34.85 194.138 35.14 193.597 35.604C193.055 36.0293 192.611 36.532 192.263 37.112C191.953 37.6533 191.799 38.214 191.799 38.794C191.799 39.3353 191.953 39.8187 192.263 40.244C192.456 40.5147 192.63 40.65 192.785 40.65C192.939 40.6887 193.152 40.6113 193.423 40.418C193.964 40.1473 194.621 39.5867 195.395 38.736C196.477 37.4213 197.27 36.2227 197.773 35.14L197.889 34.966ZM214.654 34.734L214.828 33.052C213.746 34.4827 212.721 36.126 211.754 37.982C210.826 39.7993 210.324 40.8047 210.246 40.998C210.208 41.0753 210.014 41.5587 209.666 42.448C209.318 43.3373 208.97 44.014 208.622 44.478C208.313 44.8647 207.984 45.1353 207.636 45.29C207.288 45.4833 206.96 45.5607 206.65 45.522C206.148 45.522 205.722 45.348 205.374 45C205.258 44.9227 205.123 44.7293 204.968 44.42C204.814 44.1107 204.736 43.724 204.736 43.26C204.698 42.2547 204.814 39.896 205.084 36.184C205.355 32.4333 205.548 29.92 205.664 28.644C205.703 28.1027 205.916 27.658 206.302 27.31C206.728 26.962 207.211 26.8073 207.752 26.846C208.255 26.8847 208.68 27.1167 209.028 27.542C209.376 27.9287 209.531 28.3927 209.492 28.934C209.454 29.282 209.376 30.036 209.26 31.196C209.183 32.3173 209.086 33.6707 208.97 35.256C210.865 31.9693 212.373 29.804 213.494 28.76C214.306 27.9867 215.196 27.6387 216.162 27.716C217.052 27.8707 217.728 28.3927 218.192 29.282C218.502 30.0553 218.656 31.1187 218.656 32.472C218.656 33.2067 218.598 34.096 218.482 35.14C218.405 35.72 217.999 37.7307 217.264 41.172C216.568 44.5747 216.085 46.8947 215.814 48.132C215.737 48.6347 215.466 49.0213 215.002 49.292C214.577 49.6013 214.094 49.7173 213.552 49.64C213.05 49.524 212.644 49.234 212.334 48.77C212.064 48.3447 211.986 47.8613 212.102 47.32C212.373 46.1213 212.856 43.8593 213.552 40.534C214.248 37.2087 214.616 35.2753 214.654 34.734ZM235.521 43.55C235.521 46.2953 235.308 49.0987 234.883 51.96C234.457 54.8213 233.703 57.1993 232.621 59.094C231.461 61.1047 229.991 62.4193 228.213 63.038C227.594 63.27 226.879 63.386 226.067 63.386C224.636 63.386 223.109 62.98 221.485 62.168C220.75 61.82 220.383 61.2593 220.383 60.486C220.383 59.906 220.576 59.442 220.963 59.094C221.349 58.746 221.794 58.572 222.297 58.572C222.567 58.572 222.857 58.63 223.167 58.746C224.327 59.2873 225.274 59.558 226.009 59.558C227.053 59.558 227.903 59.152 228.561 58.34C229.218 57.5667 229.779 56.484 230.243 55.092C231.325 51.96 231.809 47.726 231.693 42.39L231.577 40.36C231.306 40.7467 230.977 41.1333 230.591 41.52C229.315 42.7187 227.903 43.318 226.357 43.318C225.274 43.318 224.307 42.9507 223.457 42.216C222.606 41.4813 221.929 40.4953 221.427 39.258C220.731 37.5567 220.286 35.6813 220.093 33.632C219.899 31.544 219.803 29.9007 219.803 28.702C219.841 28.1993 220.035 27.774 220.383 27.426C220.769 27.0393 221.233 26.846 221.775 26.846C222.316 26.846 222.761 27.0393 223.109 27.426C223.495 27.8127 223.669 28.2573 223.631 28.76C223.631 29.6107 223.669 30.732 223.747 32.124C223.863 33.516 224.095 34.908 224.443 36.3C224.829 37.5373 225.177 38.388 225.487 38.852C225.757 39.2773 226.028 39.49 226.299 39.49H226.415C226.956 39.49 227.478 39.2387 227.981 38.736C228.909 37.8467 229.682 36.3387 230.301 34.212L230.939 30.732C230.861 30.1907 230.823 29.7267 230.823 29.34C230.823 29.1853 230.842 28.9147 230.881 28.528C230.958 28.1413 231.035 27.89 231.113 27.774C231.577 27.0393 232.253 26.7493 233.143 26.904C233.568 27.02 233.955 27.2713 234.303 27.658C234.689 28.0447 234.902 28.6053 234.941 29.34V29.746C234.941 30.0167 234.902 30.5 234.825 31.196L234.999 33.284C235.076 34.908 235.153 36.0873 235.231 36.822C235.269 37.402 235.327 38.4073 235.405 39.838C235.482 41.23 235.521 42.4673 235.521 43.55ZM230.823 29.224V29.34V29.224ZM258.532 30.152C258.996 31.2733 259.402 32.704 259.75 34.444L260.62 31.66C261.432 29.572 262.476 28.1027 263.752 27.252C264.293 26.904 264.873 26.73 265.492 26.73C265.878 26.73 266.168 26.7687 266.362 26.846C267.29 27.1553 267.986 27.9673 268.45 29.282C268.682 30.0167 268.817 30.906 268.856 31.95C268.933 32.994 268.952 33.7673 268.914 34.27L268.856 36.648C268.778 37.7307 268.74 38.5233 268.74 39.026C268.74 39.6447 268.778 40.5147 268.856 41.636C268.933 42.7573 268.991 43.5887 269.03 44.13C269.184 46.218 269.262 47.5327 269.262 48.074C269.262 48.6153 269.068 49.06 268.682 49.408C268.334 49.7947 267.889 49.988 267.348 49.988C266.845 49.988 266.4 49.814 266.014 49.466C265.666 49.118 265.472 48.6927 265.434 48.19L265.26 45.58C264.989 41.636 264.873 39.1807 264.912 38.214C264.989 37.3633 265.066 36.01 265.144 34.154C265.144 33.1487 265.105 32.2787 265.028 31.544C265.028 31.4667 265.008 31.4087 264.97 31.37C264.815 31.602 264.564 32.1627 264.216 33.052C263.868 33.98 263.404 35.6233 262.824 37.982L262.476 39.49C262.437 39.6447 262.321 40.2247 262.128 41.23C261.934 42.1967 261.702 42.97 261.432 43.55C261.045 44.362 260.465 44.8453 259.692 45C259.228 45.0773 258.764 45 258.3 44.768C257.874 44.536 257.546 44.1107 257.314 43.492C257.159 43.0667 257.024 42.4093 256.908 41.52C256.83 40.592 256.772 40.07 256.734 39.954C256.386 36.7447 255.941 34.3473 255.4 32.762C255.245 32.2593 255.071 31.8533 254.878 31.544C254.646 32.008 254.491 32.3753 254.414 32.646C253.988 33.8833 253.679 35.3913 253.486 37.17C253.292 38.91 253.215 40.5147 253.254 41.984C253.331 43.0667 253.428 43.7433 253.544 44.014C253.66 44.246 253.718 44.5167 253.718 44.826C253.718 45.174 253.621 45.5027 253.428 45.812C253.234 46.1213 252.964 46.3533 252.616 46.508C252.345 46.624 252.074 46.682 251.804 46.682C251.456 46.682 251.108 46.5853 250.76 46.392C250.45 46.1987 250.218 45.9473 250.064 45.638C249.638 44.5553 249.426 42.9507 249.426 40.824C249.426 39.316 249.542 37.7113 249.774 36.01C250.044 34.27 250.373 32.7427 250.76 31.428C251.224 30.152 251.765 29.1273 252.384 28.354C253.08 27.542 253.93 27.136 254.936 27.136C255.632 27.136 256.289 27.4067 256.908 27.948C257.565 28.4507 258.106 29.1853 258.532 30.152ZM279.835 29.34C281.305 29.9587 282.426 30.964 283.199 32.356C284.011 33.748 284.417 35.2753 284.417 36.938C284.417 39.1033 283.76 40.998 282.445 42.622C281.169 44.2073 279.468 45 277.341 45C275.601 45 274.171 44.4973 273.049 43.492C271.928 42.4867 271.155 41.172 270.729 39.548C270.536 38.6587 270.439 37.8273 270.439 37.054C270.439 35.0047 270.923 33.2453 271.889 31.776C272.276 31.196 272.779 30.6933 273.397 30.268C274.016 29.804 274.693 29.456 275.427 29.224C276.007 29.0307 276.703 28.934 277.515 28.934C278.366 28.934 279.139 29.0693 279.835 29.34ZM278.327 32.878C278.095 32.762 277.825 32.704 277.515 32.704C277.206 32.704 276.897 32.762 276.587 32.878C275.891 33.0713 275.408 33.4 275.137 33.864C274.557 34.792 274.267 35.8553 274.267 37.054C274.267 37.5567 274.325 38.0787 274.441 38.62C274.635 39.3547 274.963 39.9733 275.427 40.476C275.891 40.94 276.51 41.172 277.283 41.172C278.327 41.172 279.139 40.7467 279.719 39.896C280.299 39.0453 280.589 38.0593 280.589 36.938C280.589 36.01 280.396 35.198 280.009 34.502C279.661 33.7673 279.101 33.226 278.327 32.878ZM299.889 27.658C299.966 27.9287 300.005 28.412 300.005 29.108C300.005 30.5387 299.599 32.6847 298.787 35.546C298.709 35.9327 298.477 36.2613 298.091 36.532C297.743 36.8027 297.356 36.938 296.931 36.938C296.389 36.938 295.945 36.764 295.597 36.416C295.249 36.0293 295.075 35.5847 295.075 35.082C295.075 34.8113 295.094 34.618 295.133 34.502C295.287 34.038 295.461 33.3613 295.655 32.472C295.887 31.5827 296.061 30.732 296.177 29.92V29.688C295.365 30.3067 294.553 31.3313 293.741 32.762C293.083 33.9607 292.329 35.7973 291.479 38.272C291.285 38.852 291.034 39.7607 290.725 40.998L290.203 42.97H290.261C290.222 43.0473 290.183 43.1633 290.145 43.318C290.106 43.434 290.048 43.5693 289.971 43.724C289.855 44.1107 289.7 44.362 289.507 44.478C289.159 44.8647 288.733 45.058 288.231 45.058C287.999 45.058 287.825 45.0387 287.709 45C287.013 44.8067 286.529 44.362 286.259 43.666C286.104 43.2407 286.027 42.0033 286.027 39.954L285.679 31.022L285.562 28.006C285.562 27.4647 285.737 27.0007 286.085 26.614C286.471 26.2273 286.916 26.034 287.419 26.034C287.96 25.9953 288.424 26.1693 288.811 26.556C289.197 26.904 289.39 27.3293 289.39 27.832L289.507 30.848L289.565 32.588C290.067 31.5053 290.589 30.5387 291.131 29.688C292.407 27.7933 293.857 26.4593 295.481 25.686C296.061 25.4153 296.621 25.28 297.163 25.28C297.472 25.28 297.859 25.3573 298.323 25.512C299.135 25.9373 299.657 26.6527 299.889 27.658ZM290.261 42.912V42.97V42.912ZM304.864 38.04L304.516 38.098C304.632 39.026 304.845 39.7607 305.154 40.302C305.425 40.882 305.754 41.23 306.14 41.346C306.256 41.3847 306.411 41.404 306.604 41.404C307.223 41.404 308.016 40.998 308.982 40.186C309.292 39.9153 309.678 39.78 310.142 39.78C310.761 39.78 311.264 40.012 311.65 40.476C311.921 40.7853 312.056 41.1913 312.056 41.694C312.056 42.3127 311.824 42.796 311.36 43.144C309.659 44.536 308.016 45.232 306.43 45.232C304.652 45.232 303.221 44.3813 302.138 42.68C301.094 40.9787 300.572 38.8907 300.572 36.416C300.572 35.0627 300.727 33.7673 301.036 32.53C301.384 31.254 301.848 30.1907 302.428 29.34C303.627 27.6 305.116 26.73 306.894 26.73C307.242 26.73 307.494 26.7493 307.648 26.788C308.538 26.9427 309.195 27.2907 309.62 27.832C310.123 28.296 310.394 28.9147 310.432 29.688C310.548 30.384 310.394 31.3507 309.968 32.588C309.543 33.748 309.002 34.7533 308.344 35.604C307.687 36.416 307.068 37.0153 306.488 37.402C306.295 37.5567 306.005 37.692 305.618 37.808C305.232 37.924 304.98 38.0013 304.864 38.04ZM306.372 31.37L306.546 30.616C306.005 30.8093 305.56 31.3313 305.212 32.182C304.942 32.6847 304.748 33.3033 304.632 34.038C304.98 33.69 305.232 33.4 305.386 33.168C305.618 32.8587 305.947 32.2593 306.372 31.37ZM344.623 0.919997L343.463 12.056L354.599 8.924L355.411 14.26L344.739 15.13L351.641 24.294L346.653 27.02L341.723 16.87L337.257 27.02L332.095 24.294L338.881 15.13L328.325 14.26L329.137 8.924L340.157 12.056L338.939 0.919997H344.623ZM367.811 34.734L367.985 33.052C366.902 34.4827 365.877 36.126 364.911 37.982C363.983 39.7993 363.48 40.8047 363.403 40.998C363.364 41.0753 363.171 41.5587 362.823 42.448C362.475 43.3373 362.127 44.014 361.779 44.478C361.469 44.8647 361.141 45.1353 360.793 45.29C360.445 45.4833 360.116 45.5607 359.807 45.522C359.304 45.522 358.879 45.348 358.531 45C358.415 44.9227 358.279 44.7293 358.125 44.42C357.97 44.1107 357.893 43.724 357.893 43.26C357.854 42.2547 357.97 39.896 358.241 36.184C358.511 32.4333 358.705 29.92 358.821 28.644C358.859 28.1027 359.072 27.658 359.459 27.31C359.884 26.962 360.367 26.8073 360.909 26.846C361.411 26.8847 361.837 27.1167 362.185 27.542C362.533 27.9287 362.687 28.3927 362.649 28.934C362.61 29.282 362.533 30.036 362.417 31.196C362.339 32.3173 362.243 33.6707 362.127 35.256C364.021 31.9693 365.529 29.804 366.651 28.76C367.463 27.9867 368.352 27.6387 369.319 27.716C370.208 27.8707 370.885 28.3927 371.349 29.282C371.658 30.0553 371.813 31.1187 371.813 32.472C371.813 33.2067 371.755 34.096 371.639 35.14C371.561 35.72 371.155 37.7307 370.421 41.172C369.725 44.5747 369.241 46.8947 368.971 48.132C368.893 48.6347 368.623 49.0213 368.159 49.292C367.733 49.6013 367.25 49.7173 366.709 49.64C366.206 49.524 365.8 49.234 365.491 48.77C365.22 48.3447 365.143 47.8613 365.259 47.32C365.529 46.1213 366.013 43.8593 366.709 40.534C367.405 37.2087 367.772 35.2753 367.811 34.734ZM373.655 43.26L374.003 41.404L373.945 39.49C373.906 39.142 373.887 38.6587 373.887 38.04C373.926 37.228 373.945 36.01 373.945 34.386C373.945 31.2927 373.79 26.73 373.481 20.698L372.959 12.868C372.92 12.3653 373.056 11.9207 373.365 11.534C373.713 11.1473 374.158 10.9153 374.699 10.838C375.202 10.7993 375.646 10.954 376.033 11.302C376.458 11.65 376.71 12.0947 376.787 12.636C376.826 13.2933 376.903 14.434 377.019 16.058C377.135 17.682 377.212 19.1707 377.251 20.524C377.522 24.8933 377.676 28.8373 377.715 32.356C377.87 32.124 378.044 31.8727 378.237 31.602C378.43 31.3313 378.643 31.0607 378.875 30.79C380.344 29.0887 381.891 28.238 383.515 28.238C384.327 28.238 385.12 28.4313 385.893 28.818C387.362 29.5913 388.348 30.8287 388.851 32.53C389.044 33.1487 389.141 33.9607 389.141 34.966C389.141 36.1647 388.967 37.3827 388.619 38.62C388.155 40.128 387.459 41.4427 386.531 42.564C385.642 43.6467 384.598 44.4587 383.399 45C382.432 45.464 381.33 45.696 380.093 45.696C379.165 45.696 378.295 45.5607 377.483 45.29C377.406 45.5993 377.328 45.812 377.251 45.928C377.019 46.624 376.671 47.03 376.207 47.146C375.782 47.3007 375.395 47.3393 375.047 47.262C374.274 47.146 373.771 46.682 373.539 45.87L373.481 45.058C373.481 44.6713 373.539 44.072 373.655 43.26ZM378.237 40.534L378.005 41.404C378.701 41.752 379.397 41.926 380.093 41.926C380.634 41.926 381.214 41.7907 381.833 41.52C383.302 40.824 384.346 39.49 384.965 37.518C385.197 36.822 385.313 36.0293 385.313 35.14C385.313 34.7147 385.294 34.386 385.255 34.154C385.1 33.1487 384.733 32.5107 384.153 32.24C383.921 32.124 383.728 32.066 383.573 32.066C383.032 32.066 382.432 32.472 381.775 33.284C380.538 34.7147 379.358 37.1313 378.237 40.534ZM408.688 30.906H407.934C407.548 31.0607 407.238 31.3313 407.006 31.718C406.774 32.066 406.658 32.4527 406.658 32.878C406.62 33.1487 406.658 33.3807 406.774 33.574C406.929 33.7287 407.142 33.922 407.412 34.154C407.799 34.4633 408.302 34.792 408.92 35.14C409.578 35.488 410.022 35.72 410.254 35.836C412.574 37.112 413.734 38.5813 413.734 40.244C413.734 41.7907 413.212 42.9893 412.168 43.84C411.124 44.6907 409.81 45.116 408.224 45.116C406.948 45.116 405.73 44.826 404.57 44.246C403.449 43.6273 402.637 42.854 402.134 41.926C401.98 41.5393 401.902 41.2493 401.902 41.056C401.902 40.708 401.999 40.3793 402.192 40.07C402.386 39.722 402.637 39.4707 402.946 39.316C403.256 39.2 403.546 39.142 403.816 39.142C404.164 39.142 404.493 39.2387 404.802 39.432C405.15 39.6253 405.402 39.8767 405.556 40.186C405.75 40.6113 406.098 40.9207 406.6 41.114C407.103 41.2687 407.664 41.3267 408.282 41.288C409.365 41.288 409.906 40.94 409.906 40.244C409.906 40.2053 409.887 40.1667 409.848 40.128C409.81 40.0893 409.771 40.0507 409.732 40.012L409.268 39.664L407.354 38.62C405.924 37.808 404.802 36.9767 403.99 36.126C403.217 35.2367 402.83 34.154 402.83 32.878C402.83 31.6407 403.198 30.5 403.932 29.456C404.706 28.3733 405.672 27.6387 406.832 27.252C406.987 27.2133 407.238 27.1747 407.586 27.136C407.973 27.0587 408.379 27.02 408.804 27.02C409.462 27.02 410.061 27.136 410.602 27.368C411.414 27.832 411.82 28.47 411.82 29.282C411.82 29.9007 411.608 30.4227 411.182 30.848C410.757 31.2347 410.254 31.3893 409.674 31.312C409.288 31.2347 408.959 31.0993 408.688 30.906ZM424.269 29.34C425.738 29.9587 426.86 30.964 427.633 32.356C428.445 33.748 428.851 35.2753 428.851 36.938C428.851 39.1033 428.194 40.998 426.879 42.622C425.603 44.2073 423.902 45 421.775 45C420.035 45 418.604 44.4973 417.483 43.492C416.362 42.4867 415.588 41.172 415.163 39.548C414.97 38.6587 414.873 37.8273 414.873 37.054C414.873 35.0047 415.356 33.2453 416.323 31.776C416.71 31.196 417.212 30.6933 417.831 30.268C418.45 29.804 419.126 29.456 419.861 29.224C420.441 29.0307 421.137 28.934 421.949 28.934C422.8 28.934 423.573 29.0693 424.269 29.34ZM422.761 32.878C422.529 32.762 422.258 32.704 421.949 32.704C421.64 32.704 421.33 32.762 421.021 32.878C420.325 33.0713 419.842 33.4 419.571 33.864C418.991 34.792 418.701 35.8553 418.701 37.054C418.701 37.5567 418.759 38.0787 418.875 38.62C419.068 39.3547 419.397 39.9733 419.861 40.476C420.325 40.94 420.944 41.172 421.717 41.172C422.761 41.172 423.573 40.7467 424.153 39.896C424.733 39.0453 425.023 38.0593 425.023 36.938C425.023 36.01 424.83 35.198 424.443 34.502C424.095 33.7673 423.534 33.226 422.761 32.878ZM444.322 27.658C444.399 27.9287 444.438 28.412 444.438 29.108C444.438 30.5387 444.032 32.6847 443.22 35.546C443.143 35.9327 442.911 36.2613 442.524 36.532C442.176 36.8027 441.789 36.938 441.364 36.938C440.823 36.938 440.378 36.764 440.03 36.416C439.682 36.0293 439.508 35.5847 439.508 35.082C439.508 34.8113 439.527 34.618 439.566 34.502C439.721 34.038 439.895 33.3613 440.088 32.472C440.32 31.5827 440.494 30.732 440.61 29.92V29.688C439.798 30.3067 438.986 31.3313 438.174 32.762C437.517 33.9607 436.763 35.7973 435.912 38.272C435.719 38.852 435.467 39.7607 435.158 40.998L434.636 42.97H434.694C434.655 43.0473 434.617 43.1633 434.578 43.318C434.539 43.434 434.481 43.5693 434.404 43.724C434.288 44.1107 434.133 44.362 433.94 44.478C433.592 44.8647 433.167 45.058 432.664 45.058C432.432 45.058 432.258 45.0387 432.142 45C431.446 44.8067 430.963 44.362 430.692 43.666C430.537 43.2407 430.46 42.0033 430.46 39.954L430.112 31.022L429.996 28.006C429.996 27.4647 430.17 27.0007 430.518 26.614C430.905 26.2273 431.349 26.034 431.852 26.034C432.393 25.9953 432.857 26.1693 433.244 26.556C433.631 26.904 433.824 27.3293 433.824 27.832L433.94 30.848L433.998 32.588C434.501 31.5053 435.023 30.5387 435.564 29.688C436.84 27.7933 438.29 26.4593 439.914 25.686C440.494 25.4153 441.055 25.28 441.596 25.28C441.905 25.28 442.292 25.3573 442.756 25.512C443.568 25.9373 444.09 26.6527 444.322 27.658ZM434.694 42.912V42.97V42.912ZM459.332 27.658C459.409 27.9287 459.448 28.412 459.448 29.108C459.448 30.5387 459.042 32.6847 458.23 35.546C458.153 35.9327 457.921 36.2613 457.534 36.532C457.186 36.8027 456.799 36.938 456.374 36.938C455.833 36.938 455.388 36.764 455.04 36.416C454.692 36.0293 454.518 35.5847 454.518 35.082C454.518 34.8113 454.537 34.618 454.576 34.502C454.731 34.038 454.905 33.3613 455.098 32.472C455.33 31.5827 455.504 30.732 455.62 29.92V29.688C454.808 30.3067 453.996 31.3313 453.184 32.762C452.527 33.9607 451.773 35.7973 450.922 38.272C450.729 38.852 450.477 39.7607 450.168 40.998L449.646 42.97H449.704C449.665 43.0473 449.627 43.1633 449.588 43.318C449.549 43.434 449.491 43.5693 449.414 43.724C449.298 44.1107 449.143 44.362 448.95 44.478C448.602 44.8647 448.177 45.058 447.674 45.058C447.442 45.058 447.268 45.0387 447.152 45C446.456 44.8067 445.973 44.362 445.702 43.666C445.547 43.2407 445.47 42.0033 445.47 39.954L445.122 31.022L445.006 28.006C445.006 27.4647 445.18 27.0007 445.528 26.614C445.915 26.2273 446.359 26.034 446.862 26.034C447.403 25.9953 447.867 26.1693 448.254 26.556C448.641 26.904 448.834 27.3293 448.834 27.832L448.95 30.848L449.008 32.588C449.511 31.5053 450.033 30.5387 450.574 29.688C451.85 27.7933 453.3 26.4593 454.924 25.686C455.504 25.4153 456.065 25.28 456.606 25.28C456.915 25.28 457.302 25.3573 457.766 25.512C458.578 25.9373 459.1 26.6527 459.332 27.658ZM449.704 42.912V42.97V42.912ZM475.734 43.55C475.734 46.2953 475.521 49.0987 475.096 51.96C474.67 54.8213 473.916 57.1993 472.834 59.094C471.674 61.1047 470.204 62.4193 468.426 63.038C467.807 63.27 467.092 63.386 466.28 63.386C464.849 63.386 463.322 62.98 461.698 62.168C460.963 61.82 460.596 61.2593 460.596 60.486C460.596 59.906 460.789 59.442 461.176 59.094C461.562 58.746 462.007 58.572 462.51 58.572C462.78 58.572 463.07 58.63 463.38 58.746C464.54 59.2873 465.487 59.558 466.222 59.558C467.266 59.558 468.116 59.152 468.774 58.34C469.431 57.5667 469.992 56.484 470.456 55.092C471.538 51.96 472.022 47.726 471.906 42.39L471.79 40.36C471.519 40.7467 471.19 41.1333 470.804 41.52C469.528 42.7187 468.116 43.318 466.57 43.318C465.487 43.318 464.52 42.9507 463.67 42.216C462.819 41.4813 462.142 40.4953 461.64 39.258C460.944 37.5567 460.499 35.6813 460.306 33.632C460.112 31.544 460.016 29.9007 460.016 28.702C460.054 28.1993 460.248 27.774 460.596 27.426C460.982 27.0393 461.446 26.846 461.988 26.846C462.529 26.846 462.974 27.0393 463.322 27.426C463.708 27.8127 463.882 28.2573 463.844 28.76C463.844 29.6107 463.882 30.732 463.96 32.124C464.076 33.516 464.308 34.908 464.656 36.3C465.042 37.5373 465.39 38.388 465.7 38.852C465.97 39.2773 466.241 39.49 466.512 39.49H466.628C467.169 39.49 467.691 39.2387 468.194 38.736C469.122 37.8467 469.895 36.3387 470.514 34.212L471.152 30.732C471.074 30.1907 471.036 29.7267 471.036 29.34C471.036 29.1853 471.055 28.9147 471.094 28.528C471.171 28.1413 471.248 27.89 471.326 27.774C471.79 27.0393 472.466 26.7493 473.356 26.904C473.781 27.02 474.168 27.2713 474.516 27.658C474.902 28.0447 475.115 28.6053 475.154 29.34V29.746C475.154 30.0167 475.115 30.5 475.038 31.196L475.212 33.284C475.289 34.908 475.366 36.0873 475.444 36.822C475.482 37.402 475.54 38.4073 475.618 39.838C475.695 41.23 475.734 42.4673 475.734 43.55ZM471.036 29.224V29.34V29.224ZM500.543 40.07C500.929 40.4567 501.123 40.9207 501.123 41.462C501.123 42.0033 500.949 42.448 500.601 42.796C499.131 44.2653 497.701 45 496.309 45C494.878 44.9227 493.737 44.1493 492.887 42.68C491.959 40.94 491.379 37.7307 491.147 33.052L488.827 33.284C488.285 33.3227 487.802 33.1487 487.377 32.762C486.951 32.3753 486.739 31.9113 486.739 31.37C486.739 30.8673 486.913 30.442 487.261 30.094C487.57 29.746 487.976 29.5333 488.479 29.456L491.147 29.166V27.832C491.147 27.0973 491.166 26.556 491.205 26.208C491.205 26.0147 491.224 25.86 491.263 25.744C491.224 25.6667 491.205 25.5893 491.205 25.512C491.243 25.4347 491.263 25.3573 491.263 25.28C491.417 24.5067 491.707 24.062 492.133 23.946C492.558 23.7913 493.003 23.714 493.467 23.714C494.472 23.9073 495.013 24.4873 495.091 25.454L495.033 26.44C494.994 26.7493 494.975 27.252 494.975 27.948C494.975 28.3347 494.955 28.6247 494.917 28.818L496.831 28.644C497.372 28.5667 497.855 28.7213 498.281 29.108C498.706 29.4947 498.919 29.978 498.919 30.558C498.919 31.022 498.745 31.4473 498.397 31.834C498.087 32.182 497.701 32.3753 497.237 32.414L494.975 32.646C495.091 35.8553 495.361 38.2333 495.787 39.78C495.864 40.0507 495.98 40.3407 496.135 40.65C496.328 40.9207 496.444 41.0947 496.483 41.172L496.773 40.998C496.927 40.9207 497.295 40.6307 497.875 40.128C498.223 39.7413 498.687 39.548 499.267 39.548C499.769 39.548 500.195 39.722 500.543 40.07ZM511.666 36.242L511.086 34.85C510.892 35.0433 510.641 35.4493 510.332 36.068C509.906 36.996 509.5 38.1367 509.114 39.49L508.708 40.766C508.205 42.3513 507.896 43.318 507.78 43.666C507.702 44.0527 507.47 44.3813 507.084 44.652C506.774 44.884 506.368 45 505.866 45C505.518 44.9613 505.208 44.884 504.938 44.768C504.706 44.6133 504.493 44.3427 504.3 43.956C504.261 43.9173 504.222 43.8593 504.184 43.782C504.145 43.7047 504.106 43.5693 504.068 43.376L504.01 42.622C503.546 38.9487 503.004 34.5213 502.386 29.34C501.806 24.1587 501.38 20.4853 501.11 18.32C501.032 17.7787 501.187 17.2953 501.574 16.87C501.922 16.406 502.386 16.174 502.966 16.174C503.43 16.174 503.855 16.3287 504.242 16.638C504.628 16.9473 504.841 17.3533 504.88 17.856L506.852 34.502L506.91 34.386C507.76 32.6847 508.766 31.5827 509.926 31.08C510.312 30.8867 510.757 30.79 511.26 30.79C511.453 30.79 511.743 30.8287 512.13 30.906C513.019 31.138 513.754 31.7567 514.334 32.762C515.068 33.9607 515.552 35.5073 515.784 37.402C516.016 39.2967 516.151 40.3407 516.19 40.534C516.267 41.114 516.112 41.6167 515.726 42.042C515.339 42.4673 514.836 42.68 514.218 42.68C513.792 42.68 513.386 42.5447 513 42.274C512.652 41.9647 512.458 41.578 512.42 41.114C512.381 40.882 512.304 40.2633 512.188 39.258C512.072 38.214 511.898 37.2087 511.666 36.242ZM521.628 38.04L521.28 38.098C521.396 39.026 521.609 39.7607 521.918 40.302C522.189 40.882 522.517 41.23 522.904 41.346C523.02 41.3847 523.175 41.404 523.368 41.404C523.987 41.404 524.779 40.998 525.746 40.186C526.055 39.9153 526.442 39.78 526.906 39.78C527.525 39.78 528.027 40.012 528.414 40.476C528.685 40.7853 528.82 41.1913 528.82 41.694C528.82 42.3127 528.588 42.796 528.124 43.144C526.423 44.536 524.779 45.232 523.194 45.232C521.415 45.232 519.985 44.3813 518.902 42.68C517.858 40.9787 517.336 38.8907 517.336 36.416C517.336 35.0627 517.491 33.7673 517.8 32.53C518.148 31.254 518.612 30.1907 519.192 29.34C520.391 27.6 521.879 26.73 523.658 26.73C524.006 26.73 524.257 26.7493 524.412 26.788C525.301 26.9427 525.959 27.2907 526.384 27.832C526.887 28.296 527.157 28.9147 527.196 29.688C527.312 30.384 527.157 31.3507 526.732 32.588C526.307 33.748 525.765 34.7533 525.108 35.604C524.451 36.416 523.832 37.0153 523.252 37.402C523.059 37.5567 522.769 37.692 522.382 37.808C521.995 37.924 521.744 38.0013 521.628 38.04ZM523.136 31.37L523.31 30.616C522.769 30.8093 522.324 31.3313 521.976 32.182C521.705 32.6847 521.512 33.3033 521.396 34.038C521.744 33.69 521.995 33.4 522.15 33.168C522.382 32.8587 522.711 32.2593 523.136 31.37ZM549.497 30.906H548.743C548.356 31.0607 548.047 31.3313 547.815 31.718C547.583 32.066 547.467 32.4527 547.467 32.878C547.428 33.1487 547.467 33.3807 547.583 33.574C547.738 33.7287 547.95 33.922 548.221 34.154C548.608 34.4633 549.11 34.792 549.729 35.14C550.386 35.488 550.831 35.72 551.063 35.836C553.383 37.112 554.543 38.5813 554.543 40.244C554.543 41.7907 554.021 42.9893 552.977 43.84C551.933 44.6907 550.618 45.116 549.033 45.116C547.757 45.116 546.539 44.826 545.379 44.246C544.258 43.6273 543.446 42.854 542.943 41.926C542.788 41.5393 542.711 41.2493 542.711 41.056C542.711 40.708 542.808 40.3793 543.001 40.07C543.194 39.722 543.446 39.4707 543.755 39.316C544.064 39.2 544.354 39.142 544.625 39.142C544.973 39.142 545.302 39.2387 545.611 39.432C545.959 39.6253 546.21 39.8767 546.365 40.186C546.558 40.6113 546.906 40.9207 547.409 41.114C547.912 41.2687 548.472 41.3267 549.091 41.288C550.174 41.288 550.715 40.94 550.715 40.244C550.715 40.2053 550.696 40.1667 550.657 40.128C550.618 40.0893 550.58 40.0507 550.541 40.012L550.077 39.664L548.163 38.62C546.732 37.808 545.611 36.9767 544.799 36.126C544.026 35.2367 543.639 34.154 543.639 32.878C543.639 31.6407 544.006 30.5 544.741 29.456C545.514 28.3733 546.481 27.6387 547.641 27.252C547.796 27.2133 548.047 27.1747 548.395 27.136C548.782 27.0587 549.188 27.02 549.613 27.02C550.27 27.02 550.87 27.136 551.411 27.368C552.223 27.832 552.629 28.47 552.629 29.282C552.629 29.9007 552.416 30.4227 551.991 30.848C551.566 31.2347 551.063 31.3893 550.483 31.312C550.096 31.2347 549.768 31.0993 549.497 30.906ZM569.37 32.182C569.486 32.8007 569.544 33.4193 569.544 34.038C569.544 35.7007 569.118 37.3053 568.268 38.852C567.456 40.3987 566.354 41.7133 564.962 42.796C563.608 43.8787 562.12 44.6133 560.496 45L560.612 47.378C560.844 52.482 561.095 56.252 561.366 58.688C561.404 59.2293 561.25 59.6933 560.902 60.08C560.554 60.5053 560.128 60.7373 559.626 60.776C559.084 60.8147 558.601 60.66 558.176 60.312C557.789 59.964 557.576 59.5387 557.538 59.036C557.306 56.832 557.112 54.3767 556.958 51.67C556.842 48.9633 556.764 47.1847 556.726 46.334C556.687 45.5607 556.648 44.594 556.61 43.434C556.571 42.2353 556.494 40.8433 556.378 39.258C556.146 36.3193 555.991 34.1927 555.914 32.878L555.74 30.326C555.701 30.1327 555.682 29.92 555.682 29.688C555.643 29.456 555.643 29.282 555.682 29.166C555.682 28.354 556.01 27.832 556.668 27.6C556.822 27.368 557.093 27.194 557.48 27.078C557.712 27.0007 558.214 26.8847 558.988 26.73C559.8 26.5753 560.67 26.498 561.598 26.498C563.531 26.498 565.213 26.9233 566.644 27.774C568.074 28.6247 568.983 30.094 569.37 32.182ZM560.322 41.056C561.83 40.592 563.106 39.7027 564.15 38.388C565.232 37.0733 565.774 35.6427 565.774 34.096C565.774 31.544 564.401 30.268 561.656 30.268C561.037 30.268 560.341 30.3453 559.568 30.5C559.645 31.428 559.684 32.1433 559.684 32.646C559.916 35.3527 560.07 37.4793 560.148 39.026L560.322 41.056ZM581.479 31.022L582.175 31.254L582.523 30.5C582.833 29.804 583.355 29.456 584.089 29.456C584.399 29.456 584.689 29.514 584.959 29.63C585.269 29.746 585.481 29.8427 585.597 29.92C586.023 30.4227 586.255 31.0027 586.293 31.66C586.293 32.124 586.216 32.704 586.061 33.4C585.945 34.0573 585.868 34.444 585.829 34.56L585.481 36.822C585.133 38.6393 584.959 40.1473 584.959 41.346C584.959 41.7327 584.998 42.2353 585.075 42.854C585.153 43.3953 585.017 43.8787 584.669 44.304C584.36 44.6907 583.954 44.9227 583.451 45C582.91 45.0773 582.427 44.942 582.001 44.594C581.576 44.246 581.344 43.8207 581.305 43.318C581.228 42.5447 581.189 41.9647 581.189 41.578V40.94C580.3 42.0227 579.43 42.854 578.579 43.434C577.574 44.13 576.569 44.478 575.563 44.478C575.099 44.478 574.751 44.4393 574.519 44.362C573.475 44.0913 572.605 43.4727 571.909 42.506C571.097 41.4233 570.691 40.186 570.691 38.794C570.691 37.518 571.02 36.3193 571.677 35.198C572.257 34.154 573.031 33.2647 573.997 32.53C575.003 31.7567 576.066 31.2347 577.187 30.964C577.574 30.8867 578.328 30.848 579.449 30.848C580.223 30.848 580.899 30.906 581.479 31.022ZM580.609 34.966C580.609 34.966 580.532 34.8887 580.377 34.734L579.681 34.618C578.869 34.618 578.309 34.6567 577.999 34.734C577.419 34.85 576.859 35.14 576.317 35.604C575.776 36.0293 575.331 36.532 574.983 37.112C574.674 37.6533 574.519 38.214 574.519 38.794C574.519 39.3353 574.674 39.8187 574.983 40.244C575.177 40.5147 575.351 40.65 575.505 40.65C575.66 40.6887 575.873 40.6113 576.143 40.418C576.685 40.1473 577.342 39.5867 578.115 38.736C579.198 37.4213 579.991 36.2227 580.493 35.14L580.609 34.966ZM598.419 30.906C598.496 31.2153 598.535 31.428 598.535 31.544C598.535 32.0853 598.342 32.5493 597.955 32.936C597.607 33.284 597.162 33.458 596.621 33.458C596.234 33.458 595.867 33.342 595.519 33.11C595.21 32.878 594.978 32.5493 594.823 32.124C594.823 32.0853 594.784 32.008 594.707 31.892C594.668 31.776 594.572 31.6987 594.417 31.66C594.378 31.6213 594.301 31.6407 594.185 31.718C594.069 31.7567 593.992 31.776 593.953 31.776C593.18 32.124 592.561 32.6847 592.097 33.458C591.633 34.1927 591.362 35.0047 591.285 35.894L591.227 36.764C591.227 37.2667 591.285 37.75 591.401 38.214C591.478 38.7553 591.633 39.2773 591.865 39.78C592.329 40.6307 592.735 41.0947 593.083 41.172H593.257C593.489 41.172 593.721 41.114 593.953 40.998C594.456 40.766 594.958 40.3987 595.461 39.896C596.041 39.316 596.563 38.678 597.027 37.982C597.491 37.2473 597.82 36.5707 598.013 35.952C598.129 35.5267 598.342 35.198 598.651 34.966C598.999 34.734 599.386 34.618 599.811 34.618C600.352 34.618 600.797 34.8113 601.145 35.198C601.532 35.5847 601.725 36.0293 601.725 36.532C601.725 36.764 601.706 36.938 601.667 37.054C601.319 38.214 600.681 39.432 599.753 40.708C598.825 41.984 597.839 43.0087 596.795 43.782C595.635 44.594 594.436 45 593.199 45C591.15 45 589.564 43.8207 588.443 41.462C588.018 40.6113 587.747 39.7413 587.631 38.852C587.515 38.156 587.457 37.4407 587.457 36.706C587.457 34.8887 587.882 33.226 588.733 31.718C589.584 30.1713 590.782 29.05 592.329 28.354C593.141 28.006 593.837 27.832 594.417 27.832C594.881 27.832 595.287 27.89 595.635 28.006C596.254 28.1993 596.756 28.528 597.143 28.992C597.568 29.4173 597.878 29.8233 598.071 30.21C598.264 30.558 598.38 30.79 598.419 30.906ZM606.022 38.04L605.674 38.098C605.79 39.026 606.003 39.7607 606.312 40.302C606.583 40.882 606.912 41.23 607.298 41.346C607.414 41.3847 607.569 41.404 607.762 41.404C608.381 41.404 609.174 40.998 610.14 40.186C610.45 39.9153 610.836 39.78 611.3 39.78C611.919 39.78 612.422 40.012 612.808 40.476C613.079 40.7853 613.214 41.1913 613.214 41.694C613.214 42.3127 612.982 42.796 612.518 43.144C610.817 44.536 609.174 45.232 607.588 45.232C605.81 45.232 604.379 44.3813 603.296 42.68C602.252 40.9787 601.73 38.8907 601.73 36.416C601.73 35.0627 601.885 33.7673 602.194 32.53C602.542 31.254 603.006 30.1907 603.586 29.34C604.785 27.6 606.274 26.73 608.052 26.73C608.4 26.73 608.652 26.7493 608.806 26.788C609.696 26.9427 610.353 27.2907 610.778 27.832C611.281 28.296 611.552 28.9147 611.59 29.688C611.706 30.384 611.552 31.3507 611.126 32.588C610.701 33.748 610.16 34.7533 609.502 35.604C608.845 36.416 608.226 37.0153 607.646 37.402C607.453 37.5567 607.163 37.692 606.776 37.808C606.39 37.924 606.138 38.0013 606.022 38.04ZM607.53 31.37L607.704 30.616C607.163 30.8093 606.718 31.3313 606.37 32.182C606.1 32.6847 605.906 33.3033 605.79 34.038C606.138 33.69 606.39 33.4 606.544 33.168C606.776 32.8587 607.105 32.2593 607.53 31.37ZM630.875 22.322C630.875 22.8247 630.682 23.2693 630.295 23.656C629.947 24.004 629.503 24.178 628.961 24.178C628.536 24.178 628.13 24.0427 627.743 23.772C627.395 23.4627 627.183 23.076 627.105 22.612C627.105 21.9933 627.202 21.51 627.395 21.162C627.627 20.7753 628.053 20.524 628.671 20.408C629.251 20.3307 629.754 20.4853 630.179 20.872C630.643 21.22 630.875 21.7033 630.875 22.322ZM627.163 29.166C627.163 28.6247 627.357 28.18 627.743 27.832C628.13 27.4453 628.575 27.252 629.077 27.252C629.619 27.252 630.063 27.4453 630.411 27.832C630.798 28.2187 630.991 28.6827 630.991 29.224C630.991 30.3067 631.011 32.4913 631.049 35.778C631.088 39.0647 631.223 41.404 631.455 42.796C631.533 43.3373 631.417 43.8207 631.107 44.246C630.798 44.6713 630.392 44.9227 629.889 45C629.348 45.0773 628.865 44.9613 628.439 44.652C628.014 44.304 627.763 43.8787 627.685 43.376C627.453 41.9067 627.299 39.4707 627.221 36.068C627.183 32.6267 627.163 30.326 627.163 29.166ZM639.386 30.906H638.632C638.245 31.0607 637.936 31.3313 637.704 31.718C637.472 32.066 637.356 32.4527 637.356 32.878C637.317 33.1487 637.356 33.3807 637.472 33.574C637.626 33.7287 637.839 33.922 638.11 34.154C638.496 34.4633 638.999 34.792 639.618 35.14C640.275 35.488 640.72 35.72 640.952 35.836C643.272 37.112 644.432 38.5813 644.432 40.244C644.432 41.7907 643.91 42.9893 642.866 43.84C641.822 44.6907 640.507 45.116 638.922 45.116C637.646 45.116 636.428 44.826 635.268 44.246C634.146 43.6273 633.334 42.854 632.832 41.926C632.677 41.5393 632.6 41.2493 632.6 41.056C632.6 40.708 632.696 40.3793 632.89 40.07C633.083 39.722 633.334 39.4707 633.644 39.316C633.953 39.2 634.243 39.142 634.514 39.142C634.862 39.142 635.19 39.2387 635.5 39.432C635.848 39.6253 636.099 39.8767 636.254 40.186C636.447 40.6113 636.795 40.9207 637.298 41.114C637.8 41.2687 638.361 41.3267 638.98 41.288C640.062 41.288 640.604 40.94 640.604 40.244C640.604 40.2053 640.584 40.1667 640.546 40.128C640.507 40.0893 640.468 40.0507 640.43 40.012L639.966 39.664L638.052 38.62C636.621 37.808 635.5 36.9767 634.688 36.126C633.914 35.2367 633.528 34.154 633.528 32.878C633.528 31.6407 633.895 30.5 634.63 29.456C635.403 28.3733 636.37 27.6387 637.53 27.252C637.684 27.2133 637.936 27.1747 638.284 27.136C638.67 27.0587 639.076 27.02 639.502 27.02C640.159 27.02 640.758 27.136 641.3 27.368C642.112 27.832 642.518 28.47 642.518 29.282C642.518 29.9007 642.305 30.4227 641.88 30.848C641.454 31.2347 640.952 31.3893 640.372 31.312C639.985 31.2347 639.656 31.0993 639.386 30.906ZM655.488 34.734L655.662 33.052C654.58 34.4827 653.555 36.126 652.588 37.982C651.66 39.7993 651.158 40.8047 651.08 40.998C651.042 41.0753 650.848 41.5587 650.5 42.448C650.152 43.3373 649.804 44.014 649.456 44.478C649.147 44.8647 648.818 45.1353 648.47 45.29C648.122 45.4833 647.794 45.5607 647.484 45.522C646.982 45.522 646.556 45.348 646.208 45C646.092 44.9227 645.957 44.7293 645.802 44.42C645.648 44.1107 645.57 43.724 645.57 43.26C645.532 42.2547 645.648 39.896 645.918 36.184C646.189 32.4333 646.382 29.92 646.498 28.644C646.537 28.1027 646.75 27.658 647.136 27.31C647.562 26.962 648.045 26.8073 648.586 26.846C649.089 26.8847 649.514 27.1167 649.862 27.542C650.21 27.9287 650.365 28.3927 650.326 28.934C650.288 29.282 650.21 30.036 650.094 31.196C650.017 32.3173 649.92 33.6707 649.804 35.256C651.699 31.9693 653.207 29.804 654.328 28.76C655.14 27.9867 656.03 27.6387 656.996 27.716C657.886 27.8707 658.562 28.3927 659.026 29.282C659.336 30.0553 659.49 31.1187 659.49 32.472C659.49 33.2067 659.432 34.096 659.316 35.14C659.239 35.72 658.833 37.7307 658.098 41.172C657.402 44.5747 656.919 46.8947 656.648 48.132C656.571 48.6347 656.3 49.0213 655.836 49.292C655.411 49.6013 654.928 49.7173 654.386 49.64C653.884 49.524 653.478 49.234 653.168 48.77C652.898 48.3447 652.82 47.8613 652.936 47.32C653.207 46.1213 653.69 43.8593 654.386 40.534C655.082 37.2087 655.45 35.2753 655.488 34.734ZM671.541 40.07C671.927 40.4567 672.121 40.9207 672.121 41.462C672.121 42.0033 671.947 42.448 671.599 42.796C670.129 44.2653 668.699 45 667.307 45C665.876 44.9227 664.735 44.1493 663.885 42.68C662.957 40.94 662.377 37.7307 662.145 33.052L659.825 33.284C659.283 33.3227 658.8 33.1487 658.375 32.762C657.949 32.3753 657.737 31.9113 657.737 31.37C657.737 30.8673 657.911 30.442 658.259 30.094C658.568 29.746 658.974 29.5333 659.477 29.456L662.145 29.166V27.832C662.145 27.0973 662.164 26.556 662.203 26.208C662.203 26.0147 662.222 25.86 662.261 25.744C662.222 25.6667 662.203 25.5893 662.203 25.512C662.241 25.4347 662.261 25.3573 662.261 25.28C662.415 24.5067 662.705 24.062 663.131 23.946C663.556 23.7913 664.001 23.714 664.465 23.714C665.47 23.9073 666.011 24.4873 666.089 25.454L666.031 26.44C665.992 26.7493 665.973 27.252 665.973 27.948C665.973 28.3347 665.953 28.6247 665.915 28.818L667.829 28.644C668.37 28.5667 668.853 28.7213 669.279 29.108C669.704 29.4947 669.917 29.978 669.917 30.558C669.917 31.022 669.743 31.4473 669.395 31.834C669.085 32.182 668.699 32.3753 668.235 32.414L665.973 32.646C666.089 35.8553 666.359 38.2333 666.785 39.78C666.862 40.0507 666.978 40.3407 667.133 40.65C667.326 40.9207 667.442 41.0947 667.481 41.172L667.771 40.998C667.925 40.9207 668.293 40.6307 668.873 40.128C669.221 39.7413 669.685 39.548 670.265 39.548C670.767 39.548 671.193 39.722 671.541 40.07ZM690.304 38.04L689.956 38.098C690.072 39.026 690.284 39.7607 690.594 40.302C690.864 40.882 691.193 41.23 691.58 41.346C691.696 41.3847 691.85 41.404 692.044 41.404C692.662 41.404 693.455 40.998 694.422 40.186C694.731 39.9153 695.118 39.78 695.582 39.78C696.2 39.78 696.703 40.012 697.09 40.476C697.36 40.7853 697.496 41.1913 697.496 41.694C697.496 42.3127 697.264 42.796 696.8 43.144C695.098 44.536 693.455 45.232 691.87 45.232C690.091 45.232 688.66 44.3813 687.578 42.68C686.534 40.9787 686.012 38.8907 686.012 36.416C686.012 35.0627 686.166 33.7673 686.476 32.53C686.824 31.254 687.288 30.1907 687.868 29.34C689.066 27.6 690.555 26.73 692.334 26.73C692.682 26.73 692.933 26.7493 693.088 26.788C693.977 26.9427 694.634 27.2907 695.06 27.832C695.562 28.296 695.833 28.9147 695.872 29.688C695.988 30.384 695.833 31.3507 695.408 32.588C694.982 33.748 694.441 34.7533 693.784 35.604C693.126 36.416 692.508 37.0153 691.928 37.402C691.734 37.5567 691.444 37.692 691.058 37.808C690.671 37.924 690.42 38.0013 690.304 38.04ZM691.812 31.37L691.986 30.616C691.444 30.8093 691 31.3313 690.652 32.182C690.381 32.6847 690.188 33.3033 690.072 34.038C690.42 33.69 690.671 33.4 690.826 33.168C691.058 32.8587 691.386 32.2593 691.812 31.37ZM708.561 34.734L708.735 33.052C707.652 34.4827 706.627 36.126 705.661 37.982C704.733 39.7993 704.23 40.8047 704.153 40.998C704.114 41.0753 703.921 41.5587 703.573 42.448C703.225 43.3373 702.877 44.014 702.529 44.478C702.219 44.8647 701.891 45.1353 701.543 45.29C701.195 45.4833 700.866 45.5607 700.557 45.522C700.054 45.522 699.629 45.348 699.281 45C699.165 44.9227 699.029 44.7293 698.875 44.42C698.72 44.1107 698.643 43.724 698.643 43.26C698.604 42.2547 698.72 39.896 698.991 36.184C699.261 32.4333 699.455 29.92 699.571 28.644C699.609 28.1027 699.822 27.658 700.209 27.31C700.634 26.962 701.117 26.8073 701.659 26.846C702.161 26.8847 702.587 27.1167 702.935 27.542C703.283 27.9287 703.437 28.3927 703.399 28.934C703.36 29.282 703.283 30.036 703.167 31.196C703.089 32.3173 702.993 33.6707 702.877 35.256C704.771 31.9693 706.279 29.804 707.401 28.76C708.213 27.9867 709.102 27.6387 710.069 27.716C710.958 27.8707 711.635 28.3927 712.099 29.282C712.408 30.0553 712.563 31.1187 712.563 32.472C712.563 33.2067 712.505 34.096 712.389 35.14C712.311 35.72 711.905 37.7307 711.171 41.172C710.475 44.5747 709.991 46.8947 709.721 48.132C709.643 48.6347 709.373 49.0213 708.909 49.292C708.483 49.6013 708 49.7173 707.459 49.64C706.956 49.524 706.55 49.234 706.241 48.77C705.97 48.3447 705.893 47.8613 706.009 47.32C706.279 46.1213 706.763 43.8593 707.459 40.534C708.155 37.2087 708.522 35.2753 708.561 34.734ZM723.105 29.34C724.574 29.9587 725.696 30.964 726.469 32.356C727.281 33.748 727.687 35.2753 727.687 36.938C727.687 39.1033 727.03 40.998 725.715 42.622C724.439 44.2073 722.738 45 720.611 45C718.871 45 717.44 44.4973 716.319 43.492C715.198 42.4867 714.424 41.172 713.999 39.548C713.806 38.6587 713.709 37.8273 713.709 37.054C713.709 35.0047 714.192 33.2453 715.159 31.776C715.546 31.196 716.048 30.6933 716.667 30.268C717.286 29.804 717.962 29.456 718.697 29.224C719.277 29.0307 719.973 28.934 720.785 28.934C721.636 28.934 722.409 29.0693 723.105 29.34ZM721.597 32.878C721.365 32.762 721.094 32.704 720.785 32.704C720.476 32.704 720.166 32.762 719.857 32.878C719.161 33.0713 718.678 33.4 718.407 33.864C717.827 34.792 717.537 35.8553 717.537 37.054C717.537 37.5567 717.595 38.0787 717.711 38.62C717.904 39.3547 718.233 39.9733 718.697 40.476C719.161 40.94 719.78 41.172 720.553 41.172C721.597 41.172 722.409 40.7467 722.989 39.896C723.569 39.0453 723.859 38.0593 723.859 36.938C723.859 36.01 723.666 35.198 723.279 34.502C722.931 33.7673 722.37 33.226 721.597 32.878ZM732.718 39.78C732.795 40.3213 732.873 40.7467 732.95 41.056C733.259 40.6307 733.472 40.2633 733.588 39.954C734.555 38.1753 735.386 35.778 736.082 32.762C736.314 31.834 736.469 31.0607 736.546 30.442C736.585 30.2487 736.585 30.036 736.546 29.804C736.546 29.5333 736.565 29.3013 736.604 29.108C736.72 28.644 736.875 28.2767 737.068 28.006C737.493 27.542 738.015 27.31 738.634 27.31C739.059 27.31 739.485 27.4647 739.91 27.774C740.529 28.3153 740.838 29.1273 740.838 30.21C740.838 30.79 740.799 31.5053 740.722 32.356C740.645 33.168 740.606 33.69 740.606 33.922L740.49 37.054L740.432 41.926L740.374 44.478C740.374 45.9473 740.432 47.436 740.548 48.944C740.587 49.4853 740.413 49.9493 740.026 50.336C739.639 50.7613 739.175 50.974 738.634 50.974C738.131 50.974 737.687 50.8 737.3 50.452C736.952 50.1427 736.759 49.7367 736.72 49.234C736.604 47.8033 736.546 46.3727 736.546 44.942L736.604 42.448C735.715 43.8013 734.922 44.652 734.226 45C733.762 45.232 733.279 45.348 732.776 45.348C732.196 45.348 731.635 45.1547 731.094 44.768C730.089 44.1107 729.431 42.9893 729.122 41.404C728.929 40.592 728.832 39.5093 728.832 38.156C728.832 37.3053 728.871 36.4547 728.948 35.604C729.025 34.7533 729.064 34.1927 729.064 33.922C729.103 33.5353 729.141 33.052 729.18 32.472C729.257 31.8533 729.315 31.4087 729.354 31.138C729.393 30.6353 729.586 30.2293 729.934 29.92C730.321 29.6107 730.746 29.456 731.21 29.456C731.79 29.456 732.273 29.6687 732.66 30.094C733.047 30.5193 733.201 31.0027 733.124 31.544C733.085 31.776 733.027 32.182 732.95 32.762C732.911 33.3033 732.892 33.7673 732.892 34.154C732.853 34.4633 732.795 35.024 732.718 35.836C732.641 36.6093 732.602 37.3633 732.602 38.098C732.602 38.5233 732.641 39.084 732.718 39.78ZM751.137 31.022C751.678 31.022 752.181 31.0993 752.645 31.254C752.799 30.9447 752.915 30.7513 752.993 30.674C753.418 30.2487 753.94 30.036 754.559 30.036C755.177 30.036 755.68 30.3067 756.067 30.848C756.376 31.2733 756.608 32.0853 756.763 33.284C757.033 35.4493 757.169 38.504 757.169 42.448C757.169 45.812 757.033 48.9827 756.763 51.96C756.453 56.0973 755.854 59.3453 754.965 61.704C754.269 63.7533 753.321 65.2227 752.123 66.112C751.117 66.7693 750.189 67.098 749.339 67.098C748.913 67.098 748.527 67.04 748.179 66.924C747.057 66.6147 746.149 65.938 745.453 64.894C744.989 64.2367 744.583 63.444 744.235 62.516C743.887 61.6267 743.616 60.834 743.423 60.138C743.268 59.4807 743.171 59.0553 743.133 58.862C743.055 58.282 743.21 57.76 743.597 57.296C743.983 56.8707 744.467 56.658 745.047 56.658C745.472 56.658 745.859 56.7933 746.207 57.064C746.593 57.3733 746.825 57.76 746.903 58.224C747.019 58.572 747.193 59.21 747.425 60.138C747.695 61.066 747.966 61.82 748.237 62.4C748.507 62.98 748.836 63.27 749.223 63.27C749.996 63.27 750.711 62.342 751.369 60.486C752.142 58.3207 752.683 55.3627 752.993 51.612C753.225 49.2533 753.341 46.2567 753.341 42.622V40.36C752.645 41.5973 751.852 42.622 750.963 43.434C749.687 44.71 748.314 45.348 746.845 45.348C746.265 45.348 745.685 45.232 745.105 45C743.017 44.1107 741.973 42.622 741.973 40.534C741.973 40.2633 742.011 39.8573 742.089 39.316C742.359 37.924 743.036 36.5127 744.119 35.082C745.24 33.6513 746.477 32.588 747.831 31.892C748.991 31.312 750.093 31.022 751.137 31.022ZM751.659 35.14L751.195 34.85C750.731 34.85 750.189 35.0047 749.571 35.314C748.836 35.7007 748.14 36.2613 747.483 36.996C746.864 37.692 746.4 38.4267 746.091 39.2C745.859 39.7413 745.743 40.128 745.743 40.36C745.743 40.5533 745.801 40.7467 745.917 40.94C746.033 41.172 746.265 41.346 746.613 41.462C746.883 41.578 747.135 41.578 747.367 41.462C747.637 41.3073 747.947 41.056 748.295 40.708C748.952 40.0507 749.551 39.2387 750.093 38.272C750.673 37.3053 751.117 36.4353 751.427 35.662L751.659 35.14ZM767.738 36.242L767.158 34.85C766.964 35.0433 766.713 35.4493 766.404 36.068C765.978 36.996 765.572 38.1367 765.186 39.49L764.78 40.766C764.277 42.3513 763.968 43.318 763.852 43.666C763.774 44.0527 763.542 44.3813 763.156 44.652C762.846 44.884 762.44 45 761.938 45C761.59 44.9613 761.28 44.884 761.01 44.768C760.778 44.6133 760.565 44.3427 760.372 43.956C760.333 43.9173 760.294 43.8593 760.256 43.782C760.217 43.7047 760.178 43.5693 760.14 43.376L760.082 42.622C759.618 38.9487 759.076 34.5213 758.458 29.34C757.878 24.1587 757.452 20.4853 757.182 18.32C757.104 17.7787 757.259 17.2953 757.646 16.87C757.994 16.406 758.458 16.174 759.038 16.174C759.502 16.174 759.927 16.3287 760.314 16.638C760.7 16.9473 760.913 17.3533 760.952 17.856L762.924 34.502L762.982 34.386C763.832 32.6847 764.838 31.5827 765.998 31.08C766.384 30.8867 766.829 30.79 767.332 30.79C767.525 30.79 767.815 30.8287 768.202 30.906C769.091 31.138 769.826 31.7567 770.406 32.762C771.14 33.9607 771.624 35.5073 771.856 37.402C772.088 39.2967 772.223 40.3407 772.262 40.534C772.339 41.114 772.184 41.6167 771.798 42.042C771.411 42.4673 770.908 42.68 770.29 42.68C769.864 42.68 769.458 42.5447 769.072 42.274C768.724 41.9647 768.53 41.578 768.492 41.114C768.453 40.882 768.376 40.2633 768.26 39.258C768.144 38.214 767.97 37.2087 767.738 36.242Z" fill="white"/>
</svg>
